<svg xmlns="http://www.w3.org/2000/svg" version="1.1" xmlns:xlink="http://www.w3.org/1999/xlink" xmlns:svgjs="http://svgjs.com/svgjs" width="512" height="512" x="0" y="0" viewBox="0 0 511.999 511.999" style="enable-background:new 0 0 512 512" xml:space="preserve" class=""><g>
<g xmlns="http://www.w3.org/2000/svg">
	<g>
		<path d="M484.793,100.848c-2.696-4.259-5.299-8.446-7.848-12.548c-5.41-8.705-10.521-16.927-15.847-24.752    c-2.33-3.425-6.997-4.31-10.42-1.98c-3.425,2.331-4.312,6.996-1.98,10.42c5.151,7.568,10.181,15.661,15.507,24.23    c1.613,2.595,3.247,5.225,4.913,7.885c-4.499,0.835-12.258,1.346-22.059,0.251c-12.256-1.369-22.502-4.854-26.716-9.014    c-3.222-9.417-6.016-18.388-8.491-26.343c-5.505-17.694-10.293-33.074-17.325-44.759c13.322,5.299,24.66,12.977,34.866,23.46    c2.89,2.967,7.639,3.033,10.606,0.143c2.968-2.889,3.032-7.638,0.143-10.605C418.795,15.309,393.49,4.075,358.109,0.82    c-0.263-0.03-0.537-0.056-0.842-0.083c-0.017-0.002-0.034-0.004-0.052-0.005c-0.02-0.002-0.037-0.003-0.058-0.005    c-0.002,0-0.004,0-0.006,0c-0.003,0-0.006-0.001-0.009-0.001c-0.328-0.029-0.646-0.055-0.964-0.074    c-31.397-2.599-56.452,2.527-78.826,16.128c-20.067,12.199-35.525,29.445-53.424,49.414c-3.223,3.596-6.514,7.268-9.911,10.994    c-3.92,4.302-3.723,10.296,0.48,14.576c8.057,8.204,30.355,10.075,34.743,10.367c8.184,0.543,21.647,0.547,32.095-3.819    c0.053,0.04,0.112,0.078,0.167,0.117c0.118,0.086,0.24,0.17,0.362,0.255c0.188,0.131,0.38,0.26,0.577,0.388    c0.129,0.084,0.26,0.167,0.394,0.249c0.204,0.126,0.413,0.251,0.625,0.374c0.135,0.078,0.271,0.157,0.409,0.234    c0.228,0.127,0.462,0.251,0.699,0.375c0.133,0.069,0.264,0.14,0.4,0.208c0.273,0.138,0.555,0.272,0.839,0.405    c0.107,0.05,0.211,0.102,0.321,0.152c0.803,0.367,1.647,0.719,2.527,1.055c0.117,0.045,0.238,0.087,0.355,0.131    c0.324,0.121,0.65,0.241,0.983,0.357c0.156,0.055,0.316,0.108,0.475,0.162c0.305,0.104,0.611,0.206,0.923,0.307    c0.172,0.055,0.347,0.11,0.521,0.164c0.306,0.095,0.614,0.189,0.926,0.282c0.181,0.053,0.362,0.107,0.545,0.159    c0.317,0.091,0.637,0.18,0.96,0.268c0.18,0.049,0.359,0.098,0.541,0.146c0.347,0.092,0.698,0.181,1.051,0.269    c0.16,0.04,0.318,0.081,0.479,0.12c0.42,0.102,0.845,0.202,1.273,0.299c0.098,0.022,0.195,0.046,0.294,0.068    c0.538,0.121,1.081,0.238,1.629,0.351c0.043,0.009,0.086,0.017,0.129,0.026c0.495,0.101,0.993,0.2,1.495,0.295    c0.163,0.031,0.327,0.06,0.491,0.09c0.386,0.071,0.772,0.142,1.162,0.209c0.196,0.034,0.393,0.067,0.59,0.1    c0.36,0.061,0.721,0.12,1.083,0.178c0.213,0.034,0.426,0.067,0.639,0.099c0.353,0.054,0.706,0.107,1.06,0.158    c0.216,0.031,0.432,0.062,0.648,0.092c0.362,0.051,0.726,0.099,1.089,0.147c0.207,0.027,0.413,0.054,0.62,0.081    c0.391,0.049,0.784,0.096,1.176,0.142c0.179,0.021,0.358,0.043,0.538,0.063c0.496,0.056,0.992,0.109,1.488,0.16    c0.076,0.008,0.152,0.017,0.228,0.024c0.576,0.058,1.153,0.112,1.729,0.163c0.149,0.013,0.298,0.025,0.447,0.037    c0.423,0.036,0.846,0.071,1.268,0.103c0.206,0.016,0.411,0.03,0.617,0.044c0.364,0.026,0.728,0.052,1.09,0.075    c0.226,0.015,0.452,0.028,0.678,0.041c0.343,0.021,0.686,0.04,1.028,0.058c0.232,0.012,0.463,0.024,0.693,0.035    c0.339,0.016,0.676,0.031,1.012,0.045c0.224,0.009,0.448,0.018,0.672,0.026c0.347,0.013,0.693,0.023,1.038,0.033    c0.212,0.006,0.424,0.013,0.635,0.018c0.373,0.009,0.743,0.016,1.113,0.021c0.176,0.003,0.352,0.007,0.527,0.009    c0.543,0.007,1.083,0.01,1.617,0.01c5.333,0,10.195-0.332,14.01-0.972l-2.071,21.692c-24.983-4.851-54.416-4.844-89.172-4.833    l-5.635,0.001l-5.178-0.001c-17.042-0.007-33.262-0.009-48.09,0.579L171.736,9.684c-1.005-6.259-6.916-10.539-13.184-9.537    l-20.37,3.27c-6.262,1.006-10.541,6.915-9.537,13.17l11.461,71.622l-25.95-54.055c-2.752-5.706-9.64-8.116-15.35-5.373    l-18.604,8.927c-5.693,2.746-8.11,9.617-5.382,15.331L116.09,139c-0.48,0.223-0.96,0.446-1.436,0.672    c-0.412,0.196-0.819,0.396-1.228,0.594c-0.775,0.375-1.545,0.754-2.309,1.137c-0.4,0.201-0.797,0.404-1.194,0.608    c-0.78,0.4-1.555,0.804-2.323,1.213c-0.357,0.19-0.714,0.38-1.069,0.572c-0.834,0.451-1.659,0.909-2.478,1.371    c-0.277,0.156-0.556,0.311-0.831,0.468c-0.985,0.563-1.96,1.134-2.926,1.713c-0.103,0.062-0.209,0.122-0.312,0.185    c-2.232,1.346-4.41,2.735-6.536,4.167c-0.05,0.034-0.1,0.069-0.15,0.103c-0.974,0.658-1.935,1.325-2.887,2.001    c-0.192,0.136-0.381,0.275-0.572,0.412c-0.807,0.579-1.606,1.164-2.396,1.757c-0.244,0.183-0.486,0.367-0.729,0.551    c-0.732,0.556-1.457,1.117-2.174,1.685c-0.265,0.209-0.53,0.419-0.793,0.63c-0.691,0.554-1.374,1.115-2.052,1.68    c-0.267,0.223-0.536,0.444-0.802,0.668c-0.681,0.576-1.352,1.16-2.02,1.748c-0.246,0.217-0.497,0.43-0.741,0.648    c-0.761,0.68-1.513,1.369-2.257,2.065c-0.447,0.417-0.886,0.84-1.327,1.262c-0.502,0.481-1.005,0.961-1.499,1.449    c-0.519,0.513-1.027,1.035-1.537,1.556c-0.286,0.293-0.575,0.583-0.859,0.878c-0.566,0.588-1.123,1.185-1.677,1.783    c-0.204,0.221-0.41,0.44-0.613,0.663c-0.608,0.664-1.208,1.336-1.802,2.012c-0.118,0.135-0.236,0.27-0.354,0.405    c-11.899,13.646-21.096,29.724-27.716,48.401c-0.049,0.139-0.079,0.282-0.12,0.423C29.731,249.11,25.5,278.6,25.5,314.062    c0,53.011,22.755,102.808,64.073,140.217c41.11,37.221,95.72,57.72,153.769,57.72c55.379,0,108.157-18.896,148.612-53.209    c3.158-2.679,3.548-7.412,0.868-10.571c-2.678-3.159-7.411-3.548-10.571-0.869c-37.749,32.017-87.08,49.649-138.909,49.649    c-111.848,0-202.843-82.066-202.843-182.938c0-31.575,3.509-58.308,10.788-80.818c11.667-2.349,19.147-7.769,25.833-12.624    c8.098-5.88,15.091-10.957,29.72-10.957c3.594,0,6.814,0.299,9.843,0.915c4.06,0.823,8.019-1.797,8.843-5.857    c0.824-4.06-1.798-8.018-5.857-8.843c-4.023-0.817-8.22-1.214-12.829-1.214c-19.501,0-29.612,7.342-38.533,13.819    c-3.294,2.392-6.377,4.629-9.837,6.451c0.079-0.168,0.153-0.343,0.233-0.511c0.498-1.039,1.015-2.06,1.534-3.078    c0.264-0.522,0.522-1.05,0.792-1.566c11.051-21,26.796-37.513,47.612-49.913c0.016-0.009,0.031-0.018,0.047-0.028    c1.491-0.887,3.012-1.749,4.555-2.595c0.338-0.185,0.681-0.365,1.021-0.548c1.253-0.674,2.522-1.336,3.809-1.983    c0.199-0.1,0.403-0.195,0.602-0.294c4.252,7.862,16.979,13.804,39.15,18.411c9.269,1.926,19.772,3.495,31.107,4.689    c0.099,0.012,0.198,0.024,0.299,0.031c16.618,1.739,35.032,2.665,54.111,2.665c32.225,0,62.596-2.623,85.518-7.386    c22.162-4.605,34.887-10.544,39.144-18.402c0.237,0.117,0.48,0.23,0.716,0.348c1.046,0.526,2.074,1.067,3.098,1.611    c0.597,0.317,1.197,0.631,1.787,0.954c1.302,0.715,2.584,1.446,3.849,2.191c0.268,0.157,0.538,0.312,0.804,0.47    c19.097,11.416,33.923,26.316,44.754,44.994c0.159,0.275,0.311,0.557,0.468,0.834c0.684,1.2,1.354,2.412,2.006,3.643    c0.527,1.002,1.037,2.021,1.544,3.045c0.265,0.533,0.537,1.058,0.797,1.597c0.12,0.25,0.229,0.51,0.347,0.761    c-3.416-1.81-6.468-4.024-9.729-6.391c-8.923-6.477-19.036-13.818-38.539-13.818s-29.617,7.344-38.539,13.823    c-8.097,5.879-15.09,10.957-29.712,10.957c-14.636,0-21.633-5.079-29.736-10.96c-8.925-6.477-19.04-13.82-38.545-13.82    c-19.502,0-29.615,7.343-38.538,13.822c-8.097,5.88-15.09,10.957-29.713,10.957c-11.341,0-18.121-2.989-24.812-7.477    c-3.441-2.308-8.099-1.39-10.407,2.051c-2.308,3.439-1.39,8.099,2.05,10.406c7.387,4.955,17.105,10.02,33.169,10.02    c19.495,0,29.606-7.342,38.527-13.82c8.099-5.881,15.093-10.96,29.724-10.96c14.635,0,21.632,5.079,29.735,10.959    c8.925,6.478,19.041,13.82,38.546,13.82c19.494,0,29.605-7.342,38.526-13.819c8.099-5.881,15.094-10.96,29.725-10.96    c14.632,0,21.627,5.078,29.727,10.957c6.669,4.841,14.13,10.247,25.745,12.598c7.286,22.516,10.798,49.257,10.798,80.843    c0,40.777-14.56,79.363-42.104,111.585c-2.691,3.148-2.32,7.883,0.828,10.574c1.413,1.208,3.146,1.799,4.869,1.799    c2.117,0,4.222-0.892,5.705-2.627c29.898-34.976,45.702-76.931,45.702-121.331c0-35.44-4.224-64.919-12.853-89.539    c-0.046-0.163-0.082-0.327-0.138-0.487c-6.674-18.819-15.965-34.999-28.004-48.712c-0.01-0.011-0.019-0.022-0.028-0.032    c-0.686-0.781-1.381-1.555-2.085-2.32c-0.097-0.106-0.195-0.21-0.293-0.315c-0.651-0.702-1.306-1.4-1.972-2.089    c-0.157-0.162-0.317-0.322-0.474-0.483c-0.63-0.646-1.262-1.29-1.907-1.924c-0.188-0.185-0.382-0.366-0.571-0.551    c-0.896-0.871-1.805-1.731-2.727-2.58c-0.562-0.518-1.123-1.036-1.695-1.545c-0.312-0.278-0.631-0.549-0.946-0.824    c-0.605-0.53-1.213-1.057-1.829-1.578c-0.304-0.256-0.612-0.509-0.918-0.763c-0.645-0.535-1.295-1.067-1.952-1.593    c-0.289-0.231-0.579-0.459-0.87-0.688c-0.698-0.549-1.402-1.093-2.113-1.631c-0.261-0.197-0.521-0.395-0.784-0.59    c-0.779-0.581-1.567-1.156-2.361-1.724c-0.203-0.145-0.405-0.292-0.609-0.437c-0.947-0.67-1.904-1.332-2.872-1.983    c-0.058-0.039-0.114-0.079-0.172-0.117c-2.132-1.431-4.317-2.818-6.556-4.162c-0.119-0.071-0.24-0.141-0.359-0.212    c-0.95-0.567-1.909-1.127-2.878-1.678c-0.302-0.172-0.608-0.341-0.912-0.511c-0.79-0.443-1.585-0.882-2.389-1.315    c-0.394-0.212-0.79-0.422-1.186-0.632c-0.719-0.38-1.444-0.757-2.173-1.129c-0.458-0.234-0.916-0.467-1.378-0.698    c-0.674-0.337-1.354-0.668-2.037-0.998c-0.51-0.247-1.019-0.495-1.534-0.738c-0.628-0.296-1.264-0.587-1.899-0.878    c-0.574-0.263-1.144-0.529-1.723-0.787c-0.475-0.212-0.959-0.417-1.438-0.626c-0.697-0.304-1.388-0.613-2.094-0.911    c-0.214-0.09-0.43-0.18-0.655-0.271c-0.032-0.013-0.065-0.018-0.098-0.031c-3.5-1.447-7.102-2.731-10.818-3.857l2.296-24.044    c0.022,0.008,0.046,0.015,0.067,0.023c0.168,0.06,0.346,0.119,0.52,0.179c0.378,0.13,0.764,0.26,1.164,0.387    c0.208,0.067,0.42,0.132,0.634,0.198c0.399,0.123,0.809,0.244,1.226,0.363c0.212,0.061,0.42,0.122,0.637,0.182    c0.516,0.143,1.046,0.283,1.586,0.421c0.124,0.032,0.243,0.065,0.369,0.096c0.669,0.168,1.357,0.331,2.059,0.49    c0.2,0.045,0.406,0.089,0.608,0.133c0.513,0.113,1.03,0.225,1.558,0.333c0.265,0.055,0.533,0.108,0.801,0.161    c0.492,0.098,0.99,0.193,1.493,0.286c0.271,0.05,0.541,0.101,0.816,0.15c0.568,0.101,1.143,0.199,1.723,0.295    c0.206,0.034,0.409,0.07,0.617,0.103c0.789,0.126,1.587,0.247,2.394,0.362c0.166,0.024,0.335,0.045,0.501,0.068    c0.648,0.09,1.299,0.176,1.955,0.258c0.27,0.034,0.542,0.065,0.814,0.098c0.569,0.068,1.14,0.133,1.714,0.194    c0.285,0.03,0.57,0.061,0.856,0.089c0.605,0.061,1.211,0.117,1.819,0.171c0.237,0.021,0.473,0.044,0.711,0.063    c0.85,0.071,1.702,0.136,2.553,0.191c0.018,0.001,0.036,0.002,0.055,0.003c0.824,0.053,1.648,0.097,2.47,0.135    c0.245,0.011,0.488,0.02,0.732,0.029c0.605,0.025,1.207,0.045,1.809,0.061c0.276,0.007,0.551,0.013,0.826,0.019    c0.598,0.012,1.193,0.018,1.786,0.021c0.167,0.001,0.336,0.006,0.502,0.006c0.092,0,0.182-0.002,0.273-0.003    c0.361-0.001,0.719-0.006,1.078-0.01c0.345-0.004,0.69-0.008,1.032-0.016c0.355-0.008,0.708-0.019,1.06-0.031    c0.337-0.011,0.674-0.022,1.008-0.037c0.352-0.015,0.7-0.034,1.048-0.053c0.329-0.018,0.656-0.037,0.981-0.059    c0.345-0.023,0.687-0.049,1.028-0.076c0.319-0.025,0.636-0.052,0.95-0.08c0.338-0.031,0.672-0.064,1.004-0.099    c0.311-0.033,0.618-0.067,0.924-0.104c0.325-0.039,0.648-0.079,0.968-0.122c0.303-0.041,0.602-0.084,0.899-0.129    c0.312-0.047,0.622-0.095,0.928-0.146c0.294-0.049,0.582-0.102,0.87-0.155c0.298-0.055,0.594-0.111,0.885-0.17    c0.283-0.058,0.559-0.12,0.836-0.182c0.282-0.063,0.565-0.127,0.84-0.195c0.273-0.067,0.537-0.139,0.802-0.211    c0.263-0.071,0.528-0.142,0.784-0.218c0.264-0.078,0.518-0.162,0.774-0.245c0.242-0.079,0.486-0.156,0.72-0.239    c0.254-0.09,0.496-0.187,0.741-0.282c0.219-0.085,0.442-0.168,0.652-0.258c0.247-0.105,0.48-0.217,0.715-0.328    c0.161-0.076,0.333-0.146,0.489-0.224c9.529,6.111,22.785,8.443,30.942,9.327c1.81,0.196,6.689,0.658,12.45,0.658    c8.156,0,18.08-0.925,23.566-4.84C486.671,111.636,487.908,105.767,484.793,100.848z M138.801,151.651L89.86,49.71l12.292-5.897    l46.273,96.39c0.011,0.024,0,0,0.011,0.024l-0.011-0.024l2.492,15.57C145.646,154.338,141.695,152.922,138.801,151.651z     M166.666,159.256L144.009,17.675l13.469-2.163l23.358,145.94C175.876,160.799,171.139,160.066,166.666,159.256z M335.542,155.833    c-3.971,1.073-8.675,2.156-14.245,3.195c-21.373,3.987-49.058,6.184-77.955,6.184c-16.38,0-32.367-0.707-47.04-2.045    l-3.838-23.981c14.063-0.508,29.494-0.511,45.696-0.505l5.183,0.001l5.641-0.001c34.669-0.012,63.851-0.023,87.733,4.844    L335.542,155.833z M291.394,58.469c-3.821,7.405-8.134,15.755-12.945,24.47c-4.871,3.367-15.568,5.024-27.88,4.247    c-9.838-0.622-17.391-2.47-21.677-4.072c2.102-2.329,4.168-4.634,6.207-6.909c25.856-28.847,46.305-51.634,81.157-58.819    C307.292,27.674,299.897,41.992,291.394,58.469z M341.697,91.023c-2.895,1.142-11.315,2.575-25.333,1.41    c-0.754-0.063-1.491-0.131-2.215-0.203c-0.25-0.025-0.491-0.053-0.737-0.079c-0.47-0.05-0.94-0.099-1.398-0.153    c-0.277-0.032-0.546-0.067-0.818-0.1c-0.412-0.051-0.823-0.102-1.224-0.155c-0.282-0.038-0.557-0.077-0.833-0.116    c-0.379-0.053-0.755-0.107-1.123-0.163c-0.271-0.041-0.539-0.083-0.805-0.125c-0.36-0.057-0.714-0.115-1.064-0.173    c-0.257-0.043-0.512-0.087-0.763-0.131c-0.346-0.061-0.685-0.123-1.021-0.185c-0.236-0.044-0.474-0.088-0.705-0.133    c-0.339-0.066-0.668-0.133-0.995-0.2c-0.211-0.043-0.425-0.086-0.631-0.13c-0.35-0.074-0.687-0.15-1.022-0.225    c-0.167-0.038-0.341-0.075-0.504-0.113c-0.465-0.108-0.917-0.216-1.353-0.326c-0.023-0.006-0.048-0.012-0.072-0.017    c-0.464-0.117-0.909-0.234-1.339-0.351c-0.116-0.032-0.222-0.063-0.335-0.095c-0.305-0.085-0.606-0.17-0.892-0.255    c-0.138-0.041-0.267-0.082-0.401-0.122c-0.247-0.075-0.491-0.15-0.723-0.225c-0.136-0.044-0.266-0.087-0.397-0.131    c-0.214-0.071-0.425-0.142-0.626-0.212c-0.124-0.043-0.244-0.087-0.363-0.13c-0.192-0.069-0.377-0.138-0.555-0.206    c-0.11-0.042-0.218-0.084-0.322-0.125c-0.074-0.029-0.141-0.058-0.213-0.087c4.374-8.009,8.296-15.609,11.812-22.421    c16.899-32.747,25.548-48.035,43.585-49.705L341.697,91.023z M353.86,148.251c-0.594,0.502-1.473,1.108-2.698,1.79l0.252-2.636    C352.236,147.679,353.052,147.96,353.86,148.251z M405.058,97.628c-0.125,0.026-0.254,0.051-0.385,0.077    c-0.172,0.033-0.351,0.066-0.534,0.098c-0.137,0.024-0.276,0.048-0.42,0.071c-0.198,0.032-0.405,0.064-0.614,0.095    c-0.148,0.022-0.294,0.044-0.447,0.065c-0.232,0.032-0.475,0.062-0.72,0.092c-0.147,0.018-0.289,0.037-0.441,0.054    c-0.291,0.033-0.597,0.064-0.905,0.095c-0.122,0.012-0.238,0.025-0.363,0.037c-0.443,0.041-0.901,0.079-1.377,0.114    c-0.026,0.002-0.055,0.003-0.081,0.005c-0.447,0.032-0.909,0.061-1.385,0.086c-0.16,0.009-0.328,0.015-0.491,0.022    c-0.351,0.017-0.705,0.033-1.071,0.046c-0.204,0.007-0.416,0.012-0.625,0.018c-0.34,0.01-0.683,0.018-1.036,0.024    c-0.231,0.004-0.468,0.006-0.704,0.008c-0.345,0.003-0.695,0.006-1.051,0.005c-0.251,0-0.506-0.002-0.763-0.003    c-0.357-0.003-0.72-0.007-1.087-0.014c-0.266-0.005-0.534-0.01-0.805-0.017c-0.377-0.009-0.762-0.022-1.15-0.035    c-0.275-0.01-0.548-0.019-0.828-0.03c-0.404-0.017-0.818-0.038-1.233-0.059c-0.275-0.014-0.547-0.027-0.827-0.043    c-0.464-0.027-0.94-0.06-1.416-0.093c-0.241-0.017-0.477-0.031-0.721-0.049c-0.728-0.055-1.467-0.115-2.222-0.185    c-14.003-1.284-22.049-4.154-24.701-5.777l6.602-75.387c17.473,4.772,23.329,21.326,34.274,56.506    c2.276,7.319,4.816,15.484,7.73,24.13C405.193,97.599,405.129,97.613,405.058,97.628z" fill="#000000" data-original="#000000"></path>
	</g>
</g>
<g xmlns="http://www.w3.org/2000/svg">
</g>
<g xmlns="http://www.w3.org/2000/svg">
</g>
<g xmlns="http://www.w3.org/2000/svg">
</g>
<g xmlns="http://www.w3.org/2000/svg">
</g>
<g xmlns="http://www.w3.org/2000/svg">
</g>
<g xmlns="http://www.w3.org/2000/svg">
</g>
<g xmlns="http://www.w3.org/2000/svg">
</g>
<g xmlns="http://www.w3.org/2000/svg">
</g>
<g xmlns="http://www.w3.org/2000/svg">
</g>
<g xmlns="http://www.w3.org/2000/svg">
</g>
<g xmlns="http://www.w3.org/2000/svg">
</g>
<g xmlns="http://www.w3.org/2000/svg">
</g>
<g xmlns="http://www.w3.org/2000/svg">
</g>
<g xmlns="http://www.w3.org/2000/svg">
</g>
<g xmlns="http://www.w3.org/2000/svg">
</g>
</g></svg>
