<svg width="260" height="219" viewBox="0 0 260 219" fill="none" xmlns="http://www.w3.org/2000/svg">
<path d="M119.314 2.00249C187.084 -3.8345 187.216 33.155 217.761 67.5866C248.307 102.018 254.838 117.666 243.328 157.382C231.818 197.099 193.009 228.235 145.007 210.593C97.0045 192.951 69.5084 209.91 39.2358 194.251C8.96329 178.593 -2.30079 148.315 19.8776 112.648C42.0559 76.9816 35.7216 9.20035 119.314 2.00249Z" fill="#00BF6D"/>
<path opacity="0.7" d="M119.314 2.00249C187.084 -3.8345 187.216 33.155 217.761 67.5866C248.307 102.018 254.838 117.666 243.328 157.382C231.818 197.099 193.009 228.235 145.007 210.593C97.0045 192.951 69.5084 209.91 39.2358 194.251C8.96329 178.593 -2.30079 148.315 19.8776 112.648C42.0559 76.9816 35.7216 9.20035 119.314 2.00249Z" fill="#00BF6D"/>
<path d="M105.515 176.025C95.8798 175.752 85.8946 176.107 79.7844 178.113L77.2812 187.404C77.2812 187.404 90.8189 193.629 131.651 188.983" stroke="white" stroke-width="1.10236" stroke-linecap="round" stroke-linejoin="round"/>
<path d="M135.121 187.415L132.389 178.124C132.389 178.124 122.136 176.763 110.227 176.217" stroke="white" stroke-width="1.10236" stroke-linecap="round" stroke-linejoin="round"/>
<path d="M133.169 188.606L132.196 208.85" stroke="white" stroke-width="1.10236" stroke-linecap="round" stroke-linejoin="round"/>
<path d="M79.1787 188.076L79.8564 204.336" stroke="white" stroke-width="1.10236" stroke-linecap="round" stroke-linejoin="round"/>
<path d="M132.399 178.113C132.399 178.113 124.502 182.311 106.204 181.802C87.906 181.294 82.457 178.906 82.457 178.906" stroke="white" stroke-width="1.10236" stroke-linecap="round" stroke-linejoin="round"/>
<path d="M106.204 178.113L110.03 159.531L123.474 152.612C123.474 152.612 125.18 152.497 125.18 155.077L112.609 161.231L108.865 178.135C108.865 178.135 115.424 179.103 107.461 179.272C99.4979 179.441 100.7 178.02 104.269 178.135" stroke="white" stroke-width="1.10236" stroke-linecap="round" stroke-linejoin="round"/>
<path d="M140.794 211.196L139.192 200.363L144.275 199.09C144.275 199.09 152.2 205.348 166.317 206.151C180.434 206.954 184.79 200.811 184.79 200.811L191.791 202.599C191.411 207.656 190.636 212.676 189.474 217.612" stroke="white" stroke-width="1.10236" stroke-linecap="round" stroke-linejoin="round"/>
<path d="M141.312 199.834L139.798 186.422L144.935 183.848L145.744 186.673L149.28 186.826L149.717 176.48L153.642 175.841L154.385 180.525L157.172 180.645L156.97 185.46L159.943 185.586L160.435 174.081L165.124 173.196L165.518 177.147L168.677 177.284L168.934 171.168L173.153 172.698L173.027 175.726L176.667 177.623L176.498 181.65L179.995 182.563L179.088 186.4L182.99 186.564L184.778 179.585L189.532 181.645L186.357 190.636L189.073 192.428L190.019 188.553L193.954 191.515L190.533 201.927" stroke="white" stroke-width="1.10236" stroke-linecap="round" stroke-linejoin="round"/>
<path d="M173.029 175.72L170.864 193.969" stroke="white" stroke-width="1.10236" stroke-linecap="round" stroke-linejoin="round"/>
<path d="M174.498 202.418L176.668 186.416L179.089 186.399" stroke="white" stroke-width="1.10236" stroke-linecap="round" stroke-linejoin="round"/>
<path d="M165.519 177.146L164.584 204.266" stroke="white" stroke-width="1.10236" stroke-linecap="round" stroke-linejoin="round"/>
<path d="M155.325 204.266L156.068 189.477H151.193V201.32" stroke="white" stroke-width="1.10236" stroke-linecap="round" stroke-linejoin="round"/>
<path d="M144.286 199.09L143.554 189.477H148.166L147.609 199.09" stroke="white" stroke-width="1.10236" stroke-linecap="round" stroke-linejoin="round"/>
<path d="M154.385 180.525H152.604L152.8 187.565" stroke="white" stroke-width="1.10236" stroke-linecap="round" stroke-linejoin="round"/>
<path d="M162.304 203.287L162.862 185.585H158.304L157.626 204.883" stroke="white" stroke-width="1.10236" stroke-linecap="round" stroke-linejoin="round"/>
<path d="M178.674 203.194L181.188 188.776L186.068 189.476L183.068 201.15" stroke="white" stroke-width="1.10236" stroke-linecap="round" stroke-linejoin="round"/>
<path d="M187.325 200.189L189.074 192.428" stroke="white" stroke-width="1.10236" stroke-linecap="round" stroke-linejoin="round"/>
<path d="M168.678 177.283L170.864 177.212L169.317 194.28" stroke="white" stroke-width="1.10236" stroke-linecap="round" stroke-linejoin="round"/>
<path d="M166.873 204.265L167.791 194.28H173.027L171.573 203.287" stroke="white" stroke-width="1.10236" stroke-linecap="round" stroke-linejoin="round"/>
<path d="M202.136 209.939V191.417L213.591 189.477" stroke="white" stroke-width="1.10236" stroke-linecap="round" stroke-linejoin="round"/>
<path d="M69.7392 204.266V187.416L50.5723 184.044" stroke="white" stroke-width="1.10236" stroke-linecap="round" stroke-linejoin="round"/>
<path d="M69.7384 187.415L55.5996 191.41L53.7031 203.193" stroke="white" stroke-width="1.10236" stroke-linecap="round" stroke-linejoin="round"/>
<path d="M55.6 191.41L47.1123 189.476" stroke="white" stroke-width="1.10236" stroke-linecap="round" stroke-linejoin="round"/>
<path d="M112.959 15.426C111.319 5.58838 100.465 -0.817008 88.6979 1.13412C76.9311 3.08525 68.6893 12.6496 70.3289 22.4927C71.8319 31.5652 81.1722 37.7027 91.8351 37.0852C95.0487 41.6433 101.716 43.8895 101.716 43.8895C99.7598 41.7635 98.5192 38.3476 97.8469 36.0249C107.832 33.0244 114.412 24.3345 112.959 15.426Z" fill="white" stroke="#263238" stroke-width="0.734905" stroke-linecap="round" stroke-linejoin="round"/>
<path d="M142.447 15.426C144.086 5.58838 154.94 -0.817008 166.707 1.13412C178.474 3.08525 186.716 12.6496 185.076 22.4927C183.573 31.5652 174.233 37.7027 163.57 37.0852C160.357 41.6433 153.689 43.8895 153.689 43.8895C155.645 41.7635 156.886 38.3476 157.558 36.0249C147.573 33.0244 140.993 24.3345 142.447 15.426Z" fill="white" stroke="#263238" stroke-width="0.734905" stroke-linecap="round" stroke-linejoin="round"/>
<path d="M95.7164 12.8957C92.6886 12.2672 91.0709 14.2456 90.3768 15.4863C89.4586 14.3932 87.502 12.7536 84.6436 13.9287C81.5393 15.213 80.8179 19.394 83.8457 22.8536C86.0318 25.3458 89.3111 26.8815 90.9889 27.5428C91.1857 27.6248 91.3715 27.6904 91.5354 27.7396C91.6666 27.6631 91.836 27.5647 92.0164 27.4499C93.5194 26.4662 96.4652 24.3729 98.1485 21.5473C100.499 17.5522 99.0011 13.5843 95.7164 12.8957Z" fill="#EA596E"/>
<path d="M164.71 9.79586C163.815 9.54627 163.115 10.2138 162.865 10.836C162.579 11.5526 162.324 12.0553 162.022 12.656C161.804 13.087 161.592 13.521 161.386 13.9577C160.818 15.1639 160.253 15.9354 159.841 16.3999C159.692 16.5711 159.53 16.7315 159.358 16.88C159.319 16.9136 159.278 16.9458 159.237 16.9767L159.218 16.991L156.982 18.3083C156.498 18.5938 156.131 19.0408 155.944 19.5707C155.757 20.1006 155.763 20.6794 155.96 21.2055L156.581 22.8583C156.709 23.1978 156.912 23.5039 157.175 23.7532C157.439 24.0025 157.755 24.1886 158.101 24.2973L164.498 26.306C164.876 26.4249 165.275 26.4672 165.67 26.4304C166.065 26.3936 166.448 26.2785 166.798 26.0917C167.148 25.9049 167.458 25.6502 167.708 25.3425C167.959 25.0348 168.145 24.6803 168.257 24.2997L169.886 18.7501C169.991 18.3939 170.011 18.0183 169.945 17.653C169.879 17.2877 169.728 16.9429 169.506 16.6458C169.283 16.3487 168.994 16.1076 168.662 15.9416C168.33 15.7755 167.964 15.6892 167.593 15.6893H165.94C166.019 15.4183 166.099 15.1173 166.173 14.8056C166.33 14.1345 166.463 13.369 166.45 12.7301C166.44 12.1365 166.379 11.5131 166.135 10.9841C165.873 10.4169 165.416 9.99052 164.711 9.79466L164.71 9.79586ZM159.214 16.9946L159.212 16.9958L159.214 16.9946Z" fill="#00BF6D"/>
<path d="M153.73 116.458C154.276 119.497 157.719 121.923 161.425 123.743C165.251 125.634 169.333 126.924 170.754 127.684C175.673 130.318 179.947 131.794 181.685 136.319C183.423 140.844 195.386 148.796 198.218 152.742C199.562 154.612 203.382 155.825 207.306 157.361C209.213 158.066 211.061 158.921 212.832 159.918C214.98 161.197 216.712 162.771 217.483 164.875C218.8 168.499 222.948 185.316 226.736 201.04C230.419 216.37 247.111 215.359 251.384 206.401C255.689 197.365 258.309 187.619 259.118 177.642C259.118 177.642 253.991 164.569 253.346 159.53C252.702 154.491 251.035 155.661 246.559 149.255C242.082 142.85 241.268 136.745 237.666 129.345C234.065 121.945 228.086 98.3786 227.173 93.3669C226.462 89.4209 223.894 89.3007 220.56 87.9015L220.467 87.8687C219.513 87.4682 218.598 86.9797 217.734 86.4095C216.395 85.5077 214.455 83.5675 212.351 81.2283C207.197 75.5116 200.967 67.4338 199.578 66.1713C197.622 64.3896 195.053 63.8704 186.8 62.9686C180.242 62.2472 176.728 61.5968 175.23 62.2691C169.033 65.0673 163.753 64.9525 161.999 66.0948C161.777 66.2169 161.603 66.4098 161.504 66.6427C161.405 66.8755 161.387 67.1348 161.452 67.3792C162.245 71.4181 174.514 72.298 174.514 72.298C174.514 72.298 187.495 91.4267 190.823 96.4165C193.288 100.078 200.469 103.838 200.469 103.838C201.054 106.385 201.508 108.894 201.508 108.894C200.961 112.255 195.578 120.491 192.708 120.273C189.839 120.054 176.498 116.026 170.257 115.256C164.015 114.485 153.369 114.359 153.73 116.458ZM196.255 85.9559C193.25 83.2232 188.533 76.4954 185.221 73.003C187.906 74.2265 190.668 75.2726 193.49 76.1347C193.49 76.1347 200.518 87.273 205.776 92.5908C204.71 91.9022 203.59 91.1862 202.497 90.4702H202.464C200.292 89.1124 198.217 87.6039 196.255 85.9559V85.9559Z" fill="white"/>
<path opacity="0.4" d="M153.73 116.457C154.276 119.496 157.719 121.923 161.425 123.742C166.174 123.562 171.098 123.196 173.022 122.693C177.116 121.644 172.394 125.092 172.394 125.092C172.394 125.092 175.329 125.852 177.908 123.087C177.908 123.087 185.166 122.742 186.063 123.748C186.959 124.754 185.341 126.787 186.467 129.864C186.467 129.864 191.184 124.748 192.96 124.305C194.736 123.863 193.2 126.666 197.425 130.749C201.65 134.832 204.607 139.171 209.564 138.603C209.485 136.738 209.593 134.871 209.886 133.028C210.367 130.295 211.121 127.382 210.81 123.158C210.498 118.933 208.798 117.61 208.798 117.61C208.798 117.61 205.601 112.041 204.459 109.084C203.317 106.128 203.912 105.516 203.912 105.516C203.912 105.516 195.682 99.9518 193.042 96.4212C190.402 92.8906 186.008 86.8405 185.997 84.2171C185.986 81.5937 174.755 67.2417 173.465 67.3565L173.29 69.5044C171.928 69.5911 170.573 69.2551 169.41 68.5425C168.446 67.862 167.261 67.5729 166.092 67.7336L171.405 66.3126C170.486 66.5312 167.032 67.3183 165.895 66.8592C164.879 66.4438 163.299 65.6677 162.021 66.0558C161.799 66.1779 161.625 66.3708 161.526 66.6036C161.427 66.8364 161.408 67.0957 161.474 67.3401C162.266 71.379 174.536 72.2589 174.536 72.2589C174.536 72.2589 187.516 91.3876 190.845 96.3775C193.31 100.039 200.491 103.799 200.491 103.799C201.076 106.346 201.53 108.855 201.53 108.855C200.983 112.216 195.6 120.452 192.73 120.234C189.861 120.015 176.52 115.987 170.279 115.217C164.037 114.446 153.369 114.358 153.73 116.457Z" fill="#00BF6D"/>
<path opacity="0.4" d="M181.154 69.5166C182.445 70.7523 183.802 71.9163 185.221 73.0035V73.0035C187.905 74.227 190.668 75.2731 193.49 76.1351C193.49 76.1351 200.518 87.2735 205.776 92.5913C204.71 91.9027 203.59 91.1867 202.496 90.4707C203.231 91.0671 204.003 91.6148 204.808 92.1103C207.044 93.4056 209.235 94.8922 209.235 94.8922C209.235 94.8922 211.033 94.0396 206.902 89.7165C202.77 85.3934 195.889 75.7034 195.173 73.7796C194.457 71.8558 184.045 70.473 181.154 69.5166Z" fill="#00BF6D"/>
<path opacity="0.4" d="M179.089 64.0342C179.089 64.0342 194.753 66.8761 197.354 67.8599C199.956 68.8437 209.274 83.6493 220.494 87.8576C219.54 87.4571 218.625 86.9686 217.762 86.3983C216.423 85.4966 214.482 83.5564 212.378 81.2172C210.159 79.7909 208.166 78.0409 206.465 76.0251C202.945 71.9206 198.524 67.062 196.851 66.2258C195.179 65.3896 184.396 63.8975 182.095 63.6625C179.794 63.4275 179.089 64.0342 179.089 64.0342Z" fill="#00BF6D"/>
<path opacity="0.4" d="M215.888 95.8757C215.888 95.8757 222.752 95.75 223.594 98.9144C224.435 102.079 228.354 112.665 228.354 112.665C228.354 112.665 222.851 103.79 221.047 101.062C219.243 98.3351 215.888 95.8757 215.888 95.8757Z" fill="#00BF6D"/>
<path opacity="0.4" d="M212.838 159.924C214.986 161.203 216.718 162.777 217.489 164.881C218.806 168.504 222.954 185.321 226.742 201.045C224.922 187.868 220.271 168.974 221.823 169.98C223.905 171.297 227.184 186.168 227.731 183.037C228.277 179.905 227.906 166.564 230.3 165.602C232.693 164.64 233.994 160.279 233.994 160.279C230.048 161.869 224.736 161.099 224.736 161.099C221.173 162.432 216.456 161.29 212.838 159.924Z" fill="#00BF6D"/>
<path d="M196.26 85.9558C193.249 83.2231 188.532 76.4953 185.215 73.0029C187.906 74.2326 190.676 75.2824 193.506 76.1455C193.506 76.1455 200.534 87.2839 205.792 92.6017C202.349 90.3663 198.414 87.9069 196.26 85.9558Z" stroke="#263238" stroke-width="0.734905" stroke-linecap="round" stroke-linejoin="round"/>
<path d="M259.124 177.648C256.314 171.019 253.62 163.673 252.565 156.459C250.062 153.513 247.515 151.114 245.559 148.217C236.574 130.493 231.403 113.075 227.496 93.5637C226.898 92.6785 226.422 91.7171 226.08 90.7054C222.489 87.6776 217.587 87.2786 214.603 83.748C209.094 77.2661 204.131 70.8334 198.037 64.8597C191.085 62.6736 183.418 62.5807 176.335 62.0068C171.798 63.8323 166.808 64.5264 162.321 65.8326C160.594 66.789 162.054 69.1118 163.097 69.7348C166.825 71.1285 170.552 72.5276 174.405 72.2926C182.877 82.8462 187.812 96.4057 200.311 104.538C201.355 105.172 201.727 107.397 201.595 109.031C200.109 113.846 196.901 119.617 191.364 120.267C179.597 116.573 167.792 113.425 155.042 115.135C153.91 115.589 153.32 116.092 153.73 117.77C155.145 120.628 158.282 122.525 160.917 123.836C166.776 125.951 172.64 128.072 177.859 131.236C180.45 133.089 181.275 136.45 183.237 139.347C187.741 144.648 193.512 147.856 198.065 152.611C201.612 156.186 207.017 157.169 211.788 159.203C214.969 160.558 217.516 162.957 218.347 166.307C221.232 178.058 224.124 189.808 227.239 201.799" stroke="#263238" stroke-width="0.734905" stroke-linecap="round" stroke-linejoin="round"/>
<path d="M174.515 72.2494C174.515 72.2494 170.574 64.0514 175.252 63.1113C175.252 63.1113 180.171 69.156 183.265 71.2492C186.358 73.3425 192.588 82.639 196.261 85.9565C199.934 89.2739 208.738 94.0725 211.564 96.7232" stroke="#263238" stroke-width="0.734905" stroke-linecap="round" stroke-linejoin="round"/>
<path d="M185.215 73.0029C187.906 74.2326 190.676 75.2824 193.506 76.1455C193.506 76.1455 200.534 87.2839 205.792 92.6017" stroke="#263238" stroke-width="0.734905" stroke-linecap="round" stroke-linejoin="round"/>
<path d="M200.464 103.79C200.464 103.79 203.289 106.228 206.235 105.544" stroke="#263238" stroke-width="0.734905" stroke-linecap="round" stroke-linejoin="round"/>
<path d="M201.497 108.839C202.656 112.348 209.766 118.622 209.766 118.622C209.766 118.622 211.296 124.087 211.105 126.432C210.914 128.776 208.733 134.63 209.859 141.828" stroke="#263238" stroke-width="0.734905" stroke-linecap="round" stroke-linejoin="round"/>
<path d="M209.771 118.623C209.771 118.623 213.45 120.29 216.221 120.066" stroke="#263238" stroke-width="0.734905" stroke-linecap="round" stroke-linejoin="round"/>
<path d="M210.789 158.847C211.106 159.268 220.627 163.056 223.747 161.733C223.747 161.733 231.836 162.389 236.864 158.722" stroke="#263238" stroke-width="0.734905" stroke-linecap="round" stroke-linejoin="round"/>
<path d="M173.077 72.0248C173.077 72.0248 166.175 71.3088 166.065 67.7563C166.065 67.7563 171.394 66.6086 172.99 65.6904" stroke="#263238" stroke-width="0.734905" stroke-linecap="round" stroke-linejoin="round"/>
<path d="M176.804 64.9518C176.804 64.9518 178.602 63.908 179.646 63.9899C180.69 64.0719 193.927 67.1161 196.736 67.608C199.545 68.0999 211.285 84.7364 218.493 86.8624" stroke="#263238" stroke-width="0.734905" stroke-linecap="round" stroke-linejoin="round"/>
<path d="M192.698 120.223C190.977 121.256 186.539 127.399 186.238 131.115" stroke="#263238" stroke-width="0.734905" stroke-linecap="round" stroke-linejoin="round"/>
<path d="M177.647 117.983C177.647 117.983 179.161 121.416 174.188 124.214" stroke="#263238" stroke-width="0.734905" stroke-linecap="round" stroke-linejoin="round"/>
<path d="M90.0688 115.207C83.8329 115.978 70.492 120.006 67.6227 120.219C64.7534 120.432 59.3591 112.201 58.8235 108.84C58.8235 108.84 59.2771 106.331 59.8619 103.79C59.8619 103.79 67.0433 100.03 69.5027 96.3626C72.8366 91.3946 85.8168 72.2495 85.8168 72.2495C85.8168 72.2495 98.092 71.3914 98.8844 67.3307C98.9464 67.0827 98.9229 66.821 98.8177 66.5879C98.7126 66.3549 98.532 66.1641 98.3051 66.0463C96.5617 64.9533 91.2712 65.0407 85.0735 62.2206C83.576 61.5429 80.0509 62.2206 73.5088 62.9202C65.2507 63.8219 62.682 64.3412 60.7254 66.1229C59.3372 67.3799 53.1067 75.4577 47.9529 81.1744C45.8378 83.5136 43.9031 85.4538 42.5641 86.3556C41.7005 86.9258 40.7856 87.4143 39.8314 87.8148L39.7385 87.8476C36.4155 89.2577 33.8359 89.3779 33.1254 93.3129C32.2127 98.3247 26.2391 121.897 22.6265 129.291C19.0139 136.686 18.2269 142.878 13.7508 149.256C9.27465 155.634 7.60772 154.492 6.96827 159.526C6.32883 164.559 1.19141 177.638 1.19141 177.638C1.99938 187.614 4.62008 197.36 8.92487 206.396C13.1988 215.354 29.8845 216.371 33.5736 201.04C37.3501 185.317 41.5093 168.5 42.8319 164.876C43.597 162.772 45.335 161.198 47.4774 159.925C49.251 158.928 51.1004 158.073 53.0083 157.367C56.9325 155.837 60.7527 154.634 62.0917 152.754C64.9283 148.808 76.8974 140.856 78.6299 136.331C80.3624 131.805 84.6417 130.319 89.5606 127.695C90.9761 126.936 95.0642 125.646 98.8844 123.755C102.59 121.919 106.05 119.514 106.58 116.47C106.946 114.36 96.3103 114.426 90.0688 115.207ZM57.8233 90.46H57.7905C56.6974 91.1815 55.6044 91.8974 54.5113 92.5861C59.769 87.2628 66.7974 76.1299 66.7974 76.1299C69.6222 75.2692 72.3865 74.2212 75.0719 72.9928V72.9928C71.7545 76.4852 67.0433 83.2239 64.0319 85.9402C62.0745 87.5878 60.0055 89.098 57.8397 90.46H57.8233Z" fill="white"/>
<path opacity="0.4" d="M106.592 116.459C106.045 119.503 102.602 121.924 98.8965 123.744C94.1526 123.569 89.2229 123.197 87.3045 122.695C83.2055 121.645 87.933 125.094 87.933 125.094C87.933 125.094 84.9927 125.854 82.4185 123.088C82.4185 123.088 75.1551 122.744 74.2642 123.749C73.3734 124.755 74.9856 126.788 73.8543 129.86C73.8543 129.86 69.1377 124.75 67.3669 124.301C65.5962 123.853 67.121 126.662 62.8963 130.745C58.6716 134.828 55.7148 139.167 50.7578 138.604C50.8357 136.743 50.7277 134.88 50.4353 133.04C49.9544 130.308 49.2001 127.395 49.5117 123.17C49.8232 118.945 51.5284 117.623 51.5284 117.623C51.5284 117.623 54.7256 112.054 55.8679 109.097C57.0101 106.14 56.4144 105.533 56.4144 105.533C56.4144 105.533 64.6124 99.9642 67.285 96.4499C69.9575 92.9357 74.3189 86.8746 74.3298 84.2513C74.3407 81.6279 85.572 67.2705 86.8673 67.3852L87.0367 69.5386C88.4001 69.6253 89.7571 69.2894 90.9226 68.5767C91.8856 67.8957 93.0716 67.6065 94.24 67.7678L88.9277 66.3468C89.8404 66.5654 93.3 67.3524 94.4368 66.8933C95.4479 66.478 97.0328 65.7019 98.3063 66.0899C98.5332 66.2077 98.7138 66.3985 98.8189 66.6315C98.924 66.8646 98.9475 67.1263 98.8856 67.3743C98.0931 71.4187 85.8179 72.2931 85.8179 72.2931C85.8179 72.2931 72.8378 91.4218 69.5039 96.4062C67.0445 100.073 59.863 103.834 59.863 103.834C59.2782 106.375 58.8246 108.884 58.8246 108.884C59.3711 112.245 64.749 120.487 67.6238 120.262C70.4986 120.038 83.834 116.021 90.07 115.251C96.3059 114.48 106.947 114.36 106.592 116.459Z" fill="#00BF6D"/>
<path opacity="0.4" d="M79.1767 69.5166C77.8835 70.7495 76.5262 71.9134 75.1105 73.0035V73.0035C72.4251 74.2318 69.6608 75.2799 66.836 76.1406C66.836 76.1406 59.7912 87.279 54.5335 92.5968C55.6266 91.9081 56.7196 91.1922 57.8127 90.4707C57.08 91.0689 56.3076 91.6167 55.5009 92.1103C53.2655 93.4056 51.0739 94.8922 51.0739 94.8922C51.0739 94.8922 49.2758 94.0396 53.4076 89.722C57.5394 85.4044 64.4258 75.7034 65.1417 73.7796C65.8577 71.8558 76.2801 70.4676 79.1767 69.5166Z" fill="#00BF6D"/>
<path opacity="0.4" d="M81.2599 64.034C81.2599 64.034 65.6017 66.8706 63.0002 67.8598C60.3987 68.849 51.0748 83.6492 39.8545 87.8575C40.8087 87.457 41.7236 86.9684 42.5872 86.3982C43.9262 85.4964 45.8664 83.5562 47.976 81.2171C50.1945 79.7902 52.1891 78.0423 53.895 76.0305C57.4092 71.9205 61.8306 67.0618 63.5085 66.2256C65.1864 65.3894 75.9586 63.8974 78.2649 63.6679C80.5713 63.4383 81.2599 64.034 81.2599 64.034Z" fill="#00BF6D"/>
<path opacity="0.4" d="M44.4336 95.8757C44.4336 95.8757 37.5746 95.75 36.733 98.9144C35.8913 102.079 31.9727 112.665 31.9727 112.665C31.9727 112.665 37.4763 103.79 39.2798 101.062C41.0834 98.3351 44.4336 95.8757 44.4336 95.8757Z" fill="#00BF6D"/>
<path opacity="0.4" d="M47.4781 159.924C45.3356 161.197 43.5977 162.771 42.8325 164.875C41.5099 168.499 37.3672 185.316 33.5742 201.04C35.3942 187.863 40.0452 168.969 38.493 169.975C36.4435 171.297 33.1643 186.163 32.6178 183.026C32.0712 179.889 32.4429 166.559 30.0545 165.597C27.6662 164.635 26.3545 160.274 26.3545 160.274C30.3059 161.864 35.6456 161.093 35.6456 161.093C39.1762 162.427 43.86 161.285 47.4781 159.924Z" fill="#00BF6D"/>
<path d="M54.5342 92.5962C59.7918 87.2784 66.8203 76.1455 66.8203 76.1455C69.6494 75.2798 72.419 74.23 75.1112 73.0029C71.7937 76.4953 67.0771 83.2341 64.0657 85.9558C61.9124 87.9015 57.9773 90.3609 54.5342 92.5962Z" stroke="#263238" stroke-width="0.734905" stroke-linecap="round" stroke-linejoin="round"/>
<path d="M33.6397 199.63C36.6293 187.568 38.3399 174.818 43.9528 162.849C45.4121 160.537 47.549 159.815 49.6423 158.553C52.8231 157.198 56.0477 156.367 58.682 155.082C65.1462 150.434 71.1476 145.174 76.6028 139.375C79.0622 135.888 80.9751 132.445 84.1177 130.543C91.392 125.57 102.372 125.783 106.618 117.213C107.028 115.535 104.804 115.169 103.673 114.71C90.9657 113.54 79.7454 117.191 67.9402 120.339C62.9012 119.099 60.8353 113.781 58.8404 109.556C57.4468 105.834 60.48 102.845 64.2183 101.446C65.3834 100.817 66.4302 99.9903 67.3117 99.0026C74.28 90.2143 79.565 81.0161 85.9868 72.2716C90.3591 71.9218 94.1138 71.0692 97.7974 69.129C98.8413 68.495 99.2567 66.8172 98.6664 66.3143C93.5017 63.4396 88.5555 63.292 83.0191 62.6416C78.0293 61.9475 72.5803 62.3902 67.7162 63.3303C64.4916 64.1391 61.2671 64.9699 58.7639 67.8938C54.2987 73.7363 50.3364 78.9885 45.2864 84.3336C42.2367 87.3231 38.4656 88.1593 34.7875 90.1159C34.2847 90.7062 33.7381 90.7499 33.7873 91.291C29.7867 109.709 24.6165 127.127 16.1725 144.808C13.8005 149.382 10.7509 152.372 7.79413 156.449C5.37844 160.482 6.33488 162.515 1.18652 177.638" stroke="#263238" stroke-width="0.734905" stroke-linecap="round" stroke-linejoin="round"/>
<path d="M85.8123 72.2494C85.8123 72.2494 89.7528 64.0514 85.0744 63.1113C85.0744 63.1113 80.1556 69.156 77.0677 71.2438C73.9798 73.3315 67.7384 82.639 64.0657 85.9565C60.3929 89.2739 51.5883 94.067 48.7627 96.7177" stroke="#263238" stroke-width="0.734905" stroke-linecap="round" stroke-linejoin="round"/>
<path d="M75.1112 73.0029C72.419 74.23 69.6494 75.2798 66.8203 76.1455C66.8203 76.1455 59.7918 87.2784 54.5342 92.5962" stroke="#263238" stroke-width="0.734905" stroke-linecap="round" stroke-linejoin="round"/>
<path d="M59.8632 103.784C59.8632 103.784 57.0376 106.222 54.0918 105.544" stroke="#263238" stroke-width="0.734905" stroke-linecap="round" stroke-linejoin="round"/>
<path d="M58.8508 108.84C57.6867 112.349 50.5763 118.623 50.5763 118.623C50.5763 118.623 49.046 124.088 49.2373 126.427C49.4285 128.766 51.6092 134.625 50.4833 141.823" stroke="#263238" stroke-width="0.734905" stroke-linecap="round" stroke-linejoin="round"/>
<path d="M50.5497 118.623C50.5497 118.623 46.877 120.263 44.1006 120.06" stroke="#263238" stroke-width="0.734905" stroke-linecap="round" stroke-linejoin="round"/>
<path d="M49.5224 158.842C49.2054 159.263 39.6848 163.051 36.5641 161.728C36.5641 161.728 28.4754 162.384 23.4473 158.717" stroke="#263238" stroke-width="0.734905" stroke-linecap="round" stroke-linejoin="round"/>
<path d="M87.2715 72.0257C87.2715 72.0257 94.1742 71.3098 94.2781 67.7573C94.2781 67.7573 88.9493 66.6096 87.3589 65.6914" stroke="#263238" stroke-width="0.734905" stroke-linecap="round" stroke-linejoin="round"/>
<path d="M83.5227 64.9538C83.5227 64.9538 81.7246 63.9099 80.6807 63.9919C79.6368 64.0739 66.4052 67.1181 63.596 67.6045C60.7868 68.0909 49.0418 84.7329 41.833 86.8589" stroke="#263238" stroke-width="0.734905" stroke-linecap="round" stroke-linejoin="round"/>
<path d="M67.623 120.224C69.3501 121.251 73.7825 127.394 74.0831 131.116" stroke="#263238" stroke-width="0.734905" stroke-linecap="round" stroke-linejoin="round"/>
<path d="M82.6743 117.983C82.6743 117.983 81.1659 121.416 86.1339 124.208" stroke="#263238" stroke-width="0.734905" stroke-linecap="round" stroke-linejoin="round"/>
<path d="M176.941 113.912C175.302 111.819 151.353 110.502 129.393 109.698C110.166 108.993 86.7631 109.19 84.5769 110.655C82.8772 111.803 83.1395 117.131 84.249 118.853C85.3585 120.575 88.5229 121.853 90.3921 122.132C97.3166 123.181 121.2 127.756 128.48 128.084C135.76 128.412 145.313 128.439 153.5 128.084C160.157 127.8 173.979 127.215 176.93 122.367C178.04 120.564 177.553 114.688 176.941 113.912Z" fill="#00BF6D"/>
<path opacity="0.2" d="M83.7402 111.917C83.8846 111.418 84.1807 110.977 84.5874 110.654C86.7735 109.179 110.182 109.015 129.403 109.692C151.347 110.496 175.312 111.808 176.952 113.906C175.476 116.524 169.781 119.475 166.595 119.989C161.506 120.68 156.378 121.045 151.243 121.082C146.236 121.082 132.114 120.29 125.424 119.989C118.735 119.689 108.821 119.131 105.749 117.94C102.678 116.748 90.2768 115.491 86.298 113.901C85.2418 113.555 84.338 112.854 83.7402 111.917V111.917Z" fill="black" fill-opacity="0.7"/>
<path opacity="0.2" d="M177.395 121.018C177.322 121.489 177.168 121.943 176.941 122.362C173.99 127.21 160.173 127.795 153.511 128.084C145.313 128.434 135.77 128.412 128.491 128.084C121.211 127.756 97.3382 123.166 90.4027 122.127C88.5335 121.843 85.3855 120.591 84.2596 118.848C83.6973 117.726 83.4 116.49 83.3906 115.235C85.8282 118.362 86.8393 119.941 96.5075 121.739C106.29 123.565 147.466 127.429 163.261 125.833C172.028 124.958 175.81 122.788 177.395 121.018Z" fill="black" fill-opacity="0.7"/>
<path d="M129.583 120.077C130.403 120.132 131.223 120.181 132.048 120.225" stroke="#263238" stroke-width="0.734905" stroke-linecap="round" stroke-linejoin="round"/>
<path d="M104.033 117.678C111.925 118.951 119.883 119.94 127.879 119.973" stroke="#263238" stroke-width="0.734905" stroke-linecap="round" stroke-linejoin="round"/>
<path d="M83.7402 111.917C85.0246 114.305 88.2983 114.486 90.6047 115.196C94.2173 116.289 98.1524 116.699 101.885 117.322" stroke="#263238" stroke-width="0.734905" stroke-linecap="round" stroke-linejoin="round"/>
<path d="M148.444 121.252C147.898 121.252 147.324 121.209 146.767 121.176" stroke="#263238" stroke-width="0.734905" stroke-linecap="round" stroke-linejoin="round"/>
<path d="M154.676 121.197C153.928 121.23 153.184 121.252 152.436 121.268" stroke="#263238" stroke-width="0.734905" stroke-linecap="round" stroke-linejoin="round"/>
<path d="M176.941 113.912C174.088 119.684 166.666 120.514 160.966 120.869" stroke="#263238" stroke-width="0.734905" stroke-linecap="round" stroke-linejoin="round"/>
<path d="M176.941 113.912C175.302 111.819 151.353 110.502 129.393 109.698C110.166 108.993 86.7631 109.19 84.5769 110.655C82.8772 111.803 83.1395 117.131 84.249 118.853C85.3585 120.575 88.5229 121.853 90.3921 122.132C97.3166 123.181 121.2 127.756 128.48 128.084C135.76 128.412 145.313 128.439 153.5 128.084C160.157 127.8 173.979 127.215 176.93 122.367C178.04 120.564 177.553 114.688 176.941 113.912Z" stroke="#263238" stroke-width="0.734905" stroke-linecap="round" stroke-linejoin="round"/>
<path d="M86.3647 101.232C86.3647 101.232 84.501 104.484 85.1295 105.44C85.758 106.397 85.37 110.162 85.1295 111.097C84.889 112.031 87.8622 113.911 90.1576 113.365C92.4531 112.818 97.738 115.185 99.558 114.89C101.378 114.595 104.105 115.436 105.625 115.775C107.144 116.114 109.871 118.054 111.691 117.622C113.511 117.191 115.632 117.622 116.845 117.622C118.058 117.622 118.818 117.622 121.217 117.688C123.616 117.754 126.371 119.169 127.431 118.59C128.492 118.01 132.897 118.759 134.104 118.59C135.312 118.42 141.209 118.901 142.674 118.726C144.139 118.552 146.084 118.896 146.691 118.59C147.298 118.284 148.965 118.836 149.877 118.765C151.376 118.529 152.896 118.47 154.408 118.59C156.245 118.83 155.944 119.262 158.977 118.77C162.011 118.278 163.246 118.59 163.246 118.59C163.246 118.59 165.672 118.043 167.099 117.622C168.525 117.202 169.094 118.601 170.329 117.622C171.564 116.644 172.018 116.136 172.624 115.775C173.231 115.414 173.941 114.392 174.264 114.463C174.491 114.451 174.707 114.363 174.878 114.213C175.049 114.064 175.166 113.861 175.209 113.638C175.209 113.228 176.1 111.96 175.816 109.949C175.532 107.938 175.898 101.751 174.264 99.7016C172.63 97.6521 103.958 91.9627 86.3647 101.232Z" fill="#1D1D35"/>
<g opacity="0.2">
<path d="M125.186 114.241C124.394 114.241 123.257 115.269 123.257 115.269L127.006 116.16C127.006 116.16 132.127 117.286 132.471 116.958C132.816 116.63 132.81 114.225 132.471 113.334C132.133 112.443 132.154 111.744 131.378 110.263C130.602 108.782 128.372 107.902 128.263 106.847C128.154 105.792 128.148 106.3 126.443 105.486C124.738 104.672 121.781 105.486 120.076 104.759C118.371 104.032 115.868 103.174 115.868 103.174L122.459 101.797C122.459 101.797 113.933 101.862 112.681 101.797C111.43 101.731 108.927 102.797 107.675 103.174C106.424 103.551 104.265 103.967 104.265 103.967C104.265 103.967 110.676 105.486 110.938 105.486H103.461C101.188 105.486 100.729 105.032 99.5919 105.486C98.4551 105.94 98.5699 106.508 97.3238 106.508C96.5561 106.566 95.7851 106.566 95.0174 106.508C93.4543 106.393 91.0823 106.054 91.0823 106.054C91.0823 106.054 89.3334 107.333 89.0055 107.546C88.6776 107.76 86.5953 107.76 85.3601 106.114C85.3601 106.114 85.3601 106.071 85.3601 106.049C85.5325 107.463 85.5086 108.894 85.2891 110.301C85.2891 110.241 85.2891 110.186 85.2891 110.126C85.5435 110.345 85.8416 110.507 86.1635 110.602C87.7539 111.055 86.6226 112.312 88.3223 112.083C90.0221 111.853 91.7382 110.372 92.9897 111.285C94.2413 112.197 98.2201 112.99 99.2421 113.105C100.264 113.219 100.838 111.744 103.221 113.105C105.604 114.466 105.046 114.127 106.637 114.466C108.227 114.804 109.861 113.443 110.922 114.466C111.982 115.488 113.917 115.608 115.398 115.384C116.879 115.16 117.895 117.171 118.349 115.477C118.803 113.782 115.737 112.744 114.824 112.744C113.911 112.744 112.091 112.4 111.637 111.831C111.184 111.263 109.025 111.492 110.047 111.033C111.069 110.574 117.895 111.372 119.152 111.831C120.409 112.29 121.306 111.946 123.246 112.378C124.43 112.707 125.657 112.861 126.886 112.837C127.908 112.837 127.908 112.607 128.93 112.837C129.952 113.066 125.979 114.241 125.186 114.241Z" fill="white"/>
<path d="M175.665 112.307C175.665 112.307 175.37 112.044 174.287 110.033C173.205 108.022 169.85 107.787 168.56 107.546C167.345 107.316 166.097 107.316 164.882 107.546C163.286 107.759 162.04 107.787 161.356 107.546C160.673 107.306 163.176 106.393 164.423 106.278C165.669 106.164 166.303 105.825 167.128 105.732C167.374 105.686 167.602 105.573 167.787 105.405C167.973 105.237 168.108 105.021 168.177 104.781C168.177 104.781 165.226 104.967 161.242 104.781C157.257 104.595 156.279 104.513 154.437 104.781C152.596 105.049 150.322 106.42 149.07 106.53C147.819 106.639 145.545 106.53 146.338 106.983C148.192 107.734 150.145 108.212 152.136 108.404C153.732 108.464 155.208 108.404 155.208 108.404C155.208 108.404 147.338 110.202 145.753 110.41C144.168 110.618 144.064 111.536 143.381 111.651C142.698 111.766 142.015 112.443 140.878 112.443C139.741 112.443 138.834 112.673 138.834 113.126C138.834 113.58 137.074 114.946 139.315 114.832C140.709 114.765 142.107 114.803 143.496 114.946L138.38 116.083C138.38 116.083 140.424 117.307 144.173 116.979C147.923 116.652 148.043 115.859 150.661 115.744C153.279 115.63 155.093 116.198 156.673 116.083C158.252 115.968 158.695 115.405 160.471 115.056C162.247 114.706 162.93 115.291 164.756 115.291C166.581 115.291 167.931 116.428 169.418 115.405C170.904 114.383 171.506 114.148 170.97 113.924C170.434 113.7 164.696 114.378 167.111 113.465C169.527 112.553 171.484 111.99 172.26 112.104C173.008 112.124 173.723 112.416 174.271 112.924C174.626 113.203 174.987 113.11 175.452 112.924C175.528 112.731 175.599 112.525 175.665 112.307Z" fill="white"/>
</g>
<path d="M93.5684 108.382C95.3883 108.327 97.3231 109.125 99.0337 109.349C100.744 109.573 102.313 108.901 103.81 109.3C105.308 109.699 106.767 110.868 108.702 110.109" stroke="#263238" stroke-width="0.734905" stroke-linecap="round" stroke-linejoin="round"/>
<path d="M114.949 107.901H116.786L118.267 108.694H120.065" stroke="#263238" stroke-width="0.734905" stroke-linecap="round" stroke-linejoin="round"/>
<path d="M122.312 108.683C123.552 109.136 124.924 108.923 126.23 108.683" stroke="#263238" stroke-width="0.734905" stroke-linecap="round" stroke-linejoin="round"/>
<path d="M146.135 114.039C146.9 113.847 147.818 113.689 148.397 114.23C148.488 114.332 148.59 114.422 148.703 114.498C148.792 114.537 148.886 114.563 148.982 114.574C150.233 114.742 151.505 114.482 152.589 113.837C152.756 113.719 152.941 113.629 153.136 113.569C153.514 113.561 153.888 113.641 154.229 113.804C154.584 113.913 155.071 113.869 155.207 113.52" stroke="#263238" stroke-width="0.734905" stroke-linecap="round" stroke-linejoin="round"/>
<path d="M158.064 113.635C158.462 113.75 158.884 113.748 159.28 113.63C159.677 113.512 160.031 113.282 160.3 112.968" stroke="#263238" stroke-width="0.734905" stroke-linecap="round" stroke-linejoin="round"/>
<path d="M164.52 112.957C165.367 112.684 166.274 112.99 167.148 113.165C167.471 113.249 167.81 113.249 168.132 113.165C168.372 113.059 168.599 112.927 168.81 112.771C169.538 112.361 170.382 112.204 171.209 112.323C172.03 112.44 172.834 112.649 173.608 112.946" stroke="#263238" stroke-width="0.734905" stroke-linecap="round" stroke-linejoin="round"/>
<path d="M150.67 109.721C151.635 109.611 152.61 109.655 153.561 109.852C153.911 109.923 154.348 109.983 154.556 109.693" stroke="#263238" stroke-width="0.734905" stroke-linecap="round" stroke-linejoin="round"/>
<path d="M159.312 109.388C160.409 109.067 161.553 108.934 162.695 108.994C163.225 109.049 163.76 109.049 164.29 108.994C164.57 108.928 164.856 108.897 165.143 108.902C165.393 108.958 165.639 109.03 165.881 109.115C166.695 109.317 167.52 108.869 168.335 108.716C169.036 108.62 169.747 108.631 170.444 108.748" stroke="#263238" stroke-width="0.734905" stroke-linecap="round" stroke-linejoin="round"/>
<path d="M86.5137 109.245C86.8471 109.092 87.1477 109.496 87.4646 109.682C87.9675 109.983 88.6014 109.737 89.148 109.524C89.6945 109.31 90.3995 109.179 90.7876 109.622" stroke="#263238" stroke-width="0.734905" stroke-linecap="round" stroke-linejoin="round"/>
<path d="M97.5635 105.758C98.7276 105.392 99.8699 106.375 101.083 106.518C101.936 106.616 102.859 106.299 103.635 106.682C103.849 106.785 104.04 106.944 104.264 107.031C105.155 107.376 106.046 106.545 106.997 106.419" stroke="#263238" stroke-width="0.734905" stroke-linecap="round" stroke-linejoin="round"/>
<path d="M109.254 106.721C109.72 106.812 110.157 107.014 110.527 107.311C110.716 107.455 110.941 107.544 111.178 107.568C111.414 107.592 111.652 107.55 111.866 107.448" stroke="#263238" stroke-width="0.734905" stroke-linecap="round" stroke-linejoin="round"/>
<path d="M86.3647 101.232C86.3647 101.232 84.501 104.484 85.1295 105.44C85.758 106.397 85.37 110.162 85.1295 111.097C84.889 112.031 87.8622 113.911 90.1576 113.365C92.4531 112.818 97.738 115.185 99.558 114.89C101.378 114.595 104.105 115.436 105.625 115.775C107.144 116.114 109.871 118.054 111.691 117.622C113.511 117.191 115.632 117.622 116.845 117.622C118.058 117.622 118.818 117.622 121.217 117.688C123.616 117.754 126.371 119.169 127.431 118.59C128.492 118.01 132.897 118.759 134.104 118.59C135.312 118.42 141.209 118.901 142.674 118.726C144.139 118.552 146.084 118.896 146.691 118.59C147.298 118.284 148.965 118.836 149.877 118.765C151.376 118.529 152.896 118.47 154.408 118.59C156.245 118.83 155.944 119.262 158.977 118.77C162.011 118.278 163.246 118.59 163.246 118.59C163.246 118.59 165.672 118.043 167.099 117.622C168.525 117.202 169.094 118.601 170.329 117.622C171.564 116.644 172.018 116.136 172.624 115.775C173.231 115.414 173.941 114.392 174.264 114.463C174.491 114.451 174.707 114.363 174.878 114.213C175.049 114.064 175.166 113.861 175.209 113.638C175.209 113.228 176.1 111.96 175.816 109.949C175.532 107.938 175.898 101.751 174.264 99.7016C172.63 97.6521 103.958 91.9627 86.3647 101.232Z" stroke="#263238" stroke-width="0.367453" stroke-miterlimit="10"/>
<path d="M87.8512 96.7612C87.8512 96.7612 84.2003 101.237 85.359 103.172C86.5176 105.107 87.0423 106.041 87.0806 108.381C87.1188 110.72 88.0643 111.501 88.8076 108.381C89.5509 105.26 89.7367 104.189 91.0812 103.965C92.4257 103.74 94.5189 104.648 94.3604 105.56C94.2019 106.473 96.5028 106.839 96.9565 104.757C97.4101 102.675 100.902 103.117 103.477 102.527C106.051 101.937 106.816 99.2971 108.636 99.319C110.456 99.3408 116.063 101.008 119.25 100.254C122.436 99.4993 126.355 101.992 127.59 103.172C128.825 104.353 129.705 106.774 131.377 107.227C133.05 107.681 132.596 116.475 134.563 116.934C136.531 117.393 135.93 111.02 138.056 110.414C140.182 109.807 139.57 112.687 141.089 111.474C142.608 110.261 141.996 107.856 143.822 106.861C145.647 105.866 145.489 104.948 146.855 103.965C148.221 102.981 148.385 101.341 150.67 101.341C152.954 101.341 156.43 101.035 157.491 100.581C158.551 100.128 160.07 100.128 162.497 101.948C164.923 103.768 165.098 103.839 167.131 103.199C169.165 102.56 168.563 100.428 170.99 102.248C173.417 104.068 173.176 106.342 174.269 106.194C175.362 106.047 175.668 110.567 175.821 111.501C175.974 112.436 177.128 112.108 177.007 109.528C176.782 106.651 176.782 103.76 177.007 100.882C177.324 96.2475 171.11 87.8964 152.003 86.9618C132.897 86.0273 97.8309 86.7542 87.8512 96.7612Z" fill="#999999"/>
<path opacity="0.5" d="M87.8512 96.7632C87.8512 96.7632 84.2003 101.239 85.359 103.174C86.5176 105.109 87.0423 106.043 87.0806 108.382C87.1188 110.722 88.0643 111.503 88.8076 108.382C89.5509 105.262 89.7367 104.191 91.0812 103.966C92.4257 103.742 94.5189 104.65 94.3604 105.562C94.2019 106.475 96.5028 106.841 96.9565 104.759C97.4101 102.677 100.902 103.119 103.477 102.529C106.051 101.939 106.816 99.2991 108.636 99.3209C110.456 99.3428 116.063 101.01 119.25 100.256C122.436 99.5013 126.355 101.993 127.59 103.174C128.825 104.355 129.705 106.776 131.377 107.229C133.05 107.683 132.596 116.477 134.563 116.936C136.531 117.395 135.93 111.022 138.056 110.416C140.182 109.809 139.57 112.689 141.089 111.476C142.608 110.263 141.996 107.858 143.822 106.863C145.647 105.868 145.489 104.95 146.855 103.966C148.221 102.983 148.385 101.343 150.67 101.343C152.954 101.343 156.43 101.037 157.491 100.583C158.551 100.13 160.07 100.13 162.497 101.95C164.923 103.77 165.098 103.841 167.131 103.201C169.165 102.562 168.563 100.43 170.99 102.25C173.417 104.07 173.176 106.344 174.269 106.196C175.362 106.049 175.668 110.569 175.821 111.503C175.974 112.438 177.128 112.11 177.007 109.53C176.782 106.653 176.782 103.762 177.007 100.884C177.324 96.2494 171.11 87.8984 152.003 86.9638C132.897 86.0292 97.8309 86.7561 87.8512 96.7632Z" fill="white"/>
<g opacity="0.2">
<path d="M175.838 111.475C175.68 110.563 175.385 106.01 174.286 106.169C173.188 106.327 173.412 104.043 171.007 102.223C168.602 100.403 169.181 102.529 167.148 103.174C165.115 103.818 164.962 103.72 162.514 101.922C160.065 100.124 158.568 100.102 157.513 100.556C156.458 101.009 152.933 101.343 150.67 101.343C148.408 101.343 148.238 102.982 146.845 103.966C145.451 104.95 145.631 105.862 143.817 106.857C142.002 107.852 142.603 110.262 141.084 111.475C139.565 112.689 140.177 109.803 138.056 110.415C135.936 111.027 136.537 117.389 134.564 116.935C132.591 116.482 133.045 107.682 131.372 107.229C129.7 106.775 128.804 104.349 127.59 103.174C126.377 101.998 122.431 99.4953 119.25 100.255C116.069 101.015 110.456 99.3423 108.631 99.3204C106.805 99.2986 106.057 101.922 103.483 102.529C100.908 103.135 97.416 102.682 96.9624 104.758C96.5088 106.835 94.2297 106.469 94.3609 105.562C94.4921 104.655 92.4043 103.742 91.0817 103.966C89.7591 104.19 89.5459 105.256 88.8081 108.382C88.0703 111.508 87.1193 110.716 87.0811 108.382C87.0428 106.048 86.5345 105.103 85.354 103.174C85.2048 102.908 85.1275 102.609 85.1299 102.305C85.4062 102.717 85.8149 103.024 86.2886 103.174C87.5402 103.321 87.256 106.622 87.8517 105.939C88.4474 105.256 88.3326 102.944 89.8137 102.66C91.644 102.478 93.4811 102.932 95.0167 103.944C96.2956 104.895 96.9023 101.955 98.5364 101.758C100.171 101.561 102.778 102.376 104.259 100.785C105.74 99.1947 107.101 98.293 108.467 98.1727C109.833 98.0525 113.244 99.8123 115.408 98.5225C117.572 97.2327 119.501 97.4841 120.753 98.1673C122.005 98.8504 123.825 100.67 125.415 100.102C127.005 99.5336 129.858 100.441 130.427 101.802C130.995 103.163 132.012 105.36 133.034 104.72C134.056 104.081 134.968 105.562 135.537 106.693C136.105 107.825 136.083 107.152 137.242 106.24C138.401 105.327 140.521 107.721 141.45 106.24C142.379 104.758 142.931 103.212 144.407 103.135C145.883 103.059 146.118 102.846 147.479 101.758C148.839 100.67 150.321 99.9817 153.283 100.118C154.048 100.136 154.813 100.066 155.562 99.9107V99.9107C157.584 99.5172 159.344 98.7575 160.481 99.1893C160.633 99.2489 160.779 99.3221 160.918 99.4079V99.4079C162.421 100.293 164.345 102.66 165.891 101.774C167.597 100.802 167.597 98.4952 169.646 99.8888C171.696 101.282 172.493 102.78 173.515 102.468C174.538 102.157 174.39 101.272 175.155 101.774C175.727 102.028 176.372 102.065 176.97 101.878C176.807 104.41 176.825 106.951 177.024 109.481C177.15 112.082 175.986 112.383 175.838 111.475Z" fill="black"/>
<path d="M176.838 98.9983C174.898 99.4683 176.253 98.337 174.286 98.5611C171.957 98.8289 171.132 98.9983 170.247 98.2386C169.361 97.479 167.039 97.7522 161.808 99.2115C161.519 99.2934 161.218 99.359 160.923 99.4301C159.155 99.762 157.36 99.9303 155.561 99.9329C151.577 100.004 147.407 99.6815 144.407 100.37C139.739 101.43 139.061 101.163 136.329 99.7963C133.596 98.4299 128.371 97.7522 126.207 97.6538C124.043 97.5555 120.862 96.0416 117.905 95.3529C114.948 94.6643 112.44 96.9543 110.931 96.5334C109.423 96.1126 103.668 98.5447 99.5907 100.25C95.5135 101.955 90.4964 101.157 87.0805 100.25C86.6633 100.139 86.264 99.9701 85.8945 99.7471C86.4557 98.6939 87.1106 97.6933 87.8511 96.7575C97.8254 86.7505 132.918 85.9908 152.025 86.9199C168.787 87.7561 175.625 94.2763 176.838 98.9983Z" fill="black"/>
</g>
<path d="M87.8512 96.7612C87.8512 96.7612 84.2003 101.237 85.359 103.172C86.5176 105.107 87.0423 106.041 87.0806 108.381C87.1188 110.72 88.0643 111.501 88.8076 108.381C89.5509 105.26 89.7367 104.189 91.0812 103.965C92.4257 103.74 94.5189 104.648 94.3604 105.56C94.2019 106.473 96.5028 106.839 96.9565 104.757C97.4101 102.675 100.902 103.117 103.477 102.527C106.051 101.937 106.816 99.2971 108.636 99.319C110.456 99.3408 116.063 101.008 119.25 100.254C122.436 99.4993 126.355 101.992 127.59 103.172C128.825 104.353 129.705 106.774 131.377 107.227C133.05 107.681 132.596 116.475 134.563 116.934C136.531 117.393 135.93 111.02 138.056 110.414C140.182 109.807 139.57 112.687 141.089 111.474C142.608 110.261 141.996 107.856 143.822 106.861C145.647 105.866 145.489 104.948 146.855 103.965C148.221 102.981 148.385 101.341 150.67 101.341C152.954 101.341 156.43 101.035 157.491 100.581C158.551 100.128 160.07 100.128 162.497 101.948C164.923 103.768 165.098 103.839 167.131 103.199C169.165 102.56 168.563 100.428 170.99 102.248C173.417 104.068 173.176 106.342 174.269 106.194C175.362 106.047 175.668 110.567 175.821 111.501C175.974 112.436 177.128 112.108 177.007 109.528C176.782 106.651 176.782 103.76 177.007 100.882C177.324 96.2475 171.11 87.8964 152.003 86.9618C132.897 86.0273 97.8309 86.7542 87.8512 96.7612Z" stroke="#263238" stroke-width="0.734905" stroke-linecap="round" stroke-linejoin="round"/>
<path d="M180.013 90.9905L179.926 91.242L178.286 96.1608C173.386 96.517 168.485 95.4705 164.158 93.1439C158.627 90.1325 160.66 87.2413 161.863 86.0827C162.057 85.8837 162.267 85.701 162.491 85.5361L180.013 90.9905Z" fill="#757575"/>
<path opacity="0.2" d="M180.013 90.9915L179.925 91.2429C179.304 91.978 178.502 92.5395 177.599 92.8728C176.696 93.2061 175.722 93.2999 174.771 93.1449C170.946 92.5983 165.382 88.8382 161.862 86.0836C162.057 85.8847 162.267 85.7019 162.491 85.5371L180.013 90.9915Z" fill="black"/>
<path opacity="0.2" d="M169.497 94.8167C169.497 94.8167 171.005 94.7402 171.639 92.1496C172.273 89.559 173.94 91.6686 175.891 92.1496C177.842 92.6305 177.793 91.1057 179.925 91.2424L162.49 85.542C162.49 85.542 158.08 92.2316 169.497 94.8167Z" fill="black"/>
<path d="M180.013 90.9905L179.926 91.242L178.286 96.1608C173.386 96.517 168.485 95.4705 164.158 93.1439C158.627 90.1325 160.66 87.2413 161.863 86.0827C162.057 85.8837 162.267 85.701 162.491 85.5361L180.013 90.9905Z" stroke="#263238" stroke-width="0.734905" stroke-linecap="round" stroke-linejoin="round"/>
<path d="M121.24 89.7881C121.24 89.7881 108.505 96.893 100.16 98.5326C95.1148 99.5165 89.9168 99.3972 84.9223 98.1829L83.6435 94.3571L83.4795 93.8762L86.3597 89.7826C96.8751 87.0117 108.544 87.8588 115.37 88.7825C118.971 89.2743 121.24 89.7881 121.24 89.7881Z" fill="#757575"/>
<path opacity="0.2" d="M115.369 88.7708C110.007 90.8804 96.1253 95.9741 88.8072 95.3292C87.0515 95.2129 85.3169 94.8806 83.6425 94.34L83.4785 93.8591L86.3588 89.7655C96.8741 87.0164 108.543 87.8636 115.369 88.7708Z" fill="black"/>
<path opacity="0.2" d="M115.637 92.6889C115.637 92.6889 115.446 90.5027 110.932 91.7926C106.417 93.0824 101.69 95.4762 100.247 94.8149C98.8041 94.1536 98.427 92.4867 95.3282 93.1261C92.2293 93.7655 90.0486 96.3616 87.0919 96.0883C84.1351 95.815 83.4902 93.9022 83.4902 93.9022L86.3705 89.8086C86.3705 89.8086 98.9954 85.9392 121.25 89.8086L115.637 92.6889Z" fill="black"/>
<path d="M121.24 89.7881C121.24 89.7881 108.505 96.893 100.16 98.5326C95.1148 99.5165 89.9168 99.3972 84.9223 98.1829L83.6435 94.3571L83.4795 93.8762L86.3597 89.7826C96.8751 87.0117 108.544 87.8588 115.37 88.7825C118.971 89.2743 121.24 89.7881 121.24 89.7881Z" stroke="#263238" stroke-width="0.734905" stroke-linecap="round" stroke-linejoin="round"/>
<path d="M168.558 87.9028V95.3302C168.558 95.3302 164.612 100.08 146.571 99.1888C128.53 98.2979 116.845 90.9907 116.845 90.9907C118.649 90.2821 120.503 89.7067 122.392 89.2692C140.225 84.9898 168.558 87.9028 168.558 87.9028Z" fill="#757575"/>
<path opacity="0.2" d="M168.558 87.9028V90.0507C166.973 92.9692 161.667 95.6581 150.211 96.2757C135.963 97.0354 126.251 91.8269 122.393 89.2692C140.226 84.9898 168.558 87.9028 168.558 87.9028Z" fill="black"/>
<path opacity="0.2" d="M122.393 89.2688C122.393 89.2688 123.994 90.9084 125.841 90.5805C127.689 90.2526 128.896 91.127 131.088 92.7011C133.28 94.2751 135.143 93.3405 139.319 91.7938C143.494 90.2471 142.926 94.45 147.364 94.2259C151.802 94.0018 150.162 88.7988 153.54 90.034C156.917 91.2691 157.617 93.9253 160.645 92.0835C163.672 90.2417 167.476 89.3781 168.575 90.892V87.9025C168.575 87.9025 140.778 85.4212 122.393 89.2688Z" fill="black"/>
<path d="M168.558 87.9028V95.3302C168.558 95.3302 164.612 100.08 146.571 99.1888C128.53 98.2979 116.845 90.9907 116.845 90.9907C118.649 90.2821 120.503 89.7067 122.392 89.2692C140.225 84.9898 168.558 87.9028 168.558 87.9028Z" stroke="#263238" stroke-width="0.734905" stroke-linecap="round" stroke-linejoin="round"/>
<path d="M83.4834 93.8826C83.4834 93.8826 85.8335 95.1232 92.0858 95.3582C98.3382 95.5932 113.581 90.0186 113.581 90.0186" stroke="#263238" stroke-width="0.734905" stroke-linecap="round" stroke-linejoin="round"/>
<path d="M124.387 90.9912C124.387 90.9912 141.22 96.7735 151.003 96.2379C160.786 95.7023 167.126 91.8657 167.126 91.8657" stroke="#263238" stroke-width="0.734905" stroke-linecap="round" stroke-linejoin="round"/>
<path d="M168.557 90.0186C168.557 90.0186 172.158 93.1447 174.771 93.1447C177.383 93.1447 178.536 92.3195 180.007 91.0078" stroke="#263238" stroke-width="0.734905" stroke-linecap="round" stroke-linejoin="round"/>
<path d="M134.624 90.0183C133.372 90.3572 138.608 92.4067 141.45 92.6909C144.292 92.9751 142.701 89.0127 142.701 89.0127" stroke="#263238" stroke-width="0.734905" stroke-linecap="round" stroke-linejoin="round"/>
<path d="M146.226 89.4499C146.226 89.4499 144.177 92.4887 146.226 93.1281C148.276 93.7675 154.189 93.1281 154.643 92.1498C155.097 91.1715 151.003 89.0127 151.003 89.0127" stroke="#263238" stroke-width="0.734905" stroke-linecap="round" stroke-linejoin="round"/>
<path d="M156.01 89.0114C156.01 89.6728 158.573 92.236 160.021 92.1486C161.47 92.0611 165.448 91.1539 165.563 90.0171C165.678 88.8803 158.54 89.0114 158.54 89.0114" stroke="#263238" stroke-width="0.734905" stroke-linecap="round" stroke-linejoin="round"/>
<path d="M133.603 88.7324C133.603 88.7324 130.968 89.902 129.613 90.0168C128.257 90.1316 125.033 89.667 126.033 89.0057" stroke="#263238" stroke-width="0.734905" stroke-linecap="round" stroke-linejoin="round"/>
<path d="M98.5364 90.035C98.5364 90.035 95.7272 93.8006 93.7925 93.5601C91.8577 93.3196 88.6714 93.5601 88.7862 92.702C88.901 91.844 96.4104 90.0186 96.4104 90.0186" stroke="#263238" stroke-width="0.734905" stroke-linecap="round" stroke-linejoin="round"/>
<path d="M100.388 90.0179C100.388 90.0179 99.8416 92.1275 100.962 92.1494C102.082 92.1713 108.581 90.5863 108.92 90.0179C109.258 89.4495 104.586 89.0068 104.586 89.0068" stroke="#263238" stroke-width="0.734905" stroke-linecap="round" stroke-linejoin="round"/>
<path d="M170.279 89.0127C171.491 89.8204 172.752 90.5506 174.056 91.1988C175.116 91.6033 177.034 91.5869 177.04 91.1988C177.045 90.8108 174.307 90.0129 174.307 90.0129" stroke="#263238" stroke-width="0.734905" stroke-linecap="round" stroke-linejoin="round"/>
<path d="M81.8389 80.5246C84.107 74.704 85.3586 69.0146 90.5233 65.9813C103.93 58.0839 123.485 54.0778 139.318 55.2146C155.151 56.3514 164.923 60.8931 175.078 71.6106C175.684 72.2501 178.63 79.6829 179.209 80.3552C180.182 81.4483 181.182 82.6397 181.543 84.0716C181.904 85.5035 181.401 87.2688 180.046 87.8591C179.149 88.2471 178.116 88.0449 177.154 87.8591C155.2 83.3666 132.492 84.7056 110.209 87.0557C102.957 87.8208 95.6771 88.6953 88.4028 88.2635C85.3968 88.0832 81.6913 87.0502 81.1885 84.0825C81.0781 83.0307 81.2439 81.9683 81.6694 81.0001C81.7241 80.8252 81.8061 80.6776 81.8389 80.5246Z" fill="#00BF6D"/>
<path opacity="0.2" d="M181.664 84.9467C181.697 85.533 181.56 86.1163 181.269 86.6264C180.978 87.1364 180.546 87.5515 180.024 87.8215C179.128 88.2095 178.089 88.0073 177.133 87.8215C155.179 83.329 132.47 84.6625 110.182 87.0181C102.941 87.7832 95.6555 88.6577 88.3812 88.2259C85.3752 88.0456 81.6697 87.0126 81.1669 84.0449C81.083 83.4867 81.1034 82.9178 81.227 82.3671C82.2709 83.2087 83.4405 83.9411 84.3313 83.881C86.3808 83.7498 92.9775 79.6563 99.0058 79.9951C105.034 80.334 114.926 80.5417 119.479 79.2026C124.032 77.8636 134.235 76.8088 139.296 76.9236C144.357 77.0384 156.55 80.3504 159.737 80.405C162.923 80.4597 165.541 82.8098 169.41 81.5691C173.078 80.4159 178.581 81.7112 181.664 84.9467Z" fill="black" fill-opacity="0.7"/>
<path d="M146.155 59.9473C146.155 59.9473 146.407 62.3466 147.161 62.2154C147.915 62.0842 146.155 59.9473 146.155 59.9473Z" fill="white"/>
<path d="M132.973 64.0127C132.973 64.0127 133.224 66.412 133.984 66.2863C134.743 66.1606 132.973 64.0127 132.973 64.0127Z" fill="white"/>
<path d="M126.868 66.1445C126.868 66.1445 125.775 66.8878 126.404 67.1611C127.032 67.4344 126.868 66.1445 126.868 66.1445Z" fill="white"/>
<path d="M104.487 60.5605C104.487 60.5605 103.393 61.2984 104.022 61.5771C104.651 61.8558 104.487 60.5605 104.487 60.5605Z" fill="white"/>
<path d="M144.461 57.0723C144.461 57.0723 143.368 57.8156 143.997 58.0888C144.625 58.3621 144.461 57.0723 144.461 57.0723Z" fill="white"/>
<path d="M160.508 60.7129C160.508 60.7129 159.415 61.4562 160.043 61.7294C160.672 62.0027 160.508 60.7129 160.508 60.7129Z" fill="white"/>
<path d="M107.751 64.625C107.751 64.625 106.658 65.3683 107.287 65.6415C107.915 65.9148 107.751 64.625 107.751 64.625Z" fill="white"/>
<path d="M131.542 59.9473C131.542 59.9473 129.443 60.4938 130.115 61.0841C130.787 61.6743 131.542 59.9473 131.542 59.9473Z" fill="white"/>
<path d="M131.055 55.8484C131.055 55.8484 132.918 56.9688 132.864 56.078C132.809 55.1871 131.055 55.8484 131.055 55.8484Z" fill="white"/>
<path d="M140.952 59.3184C140.952 59.3184 138.848 59.8649 139.52 60.4552C140.192 61.0454 140.952 59.3184 140.952 59.3184Z" fill="white"/>
<path d="M137.554 62.2207C137.554 62.2207 138.647 62.4284 137.892 62.9749C137.138 63.5215 137.554 62.2207 137.554 62.2207Z" fill="white"/>
<path d="M139.078 55.9795C139.078 55.9795 140.171 56.1872 139.412 56.7337C138.652 57.2802 139.078 55.9795 139.078 55.9795Z" fill="white"/>
<path d="M136.536 70.0254C136.536 70.0254 137.629 70.2331 136.875 70.7796C136.121 71.3261 136.536 70.0254 136.536 70.0254Z" fill="white"/>
<path d="M106.843 70.1562C106.843 70.1562 107.936 70.3639 107.176 70.905C106.417 71.4461 106.843 70.1562 106.843 70.1562Z" fill="white"/>
<path d="M92.7372 69.4082C92.7372 69.4082 93.8302 69.6159 93.076 70.1624C92.3218 70.7089 92.7372 69.4082 92.7372 69.4082Z" fill="white"/>
<path d="M143.505 64.5111C143.505 64.5111 142.532 63.9646 143.423 63.6913C144.313 63.4181 143.505 64.5111 143.505 64.5111Z" fill="white"/>
<path d="M172.204 71.3422C172.204 71.3422 171.231 70.7956 172.122 70.5224C173.013 70.2491 172.204 71.3422 172.204 71.3422Z" fill="white"/>
<path d="M166.793 71.0316C166.793 71.0316 165.82 70.4851 166.711 70.2118C167.602 69.9386 166.793 71.0316 166.793 71.0316Z" fill="white"/>
<path d="M122.184 57.3021C122.184 57.3021 121.211 56.7556 122.102 56.4823C122.993 56.2091 122.184 57.3021 122.184 57.3021Z" fill="white"/>
<path d="M150.856 68.184C150.856 68.184 149.883 67.6374 150.774 67.3642C151.665 67.0909 150.856 68.184 150.856 68.184Z" fill="white"/>
<path d="M168.623 67.1068C168.623 67.1068 167.65 66.5603 168.541 66.287C169.432 66.0138 168.623 67.1068 168.623 67.1068Z" fill="white"/>
<path d="M118.244 64.7236C118.244 64.7236 119.337 64.9313 118.578 65.4779C117.818 66.0244 118.244 64.7236 118.244 64.7236Z" fill="white"/>
<path d="M96.0762 63.6309C96.0762 63.6309 97.1693 63.8385 96.4096 64.3851C95.6499 64.9316 96.0762 63.6309 96.0762 63.6309Z" fill="white"/>
<path d="M118.244 58.876C118.244 58.876 119.337 59.0837 118.578 59.6302C117.818 60.1767 118.244 58.876 118.244 58.876Z" fill="white"/>
<path d="M127.005 58.1211C127.005 58.1211 128.098 58.2249 127.344 58.4982C126.589 58.7715 127.005 58.1211 127.005 58.1211Z" fill="white"/>
<path d="M89.4198 67.3359C89.4198 67.3359 90.5128 67.4398 89.7586 67.713C89.0044 67.9863 89.4198 67.3359 89.4198 67.3359Z" fill="white"/>
<path d="M135.914 57.6191C135.914 57.6191 134.083 58.5045 135.657 58.4116C137.231 58.3187 135.914 57.6191 135.914 57.6191Z" fill="white"/>
<path d="M151.67 59.5534C151.67 59.5534 153.971 58.8811 152.124 58.6844C150.276 58.4876 151.67 59.5534 151.67 59.5534Z" fill="white"/>
<path d="M110.166 61.5319C110.166 61.5319 112.467 60.8597 110.625 60.6629C108.783 60.4662 110.166 61.5319 110.166 61.5319Z" fill="white"/>
<path d="M115.692 62.2207C115.692 62.2207 111.904 62.2207 112.833 63.1116C113.762 64.0024 115.692 62.2207 115.692 62.2207Z" fill="white"/>
<path d="M143.8 67.5605C143.8 67.5605 144.232 71.3207 145.03 70.2932C145.827 69.2657 143.8 67.5605 143.8 67.5605Z" fill="white"/>
<path d="M122.693 59.4834C122.693 59.4834 121.681 61.2542 122.354 61.0847C123.026 60.9153 122.693 59.4834 122.693 59.4834Z" fill="white"/>
<path d="M123.759 71.6927C123.759 71.6927 124.913 70.0149 124.224 70.1297C123.535 70.2444 123.759 71.6927 123.759 71.6927Z" fill="white"/>
<path d="M148.609 57.1816C148.609 57.1816 147.598 58.067 148.276 57.985C148.954 57.9031 148.609 57.1816 148.609 57.1816Z" fill="white"/>
<path d="M157.605 69.0967C157.605 69.0967 158.125 71.0697 158.485 70.4739C158.846 69.8782 157.605 69.0967 157.605 69.0967Z" fill="white"/>
<path d="M155.556 62.7676C155.556 62.7676 154.545 64.5383 155.217 64.3635C155.889 64.1886 155.556 62.7676 155.556 62.7676Z" fill="white"/>
<path d="M115.965 69.2119C115.965 69.2119 114.265 70.305 114.943 70.4853C115.621 70.6657 115.965 69.2119 115.965 69.2119Z" fill="white"/>
<path d="M163.137 64.5762C163.137 64.5762 164.274 66.2704 164.421 65.5927C164.569 64.915 163.137 64.5762 163.137 64.5762Z" fill="white"/>
<path d="M99.842 67.0039C99.842 67.0039 97.8034 67.0039 98.2844 67.4958C98.7653 67.9877 99.842 67.0039 99.842 67.0039Z" fill="white"/>
<path d="M113.953 58.0239C113.953 58.0239 115.992 58.0785 115.522 57.5648C115.052 57.0511 113.953 58.0239 113.953 58.0239Z" fill="white"/>
<path d="M111.488 80.3771C112.8 80.2896 114.106 80.1311 115.401 79.918" stroke="#263238" stroke-width="0.734905" stroke-linecap="round" stroke-linejoin="round"/>
<path d="M81.2607 82.3773C83.7365 85.8096 87.7426 82.3063 90.4261 81.1968C96.1483 78.8303 102.417 80.4808 108.407 80.4808" stroke="#263238" stroke-width="0.734905" stroke-linecap="round" stroke-linejoin="round"/>
<path d="M137.717 76.7969C136.832 76.8341 135.951 76.9236 135.077 77.0647" stroke="#263238" stroke-width="0.734905" stroke-linecap="round" stroke-linejoin="round"/>
<path d="M151.441 78.7263C146.84 77.9502 144.55 76.6604 140.511 76.8462" stroke="#263238" stroke-width="0.734905" stroke-linecap="round" stroke-linejoin="round"/>
<path d="M167.127 82.1147C165.531 82.1639 163.7 81.0544 161.481 80.6391C159.125 80.2019 156.382 80.4423 154.376 79.7373" stroke="#263238" stroke-width="0.734905" stroke-linecap="round" stroke-linejoin="round"/>
<path d="M181.663 84.9458C179.089 82.7596 174.984 80.486 171.339 81.1856" stroke="#263238" stroke-width="0.734905" stroke-linecap="round" stroke-linejoin="round"/>
<path d="M81.8389 80.5246C84.107 74.704 85.3586 69.0146 90.5233 65.9813C103.93 58.0839 123.485 54.0778 139.318 55.2146C155.151 56.3514 164.923 60.8931 175.078 71.6106C175.684 72.2501 178.63 79.6829 179.209 80.3552C180.182 81.4483 181.182 82.6397 181.543 84.0716C181.904 85.5035 181.401 87.2688 180.046 87.8591C179.149 88.2471 178.116 88.0449 177.154 87.8591C155.2 83.3666 132.492 84.7056 110.209 87.0557C102.957 87.8208 95.6771 88.6953 88.4028 88.2635C85.3968 88.0832 81.6913 87.0502 81.1885 84.0825C81.0781 83.0307 81.2439 81.9683 81.6694 81.0001C81.7241 80.8252 81.8061 80.6776 81.8389 80.5246Z" stroke="#263238" stroke-width="0.734905" stroke-linecap="round" stroke-linejoin="round"/>
<path d="M86.0585 86.5862C86.0585 86.5862 82.4131 87.4989 82.7793 89.1658C83.1454 90.8328 81.1396 90.9694 81.1396 90.9694C81.1396 90.9694 81.2927 91.5924 83.6045 91.7455C85.9164 91.8985 86.7635 90.2261 87.8566 91.7455C88.9496 93.2648 89.7038 96.6643 93.0432 94.8006C96.3825 92.9369 96.377 89.2915 99.2573 90.9749C102.138 92.6582 104.723 95.3854 107.297 94.0191C109.871 92.6527 112.303 89.0128 114.271 89.9255C116.238 90.8382 119.577 93.866 122.004 92.8058C124.431 91.7455 125.496 88.4335 128.677 89.0128C131.858 89.5921 133.077 91.7182 135.656 90.9749C138.236 90.2316 138.99 88.5592 141.122 88.3296C143.253 88.1001 144.303 92.3521 147.642 92.6527C150.981 92.9533 151.244 88.5592 154.446 88.3296C157.649 88.1001 159.469 92.8058 161.442 92.8058C163.415 92.8058 164.951 89.1658 167.137 89.4664C169.323 89.767 169.782 93.1064 171.75 93.2594C173.717 93.4124 175.39 90.789 177.516 90.9639C179.642 91.1388 179.636 93.9753 182.981 90.9639C182.981 90.9639 179.702 90.5322 178.303 86.5917C176.903 82.6511 103.045 78.8691 86.0585 86.5862Z" fill="#00BF6D"/>
<path opacity="0.6" d="M182.96 90.9587C181.474 92.3032 180.648 92.4781 180.009 92.2485C179.206 91.9698 178.681 91.0516 177.506 90.9587C176.671 90.9464 175.855 91.2075 175.183 91.702C174.03 92.4125 172.948 93.3416 171.745 93.2542C170.319 93.1394 169.685 91.3686 168.614 90.281C168.227 89.8454 167.702 89.556 167.127 89.4612C165.958 89.3027 164.974 90.2646 164.012 91.2047C163.17 92.0135 162.345 92.8005 161.427 92.8005C160.252 92.8005 159.12 91.1227 157.727 89.8165C156.787 88.942 155.726 88.237 154.448 88.3299C152.808 88.4447 151.955 89.6361 151.059 90.7401C150.163 91.8441 149.283 92.7951 147.638 92.6475C145.676 92.4671 144.495 90.9205 143.424 89.7235C142.681 88.8928 141.987 88.237 141.118 88.3299C139.374 88.5102 138.554 89.6689 136.893 90.516C136.498 90.7117 136.086 90.8727 135.663 90.997C133.657 91.5763 132.471 90.4504 130.548 89.6142C129.952 89.3518 129.329 89.1574 128.689 89.0349C126.088 88.5376 124.902 90.6745 123.224 92.0463C122.856 92.3655 122.444 92.6288 122 92.8279C120.131 93.6477 117.731 92.0354 115.818 90.8385C115.32 90.5089 114.802 90.2113 114.266 89.9476C112.293 89.0349 109.894 92.6803 107.293 94.0412C106.995 94.2011 106.674 94.3118 106.342 94.3691C104.396 94.697 102.428 93.0574 100.33 91.6364C99.9853 91.4069 99.6301 91.1828 99.2748 90.9751C96.3946 89.2918 96.3946 92.959 93.0607 94.8008C92.7703 94.9673 92.4624 95.1011 92.1426 95.1998C89.5684 95.9923 88.8634 93.1121 87.8741 91.7457C87.707 91.4632 87.4458 91.2485 87.1363 91.1391C86.311 90.8986 85.3983 91.8605 83.6166 91.7457C81.3157 91.5927 81.1572 90.9751 81.1572 90.9751C81.3672 90.9572 81.5745 90.915 81.7748 90.8494C81.9578 90.8147 82.1315 90.7423 82.285 90.6369C82.4385 90.5315 82.5685 90.3954 82.6666 90.2371C82.7647 90.0788 82.8289 89.9019 82.8551 89.7176C82.8813 89.5332 82.8689 89.3454 82.8187 89.1661C82.4361 87.4991 86.0979 86.5864 86.0979 86.5864C103.079 78.853 176.926 82.6459 178.32 86.5864C179.714 90.5269 182.96 90.9587 182.96 90.9587Z" fill="white"/>
<g opacity="0.1">
<path d="M92.6563 87.9033C93.7057 89.1276 92.2464 93.1829 92.1098 95.216C89.5356 96.0084 88.8306 93.1282 87.8413 91.7619C87.6742 91.4794 87.413 91.2646 87.1035 91.1552C89.399 88.1165 91.5851 86.6408 92.6563 87.9033Z" fill="black"/>
<path d="M104.865 88.7338C106.101 90.7013 105.51 93.0132 106.341 94.3631C104.395 94.6911 102.428 93.0514 100.329 91.6305C101.165 87.9468 103.351 86.3181 104.865 88.7338Z" fill="black"/>
<path d="M123.224 92.0521C122.856 92.3712 122.444 92.6346 122 92.8336C120.131 93.6534 117.731 92.0412 115.818 90.8442C116.225 90.1051 116.695 89.4029 117.223 88.7456C119.125 86.5048 120.344 88.9314 123.224 92.0521Z" fill="black"/>
<path d="M136.882 90.5104C136.487 90.7061 136.076 90.867 135.653 90.9913C133.647 91.5707 132.461 90.4448 130.537 89.6086C131.171 88.368 131.811 87.2858 132.543 86.9361C134.275 86.0889 135.456 88.4609 136.882 90.5104Z" fill="black"/>
<path d="M151.048 90.7607C150.174 91.8537 149.272 92.8157 147.627 92.6681C145.665 92.4877 144.484 90.941 143.413 89.7441C144.072 89.071 144.901 88.5893 145.812 88.3505C148.632 87.7219 149.54 88.9079 151.048 90.7607Z" fill="black"/>
<path d="M164.012 91.2257C163.17 92.0345 162.345 92.8216 161.427 92.8216C160.252 92.8216 159.12 91.1437 157.727 89.8375C158.364 89.1513 159.043 88.5052 159.76 87.9027C161.301 86.7277 162.465 88.963 164.012 91.2257Z" fill="black"/>
<path d="M175.184 91.7236C174.03 92.4341 172.948 93.3632 171.746 93.2758C170.319 93.161 169.685 91.3902 168.614 90.3026C168.953 88.5756 169.418 87.0234 170.68 87.3623C172.948 88.0017 173.784 89.767 175.184 91.7236Z" fill="black"/>
<path d="M182.96 90.9585C181.474 92.303 180.649 92.4779 180.009 92.2483C178.779 91.8111 178.621 90.4448 178.184 89.5157C177.604 88.2805 176.495 88.3953 175.265 87.958C174.407 87.5613 173.577 87.1085 172.778 86.6026C171.937 86.1709 170.898 85.9304 170.046 86.3731C169.532 86.6518 169.111 87.1765 168.526 87.1983C167.827 87.2257 167.313 86.5152 166.635 86.3348C165.493 86.0342 164.4 87.3022 163.241 87.0672C162.318 86.8814 161.771 85.8156 160.848 85.6407C159.755 85.433 158.864 86.5808 157.782 86.8868C156.612 87.2147 155.431 86.5261 154.273 86.1654C153.128 85.8098 151.907 85.772 150.742 86.0561C150.027 86.2877 149.296 86.4703 148.556 86.6026C147.343 86.7229 146.124 86.2364 144.916 86.3895C144.337 86.4605 143.785 86.6737 143.205 86.7119C141.708 86.8048 140.145 85.7063 138.795 86.3676C138.248 86.6464 137.74 87.2366 137.101 87.2093C136.292 87.1656 135.958 86.3458 135.341 85.9796C134.614 85.5478 133.893 85.6298 133.073 85.5205C131.368 85.2909 129.875 84.657 128.444 86.0014C127.662 86.7283 126.984 87.641 126.006 88.0564C124.711 88.6029 123.191 88.2149 121.967 87.5099C120.743 86.8048 119.688 85.8703 118.458 85.1543C117.178 84.4041 115.695 84.0717 114.217 84.2033C113.482 84.2788 112.772 84.5135 112.137 84.891C111.502 85.2685 110.957 85.7799 110.539 86.3895C110.189 86.936 109.96 87.5427 109.561 88.0291C109.382 88.2906 109.134 88.4971 108.844 88.6255C108.555 88.7539 108.235 88.7991 107.921 88.756C107.162 88.5538 106.828 87.6629 106.391 87.0289C103.276 82.5637 98.8596 88.827 95.3782 86.6026C93.7878 85.5861 91.5088 85.5861 89.0111 87.253C86.7648 88.7505 85.4313 91.7073 81.7422 90.8328C81.9251 90.7981 82.0989 90.7257 82.2524 90.6203C82.4059 90.5149 82.5358 90.3788 82.634 90.2205C82.7321 90.0622 82.7963 89.8853 82.8225 89.701C82.8487 89.5166 82.8363 89.3288 82.7861 89.1495C82.4035 87.4825 86.0653 86.5698 86.0653 86.5698C103.046 78.8364 176.894 82.6293 178.287 86.5698C179.681 90.5103 182.96 90.9585 182.96 90.9585Z" fill="black"/>
</g>
<path d="M98.2419 83.7061C96.6023 83.799 94.6293 90.2645 92.7328 91.3575C90.8364 92.4506 89.623 90.2973 89.623 90.2973" stroke="#263238" stroke-width="0.734905" stroke-linecap="round" stroke-linejoin="round"/>
<path d="M82.6221 90.2812C84.0157 89.7893 85.6061 89.2592 86.2128 88.0459" stroke="#263238" stroke-width="0.734905" stroke-linecap="round" stroke-linejoin="round"/>
<path d="M103.576 90.9914C103.576 90.9914 105.216 94.1121 107.823 91.3029C110.43 88.4938 112.692 86.5426 115.108 87.9035C117.524 89.2644 119.48 91.6855 121.246 90.4722" stroke="#263238" stroke-width="0.734905" stroke-linecap="round" stroke-linejoin="round"/>
<path d="M163.274 87.9035C163.274 87.9035 165.373 85.3129 168.1 87.5155C170.828 89.718 170.226 91.2319 172.423 90.5487" stroke="#263238" stroke-width="0.734905" stroke-linecap="round" stroke-linejoin="round"/>
<path d="M173.336 84.7822C173.336 84.7822 176.823 86.8317 177.659 88.3456C178.495 89.8595 179.55 91.838 180.616 91.5319" stroke="#263238" stroke-width="0.734905" stroke-linecap="round" stroke-linejoin="round"/>
<path d="M136.56 87.903C136.56 87.903 138.91 85.0884 141.866 86.3017C144.823 87.515 146.113 90.5483 147.878 90.3952C149.644 90.2422 150.687 87.7391 152.507 87.5915" stroke="#263238" stroke-width="0.734905" stroke-linecap="round" stroke-linejoin="round"/>
<path d="M86.0585 86.5862C86.0585 86.5862 82.4131 87.4989 82.7793 89.1658C83.1454 90.8328 81.1396 90.9694 81.1396 90.9694C81.1396 90.9694 81.2927 91.5924 83.6045 91.7455C85.9164 91.8985 86.7635 90.2261 87.8566 91.7455C88.9496 93.2648 89.7038 96.6643 93.0432 94.8006C96.3825 92.9369 96.377 89.2915 99.2573 90.9749C102.138 92.6582 104.723 95.3854 107.297 94.0191C109.871 92.6527 112.303 89.0128 114.271 89.9255C116.238 90.8382 119.577 93.866 122.004 92.8058C124.431 91.7455 125.496 88.4335 128.677 89.0128C131.858 89.5921 133.077 91.7182 135.656 90.9749C138.236 90.2316 138.99 88.5592 141.122 88.3296C143.253 88.1001 144.303 92.3521 147.642 92.6527C150.981 92.9533 151.244 88.5592 154.446 88.3296C157.649 88.1001 159.469 92.8058 161.442 92.8058C163.415 92.8058 164.951 89.1658 167.137 89.4664C169.323 89.767 169.782 93.1064 171.75 93.2594C173.717 93.4124 175.39 90.789 177.516 90.9639C179.642 91.1388 179.636 93.9753 182.981 90.9639C182.981 90.9639 179.702 90.5322 178.303 86.5917C176.903 82.6511 103.045 78.8691 86.0585 86.5862Z" stroke="#263238" stroke-width="0.734905" stroke-linecap="round" stroke-linejoin="round"/>
</svg>
