<svg width="257" height="215" viewBox="0 0 257 215" fill="none" xmlns="http://www.w3.org/2000/svg">
<path d="M117.686 1.63405C184.561 -4.12584 184.691 32.375 214.833 66.3519C244.975 100.329 251.42 115.769 240.062 154.961C228.704 194.154 190.407 224.878 143.039 207.469C95.6711 190.06 68.5382 206.795 38.6655 191.344C8.79278 175.892 -2.32252 146.014 19.5629 110.818C41.4483 75.6228 35.1977 8.73684 117.686 1.63405Z" fill="#00BF6D"/>
<path opacity="0.7" d="M117.686 1.63405C184.561 -4.12584 184.691 32.375 214.833 66.3519C244.975 100.329 251.42 115.769 240.062 154.961C228.704 194.154 190.407 224.878 143.039 207.469C95.6711 190.06 68.5382 206.795 38.6655 191.344C8.79278 175.892 -2.32252 146.014 19.5629 110.818C41.4483 75.6228 35.1977 8.73684 117.686 1.63405Z" fill="white"/>
<path d="M104.068 173.358C94.5599 173.088 84.7066 173.439 78.6771 175.418L76.207 184.586C76.207 184.586 89.5659 190.729 129.858 186.145" stroke="#263238" stroke-width="1.0878" stroke-linecap="round" stroke-linejoin="round"/>
<path d="M133.284 184.596L130.587 175.428C130.587 175.428 120.469 174.085 108.718 173.546" stroke="#263238" stroke-width="1.0878" stroke-linecap="round" stroke-linejoin="round"/>
<path d="M131.357 185.773L130.397 205.75" stroke="#263238" stroke-width="1.0878" stroke-linecap="round" stroke-linejoin="round"/>
<path d="M78.0791 185.25L78.7478 201.295" stroke="#263238" stroke-width="1.0878" stroke-linecap="round" stroke-linejoin="round"/>
<path d="M130.597 175.418C130.597 175.418 122.804 179.56 104.748 179.058C86.6914 178.557 81.3145 176.2 81.3145 176.2" stroke="#263238" stroke-width="1.0878" stroke-linecap="round" stroke-linejoin="round"/>
<path d="M104.748 175.418L108.523 157.081L121.791 150.254C121.791 150.254 123.473 150.14 123.473 152.686L111.069 158.759L107.375 175.44C107.375 175.44 113.847 176.394 105.989 176.562C98.1309 176.729 99.3174 175.326 102.839 175.44" stroke="#263238" stroke-width="1.0878" stroke-linecap="round" stroke-linejoin="round"/>
<path d="M138.881 208.063L137.301 197.374L142.316 196.117C142.316 196.117 150.136 202.292 164.067 203.085C177.998 203.878 182.296 197.816 182.296 197.816L189.205 199.58C188.83 204.57 188.065 209.523 186.918 214.395" stroke="#263238" stroke-width="1.0878" stroke-linecap="round" stroke-linejoin="round"/>
<path d="M139.394 196.851L137.9 183.616L142.97 181.076L143.768 183.864L147.258 184.015L147.689 173.806L151.561 173.175L152.295 177.797L155.045 177.915L154.846 182.667L157.78 182.791L158.265 171.438L162.892 170.564L163.281 174.464L166.398 174.598L166.651 168.563L170.815 170.074L170.691 173.061L174.283 174.933L174.115 178.908L177.567 179.808L176.672 183.594L180.523 183.756L182.286 176.869L186.978 178.902L183.845 187.774L186.525 189.543L187.458 185.719L191.341 188.642L187.965 198.916" stroke="#263238" stroke-width="1.0878" stroke-linecap="round" stroke-linejoin="round"/>
<path d="M170.69 173.056L168.555 191.063" stroke="#263238" stroke-width="1.0878" stroke-linecap="round" stroke-linejoin="round"/>
<path d="M172.141 199.401L174.282 183.61L176.671 183.594" stroke="#263238" stroke-width="1.0878" stroke-linecap="round" stroke-linejoin="round"/>
<path d="M163.281 174.463L162.358 201.224" stroke="#263238" stroke-width="1.0878" stroke-linecap="round" stroke-linejoin="round"/>
<path d="M153.222 201.225L153.955 186.631H149.145V198.318" stroke="#263238" stroke-width="1.0878" stroke-linecap="round" stroke-linejoin="round"/>
<path d="M142.328 196.117L141.605 186.631H146.157L145.607 196.117" stroke="#263238" stroke-width="1.0878" stroke-linecap="round" stroke-linejoin="round"/>
<path d="M152.294 177.796H150.536L150.73 184.742" stroke="#263238" stroke-width="1.0878" stroke-linecap="round" stroke-linejoin="round"/>
<path d="M160.109 200.258L160.659 182.79H156.161L155.492 201.833" stroke="#263238" stroke-width="1.0878" stroke-linecap="round" stroke-linejoin="round"/>
<path d="M176.261 200.168L178.742 185.94L183.558 186.631L180.597 198.151" stroke="#263238" stroke-width="1.0878" stroke-linecap="round" stroke-linejoin="round"/>
<path d="M184.799 197.201L186.525 189.543" stroke="#263238" stroke-width="1.0878" stroke-linecap="round" stroke-linejoin="round"/>
<path d="M166.397 174.598L168.555 174.528L167.028 191.371" stroke="#263238" stroke-width="1.0878" stroke-linecap="round" stroke-linejoin="round"/>
<path d="M164.617 201.224L165.523 191.371H170.69L169.255 200.259" stroke="#263238" stroke-width="1.0878" stroke-linecap="round" stroke-linejoin="round"/>
<path d="M199.414 206.823V188.545L210.718 186.631" stroke="#263238" stroke-width="1.0878" stroke-linecap="round" stroke-linejoin="round"/>
<path d="M68.7654 201.224V184.597L49.8516 181.27" stroke="#263238" stroke-width="1.0878" stroke-linecap="round" stroke-linejoin="round"/>
<path d="M68.7649 184.598L54.8128 188.54L52.9414 200.168" stroke="#263238" stroke-width="1.0878" stroke-linecap="round" stroke-linejoin="round"/>
<path d="M54.8131 188.54L46.4375 186.631" stroke="#263238" stroke-width="1.0878" stroke-linecap="round" stroke-linejoin="round"/>
<path d="M111.414 14.8801C109.796 5.17238 99.0855 -1.1484 87.4741 0.776959C75.8626 2.70232 67.7297 12.1403 69.3477 21.8534C70.8308 30.8061 80.0477 36.8626 90.5697 36.2531C93.7409 40.751 100.321 42.9676 100.321 42.9676C98.3898 40.8697 97.1656 37.499 96.5022 35.2069C106.356 32.246 112.849 23.6709 111.414 14.8801Z" fill="white" stroke="#263238" stroke-width="0.725199" stroke-linecap="round" stroke-linejoin="round"/>
<path d="M140.513 14.8801C142.131 5.17238 152.842 -1.1484 164.454 0.776959C176.065 2.70232 184.198 12.1403 182.58 21.8534C181.097 30.8061 171.88 36.8626 161.358 36.2531C158.187 40.751 151.607 42.9676 151.607 42.9676C153.538 40.8697 154.762 37.499 155.426 35.2069C145.572 32.246 139.079 23.6709 140.513 14.8801Z" fill="white" stroke="#263238" stroke-width="0.725199" stroke-linecap="round" stroke-linejoin="round"/>
<path d="M94.3993 12.3834C91.4115 11.7632 89.8151 13.7155 89.1302 14.9397C88.2241 13.8611 86.2934 12.2432 83.4728 13.4027C80.4095 14.6701 79.6976 18.7958 82.6854 22.2097C84.8426 24.669 88.0785 26.1845 89.7342 26.837C89.9284 26.9179 90.1118 26.9826 90.2735 27.0312C90.403 26.9557 90.5702 26.8586 90.7481 26.7454C92.2313 25.7746 95.1382 23.709 96.7993 20.9207C99.1183 16.9783 97.6406 13.0629 94.3993 12.3834Z" fill="#EA596E"/>
<path d="M162.483 9.32445C161.599 9.07815 160.909 9.7369 160.663 10.3509C160.38 11.0579 160.129 11.5541 159.831 12.1468C159.615 12.5721 159.406 13.0003 159.203 13.4313C158.643 14.6216 158.085 15.3828 157.679 15.8413C157.531 16.0102 157.372 16.1685 157.202 16.315C157.163 16.3481 157.123 16.38 157.082 16.4105L157.064 16.4246L154.858 17.7244C154.38 18.0062 154.017 18.4473 153.833 18.9702C153.648 19.4931 153.654 20.0643 153.849 20.5833L154.462 22.2143C154.587 22.5494 154.788 22.8514 155.048 23.0974C155.308 23.3435 155.62 23.5271 155.962 23.6343L162.274 25.6165C162.647 25.7339 163.04 25.7756 163.43 25.7393C163.82 25.703 164.198 25.5893 164.544 25.405C164.889 25.2207 165.194 24.9694 165.442 24.6658C165.689 24.3621 165.873 24.0123 165.983 23.6367L167.591 18.1604C167.694 17.809 167.714 17.4383 167.648 17.0778C167.583 16.7174 167.435 16.3771 167.215 16.0839C166.996 15.7907 166.711 15.5528 166.383 15.389C166.056 15.2251 165.694 15.1399 165.328 15.1401H163.697C163.775 14.8726 163.854 14.5756 163.927 14.268C164.081 13.6057 164.213 12.8504 164.2 12.2199C164.19 11.6342 164.13 11.0191 163.889 10.497C163.631 9.93724 163.18 9.51653 162.484 9.32327L162.483 9.32445ZM157.06 16.4281L157.058 16.4293L157.06 16.4281Z" fill="#00BF6D"/>
<path d="M151.647 114.578C152.186 117.577 155.584 119.971 159.24 121.767C163.015 123.633 167.044 124.906 168.446 125.656C173.3 128.255 177.517 129.712 179.233 134.177C180.948 138.643 192.753 146.49 195.547 150.384C196.874 152.228 200.643 153.425 204.516 154.941C206.397 155.636 208.22 156.48 209.968 157.465C212.088 158.727 213.797 160.28 214.558 162.356C215.857 165.932 219.951 182.527 223.688 198.043C227.323 213.171 243.794 212.173 248.011 203.334C252.259 194.416 254.845 184.799 255.643 174.955C255.643 174.955 250.584 162.054 249.948 157.082C249.311 152.109 247.666 153.263 243.249 146.943C238.832 140.622 238.029 134.598 234.475 127.295C230.921 119.993 225.02 96.7378 224.12 91.7923C223.419 87.8984 220.884 87.7797 217.594 86.3991L217.502 86.3667C216.561 85.9715 215.658 85.4894 214.806 84.9268C213.484 84.0369 211.57 82.1223 209.493 79.8141C204.408 74.1728 198.26 66.2017 196.89 64.9559C194.959 63.1977 192.424 62.6854 184.28 61.7955C177.809 61.0836 174.341 60.4418 172.863 61.1052C166.747 63.8665 161.538 63.7532 159.806 64.8804C159.588 65.0009 159.416 65.1913 159.318 65.421C159.22 65.6508 159.202 65.9067 159.267 66.1478C160.049 70.1333 172.157 71.0016 172.157 71.0016C172.157 71.0016 184.965 89.8777 188.25 94.8016C190.682 98.4151 197.769 102.126 197.769 102.126C198.346 104.639 198.793 107.114 198.793 107.114C198.254 110.431 192.942 118.559 190.111 118.343C187.279 118.127 174.114 114.152 167.955 113.392C161.796 112.631 151.291 112.507 151.647 114.578ZM193.611 84.4791C190.644 81.7826 185.99 75.1436 182.722 71.6973C185.371 72.9047 188.097 73.937 190.882 74.7876C190.882 74.7876 197.817 85.7789 203.006 91.0264C201.954 90.3469 200.848 89.6404 199.77 88.9339H199.737C197.594 87.5939 195.546 86.1054 193.611 84.4791V84.4791Z" fill="white"/>
<path opacity="0.4" d="M151.646 114.578C152.186 117.577 155.583 119.971 159.24 121.767C163.927 121.589 168.786 121.228 170.684 120.732C174.724 119.696 170.064 123.099 170.064 123.099C170.064 123.099 172.96 123.849 175.506 121.12C175.506 121.12 182.668 120.78 183.552 121.773C184.437 122.765 182.841 124.771 183.951 127.808C183.951 127.808 188.606 122.76 190.359 122.323C192.111 121.886 190.596 124.653 194.765 128.681C198.934 132.71 201.851 136.992 206.743 136.431C206.665 134.592 206.772 132.749 207.061 130.93C207.536 128.234 208.28 125.359 207.973 121.19C207.665 117.021 205.988 115.716 205.988 115.716C205.988 115.716 202.833 110.22 201.706 107.303C200.579 104.385 201.166 103.781 201.166 103.781C201.166 103.781 193.044 98.2908 190.439 94.8068C187.835 91.3228 183.498 85.3526 183.488 82.7639C183.477 80.1752 172.394 66.0128 171.121 66.126L170.949 68.2455C169.605 68.3311 168.268 67.9996 167.119 67.2963C166.169 66.6248 164.999 66.3395 163.846 66.4981L169.088 65.0959C168.182 65.3117 164.773 66.0883 163.652 65.6352C162.649 65.2254 161.09 64.4595 159.828 64.8425C159.609 64.963 159.437 65.1533 159.339 65.3831C159.242 65.6128 159.224 65.8687 159.289 66.1098C160.071 70.0954 172.178 70.9637 172.178 70.9637C172.178 70.9637 184.987 89.8397 188.271 94.7637C190.704 98.3771 197.79 102.088 197.79 102.088C198.367 104.601 198.815 107.076 198.815 107.076C198.276 110.393 192.963 118.521 190.132 118.305C187.301 118.089 174.136 114.114 167.977 113.354C161.818 112.593 151.291 112.507 151.646 114.578Z" fill="#00BF6D"/>
<path opacity="0.4" d="M178.71 68.2568C179.984 69.4762 181.323 70.6248 182.722 71.6977V71.6977C185.372 72.905 188.098 73.9373 190.882 74.7879C190.882 74.7879 197.818 85.7792 203.006 91.0267C201.954 90.3472 200.849 89.6407 199.77 88.9342C200.495 89.5226 201.257 90.0631 202.052 90.5521C204.257 91.8303 206.42 93.2973 206.42 93.2973C206.42 93.2973 208.194 92.4559 204.117 88.1899C200.04 83.924 193.25 74.3619 192.543 72.4635C191.837 70.5651 181.563 69.2006 178.71 68.2568Z" fill="#00BF6D"/>
<path opacity="0.4" d="M176.671 62.8469C176.671 62.8469 192.128 65.6513 194.695 66.6221C197.262 67.5929 206.457 82.2029 217.529 86.3557C216.588 85.9604 215.685 85.4784 214.833 84.9157C213.512 84.0258 211.597 82.1112 209.521 79.803C207.331 78.3955 205.364 76.6686 203.685 74.6795C200.212 70.6292 195.849 65.8347 194.199 65.0095C192.548 64.1844 181.908 62.7121 179.637 62.4801C177.367 62.2482 176.671 62.8469 176.671 62.8469Z" fill="#00BF6D"/>
<path opacity="0.4" d="M212.983 94.2683C212.983 94.2683 219.757 94.1442 220.588 97.2668C221.418 100.389 225.285 110.836 225.285 110.836C225.285 110.836 219.854 102.078 218.075 99.3864C216.295 96.6952 212.983 94.2683 212.983 94.2683Z" fill="#00BF6D"/>
<path opacity="0.4" d="M209.975 157.47C212.094 158.732 213.804 160.285 214.564 162.361C215.864 165.937 219.957 182.532 223.695 198.048C221.899 185.045 217.309 166.401 218.841 167.393C220.896 168.693 224.132 183.368 224.671 180.277C225.21 177.187 224.844 164.022 227.206 163.073C229.568 162.124 230.852 157.82 230.852 157.82C226.958 159.39 221.716 158.629 221.716 158.629C218.199 159.945 213.545 158.818 209.975 157.47Z" fill="#00BF6D"/>
<path d="M193.616 84.4791C190.645 81.7825 185.99 75.1435 182.717 71.6973C185.372 72.9107 188.106 73.9466 190.898 74.7983C190.898 74.7983 197.834 85.7896 203.022 91.0371C199.624 88.8313 195.741 86.4044 193.616 84.4791Z" stroke="#263238" stroke-width="0.725199" stroke-linecap="round" stroke-linejoin="round"/>
<path d="M255.649 174.959C252.877 168.418 250.218 161.169 249.177 154.05C246.707 151.143 244.194 148.776 242.263 145.917C233.397 128.427 228.295 111.239 224.439 91.9858C223.849 91.1122 223.379 90.1636 223.042 89.1652C219.498 86.1774 214.661 85.7837 211.716 82.2997C206.28 75.9034 201.383 69.5557 195.369 63.6609C188.509 61.5037 180.943 61.412 173.953 60.8457C169.477 62.647 164.553 63.3319 160.125 64.6209C158.421 65.5647 159.861 67.8568 160.891 68.4716C164.569 69.8469 168.247 71.2275 172.049 70.9956C180.409 81.4098 185.279 94.7902 197.613 102.815C198.643 103.441 199.01 105.636 198.88 107.248C197.413 112 194.248 117.695 188.784 118.337C177.173 114.691 165.524 111.585 152.941 113.273C151.825 113.72 151.243 114.216 151.647 115.872C153.044 118.693 156.14 120.564 158.739 121.858C164.521 123.946 170.307 126.038 175.458 129.161C178.014 130.989 178.829 134.306 180.765 137.164C185.209 142.396 190.904 145.561 195.396 150.253C198.897 153.781 204.23 154.751 208.939 156.758C212.077 158.095 214.591 160.463 215.41 163.769C218.258 175.364 221.111 186.959 224.185 198.792" stroke="#263238" stroke-width="0.725199" stroke-linecap="round" stroke-linejoin="round"/>
<path d="M172.158 70.9539C172.158 70.9539 168.27 62.8641 172.886 61.9365C172.886 61.9365 177.74 67.9014 180.793 69.9669C183.845 72.0325 189.993 81.2063 193.617 84.4799C197.242 87.7536 205.93 92.4888 208.718 95.1044" stroke="#263238" stroke-width="0.725199" stroke-linecap="round" stroke-linejoin="round"/>
<path d="M182.717 71.6973C185.372 72.9107 188.106 73.9466 190.898 74.7983C190.898 74.7983 197.834 85.7896 203.022 91.0371" stroke="#263238" stroke-width="0.725199" stroke-linecap="round" stroke-linejoin="round"/>
<path d="M197.764 102.077C197.764 102.077 200.552 104.482 203.459 103.808" stroke="#263238" stroke-width="0.725199" stroke-linecap="round" stroke-linejoin="round"/>
<path d="M198.783 107.061C199.927 110.523 206.943 116.714 206.943 116.714C206.943 116.714 208.453 122.107 208.264 124.421C208.076 126.735 205.924 132.511 207.035 139.614" stroke="#263238" stroke-width="0.725199" stroke-linecap="round" stroke-linejoin="round"/>
<path d="M206.949 116.714C206.949 116.714 210.579 118.359 213.313 118.138" stroke="#263238" stroke-width="0.725199" stroke-linecap="round" stroke-linejoin="round"/>
<path d="M207.952 156.407C208.265 156.823 217.66 160.56 220.739 159.255C220.739 159.255 228.721 159.902 233.683 156.283" stroke="#263238" stroke-width="0.725199" stroke-linecap="round" stroke-linejoin="round"/>
<path d="M170.739 70.7321C170.739 70.7321 163.927 70.0256 163.819 66.5201C163.819 66.5201 169.078 65.3875 170.652 64.4814" stroke="#263238" stroke-width="0.725199" stroke-linecap="round" stroke-linejoin="round"/>
<path d="M174.417 63.7535C174.417 63.7535 176.191 62.7234 177.221 62.8043C178.252 62.8852 191.314 65.8892 194.086 66.3746C196.858 66.86 208.442 83.2767 215.556 85.3747" stroke="#263238" stroke-width="0.725199" stroke-linecap="round" stroke-linejoin="round"/>
<path d="M190.1 118.294C188.401 119.313 184.022 125.375 183.726 129.043" stroke="#263238" stroke-width="0.725199" stroke-linecap="round" stroke-linejoin="round"/>
<path d="M175.247 116.083C175.247 116.083 176.741 119.47 171.833 122.231" stroke="#263238" stroke-width="0.725199" stroke-linecap="round" stroke-linejoin="round"/>
<path d="M88.8275 113.343C82.6739 114.104 69.5092 118.079 66.6778 118.289C63.8464 118.499 58.5234 110.377 57.9949 107.06C57.9949 107.06 58.4425 104.585 59.0196 102.077C59.0196 102.077 66.1062 98.3666 68.5331 94.7478C71.8229 89.8454 84.6317 70.9532 84.6317 70.9532C84.6317 70.9532 96.7447 70.1065 97.5267 66.0993C97.5878 65.8546 97.5646 65.5964 97.4609 65.3664C97.3572 65.1364 97.1789 64.9482 96.955 64.8319C95.2346 63.7533 90.014 63.8396 83.8982 61.0567C82.4205 60.388 78.9419 61.0567 72.4863 61.7471C64.3372 62.6369 61.8024 63.1493 59.8717 64.9075C58.5018 66.1479 52.3536 74.119 47.2679 79.7602C45.1807 82.0685 43.2715 83.9831 41.9502 84.8729C41.098 85.4356 40.1953 85.9177 39.2536 86.3129L39.162 86.3453C35.8829 87.7367 33.3373 87.8553 32.6362 91.7384C31.7356 96.6839 25.8409 119.945 22.276 127.242C18.7111 134.539 17.9345 140.649 13.5175 146.943C9.1005 153.237 7.45559 152.109 6.82459 157.076C6.19359 162.044 1.12402 174.949 1.12402 174.949C1.92133 184.794 4.50741 194.411 8.75534 203.328C12.9728 212.168 29.4381 213.171 33.0785 198.043C36.8051 182.527 40.9093 165.932 42.2145 162.356C42.9695 160.28 44.6845 158.727 46.7987 157.47C48.5489 156.487 50.3738 155.643 52.2565 154.946C56.1288 153.436 59.8986 152.25 61.22 150.394C64.019 146.501 75.83 138.653 77.5397 134.188C79.2493 129.722 83.4721 128.255 88.326 125.667C89.7228 124.917 93.7569 123.644 97.5267 121.778C101.183 119.966 104.597 117.593 105.12 114.589C105.482 112.507 94.9865 112.572 88.8275 113.343ZM57.0079 88.9232H56.9755C55.8969 89.6351 54.8183 90.3416 53.7397 91.0211C58.9279 85.7682 65.8635 74.7823 65.8635 74.7823C68.651 73.933 71.3788 72.8988 74.0287 71.6867V71.6867C70.7551 75.1329 66.1062 81.7826 63.1345 84.463C61.203 86.0889 59.1613 87.5791 57.0241 88.9232H57.0079Z" fill="white"/>
<path opacity="0.4" d="M105.131 114.579C104.591 117.583 101.194 119.972 97.5372 121.768C92.8559 121.595 87.9913 121.229 86.0983 120.733C82.0534 119.697 86.7185 123.1 86.7185 123.1C86.7185 123.1 83.817 123.85 81.2768 121.121C81.2768 121.121 74.1093 120.781 73.2302 121.773C72.3512 122.766 73.9421 124.772 72.8258 127.803C72.8258 127.803 68.1715 122.76 66.4241 122.318C64.6767 121.876 66.1814 124.648 62.0125 128.677C57.8436 132.705 54.9259 136.988 50.0343 136.432C50.1112 134.596 50.0046 132.757 49.7161 130.942C49.2415 128.245 48.4972 125.371 48.8046 121.202C49.1121 117.033 50.7947 115.728 50.7947 115.728C50.7947 115.728 53.9497 110.232 55.0769 107.314C56.2041 104.397 55.6162 103.798 55.6162 103.798C55.6162 103.798 63.7059 98.3024 66.3432 94.8346C68.9804 91.3668 73.2842 85.3858 73.295 82.7971C73.3058 80.2084 84.3887 66.0406 85.6669 66.1538L85.8341 68.2787C87.1794 68.3643 88.5185 68.0329 89.6686 67.3295C90.6189 66.6575 91.7893 66.3722 92.9422 66.5314L87.7001 65.1291C88.6007 65.3449 92.0146 66.1215 93.1364 65.6685C94.1341 65.2586 95.6981 64.4927 96.9547 64.8757C97.1787 64.9919 97.3569 65.1801 97.4606 65.4101C97.5643 65.6401 97.5875 65.8983 97.5264 66.1431C96.7444 70.134 84.6314 70.9969 84.6314 70.9969C84.6314 70.9969 71.8226 89.8729 68.5328 94.7915C66.1059 98.4103 59.0193 102.121 59.0193 102.121C58.4422 104.629 57.9946 107.104 57.9946 107.104C58.5339 110.421 63.8408 118.554 66.6776 118.333C69.5144 118.112 82.6737 114.148 88.8273 113.387C94.9808 112.627 105.481 112.508 105.131 114.579Z" fill="#00BF6D"/>
<path opacity="0.4" d="M78.0787 68.2568C76.8026 69.4735 75.4632 70.622 74.0662 71.6977V71.6977C71.4163 72.9098 68.6885 73.944 65.901 74.7933C65.901 74.7933 58.9492 85.7846 53.761 91.0321C54.8396 90.3526 55.9183 89.6461 56.9969 88.9342C56.2739 89.5244 55.5117 90.065 54.7156 90.5521C52.5098 91.8303 50.3471 93.2973 50.3471 93.2973C50.3471 93.2973 48.5728 92.4559 52.65 88.1953C56.7272 83.9347 63.5226 74.3619 64.2291 72.4635C64.9356 70.5651 75.2204 69.1952 78.0787 68.2568Z" fill="#00BF6D"/>
<path opacity="0.4" d="M80.133 62.8469C80.133 62.8469 64.6816 65.6459 62.1144 66.6221C59.5473 67.5982 50.3466 82.2029 39.2744 86.3556C40.216 85.9604 41.1188 85.4783 41.971 84.9157C43.2923 84.0258 45.2069 82.1112 47.2886 79.8029C49.4778 78.3949 51.4461 76.6701 53.1294 74.6848C56.5972 70.6292 60.9603 65.8347 62.616 65.0095C64.2717 64.1844 74.9016 62.712 77.1775 62.4855C79.4534 62.259 80.133 62.8469 80.133 62.8469Z" fill="#00BF6D"/>
<path opacity="0.4" d="M43.7944 94.2683C43.7944 94.2683 37.026 94.1442 36.1955 97.2668C35.3649 100.389 31.498 110.836 31.498 110.836C31.498 110.836 36.929 102.078 38.7087 99.3864C40.4884 96.6952 43.7944 94.2683 43.7944 94.2683Z" fill="#00BF6D"/>
<path opacity="0.4" d="M46.7987 157.47C44.6845 158.726 42.9695 160.28 42.2145 162.356C40.9093 165.932 36.8213 182.526 33.0785 198.042C34.8744 185.04 39.464 166.395 37.9323 167.388C35.9099 168.693 32.674 183.362 32.1347 180.267C31.5953 177.171 31.9621 164.017 29.6053 163.068C27.2485 162.119 25.9541 157.815 25.9541 157.815C29.8534 159.384 35.1225 158.624 35.1225 158.624C38.6064 159.94 43.2284 158.813 46.7987 157.47Z" fill="#00BF6D"/>
<path d="M53.7607 91.0317C58.949 85.7842 65.8846 74.7983 65.8846 74.7983C68.6764 73.944 71.4093 72.9081 74.066 71.6973C70.7923 75.1435 66.138 81.7933 63.1664 84.4791C61.0415 86.399 57.1584 88.8259 53.7607 91.0317Z" stroke="#263238" stroke-width="0.725199" stroke-linecap="round" stroke-linejoin="round"/>
<path d="M33.1427 196.652C36.0928 184.749 37.7808 172.167 43.3196 160.356C44.7596 158.074 46.8683 157.362 48.9339 156.117C52.0727 154.779 55.2547 153.959 57.8542 152.692C64.2331 148.105 70.1552 142.915 75.5383 137.192C77.9652 133.751 79.8528 130.354 82.9539 128.477C90.1322 123.569 100.967 123.779 105.158 115.323C105.562 113.667 103.367 113.306 102.251 112.853C89.7115 111.699 78.6394 115.301 66.9902 118.408C62.0177 117.183 59.9791 111.936 58.0106 107.767C56.6353 104.094 59.6285 101.144 63.3174 99.7635C64.4671 99.1432 65.5001 98.3274 66.37 97.3528C73.2462 88.6806 78.4614 79.6039 84.7984 70.9749C89.1129 70.6297 92.818 69.7884 96.453 67.8738C97.4831 67.2482 97.893 65.5925 97.3105 65.0963C92.214 62.2595 87.3332 62.1139 81.8699 61.4721C76.9459 60.7872 71.569 61.224 66.7691 62.1516C63.5871 62.9498 60.4051 63.7696 57.9351 66.6549C53.5289 72.4202 49.6188 77.603 44.6355 82.8776C41.6262 85.8276 37.9049 86.6528 34.2753 88.5835C33.7791 89.166 33.2398 89.2091 33.2883 89.743C29.3406 107.918 24.2386 125.106 15.9062 142.553C13.5656 147.067 10.5562 150.017 7.63849 154.04C5.25472 158.02 6.19852 160.027 1.11816 174.95" stroke="#263238" stroke-width="0.725199" stroke-linecap="round" stroke-linejoin="round"/>
<path d="M84.6256 70.9529C84.6256 70.9529 88.5141 62.8632 83.8976 61.9355C83.8976 61.9355 79.0437 67.9004 75.9966 69.9606C72.9495 72.0207 66.7905 81.2053 63.1663 84.4789C59.5421 87.7526 50.8537 92.4824 48.0654 95.0981" stroke="#263238" stroke-width="0.725199" stroke-linecap="round" stroke-linejoin="round"/>
<path d="M74.066 71.6973C71.4093 72.9081 68.6764 73.944 65.8846 74.7983C65.8846 74.7983 58.949 85.7842 53.7607 91.0317" stroke="#263238" stroke-width="0.725199" stroke-linecap="round" stroke-linejoin="round"/>
<path d="M59.0194 102.071C59.0194 102.071 56.2311 104.477 53.3242 103.808" stroke="#263238" stroke-width="0.725199" stroke-linecap="round" stroke-linejoin="round"/>
<path d="M58.0214 107.061C56.8727 110.523 49.8562 116.714 49.8562 116.714C49.8562 116.714 48.3461 122.107 48.5349 124.416C48.7236 126.724 50.8755 132.505 49.7645 139.608" stroke="#263238" stroke-width="0.725199" stroke-linecap="round" stroke-linejoin="round"/>
<path d="M49.8288 116.714C49.8288 116.714 46.2046 118.332 43.4648 118.132" stroke="#263238" stroke-width="0.725199" stroke-linecap="round" stroke-linejoin="round"/>
<path d="M48.8147 156.402C48.5019 156.818 39.1071 160.555 36.0276 159.25C36.0276 159.25 28.0457 159.897 23.084 156.278" stroke="#263238" stroke-width="0.725199" stroke-linecap="round" stroke-linejoin="round"/>
<path d="M86.0654 70.7321C86.0654 70.7321 92.877 70.0256 92.9795 66.5201C92.9795 66.5201 87.7211 65.3875 86.1517 64.4814" stroke="#263238" stroke-width="0.725199" stroke-linecap="round" stroke-linejoin="round"/>
<path d="M82.3665 63.7535C82.3665 63.7535 80.5922 62.7234 79.5621 62.8043C78.532 62.8852 65.4752 65.8892 62.7031 66.3692C59.931 66.8492 48.3411 83.2714 41.2275 85.3693" stroke="#263238" stroke-width="0.725199" stroke-linecap="round" stroke-linejoin="round"/>
<path d="M66.6777 118.294C68.382 119.308 72.7558 125.37 73.0524 129.043" stroke="#263238" stroke-width="0.725199" stroke-linecap="round" stroke-linejoin="round"/>
<path d="M81.5308 116.082C81.5308 116.082 80.0423 119.469 84.9447 122.225" stroke="#263238" stroke-width="0.725199" stroke-linecap="round" stroke-linejoin="round"/>
<path d="M174.552 112.064C172.934 109.999 149.301 108.699 127.631 107.906C108.658 107.21 85.5648 107.405 83.4075 108.85C81.7303 109.983 81.9891 115.241 83.0839 116.94C84.1787 118.639 87.3014 119.901 89.1458 120.176C95.979 121.211 119.547 125.725 126.731 126.049C133.914 126.372 143.342 126.399 151.421 126.049C157.989 125.768 171.629 125.191 174.541 120.408C175.636 118.628 175.156 112.83 174.552 112.064Z" fill="#00BF6D"/>
<path opacity="0.2" d="M82.5811 110.095C82.7235 109.603 83.0157 109.168 83.417 108.849C85.5743 107.393 108.673 107.231 127.641 107.9C149.294 108.693 172.943 109.987 174.561 112.058C173.105 114.642 167.486 117.554 164.341 118.061C159.32 118.742 154.26 119.103 149.192 119.14C144.252 119.14 130.316 118.358 123.715 118.061C117.113 117.764 107.33 117.214 104.299 116.039C101.268 114.863 89.0313 113.622 85.1051 112.053C84.0628 111.712 83.1709 111.02 82.5811 110.095V110.095Z" fill="black" fill-opacity="0.7"/>
<path opacity="0.2" d="M174.999 119.074C174.927 119.539 174.775 119.988 174.551 120.401C171.639 125.185 158.005 125.762 151.431 126.047C143.341 126.393 133.924 126.371 126.741 126.047C119.557 125.724 95.9997 121.194 89.1557 120.169C87.3113 119.888 84.2048 118.653 83.0938 116.933C82.5389 115.826 82.2456 114.606 82.2363 113.368C84.6417 116.453 85.6394 118.012 95.1799 119.786C104.834 121.587 145.466 125.4 161.052 123.825C169.703 122.963 173.435 120.821 174.999 119.074Z" fill="black" fill-opacity="0.7"/>
<path d="M127.82 118.147C128.629 118.201 129.438 118.25 130.253 118.293" stroke="#263238" stroke-width="0.725199" stroke-linecap="round" stroke-linejoin="round"/>
<path d="M102.606 115.779C110.394 117.036 118.247 118.012 126.137 118.044" stroke="#263238" stroke-width="0.725199" stroke-linecap="round" stroke-linejoin="round"/>
<path d="M82.5811 110.095C83.8484 112.452 87.079 112.63 89.3549 113.331C92.9197 114.409 96.8028 114.814 100.486 115.429" stroke="#263238" stroke-width="0.725199" stroke-linecap="round" stroke-linejoin="round"/>
<path d="M146.432 119.307C145.893 119.307 145.326 119.264 144.776 119.231" stroke="#263238" stroke-width="0.725199" stroke-linecap="round" stroke-linejoin="round"/>
<path d="M152.579 119.253C151.84 119.285 151.107 119.307 150.368 119.323" stroke="#263238" stroke-width="0.725199" stroke-linecap="round" stroke-linejoin="round"/>
<path d="M174.551 112.063C171.736 117.759 164.412 118.578 158.787 118.929" stroke="#263238" stroke-width="0.725199" stroke-linecap="round" stroke-linejoin="round"/>
<path d="M174.552 112.064C172.934 109.999 149.301 108.699 127.631 107.906C108.658 107.21 85.5648 107.405 83.4075 108.85C81.7303 109.983 81.9891 115.241 83.0839 116.94C84.1787 118.639 87.3014 119.901 89.1458 120.176C95.979 121.211 119.547 125.725 126.731 126.049C133.914 126.372 143.342 126.399 151.421 126.049C157.989 125.768 171.629 125.191 174.541 120.408C175.636 118.628 175.156 112.83 174.552 112.064Z" stroke="#263238" stroke-width="0.725199" stroke-linecap="round" stroke-linejoin="round"/>
<path d="M85.1708 99.5526C85.1708 99.5526 83.3318 102.762 83.952 103.705C84.5722 104.649 84.1893 108.365 83.952 109.287C83.7147 110.21 86.6486 112.065 88.9137 111.525C91.1788 110.986 96.394 113.321 98.1899 113.03C99.9858 112.739 102.677 113.569 104.176 113.904C105.676 114.238 108.367 116.153 110.163 115.727C111.959 115.301 114.051 115.727 115.248 115.727C116.446 115.727 117.195 115.727 119.563 115.791C121.931 115.856 124.649 117.253 125.695 116.681C126.741 116.11 131.088 116.848 132.28 116.681C133.472 116.514 139.291 116.989 140.737 116.816C142.182 116.644 144.102 116.983 144.701 116.681C145.299 116.379 146.944 116.924 147.845 116.854C149.323 116.621 150.824 116.564 152.316 116.681C154.128 116.919 153.831 117.345 156.824 116.859C159.818 116.374 161.036 116.681 161.036 116.681C161.036 116.681 163.431 116.142 164.839 115.727C166.246 115.311 166.807 116.692 168.026 115.727C169.245 114.761 169.692 114.26 170.291 113.904C170.89 113.548 171.591 112.539 171.909 112.609C172.133 112.597 172.346 112.51 172.515 112.362C172.684 112.215 172.799 112.015 172.842 111.795C172.842 111.391 173.721 110.139 173.441 108.155C173.16 106.17 173.522 100.065 171.909 98.0426C170.296 96.0201 102.531 90.4059 85.1708 99.5526Z" fill="#1D1D35"/>
<g opacity="0.2">
<path d="M123.477 112.388C122.695 112.388 121.574 113.401 121.574 113.401L125.273 114.281C125.273 114.281 130.327 115.392 130.667 115.068C131.006 114.744 131.001 112.371 130.667 111.492C130.332 110.613 130.354 109.923 129.588 108.461C128.822 107 126.622 106.132 126.514 105.091C126.406 104.05 126.401 104.551 124.718 103.748C123.035 102.944 120.118 103.748 118.435 103.03C116.752 102.313 114.282 101.466 114.282 101.466L120.786 100.107C120.786 100.107 112.373 100.172 111.138 100.107C109.903 100.043 107.433 101.094 106.198 101.466C104.963 101.839 102.832 102.248 102.832 102.248C102.832 102.248 109.159 103.748 109.418 103.748H102.04C99.7961 103.748 99.3431 103.3 98.2213 103.748C97.0995 104.195 97.2128 104.756 95.9832 104.756C95.2256 104.813 94.4648 104.813 93.7072 104.756C92.1648 104.643 89.8242 104.309 89.8242 104.309C89.8242 104.309 88.0984 105.571 87.7748 105.781C87.4512 105.991 85.3964 105.991 84.1775 104.368C84.1775 104.368 84.1775 104.325 84.1775 104.303C84.3477 105.698 84.3241 107.11 84.1074 108.499C84.1074 108.44 84.1074 108.386 84.1074 108.327C84.3585 108.542 84.6527 108.702 84.9703 108.796C86.5397 109.243 85.4234 110.484 87.1006 110.257C88.7779 110.031 90.4714 108.569 91.7064 109.47C92.9414 110.371 96.8676 111.153 97.8761 111.266C98.8847 111.379 99.451 109.923 101.802 111.266C104.154 112.609 103.604 112.274 105.173 112.609C106.742 112.943 108.355 111.6 109.401 112.609C110.448 113.617 112.357 113.736 113.818 113.515C115.28 113.294 116.283 115.278 116.731 113.606C117.178 111.935 114.153 110.91 113.252 110.91C112.351 110.91 110.555 110.57 110.108 110.009C109.66 109.448 107.53 109.675 108.538 109.222C109.547 108.769 116.283 109.556 117.523 110.009C118.764 110.462 119.648 110.122 121.563 110.549C122.732 110.873 123.942 111.026 125.155 111.002C126.163 111.002 126.163 110.775 127.172 111.002C128.18 111.228 124.259 112.388 123.477 112.388Z" fill="white"/>
<path d="M173.289 110.478C173.289 110.478 172.997 110.22 171.93 108.235C170.862 106.25 167.55 106.018 166.278 105.781C165.078 105.554 163.847 105.554 162.648 105.781C161.073 105.991 159.844 106.018 159.169 105.781C158.495 105.544 160.965 104.643 162.195 104.53C163.425 104.416 164.05 104.082 164.865 103.99C165.107 103.945 165.332 103.834 165.515 103.668C165.698 103.502 165.831 103.289 165.9 103.052C165.9 103.052 162.988 103.235 159.056 103.052C155.125 102.869 154.159 102.788 152.342 103.052C150.524 103.316 148.281 104.67 147.046 104.778C145.811 104.886 143.567 104.778 144.349 105.225C146.179 105.966 148.106 106.438 150.071 106.628C151.646 106.687 153.102 106.628 153.102 106.628C153.102 106.628 145.336 108.402 143.772 108.607C142.208 108.812 142.105 109.718 141.431 109.831C140.757 109.944 140.083 110.613 138.961 110.613C137.839 110.613 136.944 110.84 136.944 111.287C136.944 111.735 135.208 113.083 137.419 112.97C138.795 112.904 140.174 112.942 141.545 113.083L136.497 114.205C136.497 114.205 138.514 115.413 142.213 115.09C145.913 114.766 146.032 113.984 148.615 113.871C151.198 113.757 152.989 114.318 154.547 114.205C156.106 114.092 156.543 113.536 158.296 113.191C160.048 112.846 160.723 113.423 162.524 113.423C164.325 113.423 165.657 114.545 167.124 113.536C168.591 112.528 169.185 112.296 168.656 112.075C168.127 111.854 162.465 112.522 164.848 111.622C167.232 110.721 169.163 110.166 169.929 110.279C170.667 110.298 171.372 110.586 171.913 111.088C172.264 111.363 172.62 111.271 173.078 111.088C173.154 110.897 173.224 110.694 173.289 110.478Z" fill="white"/>
</g>
<path d="M92.2783 106.606C94.0742 106.552 95.9834 107.34 97.6715 107.561C99.3595 107.782 100.907 107.119 102.385 107.512C103.863 107.906 105.303 109.06 107.212 108.31" stroke="#263238" stroke-width="0.725199" stroke-linecap="round" stroke-linejoin="round"/>
<path d="M113.376 106.132H115.188L116.65 106.914H118.424" stroke="#263238" stroke-width="0.725199" stroke-linecap="round" stroke-linejoin="round"/>
<path d="M120.641 106.902C121.865 107.35 123.219 107.14 124.508 106.902" stroke="#263238" stroke-width="0.725199" stroke-linecap="round" stroke-linejoin="round"/>
<path d="M144.149 112.188C144.904 111.999 145.81 111.843 146.382 112.377C146.471 112.478 146.573 112.566 146.684 112.641C146.772 112.68 146.864 112.706 146.959 112.717C148.194 112.882 149.448 112.626 150.519 111.989C150.684 111.873 150.866 111.784 151.058 111.724C151.431 111.717 151.8 111.796 152.137 111.956C152.487 112.064 152.967 112.021 153.102 111.676" stroke="#263238" stroke-width="0.725199" stroke-linecap="round" stroke-linejoin="round"/>
<path d="M155.923 111.789C156.315 111.903 156.731 111.901 157.123 111.784C157.514 111.668 157.863 111.441 158.129 111.131" stroke="#263238" stroke-width="0.725199" stroke-linecap="round" stroke-linejoin="round"/>
<path d="M162.292 111.12C163.128 110.85 164.023 111.152 164.886 111.325C165.204 111.408 165.539 111.408 165.857 111.325C166.094 111.221 166.318 111.09 166.526 110.936C167.245 110.532 168.077 110.377 168.893 110.494C169.703 110.61 170.497 110.816 171.261 111.109" stroke="#263238" stroke-width="0.725199" stroke-linecap="round" stroke-linejoin="round"/>
<path d="M148.626 107.928C149.578 107.82 150.541 107.864 151.479 108.057C151.824 108.127 152.256 108.187 152.461 107.901" stroke="#263238" stroke-width="0.725199" stroke-linecap="round" stroke-linejoin="round"/>
<path d="M157.153 107.599C158.236 107.283 159.365 107.151 160.492 107.211C161.015 107.264 161.543 107.264 162.066 107.211C162.342 107.146 162.625 107.115 162.908 107.119C163.154 107.175 163.397 107.245 163.636 107.329C164.439 107.529 165.254 107.087 166.057 106.936C166.749 106.841 167.451 106.852 168.139 106.968" stroke="#263238" stroke-width="0.725199" stroke-linecap="round" stroke-linejoin="round"/>
<path d="M85.3154 107.458C85.6444 107.307 85.941 107.706 86.2538 107.89C86.75 108.186 87.3756 107.944 87.9149 107.733C88.4542 107.523 89.15 107.394 89.5329 107.83" stroke="#263238" stroke-width="0.725199" stroke-linecap="round" stroke-linejoin="round"/>
<path d="M96.2207 104.018C97.3694 103.656 98.4966 104.627 99.6939 104.767C100.535 104.864 101.447 104.551 102.213 104.929C102.423 105.031 102.612 105.188 102.833 105.274C103.712 105.614 104.591 104.794 105.529 104.67" stroke="#263238" stroke-width="0.725199" stroke-linecap="round" stroke-linejoin="round"/>
<path d="M107.757 104.967C108.217 105.057 108.648 105.257 109.013 105.549C109.2 105.691 109.422 105.779 109.655 105.803C109.888 105.826 110.123 105.785 110.335 105.684" stroke="#263238" stroke-width="0.725199" stroke-linecap="round" stroke-linejoin="round"/>
<path d="M85.1708 99.5526C85.1708 99.5526 83.3318 102.762 83.952 103.705C84.5722 104.649 84.1893 108.365 83.952 109.287C83.7147 110.21 86.6486 112.065 88.9137 111.525C91.1788 110.986 96.394 113.321 98.1899 113.03C99.9858 112.739 102.677 113.569 104.176 113.904C105.676 114.238 108.367 116.153 110.163 115.727C111.959 115.301 114.051 115.727 115.248 115.727C116.446 115.727 117.195 115.727 119.563 115.791C121.931 115.856 124.649 117.253 125.695 116.681C126.741 116.11 131.088 116.848 132.28 116.681C133.472 116.514 139.291 116.989 140.737 116.816C142.182 116.644 144.102 116.983 144.701 116.681C145.299 116.379 146.944 116.924 147.845 116.854C149.323 116.621 150.824 116.564 152.316 116.681C154.128 116.919 153.831 117.345 156.824 116.859C159.818 116.374 161.036 116.681 161.036 116.681C161.036 116.681 163.431 116.142 164.839 115.727C166.246 115.311 166.807 116.692 168.026 115.727C169.245 114.761 169.692 114.26 170.291 113.904C170.89 113.548 171.591 112.539 171.909 112.609C172.133 112.597 172.346 112.51 172.515 112.362C172.684 112.215 172.799 112.015 172.842 111.795C172.842 111.391 173.721 110.139 173.441 108.155C173.16 106.17 173.522 100.065 171.909 98.0426C170.296 96.0201 102.531 90.4059 85.1708 99.5526Z" stroke="#263238" stroke-width="0.362599" stroke-miterlimit="10"/>
<path d="M86.6375 95.1405C86.6375 95.1405 83.0349 99.5575 84.1783 101.467C85.3216 103.376 85.8393 104.298 85.8771 106.606C85.9148 108.915 86.8479 109.686 87.5813 106.606C88.3148 103.527 88.4982 102.47 89.8249 102.249C91.1516 102.028 93.2172 102.923 93.0608 103.823C92.9044 104.724 95.1749 105.085 95.6225 103.031C96.0702 100.976 99.5164 101.413 102.057 100.83C104.597 100.248 105.352 97.6429 107.148 97.6645C108.944 97.6861 114.477 99.331 117.621 98.5867C120.765 97.8425 124.632 100.302 125.851 101.467C127.07 102.632 127.938 105.021 129.589 105.468C131.239 105.916 130.791 114.594 132.733 115.047C134.674 115.5 134.081 109.211 136.179 108.613C138.277 108.014 137.673 110.856 139.172 109.659C140.672 108.462 140.068 106.089 141.869 105.107C143.67 104.125 143.514 103.219 144.862 102.249C146.21 101.278 146.372 99.66 148.626 99.66C150.881 99.66 154.311 99.3579 155.357 98.9103C156.403 98.4627 157.903 98.4627 160.297 100.259C162.692 102.055 162.864 102.125 164.871 101.494C166.877 100.863 166.284 98.7593 168.678 100.555C171.073 102.351 170.835 104.595 171.914 104.449C172.993 104.303 173.295 108.764 173.446 109.686C173.597 110.608 174.735 110.284 174.616 107.739C174.394 104.899 174.394 102.047 174.616 99.2069C174.929 94.6335 168.797 86.3928 149.942 85.4706C131.088 84.5483 96.4854 85.2656 86.6375 95.1405Z" fill="#999999"/>
<path opacity="0.5" d="M86.6385 95.1405C86.6385 95.1405 83.0359 99.5575 84.1792 101.467C85.3226 103.376 85.8403 104.298 85.8781 106.606C85.9158 108.915 86.8488 109.686 87.5823 106.606C88.3158 103.527 88.4991 102.47 89.8259 102.249C91.1526 102.028 93.2182 102.923 93.0618 103.823C92.9054 104.724 95.1759 105.085 95.6235 103.031C96.0711 100.976 99.5174 101.413 102.058 100.83C104.598 100.248 105.353 97.6429 107.149 97.6645C108.945 97.6861 114.478 99.331 117.622 98.5867C120.766 97.8425 124.633 100.302 125.852 101.467C127.071 102.632 127.939 105.021 129.59 105.468C131.24 105.916 130.792 114.594 132.734 115.047C134.675 115.5 134.082 109.211 136.18 108.613C138.278 108.014 137.674 110.856 139.173 109.659C140.673 108.462 140.069 106.089 141.87 105.107C143.671 104.125 143.515 103.219 144.863 102.249C146.211 101.278 146.373 99.66 148.627 99.66C150.882 99.66 154.312 99.3579 155.358 98.9103C156.404 98.4627 157.904 98.4627 160.298 100.259C162.693 102.055 162.865 102.125 164.872 101.494C166.878 100.863 166.285 98.7593 168.679 100.555C171.074 102.351 170.836 104.595 171.915 104.449C172.994 104.303 173.296 108.764 173.447 109.686C173.598 110.608 174.736 110.284 174.617 107.739C174.395 104.899 174.395 102.047 174.617 99.2069C174.93 94.6335 168.798 86.3928 149.943 85.4706C131.089 84.5483 96.4864 85.2656 86.6385 95.1405Z" fill="white"/>
<g opacity="0.2">
<path d="M173.462 109.659C173.306 108.759 173.015 104.266 171.931 104.423C170.847 104.579 171.068 102.325 168.695 100.529C166.322 98.7328 166.894 100.831 164.887 101.467C162.881 102.104 162.73 102.006 160.314 100.232C157.898 98.4578 156.42 98.4362 155.379 98.8838C154.338 99.3314 150.86 99.6604 148.627 99.6604C146.394 99.6604 146.227 101.278 144.852 102.249C143.476 103.22 143.654 104.121 141.864 105.102C140.073 106.084 140.667 108.462 139.167 109.659C137.668 110.857 138.272 108.009 136.18 108.613C134.087 109.217 134.68 115.495 132.733 115.047C130.786 114.599 131.234 105.916 129.584 105.469C127.933 105.021 127.049 102.627 125.852 101.467C124.654 100.308 120.76 97.8375 117.622 98.5872C114.483 99.3368 108.944 97.6865 107.143 97.665C105.341 97.6434 104.603 100.232 102.062 100.831C99.5222 101.429 96.076 100.982 95.6284 103.031C95.1808 105.081 92.9318 104.719 93.0612 103.824C93.1907 102.929 91.1305 102.028 89.8253 102.249C88.5202 102.47 88.3099 103.522 87.5818 106.607C86.8537 109.692 85.9153 108.91 85.8776 106.607C85.8398 104.304 85.3382 103.371 84.1733 101.467C84.0261 101.205 83.9498 100.91 83.9522 100.61C84.2248 101.017 84.6281 101.32 85.0955 101.467C86.3306 101.613 86.0501 104.87 86.638 104.196C87.2258 103.522 87.1126 101.241 88.5741 100.96C90.3803 100.781 92.193 101.229 93.7084 102.228C94.9704 103.166 95.5691 100.264 97.1816 100.07C98.7942 99.8762 101.367 100.68 102.828 99.1103C104.29 97.5409 105.633 96.6511 106.981 96.5324C108.329 96.4138 111.695 98.1503 113.83 96.8776C115.966 95.6048 117.87 95.8529 119.105 96.527C120.34 97.2012 122.136 98.9971 123.705 98.4362C125.275 97.8753 128.09 98.7706 128.651 100.113C129.212 101.456 130.215 103.624 131.223 102.993C132.232 102.362 133.132 103.824 133.693 104.94C134.254 106.057 134.233 105.393 135.376 104.493C136.519 103.592 138.612 105.954 139.529 104.493C140.446 103.031 140.99 101.505 142.446 101.429C143.903 101.354 144.134 101.144 145.477 100.07C146.82 98.9971 148.282 98.3175 151.205 98.4524C151.96 98.4696 152.714 98.4009 153.454 98.2474V98.2474C155.449 97.8591 157.186 97.1095 158.308 97.5355C158.458 97.5944 158.602 97.6666 158.739 97.7513V97.7513C160.222 98.625 162.121 100.96 163.647 100.086C165.33 99.1265 165.33 96.8506 167.352 98.2259C169.374 99.6011 170.162 101.079 171.17 100.771C172.179 100.464 172.033 99.5903 172.788 100.086C173.353 100.337 173.989 100.373 174.579 100.189C174.418 102.688 174.436 105.195 174.633 107.691C174.757 110.258 173.608 110.555 173.462 109.659Z" fill="black"/>
<path d="M174.45 97.3466C172.536 97.8104 173.873 96.694 171.932 96.9152C169.634 97.1794 168.82 97.3466 167.946 96.597C167.072 95.8473 164.78 96.117 159.619 97.5569C159.333 97.6378 159.037 97.7026 158.745 97.7727C157.001 98.1002 155.23 98.2663 153.455 98.2688C149.523 98.3389 145.408 98.0207 142.447 98.7003C137.841 99.7466 137.173 99.4823 134.476 98.134C131.779 96.7857 126.624 96.117 124.488 96.0199C122.352 95.9228 119.213 94.4289 116.296 93.7494C113.378 93.0698 110.903 95.3296 109.414 94.9143C107.926 94.499 102.247 96.899 98.2233 98.5816C94.2 100.264 89.249 99.4769 85.8783 98.5816C85.4666 98.4726 85.0726 98.3056 84.708 98.0855C85.2618 97.0462 85.908 96.0588 86.6388 95.1354C96.4813 85.2605 131.111 84.5109 149.965 85.4277C166.506 86.2529 173.253 92.6869 174.45 97.3466Z" fill="black"/>
</g>
<path d="M86.6375 95.1405C86.6375 95.1405 83.0349 99.5575 84.1783 101.467C85.3216 103.376 85.8393 104.298 85.8771 106.606C85.9148 108.915 86.8479 109.686 87.5813 106.606C88.3148 103.527 88.4982 102.47 89.8249 102.249C91.1516 102.028 93.2172 102.923 93.0608 103.823C92.9044 104.724 95.1749 105.085 95.6225 103.031C96.0702 100.976 99.5164 101.413 102.057 100.83C104.597 100.248 105.352 97.6429 107.148 97.6645C108.944 97.6861 114.477 99.331 117.621 98.5867C120.765 97.8425 124.632 100.302 125.851 101.467C127.07 102.632 127.938 105.021 129.589 105.468C131.239 105.916 130.791 114.594 132.733 115.047C134.674 115.5 134.081 109.211 136.179 108.613C138.277 108.014 137.673 110.856 139.172 109.659C140.672 108.462 140.068 106.089 141.869 105.107C143.67 104.125 143.514 103.219 144.862 102.249C146.21 101.278 146.372 99.66 148.626 99.66C150.881 99.66 154.311 99.3579 155.357 98.9103C156.403 98.4627 157.903 98.4627 160.297 100.259C162.692 102.055 162.864 102.125 164.871 101.494C166.877 100.863 166.284 98.7593 168.678 100.555C171.073 102.351 170.835 104.595 171.914 104.449C172.993 104.303 173.295 108.764 173.446 109.686C173.597 110.608 174.735 110.284 174.616 107.739C174.394 104.899 174.394 102.047 174.616 99.2069C174.929 94.6335 168.797 86.3928 149.942 85.4706C131.088 84.5483 96.4854 85.2656 86.6375 95.1405Z" stroke="#263238" stroke-width="0.725199" stroke-linecap="round" stroke-linejoin="round"/>
<path d="M177.583 89.4449L177.497 89.693L175.879 94.5468C171.043 94.8983 166.208 93.8657 161.938 91.5698C156.48 88.5981 158.486 85.7452 159.673 84.6018C159.864 84.4055 160.072 84.2252 160.293 84.0625L177.583 89.4449Z" fill="#757575"/>
<path opacity="0.2" d="M177.583 89.4458L177.496 89.6939C176.883 90.4193 176.092 90.9734 175.201 91.3023C174.309 91.6312 173.348 91.7237 172.411 91.5707C168.635 91.0314 163.145 87.3209 159.672 84.6028C159.864 84.4065 160.071 84.2261 160.292 84.0635L177.583 89.4458Z" fill="black"/>
<path opacity="0.2" d="M167.206 93.2205C167.206 93.2205 168.694 93.145 169.32 90.5887C169.945 88.0323 171.59 90.1141 173.516 90.5887C175.441 91.0633 175.393 89.5586 177.496 89.6934L160.292 84.0684C160.292 84.0684 155.939 90.6696 167.206 93.2205Z" fill="black"/>
<path d="M177.583 89.4449L177.497 89.693L175.879 94.5468C171.043 94.8983 166.208 93.8657 161.938 91.5698C156.48 88.5981 158.486 85.7452 159.673 84.6018C159.864 84.4055 160.072 84.2252 160.293 84.0625L177.583 89.4449Z" stroke="#263238" stroke-width="0.725199" stroke-linecap="round" stroke-linejoin="round"/>
<path d="M119.586 88.2592C119.586 88.2592 107.019 95.2703 98.7841 96.8882C93.8059 97.8591 88.6765 97.7414 83.748 96.5431L82.486 92.7679L82.3242 92.2933L85.1664 88.2538C95.5428 85.5195 107.057 86.3554 113.793 87.2669C117.347 87.7522 119.586 88.2592 119.586 88.2592Z" fill="#757575"/>
<path opacity="0.2" d="M113.791 87.2554C108.501 89.3371 94.802 94.3635 87.5806 93.7271C85.8481 93.6123 84.1364 93.2845 82.4841 92.751L82.3223 92.2764L85.1645 88.2369C95.5409 85.5242 107.055 86.3601 113.791 87.2554Z" fill="black"/>
<path opacity="0.2" d="M114.056 91.1232C114.056 91.1232 113.867 88.966 109.412 90.2387C104.957 91.5115 100.292 93.8737 98.8684 93.2212C97.4446 92.5686 97.0725 90.9237 94.0146 91.5547C90.9567 92.1857 88.8048 94.7474 85.8871 94.4778C82.9694 94.2081 82.333 92.3205 82.333 92.3205L85.1752 88.281C85.1752 88.281 97.6334 84.4627 119.594 88.281L114.056 91.1232Z" fill="black"/>
<path d="M119.586 88.2592C119.586 88.2592 107.019 95.2703 98.7841 96.8882C93.8059 97.8591 88.6765 97.7414 83.748 96.5431L82.486 92.7679L82.3242 92.2933L85.1664 88.2538C95.5428 85.5195 107.057 86.3554 113.793 87.2669C117.347 87.7522 119.586 88.2592 119.586 88.2592Z" stroke="#263238" stroke-width="0.725199" stroke-linecap="round" stroke-linejoin="round"/>
<path d="M166.279 86.3978V93.7271C166.279 93.7271 162.385 98.4138 144.582 97.5347C126.78 96.6556 115.249 89.445 115.249 89.445C117.03 88.7457 118.859 88.1779 120.723 87.7461C138.321 83.5233 166.279 86.3978 166.279 86.3978Z" fill="#757575"/>
<path opacity="0.2" d="M166.279 86.3998V88.5193C164.715 91.3992 159.478 94.0527 148.174 94.6621C134.114 95.4118 124.53 90.2721 120.723 87.7481C138.321 83.5252 166.279 86.3998 166.279 86.3998Z" fill="black"/>
<path opacity="0.2" d="M120.723 87.7482C120.723 87.7482 122.303 89.3661 124.126 89.0425C125.949 88.719 127.141 89.5819 129.303 91.1351C131.466 92.6883 133.305 91.7661 137.425 90.2398C141.546 88.7136 140.985 92.8609 145.364 92.6398C149.743 92.4187 148.125 87.2844 151.458 88.5032C154.791 89.7221 155.482 92.3432 158.469 90.5257C161.457 88.7082 165.211 87.8561 166.295 89.35V86.3999C166.295 86.3999 138.865 83.9514 120.723 87.7482Z" fill="black"/>
<path d="M166.279 86.3978V93.7271C166.279 93.7271 162.385 98.4138 144.582 97.5347C126.78 96.6556 115.249 89.445 115.249 89.445C117.03 88.7457 118.859 88.1779 120.723 87.7461C138.321 83.5233 166.279 86.3978 166.279 86.3978Z" stroke="#263238" stroke-width="0.725199" stroke-linecap="round" stroke-linejoin="round"/>
<path d="M82.3291 92.2983C82.3291 92.2983 84.6482 93.5226 90.8179 93.7545C96.9877 93.9864 112.029 88.4854 112.029 88.4854" stroke="#263238" stroke-width="0.725199" stroke-linecap="round" stroke-linejoin="round"/>
<path d="M122.691 89.4453C122.691 89.4453 139.302 95.1513 148.956 94.6227C158.61 94.0942 164.866 90.3082 164.866 90.3082" stroke="#263238" stroke-width="0.725199" stroke-linecap="round" stroke-linejoin="round"/>
<path d="M166.278 88.4854C166.278 88.4854 169.832 91.5702 172.41 91.5702C174.988 91.5702 176.126 90.7559 177.577 89.4615" stroke="#263238" stroke-width="0.725199" stroke-linecap="round" stroke-linejoin="round"/>
<path d="M132.792 88.4865C131.557 88.8209 136.724 90.8433 139.528 91.1237C142.332 91.4042 140.763 87.4941 140.763 87.4941" stroke="#263238" stroke-width="0.725199" stroke-linecap="round" stroke-linejoin="round"/>
<path d="M144.242 87.9256C144.242 87.9256 142.219 90.9242 144.242 91.5552C146.264 92.1862 152.099 91.5552 152.547 90.5898C152.995 89.6244 148.955 87.4941 148.955 87.4941" stroke="#263238" stroke-width="0.725199" stroke-linecap="round" stroke-linejoin="round"/>
<path d="M153.896 87.4928C153.896 88.1454 156.425 90.6748 157.854 90.5885C159.283 90.5022 163.209 89.6069 163.323 88.4852C163.436 87.3634 156.393 87.4928 156.393 87.4928" stroke="#263238" stroke-width="0.725199" stroke-linecap="round" stroke-linejoin="round"/>
<path d="M131.784 87.2178C131.784 87.2178 129.185 88.3719 127.847 88.4852C126.51 88.5984 123.328 88.14 124.315 87.4874" stroke="#263238" stroke-width="0.725199" stroke-linecap="round" stroke-linejoin="round"/>
<path d="M97.182 88.5015C97.182 88.5015 94.4099 92.2174 92.5007 91.9801C90.5915 91.7428 87.4473 91.9801 87.5606 91.1334C87.6739 90.2867 95.084 88.4854 95.084 88.4854" stroke="#263238" stroke-width="0.725199" stroke-linecap="round" stroke-linejoin="round"/>
<path d="M99.0094 88.485C99.0094 88.485 98.4701 90.5668 99.5757 90.5884C100.681 90.6099 107.094 89.0459 107.428 88.485C107.763 87.9242 103.151 87.4873 103.151 87.4873" stroke="#263238" stroke-width="0.725199" stroke-linecap="round" stroke-linejoin="round"/>
<path d="M167.978 87.4941C169.173 88.2912 170.418 89.0117 171.704 89.6514C172.75 90.0505 174.643 90.0343 174.649 89.6514C174.654 89.2685 171.952 88.4811 171.952 88.4811" stroke="#263238" stroke-width="0.725199" stroke-linecap="round" stroke-linejoin="round"/>
<path d="M80.7058 79.1175C82.944 73.3738 84.179 67.7595 89.2755 64.7663C102.505 56.9732 121.802 53.02 137.426 54.1418C153.05 55.2635 162.693 59.7453 172.713 70.3212C173.312 70.9522 176.219 78.2869 176.79 78.9503C177.75 80.0289 178.737 81.2046 179.093 82.6176C179.449 84.0306 178.953 85.7726 177.615 86.3551C176.731 86.738 175.712 86.5385 174.762 86.3551C153.098 81.9219 130.69 83.2432 108.702 85.5623C101.545 86.3173 94.3613 87.1802 87.183 86.7542C84.2168 86.5762 80.5602 85.5569 80.064 82.6284C79.9551 81.5905 80.1187 80.5421 80.5386 79.5867C80.5926 79.4141 80.6735 79.2685 80.7058 79.1175Z" fill="#00BF6D"/>
<path opacity="0.2" d="M179.212 83.4813C179.244 84.0598 179.109 84.6354 178.822 85.1387C178.535 85.6421 178.108 86.0516 177.594 86.3181C176.709 86.701 175.684 86.5014 174.741 86.3181C153.076 81.8849 130.668 83.2008 108.674 85.5253C101.529 86.2803 94.3395 87.1432 87.1612 86.7171C84.1949 86.5392 80.5384 85.5199 80.0422 82.5914C79.9594 82.0406 79.9795 81.4792 80.1015 80.9357C81.1316 81.7662 82.2858 82.4889 83.1648 82.4296C85.1873 82.3002 91.6968 78.2607 97.6455 78.5951C103.594 78.9294 113.356 79.1344 117.848 77.8131C122.341 76.4917 132.41 75.4508 137.404 75.5641C142.398 75.6774 154.43 78.9456 157.574 78.9995C160.718 79.0535 163.302 81.3725 167.12 80.1483C170.739 79.0103 176.17 80.2885 179.212 83.4813Z" fill="black" fill-opacity="0.7"/>
<path d="M144.173 58.8125C144.173 58.8125 144.421 61.1801 145.165 61.0507C145.909 60.9212 144.173 58.8125 144.173 58.8125Z" fill="white"/>
<path d="M131.164 62.8252C131.164 62.8252 131.412 65.1928 132.162 65.0688C132.911 64.9447 131.164 62.8252 131.164 62.8252Z" fill="white"/>
<path d="M125.139 64.9287C125.139 64.9287 124.06 65.6622 124.681 65.9318C125.301 66.2015 125.139 64.9287 125.139 64.9287Z" fill="white"/>
<path d="M103.055 59.417C103.055 59.417 101.976 60.1451 102.597 60.4201C103.217 60.6952 103.055 59.417 103.055 59.417Z" fill="white"/>
<path d="M142.5 55.9766C142.5 55.9766 141.422 56.71 142.042 56.9797C142.662 57.2493 142.5 55.9766 142.5 55.9766Z" fill="white"/>
<path d="M158.335 59.5684C158.335 59.5684 157.257 60.3018 157.877 60.5715C158.497 60.8411 158.335 59.5684 158.335 59.5684Z" fill="white"/>
<path d="M106.275 63.4297C106.275 63.4297 105.196 64.1631 105.816 64.4328C106.437 64.7025 106.275 63.4297 106.275 63.4297Z" fill="white"/>
<path d="M129.751 58.8125C129.751 58.8125 127.68 59.3518 128.343 59.9343C129.006 60.5167 129.751 58.8125 129.751 58.8125Z" fill="white"/>
<path d="M129.271 54.7682C129.271 54.7682 131.11 55.8737 131.056 54.9947C131.002 54.1156 129.271 54.7682 129.271 54.7682Z" fill="white"/>
<path d="M139.038 58.1924C139.038 58.1924 136.962 58.7317 137.625 59.3142C138.288 59.8966 139.038 58.1924 139.038 58.1924Z" fill="white"/>
<path d="M135.683 61.0566C135.683 61.0566 136.762 61.2616 136.017 61.8009C135.273 62.3402 135.683 61.0566 135.683 61.0566Z" fill="white"/>
<path d="M137.188 54.8984C137.188 54.8984 138.267 55.1034 137.517 55.6427C136.767 56.182 137.188 54.8984 137.188 54.8984Z" fill="white"/>
<path d="M134.68 68.7578C134.68 68.7578 135.759 68.9628 135.014 69.5021C134.27 70.0414 134.68 68.7578 134.68 68.7578Z" fill="white"/>
<path d="M105.378 68.8867C105.378 68.8867 106.457 69.0917 105.707 69.6256C104.958 70.1595 105.378 68.8867 105.378 68.8867Z" fill="white"/>
<path d="M91.4593 68.1484C91.4593 68.1484 92.5379 68.3534 91.7937 68.8927C91.0494 69.432 91.4593 68.1484 91.4593 68.1484Z" fill="white"/>
<path d="M141.556 63.3161C141.556 63.3161 140.596 62.7768 141.475 62.5071C142.354 62.2375 141.556 63.3161 141.556 63.3161Z" fill="white"/>
<path d="M169.876 70.0573C169.876 70.0573 168.916 69.518 169.795 69.2484C170.674 68.9787 169.876 70.0573 169.876 70.0573Z" fill="white"/>
<path d="M164.538 69.7507C164.538 69.7507 163.578 69.2114 164.457 68.9417C165.336 68.6721 164.538 69.7507 164.538 69.7507Z" fill="white"/>
<path d="M120.518 56.2028C120.518 56.2028 119.558 55.6635 120.437 55.3939C121.316 55.1242 120.518 56.2028 120.518 56.2028Z" fill="white"/>
<path d="M148.811 66.9401C148.811 66.9401 147.851 66.4008 148.73 66.1312C149.609 65.8615 148.811 66.9401 148.811 66.9401Z" fill="white"/>
<path d="M166.344 65.8786C166.344 65.8786 165.384 65.3393 166.263 65.0696C167.142 64.8 166.344 65.8786 166.344 65.8786Z" fill="white"/>
<path d="M116.629 63.5264C116.629 63.5264 117.708 63.7313 116.958 64.2706C116.209 64.8099 116.629 63.5264 116.629 63.5264Z" fill="white"/>
<path d="M94.7544 62.4482C94.7544 62.4482 95.833 62.6532 95.0833 63.1925C94.3337 63.7318 94.7544 62.4482 94.7544 62.4482Z" fill="white"/>
<path d="M116.629 57.7559C116.629 57.7559 117.708 57.9608 116.958 58.5001C116.209 59.0394 116.629 57.7559 116.629 57.7559Z" fill="white"/>
<path d="M125.275 57.0117C125.275 57.0117 126.353 57.1142 125.609 57.3838C124.865 57.6535 125.275 57.0117 125.275 57.0117Z" fill="white"/>
<path d="M88.1858 66.1045C88.1858 66.1045 89.2645 66.207 88.5202 66.4766C87.776 66.7463 88.1858 66.1045 88.1858 66.1045Z" fill="white"/>
<path d="M134.065 56.5156C134.065 56.5156 132.259 57.3893 133.812 57.2976C135.365 57.2059 134.065 56.5156 134.065 56.5156Z" fill="white"/>
<path d="M149.614 58.4244C149.614 58.4244 151.884 57.761 150.061 57.5669C148.238 57.3727 149.614 58.4244 149.614 58.4244Z" fill="white"/>
<path d="M108.658 60.3775C108.658 60.3775 110.928 59.7142 109.111 59.52C107.293 59.3259 108.658 60.3775 108.658 60.3775Z" fill="white"/>
<path d="M114.111 61.0566C114.111 61.0566 110.373 61.0566 111.29 61.9357C112.207 62.8148 114.111 61.0566 114.111 61.0566Z" fill="white"/>
<path d="M141.848 66.3262C141.848 66.3262 142.274 70.0367 143.061 69.0228C143.849 68.0088 141.848 66.3262 141.848 66.3262Z" fill="white"/>
<path d="M121.02 58.3545C121.02 58.3545 120.022 60.1019 120.686 59.9347C121.349 59.7675 121.02 58.3545 121.02 58.3545Z" fill="white"/>
<path d="M122.071 70.4025C122.071 70.4025 123.209 68.7468 122.53 68.86C121.85 68.9733 122.071 70.4025 122.071 70.4025Z" fill="white"/>
<path d="M146.594 56.084C146.594 56.084 145.596 56.9577 146.265 56.8768C146.934 56.7959 146.594 56.084 146.594 56.084Z" fill="white"/>
<path d="M155.471 67.8408C155.471 67.8408 155.983 69.7878 156.339 69.1999C156.695 68.612 155.471 67.8408 155.471 67.8408Z" fill="white"/>
<path d="M153.449 61.5967C153.449 61.5967 152.451 63.3441 153.114 63.1715C153.778 62.9989 153.449 61.5967 153.449 61.5967Z" fill="white"/>
<path d="M114.38 67.9541C114.38 67.9541 112.703 69.0327 113.371 69.2107C114.04 69.3887 114.38 67.9541 114.38 67.9541Z" fill="white"/>
<path d="M160.929 63.3809C160.929 63.3809 162.05 65.0527 162.196 64.384C162.342 63.7152 160.929 63.3809 160.929 63.3809Z" fill="white"/>
<path d="M98.4709 65.7754C98.4709 65.7754 96.4592 65.7754 96.9338 66.2608C97.4084 66.7462 98.4709 65.7754 98.4709 65.7754Z" fill="white"/>
<path d="M112.396 56.9143C112.396 56.9143 114.407 56.9682 113.943 56.4613C113.48 55.9543 112.396 56.9143 112.396 56.9143Z" fill="white"/>
<path d="M109.964 78.9726C111.258 78.8863 112.547 78.7299 113.825 78.5195" stroke="#263238" stroke-width="0.725199" stroke-linecap="round" stroke-linejoin="round"/>
<path d="M80.1338 80.9474C82.5769 84.3343 86.5301 80.8773 89.1781 79.7825C94.8247 77.4472 101.011 79.076 106.922 79.076" stroke="#263238" stroke-width="0.725199" stroke-linecap="round" stroke-linejoin="round"/>
<path d="M135.845 75.4404C134.972 75.4772 134.103 75.5654 133.24 75.7047" stroke="#263238" stroke-width="0.725199" stroke-linecap="round" stroke-linejoin="round"/>
<path d="M149.388 77.3438C144.847 76.578 142.587 75.3052 138.602 75.4885" stroke="#263238" stroke-width="0.725199" stroke-linecap="round" stroke-linejoin="round"/>
<path d="M164.866 80.6878C163.292 80.7364 161.485 79.6415 159.295 79.2317C156.971 78.8002 154.263 79.0375 152.284 78.3418" stroke="#263238" stroke-width="0.725199" stroke-linecap="round" stroke-linejoin="round"/>
<path d="M179.212 83.4813C176.672 81.324 172.622 79.0805 169.024 79.7708" stroke="#263238" stroke-width="0.725199" stroke-linecap="round" stroke-linejoin="round"/>
<path d="M80.7058 79.1175C82.944 73.3738 84.179 67.7595 89.2755 64.7663C102.505 56.9732 121.802 53.02 137.426 54.1418C153.05 55.2635 162.693 59.7453 172.713 70.3212C173.312 70.9522 176.219 78.2869 176.79 78.9503C177.75 80.0289 178.737 81.2046 179.093 82.6176C179.449 84.0306 178.953 85.7726 177.615 86.3551C176.731 86.738 175.712 86.5385 174.762 86.3551C153.098 81.9219 130.69 83.2432 108.702 85.5623C101.545 86.3173 94.3613 87.1802 87.183 86.7542C84.2168 86.5762 80.5602 85.5569 80.064 82.6284C79.9551 81.5905 80.1187 80.5421 80.5386 79.5867C80.5926 79.4141 80.6735 79.2685 80.7058 79.1175Z" stroke="#263238" stroke-width="0.725199" stroke-linecap="round" stroke-linejoin="round"/>
<path d="M84.8685 85.0993C84.8685 85.0993 81.2713 86 81.6326 87.6449C81.9939 89.2898 80.0146 89.4246 80.0146 89.4246C80.0146 89.4246 80.1657 90.0394 82.447 90.1904C84.7283 90.3415 85.5642 88.6911 86.6428 90.1904C87.7215 91.6897 88.4657 95.0443 91.7609 93.2052C95.0562 91.3661 95.0508 87.7689 97.893 89.43C100.735 91.0911 103.286 93.7823 105.826 92.434C108.366 91.0857 110.766 87.4939 112.708 88.3945C114.649 89.2952 117.945 92.283 120.339 91.2367C122.734 90.1904 123.786 86.9222 126.924 87.4939C130.063 88.0655 131.266 90.1635 133.811 89.43C136.357 88.6965 137.101 87.0462 139.205 86.8197C141.308 86.5932 142.343 90.7891 145.639 91.0857C148.934 91.3823 149.193 87.0462 152.353 86.8197C155.513 86.5932 157.309 91.2367 159.256 91.2367C161.203 91.2367 162.719 87.6449 164.876 87.9415C167.033 88.2381 167.486 91.5333 169.428 91.6843C171.369 91.8354 173.02 89.2466 175.118 89.4192C177.216 89.5918 177.21 92.3908 180.511 89.4192C180.511 89.4192 177.275 88.9932 175.894 85.1047C174.514 81.2162 101.63 77.4842 84.8685 85.0993Z" fill="#00BF6D"/>
<path opacity="0.6" d="M180.491 89.412C179.024 90.7387 178.209 90.9113 177.578 90.6848C176.785 90.4097 176.268 89.5037 175.108 89.412C174.285 89.3999 173.48 89.6575 172.816 90.1455C171.678 90.8466 170.61 91.7634 169.424 91.6771C168.016 91.5639 167.391 89.8165 166.334 88.7432C165.952 88.3134 165.434 88.0278 164.867 87.9343C163.712 87.7779 162.742 88.7271 161.792 89.6547C160.962 90.4529 160.148 91.2295 159.242 91.2295C158.082 91.2295 156.966 89.5738 155.59 88.2848C154.663 87.4219 153.616 86.7262 152.354 86.8179C150.737 86.9311 149.895 88.1069 149.011 89.1963C148.126 90.2857 147.258 91.2241 145.635 91.0785C143.698 90.9005 142.534 89.3742 141.476 88.1931C140.743 87.3734 140.058 86.7262 139.201 86.8179C137.48 86.9959 136.671 88.1392 135.032 88.9752C134.642 89.1683 134.236 89.3271 133.818 89.4498C131.839 90.0214 130.669 88.9104 128.77 88.0853C128.182 87.8263 127.567 87.6345 126.937 87.5136C124.369 87.0228 123.199 89.1316 121.543 90.4852C121.181 90.8002 120.774 91.06 120.335 91.2565C118.491 92.0654 116.123 90.4744 114.236 89.2933C113.744 88.9681 113.233 88.6745 112.704 88.4143C110.757 87.5136 108.389 91.1108 105.822 92.4537C105.529 92.6115 105.212 92.7208 104.884 92.7773C102.964 93.1009 101.022 91.483 98.9514 90.0808C98.6117 89.8542 98.2611 89.6331 97.9105 89.4282C95.0684 87.7671 95.0683 91.3859 91.7785 93.2034C91.4919 93.3676 91.1881 93.4996 90.8725 93.5971C88.3323 94.3791 87.6366 91.5369 86.6604 90.1886C86.4955 89.9098 86.2377 89.6979 85.9323 89.59C85.118 89.3527 84.2173 90.3019 82.4591 90.1886C80.1886 90.0376 80.0322 89.4282 80.0322 89.4282C80.2395 89.4105 80.444 89.3688 80.6417 89.3041C80.8222 89.2699 80.9936 89.1984 81.1451 89.0944C81.2966 88.9904 81.4248 88.8561 81.5217 88.6999C81.6185 88.5438 81.6819 88.3692 81.7077 88.1872C81.7335 88.0053 81.7213 87.82 81.6718 87.643C81.2942 85.9981 84.9076 85.0975 84.9076 85.0975C101.664 77.4662 174.537 81.209 175.912 85.0975C177.287 88.9859 180.491 89.412 180.491 89.412Z" fill="white"/>
<g opacity="0.1">
<path d="M91.3798 86.3983C92.4153 87.6064 90.9754 91.6081 90.8405 93.6144C88.3003 94.3964 87.6046 91.5542 86.6285 90.2059C86.4635 89.9271 86.2058 89.7152 85.9004 89.6073C88.1655 86.6087 90.3228 85.1525 91.3798 86.3983Z" fill="black"/>
<path d="M103.427 87.2168C104.646 89.1583 104.064 91.4396 104.884 92.7717C102.964 93.0953 101.022 91.4774 98.9512 90.0752C99.7763 86.4402 101.934 84.833 103.427 87.2168Z" fill="black"/>
<path d="M121.544 90.491C121.181 90.806 120.774 91.0658 120.336 91.2622C118.492 92.0712 116.124 90.4802 114.236 89.2991C114.637 88.5698 115.101 87.8768 115.622 87.2282C117.499 85.017 118.702 87.4115 121.544 90.491Z" fill="black"/>
<path d="M135.02 88.9696C134.63 89.1628 134.224 89.3216 133.807 89.4442C131.827 90.0159 130.657 88.9049 128.759 88.0798C129.384 86.8555 130.015 85.7877 130.738 85.4425C132.448 84.6066 133.613 86.9472 135.02 88.9696Z" fill="black"/>
<path d="M149 89.2188C148.137 90.2974 147.247 91.2466 145.624 91.101C143.688 90.923 142.523 89.3968 141.466 88.2157C142.116 87.5514 142.934 87.0761 143.833 86.8404C146.616 86.2202 147.512 87.3905 149 89.2188Z" fill="black"/>
<path d="M161.793 89.6775C160.962 90.4757 160.148 91.2523 159.242 91.2523C158.082 91.2523 156.966 89.5966 155.591 88.3076C156.22 87.6306 156.89 86.993 157.597 86.3985C159.118 85.2389 160.267 87.4447 161.793 89.6775Z" fill="black"/>
<path d="M172.816 90.1674C171.678 90.8685 170.61 91.7853 169.423 91.699C168.016 91.5858 167.39 89.8384 166.333 88.7651C166.667 87.0609 167.126 85.5292 168.372 85.8636C170.61 86.4946 171.435 88.2366 172.816 90.1674Z" fill="black"/>
<path d="M180.491 89.4126C179.024 90.7393 178.209 90.9118 177.578 90.6853C176.365 90.2539 176.208 88.9056 175.777 87.9888C175.205 86.7699 174.111 86.8832 172.897 86.4517C172.051 86.0602 171.231 85.6134 170.443 85.1142C169.613 84.6881 168.588 84.4508 167.747 84.8877C167.24 85.1627 166.824 85.6805 166.247 85.7021C165.557 85.729 165.05 85.0279 164.381 84.8499C163.254 84.5533 162.175 85.8045 161.032 85.5726C160.121 85.3893 159.581 84.3376 158.67 84.165C157.591 83.9601 156.712 85.0926 155.644 85.3947C154.49 85.7182 153.325 85.0387 152.182 84.6828C151.052 84.3318 149.848 84.2946 148.698 84.5749C147.992 84.8035 147.271 84.9837 146.541 85.1142C145.343 85.2329 144.141 84.7529 142.949 84.9039C142.377 84.974 141.832 85.1843 141.261 85.2221C139.783 85.3137 138.241 84.2297 136.909 84.8823C136.369 85.1574 135.868 85.7398 135.237 85.7128C134.438 85.6697 134.109 84.8607 133.5 84.4994C132.783 84.0733 132.071 84.1542 131.262 84.0464C129.579 83.8198 128.107 83.1942 126.694 84.521C125.923 85.2382 125.254 86.1389 124.289 86.5488C123.01 87.0881 121.511 86.7052 120.303 86.0095C119.095 85.3138 118.054 84.3915 116.841 83.685C115.577 82.9448 114.114 82.6167 112.656 82.7466C111.93 82.8211 111.23 83.0526 110.603 83.4252C109.976 83.7977 109.438 84.3023 109.026 84.9039C108.681 85.4432 108.454 86.0418 108.061 86.5218C107.884 86.7799 107.639 86.9837 107.353 87.1104C107.068 87.2371 106.752 87.2816 106.443 87.2391C105.693 87.0396 105.364 86.1605 104.933 85.5349C101.858 81.1287 97.5007 87.3092 94.0653 85.1142C92.4959 84.1111 90.2469 84.1111 87.7823 85.756C85.5657 87.2337 84.2498 90.1514 80.6094 89.2885C80.7899 89.2542 80.9613 89.1828 81.1128 89.0788C81.2643 88.9748 81.3925 88.8405 81.4894 88.6843C81.5862 88.5281 81.6496 88.3535 81.6754 88.1716C81.7012 87.9897 81.689 87.8044 81.6395 87.6274C81.2619 85.9825 84.8754 85.0818 84.8754 85.0818C101.632 77.4505 174.504 81.1934 175.879 85.0818C177.255 88.9703 180.491 89.4126 180.491 89.4126Z" fill="black"/>
</g>
<path d="M96.8908 82.2559C95.2728 82.3475 93.3259 88.7276 91.4544 89.8063C89.583 90.8849 88.3857 88.76 88.3857 88.76" stroke="#263238" stroke-width="0.725199" stroke-linecap="round" stroke-linejoin="round"/>
<path d="M81.4775 88.7439C82.8528 88.2585 84.4222 87.7354 85.0208 86.5381" stroke="#263238" stroke-width="0.725199" stroke-linecap="round" stroke-linejoin="round"/>
<path d="M102.154 89.4448C102.154 89.4448 103.772 92.5243 106.345 89.7522C108.917 86.9801 111.15 85.0547 113.534 86.3976C115.918 87.7405 117.848 90.1297 119.59 88.9324" stroke="#263238" stroke-width="0.725199" stroke-linecap="round" stroke-linejoin="round"/>
<path d="M161.064 86.3974C161.064 86.3974 163.135 83.841 165.827 86.0145C168.518 88.1879 167.925 89.6818 170.093 89.0077" stroke="#263238" stroke-width="0.725199" stroke-linecap="round" stroke-linejoin="round"/>
<path d="M170.993 83.3184C170.993 83.3184 174.434 85.3408 175.259 86.8347C176.084 88.3286 177.125 90.2809 178.177 89.9789" stroke="#263238" stroke-width="0.725199" stroke-linecap="round" stroke-linejoin="round"/>
<path d="M134.703 86.3974C134.703 86.3974 137.022 83.6199 139.94 84.8172C142.858 86.0145 144.13 89.0077 145.872 88.8567C147.614 88.7057 148.644 86.2356 150.44 86.09" stroke="#263238" stroke-width="0.725199" stroke-linecap="round" stroke-linejoin="round"/>
<path d="M84.8685 85.0993C84.8685 85.0993 81.2713 86 81.6326 87.6449C81.9939 89.2898 80.0146 89.4246 80.0146 89.4246C80.0146 89.4246 80.1657 90.0394 82.447 90.1904C84.7283 90.3415 85.5642 88.6911 86.6428 90.1904C87.7215 91.6897 88.4657 95.0443 91.7609 93.2052C95.0562 91.3661 95.0508 87.7689 97.893 89.43C100.735 91.0911 103.286 93.7823 105.826 92.434C108.366 91.0857 110.766 87.4939 112.708 88.3945C114.649 89.2952 117.945 92.283 120.339 91.2367C122.734 90.1904 123.786 86.9222 126.924 87.4939C130.063 88.0655 131.266 90.1635 133.811 89.43C136.357 88.6965 137.101 87.0462 139.205 86.8197C141.308 86.5932 142.343 90.7891 145.639 91.0857C148.934 91.3823 149.193 87.0462 152.353 86.8197C155.513 86.5932 157.309 91.2367 159.256 91.2367C161.203 91.2367 162.719 87.6449 164.876 87.9415C167.033 88.2381 167.486 91.5333 169.428 91.6843C171.369 91.8354 173.02 89.2466 175.118 89.4192C177.216 89.5918 177.21 92.3908 180.511 89.4192C180.511 89.4192 177.275 88.9932 175.894 85.1047C174.514 81.2162 101.63 77.4842 84.8685 85.0993Z" stroke="#263238" stroke-width="0.725199" stroke-linecap="round" stroke-linejoin="round"/>
</svg>
