<svg width="243" height="228" viewBox="0 0 243 228" fill="none" xmlns="http://www.w3.org/2000/svg">
<path d="M185.175 41.4346C184.344 41.2138 183.501 40.9988 182.664 40.807C171.449 38.1805 159.886 37.8376 148.421 38.0526C137.926 38.2444 126.787 40.5513 116.461 37.9655C109.377 36.2222 103.095 32.0383 97.5576 27.2792C91.0726 21.6949 85.2617 15.1169 77.7656 10.9679C59.0719 0.566352 40.3374 7.0281 26.3912 19.9574L26.3331 20.0155C25.444 20.8349 24.5898 21.6891 23.7356 22.5549C23.7117 22.5651 23.6884 22.5768 23.6659 22.5898C15.6783 30.8616 9.68245 40.8461 6.13432 51.7839C4.5489 56.8442 3.26437 61.9939 2.28749 67.206C2.28132 67.2289 2.28132 67.2529 2.28749 67.2758C2.08411 68.3334 1.89235 69.3909 1.7064 70.4543C1.7092 70.4775 1.7092 70.5009 1.7064 70.5241C-5.96983 117.947 12.2242 166.962 56.8637 190.183C78.2537 201.311 103.514 210.916 128.181 209.103C143.94 207.941 158.433 200.561 170.874 191.176C197.738 170.908 218.744 140.575 224.916 107.185C230.535 76.4629 215.862 49.7152 185.175 41.4346Z" fill="#00BF6D"/>
<path d="M230.11 208.992H241.866" stroke="#1D1D35" stroke-width="1.10236" stroke-linecap="round" stroke-linejoin="round"/>
<path d="M137.391 208.992H150.436" stroke="#1D1D35" stroke-width="1.10236" stroke-linecap="round" stroke-linejoin="round"/>
<path d="M34.9287 208.992H78.7257" stroke="#1D1D35" stroke-width="1.10236" stroke-linecap="round" stroke-linejoin="round"/>
<path d="M17.9248 208.992H27.8382" stroke="#1D1D35" stroke-width="1.10236" stroke-linecap="round" stroke-linejoin="round"/>
<path d="M62.8086 75.0371C62.8086 75.0371 63.5349 79.7672 59.5254 81.772C59.5254 81.772 64.3659 82.8063 64.8133 87.4841C64.8133 87.4841 64.9063 81.0921 67.6839 80.3192C67.6839 80.3192 63.9243 80.2611 62.8086 75.0371Z" fill="white"/>
<path d="M120.401 75.6299C120.401 75.6299 120.174 78.5354 117.495 79.1571C117.495 79.1571 120.215 80.4471 119.819 83.2771C119.819 83.2771 120.767 79.5058 122.522 79.436C122.551 79.436 120.331 78.8724 120.401 75.6299Z" fill="white"/>
<path d="M123.615 65.752C123.615 65.752 123.383 68.6574 120.71 69.2792C120.71 69.2792 123.424 70.5692 123.034 73.3991C123.034 73.3991 123.982 69.6278 125.736 69.5581C125.742 69.5581 123.522 68.9944 123.615 65.752Z" fill="white"/>
<path d="M55.731 65.9609C55.731 65.9609 55.5276 70.2843 52.8662 71.615C54.0177 71.962 55.0421 72.6391 55.8126 73.5625C56.5831 74.4859 57.0659 75.6149 57.2012 76.8099C57.2012 76.8099 56.6201 71.9694 59.6185 70.9467C58.6564 70.4358 57.8128 69.7276 57.1429 68.8685C56.4731 68.0094 55.9919 67.0186 55.731 65.9609Z" fill="white"/>
<path d="M189.209 222.008C210.316 222.008 227.427 218.175 227.427 213.448C227.427 208.721 210.316 204.889 189.209 204.889C168.101 204.889 150.99 208.721 150.99 213.448C150.99 218.175 168.101 222.008 189.209 222.008Z" fill="white" stroke="#1D1D35" stroke-width="1.10236" stroke-linecap="round" stroke-linejoin="round"/>
<path d="M189.424 218.736C207.922 218.736 222.918 215.661 222.918 211.868C222.918 208.074 207.922 204.999 189.424 204.999C170.926 204.999 155.93 208.074 155.93 211.868C155.93 215.661 170.926 218.736 189.424 218.736Z" stroke="#1D1D35" stroke-width="1.10236" stroke-linecap="round" stroke-linejoin="round"/>
<path d="M166.691 202.727C165.181 201.999 163.46 201.842 161.844 202.285C161.046 202.519 160.326 202.962 159.757 203.569C159.189 204.176 158.794 204.925 158.613 205.737C158.516 206.517 158.601 207.309 158.861 208.051C159.121 208.793 159.549 209.465 160.113 210.013C161.25 211.101 162.599 211.944 164.076 212.489C168.082 214.171 172.387 215.027 176.732 215.005C180.375 215.005 184.019 214.354 187.645 214.715C191.131 215.052 194.432 216.295 197.872 216.853C201.386 217.422 204.979 217.278 208.436 216.429C212.004 215.551 215.805 213.39 216.426 209.769C216.589 208.518 216.393 207.247 215.861 206.103C215.329 204.959 214.483 203.99 213.422 203.308C212.348 202.65 211.143 202.234 209.891 202.09C208.64 201.945 207.372 202.075 206.176 202.471C206.809 202.273 205.879 196.66 205.717 195.905C204.555 190.675 198.378 186.973 193.241 187.252C189.789 187.438 186.343 189.78 185.617 193.156C184.455 192.499 182.787 192.749 181.607 193.4C181.021 193.736 180.527 194.212 180.171 194.786C179.815 195.361 179.608 196.015 179.568 196.689C177.296 194.62 173.757 194.138 170.851 195.079C169.606 195.423 168.519 196.189 167.777 197.247C167.329 198.039 167.018 198.902 166.859 199.798C166.644 200.751 166.911 201.785 166.691 202.727Z" fill="#00BF6D"/>
<path d="M166.453 202.83C164.944 202.101 163.222 201.946 161.607 202.395C160.809 202.628 160.088 203.072 159.52 203.679C158.952 204.286 158.557 205.035 158.376 205.846C158.28 206.626 158.366 207.418 158.627 208.159C158.888 208.9 159.317 209.57 159.881 210.117C161.016 211.208 162.363 212.052 163.838 212.599C167.846 214.277 172.15 215.133 176.495 215.115C180.138 215.115 183.787 214.458 187.413 214.818C190.9 215.161 194.195 216.399 197.635 216.963C201.151 217.532 204.746 217.387 208.205 216.538C211.773 215.655 215.573 213.499 216.189 209.873C216.353 208.624 216.158 207.353 215.627 206.21C215.096 205.067 214.251 204.099 213.191 203.417C212.115 202.761 210.909 202.346 209.657 202.2C208.405 202.055 207.136 202.183 205.939 202.575C206.572 202.377 205.648 196.764 205.479 196.008C204.317 190.779 198.14 187.083 193.003 187.356C189.552 187.542 186.106 189.884 185.38 193.26C184.217 192.609 182.55 192.853 181.376 193.51C180.788 193.845 180.294 194.321 179.936 194.895C179.579 195.469 179.371 196.124 179.33 196.799C177.058 194.724 173.548 194.248 170.614 195.183C169.371 195.531 168.285 196.297 167.54 197.351C167.094 198.146 166.784 199.01 166.622 199.908C166.407 200.855 166.674 201.883 166.453 202.83Z" stroke="#1D1D35" stroke-width="1.10236" stroke-linecap="round" stroke-linejoin="round"/>
<path opacity="0.19" d="M166.703 202.867C165.196 202.138 163.476 201.983 161.863 202.431C161.066 202.664 160.345 203.107 159.777 203.713C159.209 204.319 158.813 205.066 158.632 205.877C158.535 206.657 158.619 207.449 158.879 208.191C159.139 208.933 159.568 209.605 160.131 210.154C161.269 211.241 162.618 212.084 164.094 212.629C168.101 214.31 172.405 215.168 176.75 215.151C180.394 215.151 184.037 214.494 187.663 214.855C191.15 215.197 194.451 216.435 197.891 216.999C201.405 217.569 204.998 217.423 208.455 216.569C212.023 215.691 215.823 213.53 216.445 209.909C216.608 208.659 216.412 207.388 215.88 206.245C215.348 205.102 214.502 204.134 213.441 203.454C212.367 202.795 211.162 202.378 209.91 202.232C208.659 202.087 207.391 202.216 206.194 202.611C206.828 202.413 205.898 196.8 205.73 196.045C204.567 190.815 198.396 187.119 193.253 187.392C189.808 187.578 186.362 189.92 185.635 193.296C184.473 192.645 182.805 192.889 181.626 193.546C181.04 193.881 180.547 194.357 180.191 194.93C179.835 195.503 179.627 196.156 179.586 196.829C177.314 194.76 173.804 194.284 170.87 195.219C169.629 195.569 168.546 196.335 167.802 197.387C167.352 198.181 167.042 199.045 166.883 199.944C166.663 200.891 166.93 201.919 166.703 202.867Z" fill="white"/>
<path opacity="0.2" d="M203.73 192.36C201.016 189.902 196.524 190.268 193.589 192.453C190.655 194.638 189.063 198.235 188.389 201.832C187.79 201.455 187.099 201.252 186.392 201.245C185.685 201.239 184.99 201.43 184.385 201.797C183.184 202.553 182.252 203.67 181.724 204.987C180.682 204.241 179.435 203.835 178.154 203.827C176.873 203.819 175.621 204.208 174.57 204.941C173.849 205.533 173.159 206.161 172.502 206.823C170.547 208.554 167.997 209.46 165.388 209.352C162.779 209.244 160.314 208.129 158.509 206.242C158.509 206.242 156.434 209.188 164.401 212.53C172.368 215.871 177.545 215.435 181.834 214.901C186.122 214.366 191.527 215.331 195.298 216.644C199.069 217.957 210.058 218.044 213.934 213.843C217.809 209.642 217.379 201.454 206.176 202.221C206.199 202.186 206.327 194.708 203.73 192.36Z" fill="black"/>
<path d="M181.398 185.451C179.823 184.73 179.074 182.784 179.318 181.064C179.562 179.344 180.48 177.821 181.526 176.415C182.572 175.009 183.693 173.672 184.356 172.068C186.93 165.793 181.386 158.372 183.856 152.056" stroke="#1D1D35" stroke-width="1.10236" stroke-linecap="round" stroke-linejoin="round"/>
<path d="M203.945 184.969C202.463 184.516 201.621 182.947 201.324 181.425C200.447 176.648 203.736 172.127 204.445 167.345C205.026 163.364 203.823 159.355 202.626 155.508" stroke="#1D1D35" stroke-width="1.10236" stroke-linecap="round" stroke-linejoin="round"/>
<path d="M193.003 183.551C191.429 182.069 191.603 179.483 192.422 177.496C193.242 175.509 194.66 173.754 195.241 171.685C195.574 170.453 195.612 169.16 195.352 167.91C195.093 166.66 194.543 165.489 193.747 164.491" stroke="#1D1D35" stroke-width="1.10236" stroke-linecap="round" stroke-linejoin="round"/>
<path d="M179.097 156.728C178.959 158.915 179.096 161.111 179.504 163.265" stroke="#1D1D35" stroke-width="1.10236" stroke-linecap="round" stroke-linejoin="round"/>
<path d="M179.214 170.087C179.417 172.254 177.982 174.184 176.837 176.037C175.496 178.127 174.589 180.465 174.17 182.912C173.749 185.372 174.145 187.903 175.297 190.117" stroke="#1D1D35" stroke-width="1.10236" stroke-linecap="round" stroke-linejoin="round"/>
<path d="M101.151 82.522L101.732 89.6288V89.7973C101.244 89.7394 100.753 89.7103 100.262 89.7101C96.4032 89.7101 90.3831 90.9769 86.112 92.0345C83.1136 92.7783 80.9519 93.4175 80.9519 93.4175L80.3069 90.8549L77.8605 81.2785C75.879 79.5759 72.8573 72.8875 72.8573 72.8875C70.3993 72.5098 67.3428 70.2784 66.6803 67.1579C66.0179 64.0374 69.8589 64.3454 69.8589 64.3454L72.346 62.8172L75.4606 54.3158C75.4606 54.3158 72.7237 47.9877 78.1104 45.4425C83.4971 42.8973 101.813 51.7648 101.813 51.7648L103.795 60.0802C106.34 61.1146 103.649 67.3439 103.649 67.3439C103.649 67.3439 103.893 67.4427 104.172 71.121C104.451 74.7993 101.151 82.522 101.151 82.522Z" fill="white"/>
<path d="M95.0312 62.7705C95.8448 65.8619 98.7096 68.0643 98.605 68.8604C98.4713 69.8831 97.2103 71.2661 96.0656 71.2835" stroke="#1D1D35" stroke-width="1.10236" stroke-linecap="round" stroke-linejoin="round"/>
<path d="M100.674 57.7973C100.674 57.7973 98.1576 55.746 96.2109 58.3784" stroke="#263238" stroke-width="0.620208" stroke-linecap="round" stroke-linejoin="round"/>
<path d="M86.2451 73.417C86.2451 73.417 87.5235 76.7525 92.6371 76.6421" stroke="#1D1D35" stroke-width="1.10236" stroke-linecap="round" stroke-linejoin="round"/>
<path d="M89.5167 60.4177C87.6804 59.2845 85.1352 59.3833 83.7871 61.8878" stroke="#263238" stroke-width="0.620208" stroke-linecap="round" stroke-linejoin="round"/>
<path d="M89.2443 65.2876C89.4128 66.1941 89.163 67.0309 88.6632 67.0948C88.1635 67.1587 87.6405 66.5137 87.4662 65.6246C87.2918 64.7356 87.5533 63.9104 88.0473 63.8233C88.5412 63.7361 89.07 64.3869 89.2443 65.2876Z" fill="#1D1D35"/>
<path d="M99.7209 63.2652C99.8894 64.1717 99.6395 65.0085 99.1398 65.0724C98.64 65.1363 98.1171 64.4913 97.9427 63.6022C97.7684 62.7132 98.0299 61.888 98.5238 61.795C99.0177 61.7021 99.5465 62.3471 99.7209 63.2652Z" fill="#1D1D35"/>
<path d="M72.6193 66.5771C72.6193 66.5771 68.3657 62.8813 67.0175 65.4149C65.6694 67.9485 70.045 73.8291 74.1533 72.0336" stroke="#1D1D35" stroke-width="1.10236" stroke-linecap="round" stroke-linejoin="round"/>
<path d="M101.225 52.748C101.225 52.748 101.55 63.3995 102.73 65.7703C103.91 68.1412 104.921 69.3208 103.677 75.5036C102.434 81.6865 97.6918 88.9094 92.6363 89.3918C87.5808 89.8741 75.9648 82.1688 72.6758 72.5633" stroke="#1D1D35" stroke-width="1.10236" stroke-linecap="round" stroke-linejoin="round"/>
<path d="M72.7352 67.0136C72.7352 67.0136 75.8208 65.4156 75.263 62.6496C74.7051 59.8836 75.0944 59.5407 77.3084 58.117C79.5224 56.6934 78.151 53.753 76.03 50.8592C73.909 47.9653 77.9418 44.502 81.225 45.9548C84.5081 47.4075 103.219 54.7699 108.246 52.585C113.272 50.4001 111.831 43.4154 105.061 39.5105C105.061 39.5105 101.406 35.1464 102.388 31.1311C103.37 27.1158 79.9291 14.9884 68.9407 39.6848C68.9407 39.6848 63.7108 41.7244 62.6358 48.744C61.5666 55.6532 69.1266 64.5904 69.1266 64.5904C69.1266 64.5904 71.7996 65.9676 72.7352 67.0136Z" fill="#1D1D35"/>
<path d="M75.8955 44.6983C77.6388 42.3739 80.8115 41.543 83.6647 41.9497C86.5179 42.3565 89.1095 43.815 91.5443 45.3549C93.9791 46.8948 96.3732 48.58 99.0985 49.533C100.63 50.1489 102.312 50.2847 103.922 49.9223C104.55 49.7556 105.136 49.4589 105.643 49.0516C106.149 48.6442 106.564 48.1351 106.862 47.5573" stroke="white" stroke-width="0.310104" stroke-linecap="round" stroke-linejoin="round"/>
<path d="M71.02 42.8232C68.928 42.9627 67.1034 44.5317 66.2899 46.4667C65.5478 48.4447 65.4966 50.6155 66.1446 52.6263C66.5729 54.0427 67.1576 55.407 67.8879 56.6939" stroke="white" stroke-width="0.310104" stroke-linecap="round" stroke-linejoin="round"/>
<path d="M101.563 81.5693C101.257 82.762 101.159 83.9984 101.272 85.2244C101.337 86.665 101.498 88.0996 101.755 89.5187" stroke="#1D1D35" stroke-width="1.10236" stroke-linecap="round" stroke-linejoin="round"/>
<path d="M77.8369 80.8613C78.8422 84.4176 79.9579 88.7003 80.9864 93.4652" stroke="#1D1D35" stroke-width="1.10236" stroke-linecap="round" stroke-linejoin="round"/>
<path d="M101.877 61.9632C101.877 61.9632 102.83 59.3715 104.631 60.5221C106.433 61.6726 103.562 67.4952 103.562 67.4952" stroke="#1D1D35" stroke-width="1.10236" stroke-linecap="round" stroke-linejoin="round"/>
<path d="M104.509 50.958C104.509 50.958 105.41 58.2856 103.225 60.5983L101.551 61.1155L100.668 51.3822L104.509 50.958Z" fill="#1D1D35"/>
<path d="M61.5428 41.7651C61.5428 41.7651 55.6506 41.3525 49.9558 34.577C44.2611 27.8014 48.8634 23.0423 51.6991 20.4971C54.5349 17.9519 61.5312 10.973 64.4541 7.71305C67.377 4.45312 73.2344 0.32736 79.8531 1.40819C86.4717 2.48902 92.916 6.49856 99.2092 8.34644C105.502 10.1943 111.772 17.0628 112.696 21.543C113.62 26.0233 111.633 33.0487 109.326 34.7397L105.357 34.6176L107.1 40.6319C107.1 40.6319 83.5197 31.3054 62.4551 48.8137L64.2391 42.5495L61.5428 41.7651Z" fill="white"/>
<path d="M72.3801 33.7627C72.3801 36.4415 72.4207 39.1204 72.5893 41.7876L62.7979 49.0629L65.192 37.2667L72.3801 33.7627Z" fill="#00BF6D"/>
<path opacity="0.6" d="M72.38 33.7627C72.38 36.4415 72.502 39.4167 72.6647 42.0839L62.7861 49.0571L65.1802 37.2609L72.38 33.7627Z" fill="white"/>
<path d="M73.5432 1.59363C74.0164 1.44731 74.5226 1.44664 74.9962 1.59172C75.4698 1.73679 75.8888 2.02091 76.1988 2.40716C76.8036 3.19231 77.1122 4.16554 77.0704 5.15573C77.0414 8.3808 74.6415 11.1119 72.0091 12.983C69.3768 14.8542 66.3667 16.2139 64.054 18.4686C62.7354 19.7538 61.6875 21.29 60.972 22.9866C60.2565 24.6832 59.8879 26.5058 59.8879 28.3471C59.8879 30.1884 60.2565 32.0111 60.972 33.7077C61.6875 35.4043 62.7354 36.9405 64.054 38.2257C64.3155 38.4756 64.5828 38.7138 64.8384 38.9753L64.0307 42.2759C64.0307 42.2759 53.5711 40.9104 49.9799 34.5764C46.3888 28.2425 47.5219 25.279 50.654 21.56C53.7861 17.841 57.8537 15.8188 61.84 10.1415C65.8263 4.46423 73.5432 1.59363 73.5432 1.59363Z" fill="#00BF6D"/>
<path opacity="0.6" d="M73.5432 1.59363C74.0164 1.44731 74.5226 1.44664 74.9962 1.59172C75.4698 1.73679 75.8888 2.02091 76.1988 2.40716C76.8036 3.19231 77.1122 4.16554 77.0704 5.15573C77.0414 8.3808 74.6415 11.1119 72.0091 12.983C69.3768 14.8542 66.3667 16.2139 64.054 18.4686C62.7354 19.7538 61.6875 21.29 60.972 22.9866C60.2565 24.6832 59.8879 26.5058 59.8879 28.3471C59.8879 30.1884 60.2565 32.0111 60.972 33.7077C61.6875 35.4043 62.7354 36.9405 64.054 38.2257C64.3155 38.4756 64.5828 38.7138 64.8384 38.9753L64.0307 42.2759C64.0307 42.2759 53.5711 40.9104 49.9799 34.5764C46.3888 28.2425 47.5219 25.279 50.654 21.56C53.7861 17.841 57.8537 15.8188 61.84 10.1415C65.8263 4.46423 73.5432 1.59363 73.5432 1.59363Z" fill="white"/>
<path d="M62.7979 49.0639C62.7979 49.0639 79.0103 32.2587 107.077 40.9286L103.625 31.4045C103.625 31.4045 84.1007 26.0759 65.192 37.2677L62.7979 49.0639Z" stroke="#1D1D35" stroke-width="1.10236" stroke-linecap="round" stroke-linejoin="round"/>
<path d="M105.492 36.5351C107.485 36.2155 111.373 34.0015 112.256 32.1827C113.064 30.3182 113.425 28.2902 113.308 26.2614C113.325 23.3714 112.654 20.5189 111.349 17.9401C108.345 12.3791 102.005 9.65376 96.1306 7.32358L85.1363 2.95958C82.9107 2.07632 80.6386 1.18143 78.2503 1.02454C73.5144 0.716558 69.04 3.34891 65.5767 6.60884C62.1134 9.86877 59.33 13.7853 55.8144 16.9813C54.1001 18.5387 52.2174 19.8868 50.631 21.6301C49.0446 23.3734 47.7255 25.3839 47.4989 27.6909C47.1619 31.0089 49.1144 34.1642 51.5143 36.4828C53.9142 38.8014 56.256 41.4802 63.9613 42.3925" stroke="#1D1D35" stroke-width="1.10236" stroke-linecap="round" stroke-linejoin="round"/>
<path d="M93.9209 30.1432C95.5206 29.1972 96.9217 27.95 98.0467 26.4707" stroke="#1D1D35" stroke-width="1.10236" stroke-linecap="round" stroke-linejoin="round"/>
<path d="M70.5843 34.3843C69.1911 33.9011 67.9186 33.123 66.8536 32.1031C65.7885 31.0832 64.9561 29.8456 64.4131 28.4746" stroke="#1D1D35" stroke-width="1.10236" stroke-linecap="round" stroke-linejoin="round"/>
<path d="M72.6243 6.16088C70.021 5.97493 67.7431 7.90416 66.0754 9.89149C64.4076 11.8788 62.92 14.2148 60.5898 15.3944" stroke="#1D1D35" stroke-width="1.10236" stroke-linecap="round" stroke-linejoin="round"/>
<path d="M166.524 120.56L142.536 139.283C142.536 139.283 133.326 109.276 132.785 105.539C131.309 101.942 125.957 96.9157 125.957 96.9157C125.957 96.9157 106.287 95.9453 104.87 95.1317C103.452 94.3182 103.295 89.6172 103.295 89.6172C102.783 89.6172 102.249 89.6172 101.708 89.6172C101.168 89.6172 100.744 89.6637 100.25 89.6985C95.5362 90.1445 90.87 90.998 86.3037 92.2495C82.5673 93.2258 79.9524 94.0974 79.9524 94.0974L81.4051 100.408L80.3533 101.989C76.9074 104.563 58.0277 110.821 53.1408 113.029C51.0011 114.721 48.9492 116.521 46.9928 118.422C46.9928 118.422 30.0598 151.649 27.4332 155.705C25.835 158.247 24.9684 161.18 24.9287 164.183C26.8754 168.338 29.7343 168.611 32.6805 169.628C33.1753 169.794 33.6603 169.988 34.1332 170.209C37.5791 171.824 67.9644 169.419 67.9644 169.419C67.9644 169.419 65.7795 180.239 75.7394 176.124C91.6788 169.535 129.781 174.096 129.781 174.096L128.869 149.691L137.504 159.569C137.504 159.569 141.542 161.946 146.4 158.912C153.786 154.142 175.199 127.789 175.199 127.789C173.131 122.902 166.524 120.56 166.524 120.56ZM70.2946 158.61L68.5513 156.867C65.5413 155.042 54.3146 152.927 54.3146 152.927L62.2174 141.509C62.2174 141.509 70.5561 154.409 70.9338 155.501C71.3115 156.594 70.2946 158.61 70.2946 158.61V158.61Z" fill="white"/>
<path d="M86.9194 184.649L88.7092 223.217C88.7092 223.217 82.8518 221.752 81.2247 219.312C79.5977 216.871 75.9658 180.314 75.9658 180.314C75.9658 180.314 79.4524 183.51 86.9194 184.649Z" fill="#00BF6D"/>
<path opacity="0.56" d="M86.9194 184.649L88.7092 223.217C88.7092 223.217 82.8518 221.752 81.2247 219.312C79.5977 216.871 75.9658 180.314 75.9658 180.314C75.9658 180.314 79.4524 183.51 86.9194 184.649Z" fill="white"/>
<path d="M71.1775 156.141L62.0195 141.881L69.6841 131.741C69.6841 131.741 70.2652 137.477 73.6646 140.138C79.1095 144.386 77.9124 157.443 77.9124 157.443L71.1775 156.141Z" fill="#00BF6D"/>
<path opacity="0.6" d="M71.1775 156.141L62.0195 141.881L69.6841 131.741C69.6841 131.741 70.2652 137.477 73.6646 140.138C79.1095 144.386 77.9124 157.443 77.9124 157.443L71.1775 156.141Z" fill="white"/>
<path d="M126.869 118.992C126.869 118.992 133.517 148.564 137.369 153.277C141.222 157.989 141.303 139.615 142.663 139.359C144.023 139.104 146.295 150.127 145.418 153.457C145.418 153.457 145.941 155.2 147.87 153.457C149.799 151.714 173.769 129.51 173.769 129.51C173.769 129.51 149.137 160.674 142.094 160.482C136.138 161.307 129.705 150.662 129.705 150.662L126.869 118.992Z" fill="#00BF6D"/>
<path opacity="0.6" d="M126.869 118.992C126.869 118.992 133.517 148.564 137.369 153.277C141.222 157.989 141.303 139.615 142.663 139.359C144.023 139.104 146.295 150.127 145.418 153.457C145.418 153.457 145.941 155.2 147.87 153.457C149.799 151.714 173.769 129.51 173.769 129.51C173.769 129.51 149.137 160.674 142.094 160.482C136.138 161.307 129.705 150.662 129.705 150.662L126.869 118.992Z" fill="white"/>
<path d="M55.5058 151.097L54.0298 153.073C54.0298 153.073 42.2162 151.591 32.6805 169.605C29.7343 168.588 26.8696 168.315 24.9287 164.16C24.9684 161.158 25.835 158.224 27.4332 155.682C30.0598 151.614 47.1904 118.021 47.1904 118.021C48.9462 116.099 50.9468 114.415 53.1408 113.012C65.3437 106.562 76.9074 104.552 80.3533 101.972L81.4051 100.391L79.9524 94.0803C79.9524 94.0803 82.5673 93.2087 86.3037 92.2324L88.2329 100.467C88.5506 101.828 88.3665 103.259 87.7143 104.496C87.0621 105.733 85.9856 106.694 84.6825 107.201L56.79 117.957C54.9898 118.648 53.5164 119.993 52.6643 121.723L37.3931 152.567C37.7011 152.294 43.7735 146.117 55.5058 151.097Z" fill="#00BF6D"/>
<path opacity="0.6" d="M55.5058 151.097L54.0298 153.073C54.0298 153.073 42.2162 151.591 32.6805 169.605C29.7343 168.588 26.8696 168.315 24.9287 164.16C24.9684 161.158 25.835 158.224 27.4332 155.682C30.0598 151.614 47.1904 118.021 47.1904 118.021C47.1904 118.021 50.8513 114.703 53.1408 113.012C64.7103 107.05 76.9074 104.552 80.3533 101.972L81.4051 100.391L79.9524 94.0803C79.9524 94.0803 82.5673 93.2087 86.3037 92.2324L88.2329 100.467C88.5506 101.828 88.3665 103.259 87.7143 104.496C87.0621 105.733 85.9856 106.694 84.6825 107.201L56.79 117.957C54.9898 118.648 53.5164 119.993 52.6643 121.723L37.3931 152.567C37.7011 152.294 43.7735 146.117 55.5058 151.097Z" fill="white"/>
<path d="M168.94 119.079L176.297 108.684C176.297 108.684 181.492 105.197 183.374 104.29C185.257 103.384 185.53 101.6 186.425 102.228C187.32 102.855 186.512 106.533 184.63 107.696C182.747 108.858 180.597 110.02 180.864 110.834C181.131 111.647 192.073 110.653 192.073 110.653C192.073 110.653 206.02 110.467 206.223 111.548C206.426 112.629 197.542 114.239 197.542 114.239C197.542 114.239 207.089 114.134 207.112 114.68C207.135 115.227 201.667 117.109 201.667 117.109C201.667 117.109 205.532 117.313 205.346 118.15C205.16 118.986 201.22 120.067 201.22 120.067C201.22 120.067 193.148 125.001 191.341 125.808C189.534 126.616 177.267 125.088 177.267 125.088L175.169 127.801C175.169 127.801 171.619 122.758 167.854 120.608L168.94 119.079Z" fill="white"/>
<path d="M141.861 151.057C142.374 147.214 142.622 143.341 142.605 139.464" stroke="#1D1D35" stroke-width="1.10236" stroke-linecap="round" stroke-linejoin="round"/>
<path d="M101.742 89.6764C102.323 89.6764 102.945 89.6416 103.561 89.6357L104.142 93.3838C104.235 93.9855 104.539 94.5343 105 94.9316C105.462 95.329 106.049 95.5487 106.658 95.5513L125.573 96.8355C126.962 96.8355 132.232 104.047 133.127 106.766L142.663 139.389L166.528 120.439C166.528 120.439 171.177 121.073 175.204 127.819C175.204 127.819 159.84 148.268 145.894 159.198C143.854 160.791 139.287 161.145 137.468 159.309C134.4 156.217 131.622 153.451 129.478 150.592" stroke="#1D1D35" stroke-width="1.10236" stroke-linecap="round" stroke-linejoin="round"/>
<path d="M65.9941 141.096L70.7765 138.011" stroke="#1D1D35" stroke-width="1.10236" stroke-linecap="round" stroke-linejoin="round"/>
<path d="M67.7666 142.138C69.0321 141.729 70.3607 141.552 71.689 141.615" stroke="#1D1D35" stroke-width="1.10236" stroke-linecap="round" stroke-linejoin="round"/>
<path d="M62.2291 141.794C65.1349 145.846 67.8271 150.047 70.2947 154.38C70.84 155.351 71.0056 156.49 70.7595 157.576L59.1377 208.933" stroke="#1D1D35" stroke-width="1.10236" stroke-linecap="round" stroke-linejoin="round"/>
<path d="M125.585 110.968L129.589 149.645C129.856 158.327 130.501 163.824 130.885 174.702" stroke="#1D1D35" stroke-width="1.10236" stroke-linecap="round" stroke-linejoin="round"/>
<path d="M80.9229 101.693L86.3038 136.175L93.5093 133.769C98.4693 132.114 103.689 131.375 108.914 131.59L116.271 131.898L107.403 95.2256H110.768L129.706 150.662L130.868 175.248C130.868 175.248 95.6245 167.513 75.879 177.944L77.4247 193.053C77.4247 193.053 78.366 197.19 79.3597 209.236L63.6702 208.951H59.1377L70.5852 158.704C70.5852 158.704 80.4638 159.43 80.1791 151.481C79.8943 143.532 77.1632 103.588 77.1632 103.588L80.9229 101.693Z" fill="#1D1D35"/>
<path d="M95.2637 101.368C95.2637 101.692 95.1676 102.009 94.9875 102.279C94.8075 102.548 94.5515 102.758 94.2521 102.882C93.9527 103.006 93.6232 103.039 93.3053 102.975C92.9874 102.912 92.6955 102.756 92.4663 102.527C92.2371 102.298 92.081 102.006 92.0178 101.688C91.9546 101.37 91.987 101.041 92.1111 100.741C92.2351 100.442 92.4451 100.186 92.7146 100.006C92.9841 99.8256 93.3009 99.7295 93.625 99.7295C94.0596 99.7295 94.4764 99.9021 94.7837 100.209C95.091 100.517 95.2637 100.934 95.2637 101.368V101.368Z" fill="#1D1D35"/>
<path d="M95.4961 110.968C96.4011 110.968 97.1348 110.234 97.1348 109.329C97.1348 108.424 96.4011 107.69 95.4961 107.69C94.5911 107.69 93.8574 108.424 93.8574 109.329C93.8574 110.234 94.5911 110.968 95.4961 110.968Z" fill="#1D1D35"/>
<path d="M105.74 153.107C111.664 152.096 117.622 151.31 123.615 150.748" stroke="white" stroke-width="0.310104" stroke-linecap="round" stroke-linejoin="round"/>
<path d="M95.502 155.078C97.9348 154.563 100.377 154.084 102.83 153.643" stroke="white" stroke-width="0.310104" stroke-linecap="round" stroke-linejoin="round"/>
<path d="M123.615 152.875C118.796 154.812 113.94 156.65 109.047 158.39" stroke="white" stroke-width="0.310104" stroke-linecap="round" stroke-linejoin="round"/>
<path d="M122.488 111.734C122.989 114.881 123.713 117.988 124.656 121.032" stroke="#1D1D35" stroke-width="1.10236" stroke-linecap="round" stroke-linejoin="round"/>
<path d="M192.184 115.098C192.184 115.098 206.13 112.774 206.229 111.548C206.327 110.322 196.187 110.967 193.799 110.758C191.411 110.549 181.404 111.833 181.073 111.205C180.742 110.578 181.555 110.432 183.758 108.596C185.96 106.76 187.581 103.517 186.989 102.489C186.396 101.46 184.432 103.744 182.921 104.581C181.707 105.261 177.11 107.864 176.279 109.003C175.448 110.142 169.922 117.766 167.83 120.671" stroke="#1D1D35" stroke-width="1.10236" stroke-linecap="round" stroke-linejoin="round"/>
<path d="M192.504 114.983C192.504 114.983 207.194 113.635 207.136 114.704C207.043 116.488 197.193 117.894 193.161 118.191" stroke="#1D1D35" stroke-width="1.10236" stroke-linecap="round" stroke-linejoin="round"/>
<path d="M193.069 118.242C193.069 118.242 205.556 116.498 205.37 118.149C205.184 119.799 190.988 122.489 190.988 122.489" stroke="#1D1D35" stroke-width="1.10236" stroke-linecap="round" stroke-linejoin="round"/>
<path d="M174.688 128.463C176.088 126.453 177.012 125.07 177.012 125.07C177.012 125.07 189.04 126.389 190.766 126.057C192.492 125.726 200.61 120.525 200.61 120.525" stroke="#1D1D35" stroke-width="1.10236" stroke-linecap="round" stroke-linejoin="round"/>
<path d="M179.981 115.029C181.315 115.192 182.582 115.703 183.655 116.511C184.728 117.319 185.57 118.395 186.095 119.632" stroke="#1D1D35" stroke-width="1.10236" stroke-linecap="round" stroke-linejoin="round"/>
<path d="M144.535 140.638C145.889 142.712 146.04 145.321 146.151 147.797" stroke="#1D1D35" stroke-width="1.10236" stroke-linecap="round" stroke-linejoin="round"/>
<path d="M75.9658 178.629L80.2717 215.383C80.2717 215.383 80.0683 219.253 83.3166 221.194C86.5649 223.135 100.802 226.296 108.751 225.802C116.7 225.308 126.765 224.808 130.437 221.99C134.11 219.172 133.25 211.559 133.25 211.559L135.9 188.548C135.9 188.548 138.311 179.762 135.406 177.124C130.095 172.335 85.333 168.698 75.9658 178.629Z" fill="white"/>
<path d="M75.9659 180.314C77.6956 181.813 79.715 182.941 81.8988 183.626C85.3854 184.672 128.293 183.441 133.616 182.4C138.939 181.36 137.01 177.002 134.046 175.782C131.083 174.561 103.556 170.552 91.3997 173.318C80.6146 175.77 73.874 175.956 75.9659 180.314Z" fill="#00BF6D"/>
<path opacity="0.6" d="M75.9652 180.315C77.6949 181.814 79.7144 182.941 81.8982 183.627C85.3847 184.673 128.293 183.441 133.615 182.401C138.938 181.361 137.009 177.002 134.045 175.782C131.082 174.562 106.804 171.035 92.1603 173.039C81.3403 175.48 73.8733 175.956 75.9652 180.315Z" fill="white"/>
<path d="M137.038 179.257C137.038 180.419 135.8 181.465 133.61 182.401C128.49 184.609 118.176 186.108 106.298 186.108C94.9555 186.108 85.042 184.743 79.7192 182.703C77.0752 181.692 75.5586 180.518 75.5586 179.257C75.5586 175.469 89.3247 172.4 106.298 172.4C123.272 172.4 137.038 175.469 137.038 179.257Z" stroke="#1D1D35" stroke-width="1.10236" stroke-linecap="round" stroke-linejoin="round"/>
<path d="M133.61 182.39C128.491 184.598 118.176 186.097 106.299 186.097C94.956 186.097 85.0425 184.732 79.7197 182.692C83.7002 180.205 94.3749 178.415 106.921 178.415C118.967 178.427 129.281 180.065 133.61 182.39Z" fill="#1D1D35"/>
<path d="M75.5479 179.257L80.3535 217.185C80.4602 218.052 80.7876 218.877 81.3045 219.581C81.8214 220.285 82.5103 220.844 83.3054 221.206C89.3546 223.937 105.602 229.417 128.788 222.996C129.762 222.719 130.633 222.159 131.288 221.386C131.943 220.613 132.353 219.662 132.466 218.655L133.936 206.016L134.081 204.726L135.273 194.522L135.534 192.268L137.039 179.257" stroke="#1D1D35" stroke-width="1.10236" stroke-linecap="round" stroke-linejoin="round"/>
<path d="M100.994 225.896C100.21 224.894 99.6728 223.722 99.4275 222.474C99.1821 221.226 99.2349 219.937 99.5817 218.713C99.5817 218.713 96.0429 220.486 95.9383 223.606C95.9383 223.606 90.7085 222.153 91.3535 214.553C91.3535 214.553 88.448 219.236 91.0455 224.338C93.643 229.44 100.994 225.896 100.994 225.896Z" fill="#1D1D35"/>
<path d="M114.55 225.918C117.103 223.311 118.774 219.967 119.326 216.359C120.056 218.928 120.013 221.654 119.204 224.198C120.326 223.698 121.312 222.936 122.08 221.977C122.847 221.018 123.373 219.888 123.615 218.684C123.615 218.684 124.353 223.332 122.145 225.918C119.937 228.504 114.55 225.918 114.55 225.918Z" fill="#1D1D35"/>
<path d="M145.912 195.755C144.529 200.59 139.578 205.854 133.936 206.005L134.081 204.715C138.921 204.465 143.436 199.759 144.674 195.418C144.976 194.36 145.482 191.769 143.657 190.595C143.212 190.285 142.707 190.072 142.174 189.972C141.641 189.872 141.093 189.886 140.566 190.014C137.811 190.688 135.76 194.18 135.743 194.215C135.695 194.301 135.627 194.374 135.545 194.429C135.463 194.483 135.37 194.517 135.272 194.529L135.534 192.274C136.487 191.031 138.16 189.282 140.258 188.788C140.955 188.621 141.68 188.602 142.385 188.731C143.091 188.86 143.761 189.134 144.355 189.537C146.15 190.665 146.714 192.948 145.912 195.755Z" fill="#1D1D35"/>
<path d="M101.661 181.325C104.811 183.109 108.692 183.208 112.214 182.377C113.455 182.136 114.639 181.658 115.7 180.971" stroke="white" stroke-width="0.310104" stroke-linecap="round" stroke-linejoin="round"/>
<path d="M120.298 181.559C119.322 182.546 118.128 183.291 116.812 183.732" stroke="white" stroke-width="0.310104" stroke-linecap="round" stroke-linejoin="round"/>
<path d="M79.7371 207.109C68.2257 208.475 67.0809 195.174 70.1549 193.076C73.2289 190.978 79.342 198.172 79.342 198.172" stroke="white" stroke-width="0.620208" stroke-linecap="round" stroke-linejoin="round"/>
<path d="M110.151 180.965L87.297 139.429C87.297 139.429 84.7983 137.924 84.9726 140.928C85.1469 143.932 106.182 181.227 106.182 181.227L110.151 180.965Z" fill="white" stroke="#1D1D35" stroke-width="1.10236" stroke-linecap="round" stroke-linejoin="round"/>
<path d="M101.471 189.944C108.386 190.368 117.16 190.199 124.668 187.881" stroke="#1D1D35" stroke-width="1.10236" stroke-linecap="round" stroke-linejoin="round"/>
<path d="M89.2959 188.484C89.2959 188.484 91.6203 188.955 95.287 189.397" stroke="#1D1D35" stroke-width="1.10236" stroke-linecap="round" stroke-linejoin="round"/>
<path d="M67.5873 135.188C62.9 140.473 58.6462 146.128 54.8672 152.097" stroke="#1D1D35" stroke-width="1.10236" stroke-linecap="round" stroke-linejoin="round"/>
<path d="M52.2285 151.87C49.3947 151.214 46.4348 151.353 43.6748 152.271" stroke="#1D1D35" stroke-width="1.10236" stroke-linecap="round" stroke-linejoin="round"/>
<path d="M51.2988 117.12C51.2988 117.12 61.7585 123.111 65.6344 132.316" stroke="#1D1D35" stroke-width="1.10236" stroke-linecap="round" stroke-linejoin="round"/>
<path d="M59.957 154.548C60.1546 162.056 64.8324 169.732 64.8324 169.732L82.0269 167.106L80.8647 163.776C81.4458 164.061 82.6429 163.962 83.4506 164.154C88.5119 165.316 96.8157 165.101 96.8157 165.101C98.0552 164.064 99.0899 162.805 99.8665 161.388C101.267 158.912 99.9478 158.238 99.9478 158.238C101.976 155.397 100.419 153.346 100.419 153.346C103.417 151.631 102.162 150.696 102.162 150.696C100.233 147.68 88.8489 148.982 88.8489 148.982L78.8716 157.402L72.0961 156.239L59.957 154.548Z" fill="white"/>
<path d="M77.9473 157.513L79.4523 157.019L88.866 148.982C88.866 148.982 101.162 148.331 102.039 150.539C102.917 152.748 100.36 153.77 98.1518 154.654" stroke="#1D1D35" stroke-width="1.10236" stroke-linecap="round" stroke-linejoin="round"/>
<path d="M100.058 153.868C100.058 153.868 103.097 155.193 98.8955 158.895" stroke="#1D1D35" stroke-width="1.10236" stroke-linecap="round" stroke-linejoin="round"/>
<path d="M99.6562 158.332C100.993 157.577 101.87 160.982 97.1865 162.621" stroke="#1D1D35" stroke-width="1.10236" stroke-linecap="round" stroke-linejoin="round"/>
<path d="M99.9997 161.609L96.5655 165.305C96.5655 165.305 88.8253 165.979 81.8696 163.736L81.1084 163.957" stroke="#1D1D35" stroke-width="1.10236" stroke-linecap="round" stroke-linejoin="round"/>
<path d="M41.2977 158.653C42.9372 156.911 44.9126 155.519 47.1048 154.561C49.297 153.603 51.6604 153.099 54.0526 153.08C55.0399 153.094 56.0194 153.256 56.9581 153.562C60.3226 154.614 74.1468 156.183 78.3656 157.665L82.0322 166.91C67.5572 170.571 48.2591 170.867 36.6605 170.327C33.7531 170.101 30.922 169.287 28.3393 167.933C27.5866 167.546 26.9181 167.014 26.3725 166.368C25.827 165.721 25.4152 164.972 25.1612 164.165C24.9071 163.358 24.8158 162.509 24.8926 161.666C24.9693 160.824 25.2125 160.005 25.6082 159.257L46.4287 119.162C47.0098 118.075 51.0774 114.24 52.199 113.786L62.8097 108.667C63.9455 108.122 65.1093 107.637 66.2963 107.214L78.0285 103.28C78.9176 102.92 81.5151 100.863 81.2594 99.9274L79.8241 94.0642C86.842 91.4189 94.2469 89.9446 101.743 89.7002" stroke="#1D1D35" stroke-width="1.10236" stroke-linecap="round" stroke-linejoin="round"/>
</svg>
