<svg width="240" height="225" viewBox="0 0 240 225" fill="none" xmlns="http://www.w3.org/2000/svg">
<path d="M182.729 40.8994C181.909 40.6815 181.077 40.4694 180.252 40.2801C169.185 37.6883 157.774 37.35 146.46 37.5621C136.104 37.7514 125.112 40.0278 114.922 37.4761C107.932 35.7559 101.734 31.6273 96.269 26.931C89.8697 21.4204 84.1355 14.9294 76.7384 10.8352C58.2916 0.570985 39.8046 6.94739 26.0426 19.7059L25.9853 19.7633C25.108 20.5718 24.265 21.4147 23.4221 22.2691C23.3985 22.2792 23.3755 22.2907 23.3533 22.3035C15.4712 30.4661 9.55456 40.3187 6.0533 51.112C4.48881 56.1055 3.22125 61.1872 2.25728 66.3305C2.25119 66.353 2.25119 66.3768 2.25728 66.3993C2.05658 67.4429 1.86735 68.4865 1.68386 69.5359C1.68662 69.5587 1.68662 69.5818 1.68386 69.6047C-5.89098 116.401 12.0627 164.769 56.1126 187.683C77.2201 198.664 102.147 208.142 126.488 206.353C142.039 205.206 156.34 197.924 168.617 188.663C195.126 168.663 215.855 138.73 221.945 105.782C227.49 75.465 213.011 49.0706 182.729 40.8994Z" fill="#00BF6D"/>
<path opacity="0.5" d="M182.729 40.8994C181.909 40.6815 181.077 40.4694 180.252 40.2801C169.185 37.6883 157.774 37.35 146.46 37.5621C136.104 37.7514 125.112 40.0278 114.922 37.4761C107.932 35.7559 101.734 31.6273 96.269 26.931C89.8697 21.4204 84.1355 14.9294 76.7384 10.8352C58.2916 0.570985 39.8046 6.94739 26.0426 19.7059L25.9853 19.7633C25.108 20.5718 24.265 21.4147 23.4221 22.2691C23.3985 22.2792 23.3755 22.2907 23.3533 22.3035C15.4712 30.4661 9.55456 40.3187 6.0533 51.112C4.48881 56.1055 3.22125 61.1872 2.25728 66.3305C2.25119 66.353 2.25119 66.3768 2.25728 66.3993C2.05658 67.4429 1.86735 68.4865 1.68386 69.5359C1.68662 69.5587 1.68662 69.5818 1.68386 69.6047C-5.89098 116.401 12.0627 164.769 56.1126 187.683C77.2201 198.664 102.147 208.142 126.488 206.353C142.039 205.206 156.34 197.924 168.617 188.663C195.126 168.663 215.855 138.73 221.945 105.782C227.49 75.465 213.011 49.0706 182.729 40.8994Z" fill="white"/>
<path d="M227.071 206.244H238.672" stroke="#1D1D35" stroke-width="1.0878" stroke-linecap="round" stroke-linejoin="round"/>
<path d="M135.577 206.244H148.45" stroke="#1D1D35" stroke-width="1.0878" stroke-linecap="round" stroke-linejoin="round"/>
<path d="M34.4668 206.244H77.6853" stroke="#1D1D35" stroke-width="1.0878" stroke-linecap="round" stroke-linejoin="round"/>
<path d="M17.6875 206.244H27.47" stroke="#1D1D35" stroke-width="1.0878" stroke-linecap="round" stroke-linejoin="round"/>
<path d="M61.9771 74.0586C61.9771 74.0586 62.6939 78.7262 58.7373 80.7045C58.7373 80.7045 63.5139 81.7252 63.9554 86.3412C63.9554 86.3412 64.0471 80.0336 66.7881 79.271C66.7881 79.271 63.0781 79.2136 61.9771 74.0586Z" fill="white"/>
<path d="M118.808 74.6436C118.808 74.6436 118.585 77.5106 115.941 78.1242C115.941 78.1242 118.625 79.3972 118.235 82.1897C118.235 82.1897 119.17 78.4682 120.901 78.3994C120.93 78.3994 118.74 77.8432 118.808 74.6436Z" fill="white"/>
<path d="M121.979 64.8955C121.979 64.8955 121.75 67.7626 119.112 68.3762C119.112 68.3762 121.79 69.6491 121.406 72.4417C121.406 72.4417 122.341 68.7202 124.072 68.6514C124.078 68.6514 121.888 68.0952 121.979 64.8955Z" fill="white"/>
<path d="M54.993 65.1016C54.993 65.1016 54.7923 69.3678 52.166 70.6809C53.3023 71.0233 54.3132 71.6915 55.0735 72.6027C55.8338 73.5139 56.3102 74.628 56.4437 75.8073C56.4437 75.8073 55.8703 71.0307 58.8291 70.0215C57.8797 69.5173 57.0473 68.8185 56.3862 67.9707C55.7252 67.123 55.2505 66.1453 54.993 65.1016Z" fill="white"/>
<path d="M186.708 219.09C207.536 219.09 224.421 215.309 224.421 210.644C224.421 205.979 207.536 202.197 186.708 202.197C165.879 202.197 148.994 205.979 148.994 210.644C148.994 215.309 165.879 219.09 186.708 219.09Z" fill="white" stroke="#1D1D35" stroke-width="1.0878" stroke-linecap="round" stroke-linejoin="round"/>
<path d="M186.921 215.862C205.175 215.862 219.973 212.828 219.973 209.084C219.973 205.341 205.175 202.307 186.921 202.307C168.667 202.307 153.869 205.341 153.869 209.084C153.869 212.828 168.667 215.862 186.921 215.862Z" stroke="#1D1D35" stroke-width="1.0878" stroke-linecap="round" stroke-linejoin="round"/>
<path d="M164.489 200.064C162.999 199.346 161.301 199.191 159.706 199.628C158.919 199.859 158.208 200.297 157.647 200.896C157.086 201.495 156.696 202.233 156.518 203.034C156.422 203.804 156.506 204.586 156.762 205.318C157.019 206.05 157.442 206.713 157.998 207.255C159.12 208.328 160.451 209.159 161.908 209.697C165.862 211.357 170.11 212.201 174.397 212.18C177.993 212.18 181.588 211.538 185.166 211.894C188.607 212.226 191.864 213.453 195.258 214.004C198.726 214.565 202.271 214.423 205.683 213.585C209.204 212.719 212.954 210.586 213.567 207.014C213.728 205.779 213.535 204.525 213.01 203.396C212.485 202.267 211.65 201.31 210.603 200.637C209.543 199.988 208.354 199.578 207.119 199.435C205.884 199.293 204.633 199.421 203.452 199.812C204.077 199.617 203.16 194.078 202.999 193.332C201.853 188.171 195.757 184.519 190.688 184.794C187.282 184.977 183.882 187.288 183.165 190.62C182.018 189.972 180.372 190.218 179.208 190.861C178.63 191.192 178.143 191.662 177.791 192.229C177.44 192.795 177.235 193.441 177.196 194.106C174.954 192.065 171.461 191.589 168.594 192.518C167.365 192.857 166.293 193.613 165.561 194.657C165.118 195.438 164.812 196.29 164.655 197.174C164.443 198.114 164.707 199.135 164.489 200.064Z" fill="#00BF6D"/>
<path d="M164.253 200.168C162.764 199.448 161.064 199.295 159.471 199.738C158.684 199.969 157.972 200.406 157.412 201.005C156.851 201.604 156.461 202.343 156.283 203.144C156.188 203.913 156.273 204.694 156.53 205.426C156.788 206.157 157.212 206.819 157.768 207.359C158.887 208.435 160.217 209.268 161.673 209.807C165.627 211.463 169.875 212.308 174.162 212.29C177.757 212.29 181.358 211.642 184.937 211.998C188.377 212.336 191.628 213.557 195.023 214.113C198.493 214.675 202.04 214.533 205.453 213.695C208.974 212.823 212.724 210.696 213.332 207.118C213.494 205.885 213.301 204.631 212.777 203.503C212.253 202.375 211.42 201.419 210.373 200.747C209.312 200.099 208.122 199.69 206.886 199.546C205.651 199.402 204.399 199.529 203.217 199.916C203.842 199.721 202.93 194.181 202.764 193.436C201.617 188.275 195.522 184.628 190.453 184.898C187.047 185.081 183.646 187.392 182.93 190.724C181.783 190.081 180.137 190.322 178.979 190.97C178.399 191.301 177.911 191.771 177.558 192.337C177.206 192.904 177 193.55 176.96 194.216C174.718 192.169 171.255 191.699 168.359 192.622C167.132 192.965 166.061 193.72 165.326 194.761C164.886 195.545 164.579 196.398 164.42 197.284C164.207 198.218 164.471 199.233 164.253 200.168Z" stroke="#1D1D35" stroke-width="1.0878" stroke-linecap="round" stroke-linejoin="round"/>
<path opacity="0.19" d="M164.5 200.202C163.013 199.483 161.315 199.33 159.723 199.772C158.936 200.002 158.225 200.439 157.665 201.037C157.104 201.635 156.714 202.372 156.535 203.172C156.439 203.942 156.522 204.724 156.779 205.456C157.036 206.189 157.458 206.851 158.014 207.393C159.137 208.466 160.468 209.297 161.925 209.835C165.879 211.494 170.126 212.341 174.414 212.324C178.009 212.324 181.605 211.676 185.183 212.032C188.623 212.37 191.88 213.591 195.275 214.148C198.743 214.71 202.289 214.566 205.7 213.723C209.22 212.857 212.97 210.724 213.584 207.152C213.745 205.918 213.552 204.664 213.027 203.536C212.502 202.408 211.667 201.453 210.619 200.781C209.56 200.131 208.371 199.72 207.136 199.576C205.901 199.433 204.65 199.56 203.469 199.95C204.094 199.755 203.177 194.216 203.01 193.47C201.863 188.309 195.774 184.662 190.699 184.932C187.299 185.115 183.898 187.426 183.181 190.758C182.035 190.116 180.389 190.357 179.225 191.004C178.647 191.335 178.161 191.804 177.809 192.37C177.458 192.936 177.253 193.58 177.212 194.244C174.97 192.203 171.507 191.733 168.611 192.656C167.387 193.001 166.318 193.756 165.583 194.795C165.14 195.578 164.833 196.431 164.677 197.318C164.459 198.252 164.723 199.267 164.5 200.202Z" fill="white"/>
<path opacity="0.2" d="M201.037 189.836C198.359 187.41 193.927 187.771 191.031 189.927C188.135 192.083 186.564 195.633 185.899 199.182C185.309 198.81 184.626 198.61 183.928 198.604C183.231 198.598 182.545 198.786 181.948 199.148C180.763 199.894 179.844 200.996 179.322 202.296C178.295 201.559 177.064 201.159 175.8 201.151C174.536 201.143 173.3 201.527 172.263 202.25C171.552 202.834 170.87 203.454 170.222 204.108C168.293 205.816 165.777 206.71 163.202 206.603C160.628 206.496 158.195 205.397 156.414 203.535C156.414 203.535 154.367 206.442 162.228 209.739C170.09 213.036 175.199 212.606 179.431 212.078C183.663 211.551 188.995 212.503 192.717 213.799C196.438 215.095 207.282 215.181 211.106 211.035C214.931 206.889 214.507 198.81 203.451 199.566C203.474 199.532 203.6 192.152 201.037 189.836Z" fill="black"/>
<path d="M179.002 183.017C177.448 182.306 176.708 180.385 176.949 178.687C177.19 176.99 178.096 175.488 179.128 174.1C180.16 172.712 181.267 171.394 181.921 169.811C184.461 163.618 178.99 156.296 181.427 150.062" stroke="#1D1D35" stroke-width="1.0878" stroke-linecap="round" stroke-linejoin="round"/>
<path d="M201.249 182.542C199.787 182.095 198.956 180.546 198.663 179.044C197.797 174.331 201.043 169.869 201.743 165.15C202.316 161.222 201.129 157.266 199.948 153.47" stroke="#1D1D35" stroke-width="1.0878" stroke-linecap="round" stroke-linejoin="round"/>
<path d="M190.452 181.142C188.898 179.68 189.07 177.128 189.878 175.167C190.687 173.206 192.086 171.474 192.659 169.433C192.988 168.217 193.025 166.941 192.769 165.708C192.513 164.474 191.971 163.319 191.186 162.334" stroke="#1D1D35" stroke-width="1.0878" stroke-linecap="round" stroke-linejoin="round"/>
<path d="M176.731 154.673C176.595 156.831 176.73 158.999 177.132 161.124" stroke="#1D1D35" stroke-width="1.0878" stroke-linecap="round" stroke-linejoin="round"/>
<path d="M176.845 167.855C177.046 169.994 175.629 171.898 174.5 173.727C173.177 175.789 172.281 178.096 171.868 180.511C171.452 182.939 171.843 185.436 172.98 187.621" stroke="#1D1D35" stroke-width="1.0878" stroke-linecap="round" stroke-linejoin="round"/>
<path d="M99.8126 81.4461L100.386 88.459V88.6253C99.9045 88.5682 99.4201 88.5394 98.9352 88.5393C95.1277 88.5393 89.1872 89.7893 84.9725 90.8329C82.0137 91.5669 79.8806 92.1977 79.8806 92.1977L79.2441 89.6689L76.83 80.219C74.8747 78.5389 71.8929 71.9388 71.8929 71.9388C69.4673 71.5661 66.4512 69.3642 65.7975 66.2849C65.1438 63.2057 68.9341 63.5096 68.9341 63.5096L71.3883 62.0015L74.4618 53.6124C74.4618 53.6124 71.761 47.3679 77.0766 44.8563C82.3922 42.3448 100.466 51.0951 100.466 51.0951L102.422 59.3007C104.933 60.3214 102.278 66.4684 102.278 66.4684C102.278 66.4684 102.519 66.5659 102.794 70.1957C103.07 73.8254 99.8126 81.4461 99.8126 81.4461Z" fill="white"/>
<path d="M93.7734 61.9551C94.5762 65.0057 97.4032 67.1789 97.3 67.9645C97.1681 68.9737 95.9238 70.3384 94.7941 70.3556" stroke="#1D1D35" stroke-width="1.0878" stroke-linecap="round" stroke-linejoin="round"/>
<path d="M99.3423 57.047C99.3423 57.047 96.8594 55.0228 94.9385 57.6204" stroke="#263238" stroke-width="0.612016" stroke-linecap="round" stroke-linejoin="round"/>
<path d="M85.1045 72.4609C85.1045 72.4609 86.366 75.7524 91.4121 75.6434" stroke="#1D1D35" stroke-width="1.0878" stroke-linecap="round" stroke-linejoin="round"/>
<path d="M88.3326 59.6331C86.5206 58.5149 84.009 58.6124 82.6787 61.0838" stroke="#263238" stroke-width="0.612016" stroke-linecap="round" stroke-linejoin="round"/>
<path d="M88.0629 64.4381C88.2292 65.3326 87.9826 66.1583 87.4895 66.2214C86.9963 66.2845 86.4802 65.648 86.3082 64.7707C86.1362 63.8933 86.3942 63.0791 86.8816 62.9931C87.369 62.9071 87.8909 63.5493 88.0629 64.4381Z" fill="#1D1D35"/>
<path d="M98.4017 62.4429C98.568 63.3375 98.3215 64.1632 97.8283 64.2263C97.3352 64.2893 96.8191 63.6528 96.6471 62.7755C96.4751 61.8982 96.7331 61.0839 97.2205 60.9922C97.7079 60.9004 98.2297 61.5369 98.4017 62.4429Z" fill="#1D1D35"/>
<path d="M71.6572 65.7112C71.6572 65.7112 67.4598 62.0642 66.1295 64.5643C64.7991 67.0644 69.117 72.8674 73.171 71.0955" stroke="#1D1D35" stroke-width="1.0878" stroke-linecap="round" stroke-linejoin="round"/>
<path d="M99.8868 52.0645C99.8868 52.0645 100.208 62.5752 101.372 64.9147C102.536 67.2543 103.534 68.4183 102.307 74.5195C101.08 80.6206 96.4005 87.7482 91.4117 88.2242C86.423 88.7001 74.9604 81.0966 71.7148 71.618" stroke="#1D1D35" stroke-width="1.0878" stroke-linecap="round" stroke-linejoin="round"/>
<path d="M71.7723 66.1418C71.7723 66.1418 74.8172 64.5649 74.2667 61.8355C73.7162 59.106 74.1004 58.7677 76.2851 57.3628C78.4698 55.9579 77.1166 53.0564 75.0236 50.2008C72.9306 47.3452 76.9101 43.9277 80.1499 45.3612C83.3898 46.7947 101.854 54.0599 106.814 51.9039C111.774 49.7478 110.352 42.8554 103.672 39.002C103.672 39.002 100.065 34.6956 101.034 30.7333C102.003 26.771 78.8712 14.8038 68.0279 39.174C68.0279 39.174 62.8671 41.1867 61.8063 48.1136C60.7512 54.9315 68.2114 63.7507 68.2114 63.7507C68.2114 63.7507 70.8491 65.1097 71.7723 66.1418Z" fill="#1D1D35"/>
<path d="M74.8916 44.1226C76.6119 41.8289 79.7427 41.009 82.5582 41.4103C85.3737 41.8117 87.9311 43.251 90.3337 44.7706C92.7363 46.2901 95.0988 47.953 97.7881 48.8934C99.2989 49.5013 100.959 49.6352 102.548 49.2776C103.167 49.1131 103.746 48.8204 104.246 48.4184C104.745 48.0164 105.155 47.514 105.449 46.9438" stroke="white" stroke-width="0.306008" stroke-linecap="round" stroke-linejoin="round"/>
<path d="M70.0805 42.2705C68.0162 42.4081 66.2156 43.9564 65.4128 45.8658C64.6806 47.8177 64.6301 49.9598 65.2695 51.9441C65.6921 53.3417 66.2691 54.688 66.9897 55.958" stroke="white" stroke-width="0.306008" stroke-linecap="round" stroke-linejoin="round"/>
<path d="M100.22 80.5049C99.9177 81.6818 99.8207 82.9019 99.9329 84.1117C99.9966 85.5332 100.156 86.9489 100.409 88.3492" stroke="#1D1D35" stroke-width="1.0878" stroke-linecap="round" stroke-linejoin="round"/>
<path d="M76.8076 79.8066C77.7996 83.316 78.9006 87.542 79.9155 92.2441" stroke="#1D1D35" stroke-width="1.0878" stroke-linecap="round" stroke-linejoin="round"/>
<path d="M100.529 61.158C100.529 61.158 101.47 58.6006 103.247 59.7359C105.025 60.8713 102.192 66.6169 102.192 66.6169" stroke="#1D1D35" stroke-width="1.0878" stroke-linecap="round" stroke-linejoin="round"/>
<path d="M103.127 50.2979C103.127 50.2979 104.016 57.5286 101.86 59.8108L100.209 60.3212L99.3369 50.7164L103.127 50.2979Z" fill="#1D1D35"/>
<path d="M60.728 41.2268C60.728 41.2268 54.9135 40.8196 49.294 34.1336C43.6746 27.4476 48.216 22.7513 51.0143 20.2397C53.8126 17.7281 60.7165 10.8414 63.6008 7.62452C66.4851 4.40765 72.2651 0.336385 78.7964 1.40294C85.3276 2.4695 91.6868 6.42608 97.8969 8.24954C104.107 10.073 110.294 16.8508 111.206 21.2718C112.118 25.6929 110.157 32.6255 107.88 34.2942L103.964 34.1737L105.684 40.1086C105.684 40.1086 82.4146 30.9053 61.6282 48.1823L63.3886 42.0009L60.728 41.2268Z" fill="white"/>
<path d="M71.4234 33.3311C71.4234 35.9745 71.4636 38.618 71.6299 41.2499L61.9678 48.4291L64.3303 36.7888L71.4234 33.3311Z" fill="#00BF6D"/>
<path opacity="0.6" d="M71.4222 33.3311C71.4222 35.9745 71.5426 38.9104 71.7032 41.5424L61.9551 48.4234L64.3176 36.783L71.4222 33.3311Z" fill="white"/>
<path d="M72.5697 1.58632C73.0366 1.44193 73.5362 1.44127 74.0035 1.58443C74.4708 1.72759 74.8843 2.00795 75.1902 2.3891C75.787 3.16388 76.0916 4.12425 76.0504 5.10137C76.0217 8.28383 73.6535 10.9789 71.0559 12.8253C68.4583 14.6717 65.488 16.0135 63.2058 18.2384C61.9047 19.5066 60.8706 21.0225 60.1646 22.6967C59.4585 24.3709 59.0948 26.1695 59.0948 27.9865C59.0948 29.8034 59.4585 31.602 60.1646 33.2762C60.8706 34.9504 61.9047 36.4663 63.2058 37.7345C63.4639 37.9811 63.7276 38.2162 63.9799 38.4742L63.1829 41.7313C63.1829 41.7313 52.8614 40.3837 49.3177 34.1335C45.7739 27.8832 46.8921 24.9588 49.9828 21.2889C53.0735 17.6191 57.0875 15.6236 61.0211 10.0213C64.9547 4.419 72.5697 1.58632 72.5697 1.58632Z" fill="#00BF6D"/>
<path opacity="0.6" d="M72.5697 1.58632C73.0366 1.44193 73.5362 1.44127 74.0035 1.58443C74.4708 1.72759 74.8843 2.00795 75.1902 2.3891C75.787 3.16388 76.0916 4.12425 76.0504 5.10137C76.0217 8.28383 73.6535 10.9789 71.0559 12.8253C68.4583 14.6717 65.488 16.0135 63.2058 18.2384C61.9047 19.5066 60.8706 21.0225 60.1646 22.6967C59.4585 24.3709 59.0948 26.1695 59.0948 27.9865C59.0948 29.8034 59.4585 31.602 60.1646 33.2762C60.8706 34.9504 61.9047 36.4663 63.2058 37.7345C63.4639 37.9811 63.7276 38.2162 63.9799 38.4742L63.1829 41.7313C63.1829 41.7313 52.8614 40.3837 49.3177 34.1335C45.7739 27.8832 46.8921 24.9588 49.9828 21.2889C53.0735 17.6191 57.0875 15.6236 61.0211 10.0213C64.9547 4.419 72.5697 1.58632 72.5697 1.58632Z" fill="white"/>
<path d="M61.9678 48.4281C61.9678 48.4281 77.9661 31.8449 105.662 40.4003L102.256 31.002C102.256 31.002 82.9893 25.7438 64.3303 36.7878L61.9678 48.4281Z" stroke="#1D1D35" stroke-width="1.0878" stroke-linecap="round" stroke-linejoin="round"/>
<path d="M104.097 36.0657C106.063 35.7504 109.9 33.5656 110.771 31.7708C111.569 29.931 111.924 27.9298 111.809 25.9277C111.826 23.076 111.164 20.2611 109.877 17.7164C106.912 12.2288 100.656 9.53946 94.8588 7.24006L84.0097 2.93369C81.8136 2.0621 79.5715 1.17904 77.2148 1.02421C72.5414 0.720302 68.1261 3.31788 64.7085 6.53475C61.291 9.75162 58.5443 13.6165 55.0751 16.7702C53.3835 18.307 51.5257 19.6373 49.9602 21.3576C48.3948 23.0778 47.0931 25.0619 46.8695 27.3383C46.5369 30.6125 48.4636 33.7262 50.8318 36.0141C53.2 38.3021 55.5109 40.9455 63.1144 41.8458" stroke="#1D1D35" stroke-width="1.0878" stroke-linecap="round" stroke-linejoin="round"/>
<path d="M92.6797 29.7588C94.2583 28.8253 95.6409 27.5946 96.751 26.1348" stroke="#1D1D35" stroke-width="1.0878" stroke-linecap="round" stroke-linejoin="round"/>
<path d="M69.6512 33.944C68.2764 33.4671 67.0207 32.6993 65.9698 31.6929C64.9188 30.6865 64.0974 29.4652 63.5615 28.1123" stroke="#1D1D35" stroke-width="1.0878" stroke-linecap="round" stroke-linejoin="round"/>
<path d="M71.6636 6.09333C69.0947 5.90984 66.8469 7.81358 65.2011 9.77467C63.5554 11.7358 62.0875 14.0409 59.7881 15.2049" stroke="#1D1D35" stroke-width="1.0878" stroke-linecap="round" stroke-linejoin="round"/>
<path d="M164.321 118.982L140.651 137.457C140.651 137.457 131.562 107.846 131.029 104.159C129.572 100.609 124.291 95.6494 124.291 95.6494C124.291 95.6494 104.881 94.6918 103.482 93.889C102.083 93.0862 101.928 88.4473 101.928 88.4473C101.423 88.4473 100.896 88.4473 100.362 88.4473C99.829 88.4473 99.4104 88.4931 98.923 88.5275C94.2716 88.9676 89.667 89.8099 85.161 91.0448C81.4739 92.0082 78.8936 92.8683 78.8936 92.8683L80.3271 99.0956L79.2892 100.655C75.8889 103.196 57.2585 109.371 52.4361 111.55C50.3247 113.22 48.2999 114.996 46.3693 116.872C46.3693 116.872 29.66 149.66 27.0681 153.662C25.491 156.171 24.6358 159.065 24.5967 162.028C26.5176 166.128 29.3388 166.398 32.2461 167.401C32.7344 167.565 33.213 167.756 33.6796 167.974C37.08 169.569 67.064 167.195 67.064 167.195C67.064 167.195 64.9079 177.872 74.7363 173.812C90.4651 167.309 128.064 171.811 128.064 171.811L127.164 147.727L135.685 157.475C135.685 157.475 139.67 159.821 144.464 156.827C151.752 152.12 172.882 126.115 172.882 126.115C170.841 121.293 164.321 118.982 164.321 118.982ZM69.3634 156.529L67.6431 154.809C64.6728 153.008 53.5944 150.921 53.5944 150.921L61.3929 139.653C61.3929 139.653 69.6214 152.383 69.9941 153.461C70.3668 154.539 69.3634 156.529 69.3634 156.529V156.529Z" fill="white"/>
<path d="M85.7699 182.224L87.536 220.282C87.536 220.282 81.7559 218.837 80.1504 216.428C78.5448 214.02 74.9609 177.946 74.9609 177.946C74.9609 177.946 78.4014 181.1 85.7699 182.224Z" fill="#00BF6D"/>
<path opacity="0.56" d="M85.7699 182.224L87.536 220.282C87.536 220.282 81.7559 218.837 80.1504 216.428C78.5448 214.02 74.9609 177.946 74.9609 177.946C74.9609 177.946 78.4014 181.1 85.7699 182.224Z" fill="white"/>
<path d="M70.2353 154.092L61.1982 140.021L68.7616 130.015C68.7616 130.015 69.335 135.674 72.6895 138.301C78.0624 142.492 76.8812 155.377 76.8812 155.377L70.2353 154.092Z" fill="#00BF6D"/>
<path opacity="0.6" d="M70.2353 154.092L61.1982 140.021L68.7616 130.015C68.7616 130.015 69.335 135.674 72.6895 138.301C78.0624 142.492 76.8812 155.377 76.8812 155.377L70.2353 154.092Z" fill="white"/>
<path d="M125.191 117.434C125.191 117.434 131.751 146.615 135.553 151.265C139.355 155.916 139.435 137.784 140.777 137.532C142.119 137.28 144.361 148.157 143.495 151.443C143.495 151.443 144.011 153.163 145.915 151.443C147.818 149.723 171.472 127.812 171.472 127.812C171.472 127.812 147.165 158.565 140.215 158.376C134.337 159.19 127.99 148.685 127.99 148.685L125.191 117.434Z" fill="#00BF6D"/>
<path opacity="0.6" d="M125.191 117.434C125.191 117.434 131.751 146.615 135.553 151.265C139.355 155.916 139.435 137.784 140.777 137.532C142.119 137.28 144.361 148.157 143.495 151.443C143.495 151.443 144.011 153.163 145.915 151.443C147.818 149.723 171.472 127.812 171.472 127.812C171.472 127.812 147.165 158.565 140.215 158.376C134.337 159.19 127.99 148.685 127.99 148.685L125.191 117.434Z" fill="white"/>
<path d="M54.7699 149.115L53.3134 151.064C53.3134 151.064 41.6558 149.602 32.2461 167.378C29.3388 166.374 26.5119 166.105 24.5967 162.005C24.6358 159.042 25.491 156.147 27.0681 153.639C29.66 149.625 46.5643 116.476 46.5643 116.476C48.297 114.578 50.2711 112.916 52.4361 111.533C64.4779 105.168 75.8889 103.184 79.2892 100.638L80.3271 99.0781L78.8936 92.8508C78.8936 92.8508 81.4739 91.9907 85.161 91.0273L87.0648 99.1527C87.3782 100.497 87.1965 101.909 86.553 103.129C85.9094 104.35 84.8471 105.298 83.5612 105.799L56.0371 116.413C54.2607 117.094 52.8068 118.421 51.9659 120.128L36.8965 150.565C37.2004 150.296 43.1926 144.2 54.7699 149.115Z" fill="#00BF6D"/>
<path opacity="0.6" d="M54.7699 149.115L53.3134 151.064C53.3134 151.064 41.6558 149.602 32.2461 167.378C29.3388 166.374 26.5119 166.105 24.5967 162.005C24.6358 159.042 25.491 156.147 27.0681 153.639C29.66 149.625 46.5643 116.476 46.5643 116.476C46.5643 116.476 50.1768 113.201 52.4361 111.533C63.8528 105.649 75.8889 103.184 79.2892 100.638L80.3271 99.0781L78.8936 92.8508C78.8936 92.8508 81.4739 91.9907 85.161 91.0273L87.0648 99.1527C87.3782 100.497 87.1965 101.909 86.553 103.129C85.9094 104.35 84.8471 105.298 83.5612 105.799L56.0371 116.413C54.2607 117.094 52.8068 118.421 51.9659 120.128L36.8965 150.565C37.2004 150.296 43.1926 144.2 54.7699 149.115Z" fill="white"/>
<path d="M166.707 117.52L173.967 107.262C173.967 107.262 179.093 103.821 180.951 102.927C182.809 102.032 183.078 100.272 183.961 100.891C184.844 101.51 184.047 105.14 182.189 106.287C180.331 107.434 178.21 108.58 178.474 109.383C178.737 110.186 189.535 109.205 189.535 109.205C189.535 109.205 203.297 109.022 203.498 110.089C203.698 111.155 194.931 112.743 194.931 112.743C194.931 112.743 204.352 112.64 204.375 113.179C204.398 113.718 199.002 115.576 199.002 115.576C199.002 115.576 202.815 115.777 202.632 116.603C202.448 117.428 198.56 118.495 198.56 118.495C198.56 118.495 190.596 123.363 188.812 124.16C187.029 124.957 174.924 123.449 174.924 123.449L172.854 126.127C172.854 126.127 169.351 121.15 165.635 119.028L166.707 117.52Z" fill="white"/>
<path d="M139.986 149.074C140.492 145.282 140.737 141.46 140.72 137.635" stroke="#1D1D35" stroke-width="1.0878" stroke-linecap="round" stroke-linejoin="round"/>
<path d="M100.397 88.505C100.971 88.505 101.584 88.4706 102.192 88.4648L102.766 92.1634C102.857 92.7571 103.157 93.2987 103.613 93.6908C104.068 94.0829 104.648 94.2997 105.249 94.3022L123.913 95.5695C125.284 95.5695 130.485 102.686 131.368 105.369L140.777 137.561L164.328 118.862C164.328 118.862 168.915 119.487 172.889 126.144C172.889 126.144 157.728 146.323 143.966 157.109C141.953 158.68 137.446 159.03 135.651 157.218C132.624 154.167 129.883 151.438 127.767 148.616" stroke="#1D1D35" stroke-width="1.0878" stroke-linecap="round" stroke-linejoin="round"/>
<path d="M65.1201 139.247L69.8393 136.202" stroke="#1D1D35" stroke-width="1.0878" stroke-linecap="round" stroke-linejoin="round"/>
<path d="M66.8691 140.273C68.1179 139.87 69.429 139.695 70.7397 139.757" stroke="#1D1D35" stroke-width="1.0878" stroke-linecap="round" stroke-linejoin="round"/>
<path d="M61.4041 139.935C64.2716 143.933 66.9282 148.079 69.3631 152.355C69.9012 153.313 70.0647 154.437 69.8219 155.509L58.3535 206.187" stroke="#1D1D35" stroke-width="1.0878" stroke-linecap="round" stroke-linejoin="round"/>
<path d="M123.925 109.515L127.876 147.681C128.139 156.248 128.776 161.673 129.154 172.407" stroke="#1D1D35" stroke-width="1.0878" stroke-linecap="round" stroke-linejoin="round"/>
<path d="M79.8509 100.364L85.1608 134.39L92.2711 132.016C97.1656 130.382 102.317 129.654 107.472 129.866L114.732 130.17L105.982 93.9814H109.302L127.989 148.685L129.136 172.947C129.136 172.947 94.3584 165.315 74.8737 175.607L76.399 190.516C76.399 190.516 77.3279 194.599 78.3084 206.486L62.8262 206.205H58.3535L69.6498 156.622C69.6498 156.622 79.3979 157.338 79.117 149.494C78.836 141.65 76.1409 102.233 76.1409 102.233L79.8509 100.364Z" fill="#1D1D35"/>
<path d="M94.0026 100.043C94.0026 100.363 93.9078 100.675 93.7301 100.941C93.5524 101.207 93.2999 101.414 93.0044 101.537C92.7089 101.659 92.3838 101.691 92.0701 101.629C91.7564 101.566 91.4683 101.412 91.2422 101.186C91.016 100.96 90.862 100.672 90.7996 100.358C90.7372 100.045 90.7692 99.7195 90.8916 99.424C91.014 99.1285 91.2213 98.876 91.4872 98.6983C91.7531 98.5206 92.0658 98.4258 92.3856 98.4258C92.8145 98.4258 93.2258 98.5961 93.529 98.8994C93.8323 99.2027 94.0026 99.614 94.0026 100.043V100.043Z" fill="#1D1D35"/>
<path d="M94.2333 109.515C95.1263 109.515 95.8503 108.791 95.8503 107.898C95.8503 107.005 95.1263 106.281 94.2333 106.281C93.3402 106.281 92.6162 107.005 92.6162 107.898C92.6162 108.791 93.3402 109.515 94.2333 109.515Z" fill="#1D1D35"/>
<path d="M104.343 151.1C110.188 150.102 116.067 149.326 121.981 148.771" stroke="white" stroke-width="0.306008" stroke-linecap="round" stroke-linejoin="round"/>
<path d="M94.2383 153.043C96.639 152.535 99.0493 152.063 101.469 151.627" stroke="white" stroke-width="0.306008" stroke-linecap="round" stroke-linejoin="round"/>
<path d="M121.981 150.87C117.226 152.782 112.434 154.595 107.605 156.312" stroke="white" stroke-width="0.306008" stroke-linecap="round" stroke-linejoin="round"/>
<path d="M120.868 110.272C121.362 113.378 122.077 116.444 123.007 119.447" stroke="#1D1D35" stroke-width="1.0878" stroke-linecap="round" stroke-linejoin="round"/>
<path d="M189.643 113.593C189.643 113.593 203.405 111.299 203.503 110.089C203.6 108.879 193.594 109.516 191.237 109.309C188.881 109.103 179.006 110.37 178.68 109.751C178.353 109.131 179.155 108.988 181.329 107.176C183.502 105.364 185.102 102.164 184.517 101.149C183.932 100.134 181.994 102.388 180.503 103.214C179.305 103.885 174.769 106.454 173.949 107.577C173.129 108.701 167.676 116.225 165.611 119.092" stroke="#1D1D35" stroke-width="1.0878" stroke-linecap="round" stroke-linejoin="round"/>
<path d="M189.959 113.477C189.959 113.477 204.455 112.147 204.398 113.202C204.306 114.962 194.586 116.35 190.607 116.642" stroke="#1D1D35" stroke-width="1.0878" stroke-linecap="round" stroke-linejoin="round"/>
<path d="M190.516 116.694C190.516 116.694 202.838 114.974 202.655 116.602C202.471 118.231 188.463 120.886 188.463 120.886" stroke="#1D1D35" stroke-width="1.0878" stroke-linecap="round" stroke-linejoin="round"/>
<path d="M172.379 126.781C173.761 124.797 174.673 123.432 174.673 123.432C174.673 123.432 186.542 124.734 188.245 124.407C189.948 124.08 197.959 118.948 197.959 118.948" stroke="#1D1D35" stroke-width="1.0878" stroke-linecap="round" stroke-linejoin="round"/>
<path d="M177.602 113.523C178.917 113.684 180.168 114.188 181.227 114.985C182.286 115.783 183.116 116.845 183.634 118.065" stroke="#1D1D35" stroke-width="1.0878" stroke-linecap="round" stroke-linejoin="round"/>
<path d="M142.624 138.794C143.96 140.841 144.109 143.416 144.218 145.858" stroke="#1D1D35" stroke-width="1.0878" stroke-linecap="round" stroke-linejoin="round"/>
<path d="M74.9609 176.284L79.21 212.552C79.21 212.552 79.0093 216.371 82.2147 218.287C85.4201 220.202 99.4688 223.321 107.313 222.834C115.157 222.346 125.089 221.853 128.713 219.072C132.337 216.291 131.488 208.779 131.488 208.779L134.103 186.072C134.103 186.072 136.483 177.402 133.616 174.799C128.375 170.074 84.2044 166.484 74.9609 176.284Z" fill="white"/>
<path d="M74.9609 177.947C76.6677 179.426 78.6605 180.538 80.8155 181.215C84.256 182.247 126.597 181.032 131.85 180.005C137.102 178.979 135.198 174.678 132.274 173.474C129.35 172.27 102.187 168.313 90.1908 171.043C79.5482 173.462 72.8966 173.646 74.9609 177.947Z" fill="#00BF6D"/>
<path opacity="0.6" d="M74.9606 177.947C76.6674 179.426 78.6602 180.539 80.8152 181.215C84.2557 182.248 126.597 181.032 131.849 180.006C137.102 178.979 135.198 174.678 132.274 173.474C129.349 172.27 105.392 168.789 90.9417 170.768C80.2647 173.176 72.8963 173.646 74.9606 177.947Z" fill="white"/>
<path d="M135.226 176.903C135.226 178.05 134.005 179.082 131.843 180.005C126.791 182.184 116.613 183.664 104.892 183.664C93.6993 183.664 83.9168 182.316 78.6643 180.303C76.0552 179.306 74.5586 178.147 74.5586 176.903C74.5586 173.164 88.1428 170.137 104.892 170.137C121.642 170.137 135.226 173.164 135.226 176.903Z" stroke="#1D1D35" stroke-width="1.0878" stroke-linecap="round" stroke-linejoin="round"/>
<path d="M131.843 179.993C126.791 182.172 116.613 183.652 104.892 183.652C93.6991 183.652 83.9166 182.304 78.6641 180.292C82.592 177.837 93.1256 176.071 105.506 176.071C117.393 176.083 127.571 177.7 131.843 179.993Z" fill="#1D1D35"/>
<path d="M74.5469 176.902L79.289 214.329C79.3943 215.185 79.7175 215.999 80.2275 216.694C80.7375 217.388 81.4174 217.941 82.202 218.297C88.1713 220.992 104.204 226.4 127.083 220.063C128.045 219.791 128.904 219.238 129.551 218.475C130.197 217.712 130.602 216.774 130.713 215.78L132.164 203.308L132.307 202.035L133.483 191.966L133.741 189.741L135.226 176.902" stroke="#1D1D35" stroke-width="1.0878" stroke-linecap="round" stroke-linejoin="round"/>
<path d="M99.6577 222.926C98.8838 221.937 98.3542 220.78 98.1121 219.549C97.8699 218.317 97.9221 217.046 98.2643 215.838C98.2643 215.838 94.7722 217.587 94.669 220.666C94.669 220.666 89.5082 219.233 90.1447 211.732C90.1447 211.732 87.2776 216.354 89.8408 221.389C92.404 226.423 99.6577 222.926 99.6577 222.926Z" fill="#1D1D35"/>
<path d="M113.035 222.948C115.555 220.375 117.204 217.076 117.749 213.516C118.468 216.05 118.426 218.74 117.628 221.251C118.735 220.757 119.708 220.006 120.466 219.059C121.223 218.112 121.742 216.998 121.98 215.809C121.98 215.809 122.709 220.397 120.53 222.948C118.351 225.5 113.035 222.948 113.035 222.948Z" fill="#1D1D35"/>
<path d="M143.982 193.182C142.617 197.953 137.732 203.148 132.164 203.298L132.307 202.025C137.084 201.778 141.539 197.133 142.761 192.85C143.059 191.806 143.558 189.249 141.757 188.091C141.318 187.784 140.82 187.575 140.294 187.476C139.768 187.377 139.227 187.391 138.707 187.517C135.989 188.182 133.965 191.629 133.947 191.663C133.9 191.748 133.833 191.82 133.752 191.874C133.672 191.927 133.579 191.961 133.483 191.973L133.741 189.748C134.681 188.521 136.333 186.795 138.403 186.307C139.091 186.143 139.806 186.124 140.502 186.251C141.198 186.378 141.86 186.65 142.445 187.047C144.217 188.159 144.773 190.413 143.982 193.182Z" fill="#1D1D35"/>
<path d="M100.316 178.944C103.424 180.704 107.255 180.801 110.73 179.981C111.955 179.743 113.123 179.272 114.17 178.594" stroke="white" stroke-width="0.306008" stroke-linecap="round" stroke-linejoin="round"/>
<path d="M118.706 179.174C117.743 180.148 116.565 180.883 115.266 181.318" stroke="white" stroke-width="0.306008" stroke-linecap="round" stroke-linejoin="round"/>
<path d="M78.6821 204.388C67.3227 205.735 66.193 192.61 69.2264 190.539C72.2598 188.469 78.2921 195.568 78.2921 195.568" stroke="white" stroke-width="0.612016" stroke-linecap="round" stroke-linejoin="round"/>
<path d="M108.695 178.589L86.1421 137.602C86.1421 137.602 83.6764 136.116 83.8484 139.081C84.0205 142.045 104.778 178.847 104.778 178.847L108.695 178.589Z" fill="white" stroke="#1D1D35" stroke-width="1.0878" stroke-linecap="round" stroke-linejoin="round"/>
<path d="M100.128 187.448C106.952 187.866 115.61 187.7 123.019 185.412" stroke="#1D1D35" stroke-width="1.0878" stroke-linecap="round" stroke-linejoin="round"/>
<path d="M88.1143 186.009C88.1143 186.009 90.4079 186.473 94.0262 186.909" stroke="#1D1D35" stroke-width="1.0878" stroke-linecap="round" stroke-linejoin="round"/>
<path d="M66.6927 133.415C62.0673 138.631 57.8697 144.211 54.1406 150.101" stroke="#1D1D35" stroke-width="1.0878" stroke-linecap="round" stroke-linejoin="round"/>
<path d="M51.5364 149.878C48.7401 149.23 45.8192 149.367 43.0957 150.273" stroke="#1D1D35" stroke-width="1.0878" stroke-linecap="round" stroke-linejoin="round"/>
<path d="M50.6182 115.587C50.6182 115.587 60.9397 121.499 64.7644 130.582" stroke="#1D1D35" stroke-width="1.0878" stroke-linecap="round" stroke-linejoin="round"/>
<path d="M59.1631 152.522C59.358 159.931 63.9741 167.505 63.9741 167.505L80.9415 164.914L79.7946 161.628C80.3681 161.909 81.5493 161.811 82.3463 162.001C87.3408 163.147 95.5349 162.935 95.5349 162.935C96.758 161.912 97.779 160.669 98.5454 159.271C99.9273 156.828 98.6257 156.163 98.6257 156.163C100.627 153.359 99.0901 151.335 99.0901 151.335C102.049 149.643 100.81 148.72 100.81 148.72C98.9066 145.744 87.6734 147.029 87.6734 147.029L77.8278 155.337L71.1418 154.191L59.1631 152.522Z" fill="white"/>
<path d="M76.916 155.446L78.4012 154.958L87.6905 147.028C87.6905 147.028 99.824 146.386 100.69 148.565C101.556 150.744 99.0327 151.753 96.8537 152.624" stroke="#1D1D35" stroke-width="1.0878" stroke-linecap="round" stroke-linejoin="round"/>
<path d="M98.7347 151.851C98.7347 151.851 101.734 153.158 97.5879 156.811" stroke="#1D1D35" stroke-width="1.0878" stroke-linecap="round" stroke-linejoin="round"/>
<path d="M98.3384 156.254C99.6572 155.508 100.523 158.869 95.9014 160.486" stroke="#1D1D35" stroke-width="1.0878" stroke-linecap="round" stroke-linejoin="round"/>
<path d="M98.6769 159.488L95.288 163.135C95.288 163.135 87.6501 163.8 80.7863 161.587L80.0352 161.805" stroke="#1D1D35" stroke-width="1.0878" stroke-linecap="round" stroke-linejoin="round"/>
<path d="M40.7505 156.57C42.3684 154.851 44.3177 153.477 46.481 152.532C48.6442 151.587 50.9765 151.09 53.3371 151.071C54.3113 151.084 55.2778 151.245 56.2041 151.547C59.5242 152.585 73.1658 154.133 77.3288 155.595L80.9471 164.718C66.6633 168.331 47.6201 168.623 36.1747 168.09C33.3057 167.867 30.5119 167.064 27.9633 165.727C27.2206 165.346 26.5609 164.821 26.0226 164.183C25.4842 163.545 25.0779 162.806 24.8272 162.01C24.5765 161.214 24.4864 160.375 24.5621 159.544C24.6378 158.712 24.8779 157.904 25.2683 157.166L45.8138 117.601C46.3872 116.528 50.4012 112.744 51.5079 112.296L61.9785 107.245C63.0992 106.707 64.2477 106.228 65.419 105.811L76.9963 101.929C77.8736 101.574 80.4368 99.5437 80.1844 98.6205L78.7681 92.8347C85.6934 90.2243 93.0005 88.7695 100.397 88.5283" stroke="#1D1D35" stroke-width="1.0878" stroke-linecap="round" stroke-linejoin="round"/>
</svg>
