<svg width="243" height="205" viewBox="0 0 243 205" fill="none" xmlns="http://www.w3.org/2000/svg">
<path d="M240.218 124.362C245.244 88.3439 220.879 41.8255 195.619 23.2893C150.015 -10.1805 112.126 -1.66291 82.6568 12.3352C53.1875 26.3333 48.9845 68.9281 28.6402 89.0141C8.29577 109.1 -16.2585 140.133 14.6071 164.478C45.4728 188.823 83.3689 169.952 115.645 166.908C147.921 163.864 190.704 174.825 213.862 162.67C230.031 154.152 237.99 140.28 240.218 124.362Z" fill="#00BF6D"/>
<path opacity="0.7" d="M240.218 124.362C245.244 88.3439 220.879 41.8255 195.619 23.2893C150.015 -10.1805 112.126 -1.66291 82.6568 12.3352C53.1875 26.3333 48.9845 68.9281 28.6402 89.0141C8.29577 109.1 -16.2585 140.133 14.6071 164.478C45.4728 188.823 83.3689 169.952 115.645 166.908C147.921 163.864 190.704 174.825 213.862 162.67C230.031 154.152 237.99 140.28 240.218 124.362Z" fill="#00BF6D"/>
<path d="M128.309 203.861C191.155 203.861 242.102 191.774 242.102 176.863C242.102 161.953 191.155 149.865 128.309 149.865C65.4626 149.865 14.5156 161.953 14.5156 176.863C14.5156 191.774 65.4626 203.861 128.309 203.861Z" fill="#00BF6D"/>
<path opacity="0.5" d="M128.309 203.861C191.155 203.861 242.102 191.774 242.102 176.863C242.102 161.953 191.155 149.865 128.309 149.865C65.4626 149.865 14.5156 161.953 14.5156 176.863C14.5156 191.774 65.4626 203.861 128.309 203.861Z" fill="#99E5C5"/>
<path d="M168.454 50.0147C170.025 49.9519 173.174 48.3392 173.174 48.3392C173.174 48.3392 171.484 46.5868 171.359 46.489C169.962 45.372 166.576 44.0315 164.901 45.1416C164.628 45.3351 164.398 45.5839 164.228 45.8718C164.057 46.1597 163.949 46.4802 163.91 46.8127C163.871 47.1452 163.902 47.4821 164.002 47.8016C164.102 48.1211 164.268 48.416 164.489 48.6673C165.39 49.7634 167.114 50.0706 168.454 50.0147Z" fill="#00BF6D"/>
<g opacity="0.5">
<path d="M168.454 50.0147C170.025 49.9519 173.174 48.3392 173.174 48.3392C173.174 48.3392 171.484 46.5868 171.359 46.489C169.962 45.372 166.576 44.0315 164.901 45.1416C164.628 45.3351 164.398 45.5839 164.228 45.8718C164.057 46.1597 163.949 46.4802 163.91 46.8127C163.871 47.1452 163.902 47.4821 164.002 47.8016C164.102 48.1211 164.268 48.416 164.489 48.6673C165.39 49.7634 167.114 50.0706 168.454 50.0147Z" fill="white"/>
</g>
<path d="M183.772 90.6211C192.15 115.434 192.15 132.999 192.15 132.999C192.15 132.999 182.222 133.376 171.903 125.746" stroke="#263238" stroke-width="0.734905" stroke-linecap="round" stroke-linejoin="round"/>
<path d="M187.969 103.983C189.697 96.564 191.994 89.2886 194.839 82.2217" stroke="#263238" stroke-width="0.734905" stroke-linecap="round" stroke-linejoin="round"/>
<path d="M185.069 140.587C185.069 140.587 169.709 141.411 161.269 141.202C152.828 140.992 148.346 139.973 139.318 138.744C130.291 137.515 118.807 135.868 118.004 146.124C117.201 156.38 123.75 157.413 147.752 163.578C171.755 169.742 193.503 171.579 211.983 162.551C230.463 153.524 231.266 136.719 225.52 135.065C219.774 133.41 212.597 136.908 199.472 138.346C186.347 139.784 185.069 140.587 185.069 140.587Z" fill="#1D1D35" stroke="#263238" stroke-width="0.734905" stroke-linecap="round" stroke-linejoin="round"/>
<path d="M160.858 142.641C160.858 142.641 170.297 143.667 175.017 143.255C179.736 142.843 183.632 141.817 185.07 140.588C186.509 139.359 184.861 89.9155 184.861 87.2485C184.861 84.5816 180.351 80.0714 177.684 78.0189C175.017 75.9663 164.963 74.7375 160.041 78.8357C155.119 82.9339 154.093 95.4589 154.093 110.023C154.093 124.586 151.838 138.535 153.067 140.176C154.295 141.817 160.858 142.641 160.858 142.641Z" fill="white"/>
<path opacity="0.4" d="M160.858 142.641C160.858 142.641 170.297 143.667 175.017 143.255C179.736 142.843 183.632 141.817 185.07 140.588C186.509 139.359 184.861 89.9155 184.861 87.2485C184.861 84.5816 180.351 80.0714 177.684 78.0189C175.017 75.9663 164.963 74.7375 160.041 78.8357C155.119 82.9339 154.093 95.4589 154.093 110.023C154.093 124.586 151.838 138.535 153.067 140.176C154.295 141.817 160.858 142.641 160.858 142.641Z" fill="black"/>
<path d="M160.858 142.641C160.858 142.641 170.297 143.667 175.017 143.255C179.736 142.843 183.632 141.817 185.07 140.588C186.509 139.359 184.861 89.9155 184.861 87.2485C184.861 84.5816 180.351 80.0714 177.684 78.0189C175.017 75.9663 164.963 74.7375 160.041 78.8357C155.119 82.9339 154.093 95.4589 154.093 110.023C154.093 124.586 151.838 138.535 153.067 140.176C154.295 141.817 160.858 142.641 160.858 142.641Z" stroke="#263238" stroke-width="0.734905" stroke-linecap="round" stroke-linejoin="round"/>
<path d="M179.08 83.7368C177.974 81.6742 176.621 79.7541 175.051 78.0189C173.145 75.9663 165.975 74.7375 162.484 78.8357C161.193 80.3437 160.278 82.9828 159.636 86.4387C160.858 89.0777 163.245 91.8634 167.902 91.9681C172.133 92.0658 176.098 88.0095 179.08 83.7368Z" fill="white" stroke="#263238" stroke-width="0.734905" stroke-linecap="round" stroke-linejoin="round"/>
<path d="M168.859 145.915C168.047 146.823 167.457 147.907 167.137 149.083C166.818 150.258 166.776 151.492 167.016 152.687C167.84 156.785 174.193 149.608 178.885 147.967C183.576 146.327 178.885 144.476 176.427 144.888C173.97 145.3 168.859 145.915 168.859 145.915Z" fill="#00BF6D" stroke="#263238" stroke-width="0.734905" stroke-linecap="round" stroke-linejoin="round"/>
<path d="M174.193 151.054C174.193 151.054 170.702 152.283 169.683 149.616C168.663 146.949 168.859 145.922 168.859 145.922C168.859 145.922 176.455 144.694 178.095 144.282C179.736 143.87 175.631 150.642 174.193 151.054Z" fill="white" stroke="#263238" stroke-width="0.734905" stroke-linecap="round" stroke-linejoin="round"/>
<path d="M173.787 75.1494C172.886 82.9794 172.678 90.8737 173.166 98.7402C173.99 111.663 176.454 141.202 175.428 145.517C174.402 149.832 174.192 151.06 174.192 151.06C174.192 151.06 173.99 151.263 178.912 147.981C183.834 144.7 192.247 141.621 194.097 141.209C195.947 140.797 197.378 136.902 196.554 132.594C195.731 128.286 194.97 119.329 194.97 119.329L213.171 114.358C213.171 114.358 201.072 92.017 199.207 86.2502C197.343 80.4834 192.645 80.0994 189.154 80.0994C185.663 80.0994 175.254 77.195 173.787 75.1494Z" fill="#00BF6D" stroke="#263238" stroke-width="0.734905" stroke-linecap="round" stroke-linejoin="round"/>
<path d="M194.838 118.917C194.838 118.917 193.071 92.9947 193.071 88.8965Z" fill="white"/>
<path d="M194.838 118.917C194.838 118.917 193.071 92.9947 193.071 88.8965" stroke="#263238" stroke-width="0.734905" stroke-linecap="round" stroke-linejoin="round"/>
<path d="M196.352 116.787C196.352 116.787 196.554 111.663 204.15 108.41C211.746 105.156 217.073 110.462 217.687 113.946C218.302 117.43 217.073 123.999 210.706 122.973C204.339 121.947 197.378 120.69 196.352 116.787Z" fill="white" stroke="#263238" stroke-width="0.734905" stroke-linecap="round" stroke-linejoin="round"/>
<path d="M162.093 76.9922C162.093 76.9922 152.857 82.5286 146.503 84.3787C140.15 86.2288 134.397 86.8363 133.573 88.8888C132.749 90.9414 127.625 126.436 127.625 126.436L142.398 124.586C142.398 124.586 143.012 137.306 141.784 139.149C140.555 140.993 143.012 142.026 145.274 142.64C147.537 143.255 162.1 144.483 162.1 144.483C162.329 144.454 162.547 144.373 162.74 144.247C162.933 144.121 163.095 143.953 163.213 143.755C163.331 143.558 163.403 143.336 163.423 143.106C163.443 142.877 163.411 142.646 163.329 142.431C162.917 140.588 159.224 138.123 159.224 137.104C159.224 136.084 160.459 121.102 161.891 109.61C163.322 98.1185 163.734 80.2875 162.093 76.9922Z" fill="#00BF6D" stroke="#263238" stroke-width="0.734905" stroke-linecap="round" stroke-linejoin="round"/>
<path d="M142.398 116.787L142.81 97.3018" stroke="#263238" stroke-width="0.734905" stroke-linecap="round" stroke-linejoin="round"/>
<path d="M126.382 127.456C125.29 124.932 125.074 122.116 125.768 119.455C126.996 115.357 131.102 114.128 136.024 114.128C140.946 114.128 143.201 117.2 143.201 120.691C143.201 124.181 139.305 127.253 134.823 128.482C130.341 129.711 128.239 128.894 126.382 127.456Z" fill="white" stroke="#263238" stroke-width="0.734905" stroke-linecap="round" stroke-linejoin="round"/>
<path d="M168.322 98.5661C167.648 98.5452 166.983 98.726 166.413 99.0851C165.843 99.4443 165.392 99.9655 165.12 100.582C164.847 101.199 164.765 101.883 164.884 102.546C165.002 103.21 165.316 103.823 165.786 104.307C166.255 104.791 166.858 105.124 167.517 105.263C168.177 105.403 168.863 105.342 169.488 105.089C170.112 104.836 170.648 104.403 171.024 103.844C171.401 103.285 171.603 102.626 171.603 101.952C171.611 101.514 171.532 101.079 171.371 100.672C171.21 100.264 170.97 99.8929 170.665 99.5784C170.36 99.2639 169.996 99.0126 169.594 98.8388C169.192 98.6651 168.76 98.5724 168.322 98.5661V98.5661ZM168.322 104.102C167.892 104.115 167.469 103.999 167.106 103.769C166.743 103.54 166.457 103.207 166.284 102.814C166.111 102.42 166.06 101.984 166.136 101.562C166.213 101.139 166.414 100.749 166.714 100.441C167.013 100.133 167.398 99.9218 167.819 99.8342C168.239 99.7465 168.677 99.7864 169.074 99.9487C169.472 100.111 169.812 100.389 170.051 100.745C170.29 101.102 170.418 101.523 170.416 101.952C170.424 102.232 170.375 102.51 170.273 102.771C170.171 103.031 170.018 103.269 169.823 103.469C169.628 103.67 169.394 103.829 169.137 103.938C168.879 104.047 168.602 104.103 168.322 104.102V104.102Z" fill="white" stroke="#263238" stroke-width="0.734905" stroke-linecap="round" stroke-linejoin="round"/>
<path d="M168.97 97.7422H178.814V105.541C178.814 106.194 178.554 106.821 178.092 107.283C177.63 107.745 177.003 108.005 176.349 108.005H171.427C170.774 108.005 170.147 107.745 169.685 107.283C169.223 106.821 168.963 106.194 168.963 105.541V97.7422H168.97Z" fill="white" stroke="#263238" stroke-width="0.734905" stroke-linecap="round" stroke-linejoin="round"/>
<path d="M207.432 142.229C207.432 142.229 192.247 153.923 176.65 158.643C165.178 162.137 153.335 164.272 141.365 165.003C133.162 165.618 129.671 163.977 128.442 168.082C127.213 172.187 128.03 176.46 133.978 177.724C139.927 178.987 145.638 174.826 155.705 171.747C165.773 168.669 166.527 170.351 182.619 168.082C195.088 166.316 213.394 166.232 224.879 158.643C236.364 151.054 237.599 137.307 230.422 134.64C223.245 131.973 214.42 137.922 212.368 138.536" fill="#1D1D35"/>
<path d="M207.432 142.229C207.432 142.229 192.247 153.923 176.65 158.643C165.178 162.137 153.335 164.272 141.365 165.003C133.162 165.618 129.671 163.977 128.442 168.082C127.213 172.187 128.03 176.46 133.978 177.724C139.927 178.987 145.638 174.826 155.705 171.747C165.773 168.669 166.527 170.351 182.619 168.082C195.088 166.316 213.394 166.232 224.879 158.643C236.364 151.054 237.599 137.307 230.422 134.64C223.245 131.973 214.42 137.922 212.368 138.536" stroke="#263238" stroke-width="0.734905" stroke-linecap="round" stroke-linejoin="round"/>
<path d="M168.97 161.274C168.97 161.274 184.329 156.387 192.358 152.198C200.387 148.009 209.114 142.075 210.859 141.027" stroke="white" stroke-width="0.367453" stroke-linecap="round" stroke-linejoin="round"/>
<path d="M141.373 165.002C133.169 165.616 129.679 163.976 128.45 168.081C127.221 172.186 128.038 176.459 133.986 177.722C139.935 178.986 145.639 174.825 155.706 171.746C157.668 171.146 159.281 170.727 160.719 170.42C158.869 168.144 158.17 164.8 157.926 163.082C151.329 164.199 145.855 164.667 141.373 165.002Z" fill="white"/>
<path opacity="0.4" d="M141.372 165.003C133.168 165.617 129.678 163.977 128.449 168.082C127.22 172.187 128.037 176.46 133.985 177.723C139.934 178.987 145.638 174.826 155.705 171.747C157.667 171.147 159.28 170.728 160.718 170.421C158.868 168.145 158.17 164.8 157.925 163.083C151.328 164.2 145.854 164.668 141.372 165.003Z" fill="black"/>
<path d="M141.373 165.002C133.169 165.616 129.679 163.976 128.45 168.081C127.221 172.186 128.038 176.459 133.986 177.722C139.935 178.986 145.639 174.825 155.706 171.746C157.668 171.146 159.281 170.727 160.719 170.42C158.869 168.144 158.17 164.8 157.926 163.082C151.329 164.199 145.855 164.667 141.373 165.002Z" stroke="#263238" stroke-width="0.734905" stroke-linecap="round" stroke-linejoin="round"/>
<path d="M137.889 177.332C133.351 176.634 130.084 174.609 130.209 171.048C130.307 168.172 132.136 166.336 133.449 165.177C130.656 165.247 129.169 165.672 128.45 168.081C127.214 172.179 128.038 176.459 133.986 177.723C135.762 178.055 137.588 178 139.341 177.562L137.889 177.332Z" fill="white" stroke="#263238" stroke-width="0.734905" stroke-linecap="round" stroke-linejoin="round"/>
<path d="M140.143 148.177C140.143 148.177 168.858 162.14 178.709 166.643C188.56 171.146 193.685 171.363 193.685 171.363L192.861 177.926C192.861 177.926 187.527 179.154 171.12 174.847C154.714 170.539 134.195 166.231 123.317 159.878C112.44 153.525 115.728 140.797 121.062 138.542C126.396 136.287 132.142 138.13 132.142 138.13" fill="#1D1D35"/>
<path d="M140.143 148.177C140.143 148.177 168.858 162.14 178.709 166.643C188.56 171.146 193.685 171.363 193.685 171.363L192.861 177.926C192.861 177.926 187.527 179.154 171.12 174.847C154.714 170.539 134.195 166.231 123.317 159.878C112.44 153.525 115.728 140.797 121.062 138.542C126.396 136.287 132.142 138.13 132.142 138.13" stroke="#263238" stroke-width="0.734905" stroke-linecap="round" stroke-linejoin="round"/>
<path d="M135.458 144.519C149.784 152.101 164.213 159.475 178.744 166.643" stroke="white" stroke-width="0.367453" stroke-linecap="round" stroke-linejoin="round"/>
<path d="M193.685 171.363C193.685 171.363 204.765 170.127 209.889 168.898C215.014 167.669 218.505 167.055 220.362 171.153C222.219 175.251 219.538 178.952 213.178 180.18C205.554 181.66 192.868 177.925 192.868 177.925L193.685 171.363Z" fill="white"/>
<path opacity="0.4" d="M193.685 171.363C193.685 171.363 204.765 170.127 209.889 168.898C215.014 167.669 218.505 167.055 220.362 171.153C222.219 175.251 219.538 178.952 213.178 180.18C205.554 181.66 192.868 177.925 192.868 177.925L193.685 171.363Z" fill="black"/>
<path d="M193.685 171.363C193.685 171.363 204.765 170.127 209.889 168.898C215.014 167.669 218.505 167.055 220.362 171.153C222.219 175.251 219.538 178.952 213.178 180.18C205.554 181.66 192.868 177.925 192.868 177.925L193.685 171.363Z" stroke="#263238" stroke-width="0.734905" stroke-linecap="round" stroke-linejoin="round"/>
<path d="M164.704 99.1387C164.704 99.1387 167.923 99.9416 168.544 100.968C168.692 101.201 168.779 101.467 168.796 101.742C168.814 102.018 168.762 102.293 168.645 102.543C168.528 102.793 168.35 103.009 168.127 103.172C167.905 103.335 167.645 103.439 167.371 103.474C165.818 103.583 164.26 103.583 162.707 103.474C162.707 103.474 166.603 103.677 166.603 105.317C166.603 106.958 165.989 110.449 165.374 111.266C164.76 112.083 164.146 113.318 162.296 113.318H159.838C159.838 113.318 158.602 113.73 156.55 114.547C155.232 115.06 153.855 115.405 152.451 115.573C152.451 115.573 146.503 123.372 142.6 127.268C138.698 131.163 135.214 134.249 132.756 134.249C130.299 134.249 124.958 129.125 126.599 124.81C128.239 120.495 143.424 115.58 146.706 113.528C149.987 111.475 153.541 108.766 155.118 106.965C157.709 103.998 157.869 99.9834 159.629 99.5785C161.309 99.3204 163.004 99.1735 164.704 99.1387V99.1387Z" fill="white" stroke="#263238" stroke-width="0.734905" stroke-linecap="round" stroke-linejoin="round"/>
<path d="M160.376 106.12C162.383 106.05 164.38 106.449 166.206 107.286" stroke="#263238" stroke-width="0.734905" stroke-linecap="round" stroke-linejoin="round"/>
<path d="M160.376 108.976C160.376 108.976 164.209 108.48 165.542 109.814" stroke="#263238" stroke-width="0.734905" stroke-linecap="round" stroke-linejoin="round"/>
<path d="M159.838 113.304L161.374 111.978C161.977 112.135 162.59 112.247 163.21 112.313" stroke="#263238" stroke-width="0.734905" stroke-linecap="round" stroke-linejoin="round"/>
<path d="M165.709 102.629C164.754 103.047 163.742 103.322 162.707 103.446" stroke="#263238" stroke-width="0.734905" stroke-linecap="round" stroke-linejoin="round"/>
<path d="M211.23 125.019C216.055 124.223 218.212 118.261 214.868 114.68C214.49 114.22 214.013 113.852 213.471 113.604C211.195 112.718 208.27 111.51 204.172 113.507C199.801 115.601 196.073 118.031 194.23 118.031C192.387 118.031 188.645 113.011 185.999 111.573C183.353 110.135 184.477 113.919 183.45 115.559C182.424 117.2 178.117 118.638 176.881 119.05C175.645 119.462 176.064 120.691 177.502 121.508C178.94 122.324 178.731 122.331 180.784 123.972C182.339 125.27 184.294 125.995 186.32 126.025C187.758 126.025 191.856 124.586 191.856 124.586C191.856 124.586 202.936 125.41 209.31 125.201C209.954 125.183 210.595 125.122 211.23 125.019V125.019Z" fill="white" stroke="#263238" stroke-width="0.734905" stroke-linecap="round" stroke-linejoin="round"/>
<path d="M188.149 116.174C188.149 118.212 183.262 119.867 177.167 119.867C171.072 119.867 166.178 118.212 166.178 116.174C166.178 114.135 171.065 112.48 177.153 112.48C183.241 112.48 188.149 114.135 188.149 116.174Z" fill="white" stroke="#263238" stroke-width="0.734905" stroke-linecap="round" stroke-linejoin="round"/>
<path d="M177.166 118.268C180.601 118.268 183.387 117.33 183.387 116.174C183.387 115.017 180.601 114.079 177.166 114.079C173.73 114.079 170.945 115.017 170.945 116.174C170.945 117.33 173.73 118.268 177.166 118.268Z" fill="white" stroke="#263238" stroke-width="0.183726" stroke-linecap="round" stroke-linejoin="round"/>
<path d="M186.04 111.517C185.503 110.986 184.644 110.77 183.548 111.412C183.548 111.412 180.266 115.51 181.495 116.125C182.724 116.739 185.6 114.896 186.424 113.87" fill="white"/>
<path d="M186.04 111.517C185.503 110.986 184.644 110.77 183.548 111.412C183.548 111.412 180.266 115.51 181.495 116.125C182.724 116.739 185.6 114.896 186.424 113.87" stroke="#263238" stroke-width="0.734905" stroke-linecap="round" stroke-linejoin="round"/>
<path d="M177.48 121.48C178.626 121.464 179.772 121.53 180.908 121.675C182.304 121.83 183.714 121.788 185.097 121.55" stroke="#263238" stroke-width="0.734905" stroke-linecap="round" stroke-linejoin="round"/>
<path d="M179.896 123.225C181.924 123.738 184.01 123.993 186.102 123.986" stroke="#263238" stroke-width="0.734905" stroke-linecap="round" stroke-linejoin="round"/>
<path d="M161.682 74.9395C161.682 74.9395 158.191 77.0968 158.038 79.0237C157.884 80.9506 154.715 87.7647 153.667 88.9864C152.62 90.2082 154.016 90.0337 155.413 89.3355C156.809 88.6374 159.783 85.3141 160.831 85.3141C161.878 85.3141 163.281 87.5901 163.281 87.5901C163.281 87.5901 163.232 77.6762 161.682 74.9395Z" fill="white" stroke="#263238" stroke-width="0.734905" stroke-linecap="round" stroke-linejoin="round"/>
<path d="M162.909 84.7911C163.119 80.4765 161.681 74.9401 161.681 74.9401C161.681 74.9401 156.961 76.1689 154.909 75.7639C152.856 75.359 148.346 68.1679 147.731 62.4291C147.117 56.6902 148.758 46.4272 148.758 46.4272C148.758 46.4272 148.346 43.5508 158.602 40.6814C168.858 37.8119 172.565 39.6551 173.961 43.3483C175.358 47.0416 173.137 58.7079 172.321 64.0697C171.504 69.4316 174.604 78.1935 175.253 80.8884" fill="white"/>
<path d="M162.909 84.7911C163.119 80.4765 161.681 74.9401 161.681 74.9401C161.681 74.9401 156.961 76.1689 154.909 75.7639C152.856 75.359 148.346 68.1679 147.731 62.4291C147.117 56.6902 148.758 46.4272 148.758 46.4272C148.758 46.4272 148.346 43.5508 158.602 40.6814C168.858 37.8119 172.565 39.6551 173.961 43.3483C175.358 47.0416 173.137 58.7079 172.321 64.0697C171.504 69.4316 174.604 78.1935 175.253 80.8884" stroke="#263238" stroke-width="0.734905" stroke-linecap="round" stroke-linejoin="round"/>
<path d="M153.065 55.6572C153.065 55.6572 152.653 58.1217 151.215 58.9386C149.777 59.7554 149.574 60.3768 150.81 60.9912C151.578 61.365 152.415 61.5743 153.268 61.6056" stroke="#263238" stroke-width="0.734905" stroke-linecap="round" stroke-linejoin="round"/>
<path d="M150.385 64.8866C151.532 65.3528 152.763 65.5763 154.001 65.5429C156.256 65.5429 159.216 63.8604 159.216 63.8604C159.216 63.8604 157.771 68.6218 155.314 69.6481C152.856 70.6744 150.385 64.8866 150.385 64.8866Z" fill="#1D1D35" stroke="#263238" stroke-width="0.734905" stroke-linecap="round" stroke-linejoin="round"/>
<path d="M157.988 53.6045L156.787 56.1877C156.787 56.1877 157.988 56.069 160.857 55.8595" stroke="#263238" stroke-width="0.734905" stroke-linecap="round" stroke-linejoin="round"/>
<path d="M149.987 54.0166L149.24 56.0203C149.956 56.1888 150.69 56.2731 151.425 56.2717" stroke="#263238" stroke-width="0.734905" stroke-linecap="round" stroke-linejoin="round"/>
<path d="M157.374 49.0942C157.374 49.0942 160.243 48.0679 161.682 51.5517" stroke="#263238" stroke-width="0.734905" stroke-linecap="round" stroke-linejoin="round"/>
<path d="M152.04 49.4991C152.04 49.4991 150.19 49.0942 149.785 51.9636" stroke="#263238" stroke-width="0.734905" stroke-linecap="round" stroke-linejoin="round"/>
<path d="M157.555 67.4834C156.026 67.657 154.582 68.2761 153.401 69.2637C153.656 69.4941 153.968 69.6514 154.305 69.719C154.642 69.7866 154.99 69.762 155.314 69.6477C156.258 69.1619 157.037 68.4092 157.555 67.4834Z" fill="white" stroke="#263238" stroke-width="0.734905" stroke-linecap="round" stroke-linejoin="round"/>
<path d="M168.97 32.7432C164.697 31.7518 158.616 31.2631 158.616 32.415C158.619 32.6488 158.681 32.878 158.796 33.0817C158.91 33.2854 159.074 33.4571 159.272 33.581C158.183 33.1691 155.628 32.5128 150.559 32.7432C143.327 33.0713 142.838 34.712 143.983 35.0401C145.47 35.3427 146.974 35.5594 148.486 35.6894C148.137 35.8221 147.788 35.9617 147.446 36.1153C145.414 36.9042 141.309 38.7473 140.701 40.9605C140.637 41.1888 140.637 41.4304 140.701 41.6587C140.302 42.3414 140.108 43.1253 140.144 43.9158C140.18 44.7062 140.444 45.4693 140.904 46.1129C143.759 50.26 147.131 46.6296 147.131 46.6296C147.131 46.6296 145.575 48.9684 150.762 47.1462C154.708 45.6338 158.527 43.8105 162.184 41.6936H162.351C163.678 42.1963 164.858 42.9922 165.2 44.179C166.017 47.0485 164.376 49.506 165.2 51.1606C166.024 52.8153 167.867 52.5919 167.867 53.4157C167.867 54.2395 166.631 54.442 167.455 55.2588C168.279 56.0757 170.534 56.4946 171.965 56.0827C172.569 55.9238 173.159 55.7184 173.731 55.4683C173.815 54.8818 173.899 54.2884 173.969 53.695C174.604 52.3894 176.503 48.2703 177.048 44.6189C177.676 40.1367 173.236 33.7276 168.97 32.7432Z" fill="#1D1D35" stroke="#263238" stroke-width="0.734905" stroke-linecap="round" stroke-linejoin="round"/>
<path d="M153.757 41.1147C153.757 41.1147 154.294 43.6002 158.197 42.0014C162.1 40.4026 168.851 38.0987 173.466 40.0535" stroke="white" stroke-width="0.183726" stroke-linecap="round" stroke-linejoin="round"/>
<path d="M165.172 44.1722C165.172 44.1722 170.625 42.1825 173.284 45.1985" stroke="white" stroke-width="0.183726" stroke-linecap="round" stroke-linejoin="round"/>
<path d="M169.271 57.71C169.271 57.71 170.911 53.4023 173.376 53.4023C175.84 53.4023 174.814 59.1482 174.402 60.5794C173.99 62.0107 171.938 65.4666 170.506 62.632C170.506 62.632 170.353 68.4756 166.317 71.2892" fill="white"/>
<path d="M169.271 57.71C169.271 57.71 170.911 53.4023 173.376 53.4023C175.84 53.4023 174.814 59.1482 174.402 60.5794C173.99 62.0107 171.938 65.4666 170.506 62.632C170.506 62.632 170.353 68.4756 166.317 71.2892" stroke="#263238" stroke-width="0.734905" stroke-linecap="round" stroke-linejoin="round"/>
<path d="M172.893 72.9017C172.893 72.9017 173.068 81.9778 172.719 83.7441C172.545 85.1405 172.604 86.556 172.893 87.9331L175.344 83.046C175.344 83.046 181.111 88.6312 181.809 87.591C182.507 86.5507 177.962 82.8714 177.62 79.3736C177.278 75.8759 173.417 69.2294 172.893 72.9017Z" fill="white" stroke="#263238" stroke-width="0.734905" stroke-linecap="round" stroke-linejoin="round"/>
<path d="M220.354 171.154C218.804 167.712 216.088 167.594 212.228 168.362V168.592C212.228 168.592 218.162 169.29 218.511 172.781C218.86 176.272 217.694 178.248 211.18 179.763C209.505 180.154 208.053 180.196 206.887 180.461C208.985 180.625 211.095 180.531 213.17 180.182C219.53 178.953 222.197 175.239 220.354 171.154Z" fill="white" stroke="#263238" stroke-width="0.734905" stroke-linecap="round" stroke-linejoin="round"/>
<path d="M141.301 77.2153C139.744 78.6345 137.932 79.7456 135.96 80.4896C132.658 81.7393 128.246 83.8687 125.488 84.0502C122.73 84.2318 123.442 80.1824 126.242 77.6202C127.478 76.4758 128.929 75.5889 130.512 75.0112C132.094 74.4335 133.775 74.1764 135.458 74.2551C138.327 74.4854 143.508 74.4715 141.301 77.2153Z" fill="#00BF6D" stroke="#263238" stroke-width="0.734905" stroke-linecap="round" stroke-linejoin="round"/>
<path d="M126.383 78.5704C126.383 78.5704 128.861 78.3051 131.794 80.7626C131.801 80.7626 128.547 76.3921 126.383 78.5704Z" fill="white"/>
<path d="M129.049 76.8665C129.049 76.8665 131.527 76.6012 134.46 79.0518C134.46 79.0518 131.206 74.7022 129.049 76.8665Z" fill="white"/>
<path d="M131.367 75.6441C131.367 75.6441 133.846 75.3718 136.778 77.8293C136.778 77.8293 133.531 73.4589 131.367 75.6441Z" fill="white"/>
<path d="M90.3287 41.3372C90.3287 41.3372 85.2042 37.6439 73.7125 39.487C66.0328 40.7298 59.6865 49.1077 61.6623 56.9759C62.7444 61.2557 67.4151 65.8286 65.0972 70.4644C63.2541 74.1577 54.4294 73.9552 52.1743 85.8239C49.9192 97.6926 58.1226 106.343 69.4049 106.957C80.6872 107.572 87.0474 98.7469 89.1 91.9817C91.1526 85.2165 94.4339 74.7441 94.6434 65.1025C94.8528 55.4609 93.6171 45.6448 90.3287 41.3372Z" fill="#1D1D35" stroke="#263238" stroke-width="0.734905" stroke-linecap="round" stroke-linejoin="round"/>
<path d="M88.6822 43.5149C83.4249 42.2204 77.8761 42.883 73.0714 45.3789C65.1612 49.5679 68.4216 59.5725 71.675 64.9274C74.9285 70.2823 70.9769 73.5357 63.5345 80.5173C56.0921 87.4989 54.9192 96.1142 59.5759 101.462" stroke="white" stroke-width="0.183726" stroke-linecap="round" stroke-linejoin="round"/>
<path d="M88.431 46.7748C88.431 46.7748 75.8641 46.307 75.166 54.2241C74.4678 62.1413 84.7098 67.95 84.9402 72.8371C85.1706 77.7242 80.7512 82.8487 76.7997 86.3395" stroke="white" stroke-width="0.183726" stroke-linecap="round" stroke-linejoin="round"/>
<path d="M104.285 76.4189C104.285 76.4189 109.619 77.6477 111.462 78.2621C113.306 78.8765 115.568 81.341 115.77 85.0342C115.973 88.7275 117.411 103.326 118.004 107.801C118.598 112.276 116.775 120.724 114.513 123.161C112.251 125.597 109.179 127.88 106.512 124.39C103.845 120.899 106.101 118.441 107.127 113.722C108.153 109.002 108.767 93.6216 106.303 88.2877C103.838 82.9537 101.821 76.6214 104.285 76.4189Z" fill="#00BF6D" stroke="#263238" stroke-width="0.734905" stroke-linecap="round" stroke-linejoin="round"/>
<path d="M113.927 117.241C113.927 117.241 114.332 118.267 111.462 118.882C108.593 119.496 105.716 120.11 104.9 122.575C104.083 125.039 105.514 126.882 109.822 127.497C114.129 128.111 117.823 125.039 118.437 122.777C119.051 120.515 122.724 117.799 122.724 117.799C122.724 117.799 116.384 115.6 113.927 117.241Z" fill="white" stroke="#263238" stroke-width="0.734905" stroke-linecap="round" stroke-linejoin="round"/>
<path d="M112.077 87.2685C112.077 89.9354 114.744 95.8838 114.542 102.628C114.339 109.372 106.953 120.271 104.286 126.219C101.619 132.167 109.41 145.914 102.847 159.249C96.2846 172.584 83.997 172.786 74.125 169.721C64.253 166.656 55.4562 160.694 53.4036 151.667C51.351 142.64 54.4299 135.874 59.9733 130.54C65.5167 125.206 70.8437 124.795 71.6675 120.689C72.4913 116.584 73.3082 120.075 71.0461 113.31C68.7841 106.545 66.3335 91.5621 66.9479 87.0451C67.5623 82.528 75.3259 79.2536 80.6877 76.9985C84.3598 75.3832 87.9232 73.5316 91.3556 71.4551C91.3556 71.4551 95.4608 70.0239 97.5134 70.8408C99.566 71.6576 101.207 73.9196 104.286 76.3842C107.364 78.8487 109.208 79.0441 109.208 79.0441" fill="#00BF6D"/>
<path d="M112.077 87.2685C112.077 89.9354 114.744 95.8838 114.542 102.628C114.339 109.372 106.953 120.271 104.286 126.219C101.619 132.167 109.41 145.914 102.847 159.249C96.2846 172.584 83.997 172.786 74.125 169.721C64.253 166.656 55.4562 160.694 53.4036 151.667C51.351 142.64 54.4299 135.874 59.9733 130.54C65.5167 125.206 70.8437 124.795 71.6675 120.689C72.4913 116.584 73.3082 120.075 71.0461 113.31C68.7841 106.545 66.3335 91.5621 66.9479 87.0451C67.5623 82.528 75.3259 79.2536 80.6877 76.9985C84.3598 75.3832 87.9232 73.5316 91.3556 71.4551C91.3556 71.4551 95.4608 70.0239 97.5134 70.8408C99.566 71.6576 101.207 73.9196 104.286 76.3842C107.364 78.8487 109.208 79.0441 109.208 79.0441" stroke="#263238" stroke-width="0.734905" stroke-linecap="round" stroke-linejoin="round"/>
<path d="M66.8916 126.812C66.8916 126.812 73.8732 125.339 82.7538 129.766" stroke="#263238" stroke-width="0.734905" stroke-linecap="round" stroke-linejoin="round"/>
<path d="M75.0059 123.496C75.0059 123.496 82.7554 124.599 86.8118 128.292" stroke="#263238" stroke-width="0.734905" stroke-linecap="round" stroke-linejoin="round"/>
<path d="M104.286 76.4202C101.207 73.9557 99.5661 71.7006 97.5136 70.8768C95.461 70.053 91.3558 71.4912 91.3558 71.4912C88.5757 73.1716 85.7118 74.7096 82.7754 76.099C84.3793 81.2224 86.5722 86.1424 89.3102 90.7604C94.1973 98.9707 97.3111 105.122 99.1542 101.84C100.732 99.0475 103.797 82.941 104.411 76.5039L104.286 76.4202Z" fill="white" stroke="#263238" stroke-width="0.734905" stroke-linecap="round" stroke-linejoin="round"/>
<path d="M99.1545 101.853C100.02 100.317 101.333 94.7665 102.443 89.0137C97.9257 91.9459 91.9704 90.6055 88.5215 89.4186C88.7728 89.8724 89.0381 90.3192 89.3104 90.773C94.2673 98.9834 97.3113 105.134 99.1545 101.853Z" fill="white" stroke="#263238" stroke-width="0.734905" stroke-linecap="round" stroke-linejoin="round"/>
<path d="M79.0471 80.5181C75.85 81.0091 72.8221 82.2773 70.2294 84.2114C65.7123 87.4927 65.9217 92.0098 67.5624 96.3175C69.2031 100.625 74.7395 114.372 78.0348 118.058C81.3301 121.744 83.5782 124.628 85.2189 123.804C86.8595 122.98 105.109 105.324 110.45 99.1869C113.361 95.9131 116.099 92.4898 118.654 88.9309C118.654 88.9309 118.863 88.519 120.504 88.3165C122.145 88.1141 124.4 85.0352 124.4 85.0352C124.4 85.0352 123.373 87.0808 125.223 87.0808C127.074 87.0808 128.093 86.4664 128.505 85.2377C128.917 84.0089 130.969 81.9563 130.145 80.93C129.322 79.9037 127.067 79.2893 127.067 79.2893C127.067 79.2893 129.943 79.0799 131.374 79.7012C132.805 80.3226 134.453 80.93 134.453 80.3156C134.453 79.7012 132.61 77.2367 130.76 76.6224C128.91 76.008 124.812 75.5961 122.968 77.0343C121.125 78.4725 117.837 83.3945 117.837 83.3945C117.223 84.2114 115.582 86.6759 115.582 86.6759C115.582 86.6759 104.705 96.7294 99.9919 99.3963C95.2794 102.063 86.6571 106.162 86.6571 106.162C87.0083 105.174 87.0784 104.108 86.8596 103.083C86.6434 102.28 86.2967 101.518 85.8333 100.828C85.7072 99.7382 85.6397 98.6428 85.6308 97.5462C85.6308 95.9055 82.9638 93.441 82.9638 90.5646" fill="#00BF6D"/>
<path d="M79.0471 80.5181C75.85 81.0091 72.8221 82.2773 70.2294 84.2114C65.7123 87.4927 65.9217 92.0098 67.5624 96.3175C69.2031 100.625 74.7395 114.372 78.0348 118.058C81.3301 121.744 83.5782 124.628 85.2189 123.804C86.8595 122.98 105.109 105.324 110.45 99.1869C113.361 95.9131 116.099 92.4898 118.654 88.9309C118.654 88.9309 118.863 88.519 120.504 88.3165C122.145 88.1141 124.4 85.0352 124.4 85.0352C124.4 85.0352 123.373 87.0808 125.223 87.0808C127.074 87.0808 128.093 86.4664 128.505 85.2377C128.917 84.0089 130.969 81.9563 130.145 80.93C129.322 79.9037 127.067 79.2893 127.067 79.2893C127.067 79.2893 129.943 79.0799 131.374 79.7012C132.805 80.3226 134.453 80.93 134.453 80.3156C134.453 79.7012 132.61 77.2367 130.76 76.6224C128.91 76.008 124.812 75.5961 122.968 77.0343C121.125 78.4725 117.837 83.3945 117.837 83.3945C117.223 84.2114 115.582 86.6759 115.582 86.6759C115.582 86.6759 104.705 96.7294 99.9919 99.3963C95.2794 102.063 86.6571 106.162 86.6571 106.162C87.0083 105.174 87.0784 104.108 86.8596 103.083C86.6434 102.28 86.2967 101.518 85.8333 100.828C85.7072 99.7382 85.6397 98.6428 85.6308 97.5462C85.6308 95.9055 82.9638 93.441 82.9638 90.5646" stroke="#263238" stroke-width="0.734905" stroke-linecap="round" stroke-linejoin="round"/>
<path d="M86.6432 106.16C86.6432 106.16 80.8973 108.213 78.8447 112.108Z" fill="white"/>
<path d="M86.6432 106.16C86.6432 106.16 80.8973 108.213 78.8447 112.108" stroke="#263238" stroke-width="0.734905" stroke-linecap="round" stroke-linejoin="round"/>
<path d="M78.209 108.213C78.209 108.213 79.8497 105.546 84.1573 105.344" stroke="#263238" stroke-width="0.734905" stroke-linecap="round" stroke-linejoin="round"/>
<path d="M125.209 87.0808C127.052 87.0808 128.079 86.4664 128.491 85.2377C128.903 84.0089 130.955 81.9563 130.131 80.93C129.308 79.9037 127.052 79.2893 127.052 79.2893C127.052 79.2893 129.929 79.0799 131.36 79.7012C132.791 80.3226 134.439 80.93 134.439 80.3156C134.439 79.7012 132.596 77.2367 130.746 76.6224C128.896 76.008 124.797 75.5961 122.954 77.0343C121.111 78.4725 117.823 83.3945 117.823 83.3945C117.208 84.2114 115.568 86.6759 115.568 86.6759C115.568 86.6759 104.69 96.7294 99.9778 99.3963C98.3511 100.311 96.2706 101.4 94.2319 102.426C93.8245 103.45 93.6323 104.547 93.6671 105.648C93.7019 106.75 93.9631 107.832 94.4344 108.828C94.8605 109.532 95.4248 110.143 96.0931 110.623C96.7614 111.103 97.52 111.442 98.3232 111.621C103.21 106.846 108.097 101.882 110.436 99.1659C113.347 95.8921 116.085 92.4688 118.64 88.91C118.64 88.91 118.849 88.4981 120.49 88.2956C122.13 88.0931 124.385 85.0142 124.385 85.0142C124.385 85.0142 123.359 87.0808 125.209 87.0808Z" fill="white" stroke="#263238" stroke-width="0.734905" stroke-linecap="round" stroke-linejoin="round"/>
<path d="M125.21 82.2274C125.394 82.1552 125.591 82.1241 125.788 82.1364C125.984 82.1487 126.176 82.2041 126.349 82.2987C126.523 82.3932 126.673 82.5246 126.79 82.6836C126.906 82.8426 126.987 83.0253 127.025 83.2188C127.36 84.7059 127.36 86.3536 126.865 86.7096" stroke="#263238" stroke-width="0.734905" stroke-linecap="round" stroke-linejoin="round"/>
<path d="M125.685 80.4131C125.685 80.4131 128.826 80.7412 128.826 82.2283C128.808 83.2407 128.689 84.2487 128.47 85.2374" stroke="#263238" stroke-width="0.734905" stroke-linecap="round" stroke-linejoin="round"/>
<path d="M105.926 152.728C105.926 152.728 111.665 163.201 107.978 171.809C104.292 180.417 95.2578 181.451 82.1463 179.607C69.0349 177.764 51.169 173.862 43.7475 173.038C38.0874 172.297 32.3329 173.151 27.1313 175.502C22.8236 177.345 15.6466 177.757 13.3845 178.169C11.1225 178.581 12.1558 175.3 13.1821 175.3C14.2084 175.3 15.4371 173.45 17.4897 172.835C19.5423 172.221 24.4713 169.756 25.6931 167.299C26.9149 164.841 28.9814 161.755 31.6484 161.553C34.3154 161.351 35.5441 164.22 39.2374 165.449C42.9307 166.677 57.4943 167.299 64.8808 167.299C72.2674 167.299 78.0062 165.658 85.8256 160.729C93.645 155.8 99.7679 149.035 105.926 152.728Z" fill="white" stroke="#263238" stroke-width="0.734905" stroke-linecap="round" stroke-linejoin="round"/>
<path d="M85.8191 160.729C78.0206 165.658 72.2818 167.299 64.8743 167.299C63.5478 167.299 61.9909 167.299 60.3153 167.236C59.7783 168.439 59.3801 169.699 59.1284 170.992C58.8194 172.586 58.9969 174.235 59.6381 175.726C66.9548 177.087 75.1861 178.63 82.1049 179.608C95.2373 181.451 104.264 180.425 107.937 171.809C111.609 163.194 105.884 152.729 105.884 152.729C99.7683 149.035 93.6175 155.807 85.8191 160.729Z" fill="#1D1D35" stroke="#263238" stroke-width="0.734905" stroke-linecap="round" stroke-linejoin="round"/>
<path d="M58.5345 137.347C58.5345 137.347 69.2024 132.418 86.4609 132.418C103.719 132.418 116.621 143.7 111.288 152.113C105.954 160.526 94.4618 161.35 82.5652 165.245C70.6685 169.141 34.1478 178.58 29.8401 180.221C25.5325 181.862 16.7147 186.993 15.0741 188.836C13.4334 190.679 9.3282 191.915 8.91628 190.477C8.50437 189.039 11.1713 186.581 11.1713 186.581C11.1713 186.581 11.7857 182.064 14.0478 180.012C16.3098 177.959 18.146 178.371 19.7866 174.063C21.4273 169.756 21.2248 167.082 25.735 167.298C30.2451 167.514 29.4282 170.37 31.0689 170.991C32.7096 171.613 38.0505 170.37 43.3844 167.912C48.7184 165.455 57.5362 160.114 57.5362 160.114C57.5362 160.114 50.3591 150.682 53.431 141.655" fill="#00BF6D"/>
<path d="M58.5345 137.347C58.5345 137.347 69.2024 132.418 86.4609 132.418C103.719 132.418 116.621 143.7 111.288 152.113C105.954 160.526 94.4618 161.35 82.5652 165.245C70.6685 169.141 34.1478 178.58 29.8401 180.221C25.5325 181.862 16.7147 186.993 15.0741 188.836C13.4334 190.679 9.3282 191.915 8.91628 190.477C8.50437 189.039 11.1713 186.581 11.1713 186.581C11.1713 186.581 11.7857 182.064 14.0478 180.012C16.3098 177.959 18.146 178.371 19.7866 174.063C21.4273 169.756 21.2248 167.082 25.735 167.298C30.2451 167.514 29.4282 170.37 31.0689 170.991C32.7096 171.613 38.0505 170.37 43.3844 167.912C48.7184 165.455 57.5362 160.114 57.5362 160.114C57.5362 160.114 50.3591 150.682 53.431 141.655" stroke="#263238" stroke-width="0.734905" stroke-linecap="round" stroke-linejoin="round"/>
<path d="M57.5088 160.115C57.5088 160.115 48.691 165.449 43.3571 167.914C38.0232 170.378 32.6892 171.607 31.0416 170.993C29.3939 170.378 30.2247 167.502 25.7076 167.299C21.1905 167.097 21.4 169.757 19.7593 174.064C18.1186 178.372 16.2685 177.967 14.0204 180.013C11.7723 182.058 11.144 186.582 11.144 186.582C11.144 186.582 8.47702 189.04 8.88894 190.478C9.30085 191.916 13.3991 190.681 15.0467 188.838C16.6944 186.994 25.5191 181.856 29.8128 180.222C32.4798 179.21 47.4483 175.216 61.2998 171.391C59.6192 167.785 58.3476 164.003 57.5088 160.115V160.115Z" fill="white" stroke="#263238" stroke-width="0.734905" stroke-linecap="round" stroke-linejoin="round"/>
<path d="M111.26 152.113C116.594 143.7 103.664 132.418 86.4333 132.418C82.7943 132.425 79.1591 132.658 75.549 133.116C61.9978 137.417 56.601 150.242 54.8975 155.646C55.62 157.223 56.4945 158.727 57.5086 160.135C56.6567 164.171 57.3731 168.379 59.5123 171.906C68.714 169.372 77.6645 166.858 82.5516 165.266C94.4343 161.35 105.926 160.526 111.26 152.113Z" fill="#1D1D35" stroke="#263238" stroke-width="0.734905" stroke-linecap="round" stroke-linejoin="round"/>
<path d="M57.5098 160.115C61.3105 158.235 64.9467 156.04 68.3801 153.552C73.3091 149.859 81.9244 140.629 92.9972 140.42" stroke="white" stroke-width="0.367453" stroke-linecap="round" stroke-linejoin="round"/>
<path d="M64.9443 171.048C64.9443 171.048 97.7579 162.321 105.089 157.783" stroke="white" stroke-width="0.367453" stroke-linecap="round" stroke-linejoin="round"/>
<path d="M109.013 114.496C110.219 115.398 111.512 116.177 112.874 116.821C114.465 117.456 114.689 119.153 116.504 120.214C118.319 121.275 121.272 120.214 123.772 118.518C126.271 116.821 132.401 114.496 132.401 114.496C131.351 114.697 130.291 114.837 129.224 114.915C128.317 114.915 124.679 115.976 123.095 116.402C121.51 116.828 122.18 114.706 122.18 114.706L120.595 114.915L119.199 117.01L116.504 114.496L114.012 114.07L116.281 116.612L111.966 114.517C111.966 114.517 109.243 113.833 109.013 114.496Z" fill="white" stroke="#263238" stroke-width="0.734905" stroke-linecap="round" stroke-linejoin="round"/>
<path d="M137.749 112.047C137.616 114.742 129.838 116.55 120.385 116.082C110.932 115.614 103.364 113.052 103.497 110.357C103.629 107.662 111.407 105.854 120.867 106.322C130.327 106.789 137.881 109.352 137.749 112.047Z" fill="white" stroke="#263238" stroke-width="0.734905" stroke-linecap="round" stroke-linejoin="round"/>
<path d="M132.582 111.796C132.491 113.674 127.059 114.937 120.455 114.588C113.85 114.239 108.586 112.494 108.663 110.588C108.74 108.682 114.185 107.446 120.79 107.795C127.395 108.144 132.666 109.911 132.582 111.796Z" fill="white" stroke="#263238" stroke-width="0.551179" stroke-linecap="round" stroke-linejoin="round"/>
<path d="M111.462 118.881C108.593 119.495 105.716 120.11 104.9 122.574C104.083 125.039 105.514 126.882 109.822 127.496C111.012 127.647 112.222 127.547 113.371 127.202C114.521 126.857 115.585 126.274 116.496 125.492C114.339 126.281 111.05 126.966 109.235 124.697C106.729 121.562 111.462 118.881 111.462 118.881Z" fill="#00BF6D" stroke="#263238" stroke-width="0.734905" stroke-linecap="round" stroke-linejoin="round"/>
<path d="M97.6459 81.9062C97.8339 80.102 98.1773 78.3174 98.6722 76.5722C99.496 73.6958 102.163 71.2383 102.163 71.2383C102.163 71.2383 107.909 73.2909 109.752 73.2909C111.595 73.2909 112.831 72.467 114.06 69.8001C114.942 67.6796 115.629 65.4829 116.112 63.2374C116.847 62.9188 117.537 62.5058 118.165 62.0086C119.191 61.1848 118.982 59.956 117.55 58.3153C116.119 56.6746 116.727 55.4389 116.524 51.3337C116.322 47.2285 114.06 43.1234 114.06 43.1234C114.06 43.1234 109.173 37.9989 100.313 41.0708C91.4532 44.1427 89.2401 53.3793 89.4425 58.3083C89.645 63.2374 91.0832 65.8973 90.6713 69.7931C90.2594 73.6888 85.7842 79.0228 85.7842 79.0228" fill="white"/>
<path d="M97.6459 81.9062C97.8339 80.102 98.1773 78.3174 98.6722 76.5722C99.496 73.6958 102.163 71.2383 102.163 71.2383C102.163 71.2383 107.909 73.2909 109.752 73.2909C111.595 73.2909 112.831 72.467 114.06 69.8001C114.942 67.6796 115.629 65.4829 116.112 63.2374C116.847 62.9188 117.537 62.5058 118.165 62.0086C119.191 61.1848 118.982 59.956 117.55 58.3153C116.119 56.6746 116.727 55.4389 116.524 51.3337C116.322 47.2285 114.06 43.1234 114.06 43.1234C114.06 43.1234 109.173 37.9989 100.313 41.0708C91.4532 44.1427 89.2401 53.3793 89.4425 58.3083C89.645 63.2374 91.0832 65.8973 90.6713 69.7931C90.2594 73.6888 85.7842 79.0228 85.7842 79.0228" stroke="#263238" stroke-width="0.734905" stroke-linecap="round" stroke-linejoin="round"/>
<path d="M114.513 56.849C114.513 57.5122 114.29 58.0428 114.017 58.0428C113.745 58.0428 113.515 57.5122 113.515 56.849C113.515 56.1857 113.738 55.6621 114.017 55.6621C114.297 55.6621 114.513 56.1927 114.513 56.849Z" fill="#1D1D35"/>
<path d="M115.387 53.206C115.387 53.206 115.135 52.445 113.753 52.829C113.38 52.9076 113.032 53.0758 112.739 53.3191C112.446 53.5624 112.216 53.8734 112.07 54.2253" fill="white"/>
<path d="M115.387 53.206C115.387 53.206 115.135 52.445 113.753 52.829C113.38 52.9076 113.032 53.0758 112.739 53.3191C112.446 53.5624 112.216 53.8734 112.07 54.2253" stroke="#263238" stroke-width="0.734905" stroke-linecap="round" stroke-linejoin="round"/>
<path d="M111.833 65.542C111.833 65.542 113.02 66.7219 114.367 66.2402" stroke="#263238" stroke-width="0.734905" stroke-linecap="round" stroke-linejoin="round"/>
<path d="M114.744 34.3415C111.86 35.9612 103.755 35.5982 103.755 35.5982L103.852 35.7867C100.205 35.7468 96.6003 36.5773 93.338 38.2093C86.7753 41.7001 83.9058 47.2365 84.9601 54.623C86.0143 62.0096 88.4509 66.9316 92.1372 67.1341C95.8234 67.3365 97.4711 57.0806 97.4711 57.0806C97.4711 57.0806 100.752 58.1069 101.779 56.6756C102.417 55.7717 102.966 54.8084 103.419 53.7992C106.216 53.0564 108.905 51.9559 111.42 50.5248L111.525 50.7273C116.929 49.4636 118.912 44.786 118.912 40.2549C118.912 35.7239 117.62 32.7218 114.744 34.3415Z" fill="#1D1D35" stroke="#263238" stroke-width="0.734905" stroke-linecap="round" stroke-linejoin="round"/>
<path d="M111.721 40.0244C111.721 40.0244 111.47 44.6811 103.79 48.8701C96.1105 53.0591 90.7626 52.8287 89.5967 52.5913" stroke="white" stroke-width="0.183726" stroke-linecap="round" stroke-linejoin="round"/>
<path d="M89.1279 47.942C89.1279 47.942 99.1535 51.1954 106.135 43.9834" stroke="white" stroke-width="0.183726" stroke-linecap="round" stroke-linejoin="round"/>
<path d="M99.9078 58.931C99.9078 58.931 98.6721 54.4139 94.9788 55.6496C91.2856 56.8854 94.3644 62.4148 96.0051 64.2649C97.6458 66.1151 98.6721 63.853 98.6721 63.853C98.8779 65.5739 99.678 67.169 100.934 68.3631" fill="white"/>
<path d="M99.9078 58.931C99.9078 58.931 98.6721 54.4139 94.9788 55.6496C91.2856 56.8854 94.3644 62.4148 96.0051 64.2649C97.6458 66.1151 98.6721 63.853 98.6721 63.853C98.8779 65.5739 99.678 67.169 100.934 68.3631" stroke="#263238" stroke-width="0.734905" stroke-linecap="round" stroke-linejoin="round"/>
<path d="M75.6679 190.129C75.6679 192.167 70.7808 193.822 64.6929 193.822C58.6049 193.822 53.7178 192.167 53.7178 190.129C53.7178 188.09 58.6049 186.436 64.6929 186.436C70.7808 186.436 75.6679 188.09 75.6679 190.129Z" fill="white" stroke="#263238" stroke-width="0.734905" stroke-linecap="round" stroke-linejoin="round"/>
<path d="M70.9139 190.13C70.9139 191.289 68.1212 192.224 64.6933 192.224C61.2653 192.224 58.4727 191.289 58.4727 190.13C58.4727 188.971 61.2653 188.035 64.6933 188.035C68.1212 188.035 70.9139 188.978 70.9139 190.13Z" fill="white" stroke="#263238" stroke-width="0.183726" stroke-linecap="round" stroke-linejoin="round"/>
<path d="M59.234 181.269C58.5602 181.248 57.8955 181.429 57.3251 181.788C56.7547 182.147 56.3044 182.669 56.032 183.285C55.7596 183.902 55.6774 184.586 55.796 185.249C55.9146 185.913 56.2285 186.526 56.6976 187.01C57.1667 187.494 57.7697 187.827 58.4292 187.967C59.0887 188.106 59.7748 188.045 60.3997 187.792C61.0245 187.539 61.5597 187.106 61.9366 186.547C62.3135 185.988 62.515 185.329 62.5153 184.655C62.5227 184.217 62.4436 183.782 62.2827 183.375C62.1217 182.968 61.8819 182.596 61.5771 182.282C61.2723 181.967 60.9084 181.716 60.5064 181.542C60.1043 181.368 59.6719 181.276 59.234 181.269ZM59.234 186.806C58.8045 186.818 58.3812 186.702 58.0181 186.473C57.655 186.243 57.3687 185.91 57.1959 185.517C57.0232 185.123 56.9718 184.687 57.0484 184.265C57.125 183.842 57.326 183.452 57.6258 183.144C57.9255 182.836 58.3103 182.625 58.7309 182.537C59.1515 182.45 59.5886 182.49 59.9864 182.652C60.3841 182.814 60.7244 183.092 60.9635 183.449C61.2026 183.805 61.3297 184.226 61.3285 184.655C61.3359 184.935 61.2873 185.213 61.1853 185.474C61.0834 185.735 60.9303 185.972 60.7351 186.173C60.5399 186.373 60.3064 186.532 60.0486 186.641C59.7908 186.75 59.5138 186.806 59.234 186.806V186.806Z" fill="white" stroke="#263238" stroke-width="0.734905" stroke-linecap="round" stroke-linejoin="round"/>
<path d="M59.8488 180.452H69.6928V188.251C69.6928 188.904 69.4332 189.531 68.971 189.993C68.5088 190.455 67.882 190.715 67.2283 190.715H62.3063C61.6527 190.715 61.0258 190.455 60.5636 189.993C60.1014 189.531 59.8418 188.904 59.8418 188.251V180.452H59.8488Z" fill="white" stroke="#263238" stroke-width="0.734905" stroke-linecap="round" stroke-linejoin="round"/>
<path d="M119.938 203.805C130.476 203.805 139.019 200.636 139.019 196.726C139.019 192.816 130.476 189.646 119.938 189.646C109.4 189.646 100.857 192.816 100.857 196.726C100.857 200.636 109.4 203.805 119.938 203.805Z" fill="white" stroke="#263238" stroke-width="0.734905" stroke-linecap="round" stroke-linejoin="round"/>
<path d="M133.008 196.725C133.008 199.406 127.158 201.612 119.939 201.612C112.72 201.612 106.862 199.441 106.862 196.725C106.862 194.009 112.72 191.88 119.939 191.88C127.158 191.88 133.008 194.086 133.008 196.725Z" fill="white" stroke="#263238" stroke-width="0.183726" stroke-linecap="round" stroke-linejoin="round"/>
<path d="M126.579 192.725C124.309 194.192 121.781 195.215 119.129 195.741C114.696 196.627 108.657 198.401 105.11 198.045C101.564 197.689 103.337 192.725 107.421 190.065C109.233 188.87 111.265 188.05 113.398 187.653C115.531 187.256 117.722 187.29 119.842 187.754C123.388 188.64 129.951 189.709 126.579 192.725Z" fill="#00BF6D" stroke="#263238" stroke-width="0.734905" stroke-linecap="round" stroke-linejoin="round"/>
<path d="M107.421 191.294C107.421 191.294 110.611 191.468 113.809 195.196C113.816 195.21 110.611 188.997 107.421 191.294Z" fill="white"/>
<path d="M111.142 189.709C111.142 189.709 114.339 189.884 117.53 193.612C117.53 193.612 114.339 187.405 111.142 189.709Z" fill="white"/>
<path d="M114.34 188.641C114.34 188.641 117.53 188.823 120.728 192.551C120.728 192.551 117.53 186.337 114.34 188.641Z" fill="white"/>
<path d="M135.633 195.742C133.36 197.209 130.83 198.233 128.176 198.758C123.743 199.645 117.704 201.418 114.157 201.069C110.611 200.72 112.384 195.742 116.468 193.082C118.28 191.887 120.312 191.068 122.445 190.671C124.578 190.274 126.769 190.308 128.888 190.771C132.435 191.665 138.998 192.726 135.633 195.742Z" fill="#00BF6D" stroke="#263238" stroke-width="0.734905" stroke-linecap="round" stroke-linejoin="round"/>
<path d="M116.469 194.324C116.469 194.324 119.659 194.498 122.857 198.227C122.892 198.227 119.659 191.992 116.469 194.324Z" fill="white"/>
<path d="M120.197 192.726C120.197 192.726 123.388 192.9 126.578 196.628C126.578 196.628 123.388 190.422 120.197 192.726Z" fill="white"/>
<path d="M123.388 191.665C123.388 191.665 126.578 191.839 129.776 195.567C129.776 195.567 126.578 189.354 123.388 191.665Z" fill="white"/>
<path d="M146.671 186.826H143.697C142.596 186.825 141.538 186.401 140.742 185.64C139.946 184.879 139.474 183.841 139.424 182.742L138.621 164.415H151.753L150.944 182.742C150.895 183.842 150.424 184.881 149.627 185.642C148.831 186.403 147.772 186.827 146.671 186.826Z" fill="white" stroke="#263238" stroke-width="0.734905" stroke-linecap="round" stroke-linejoin="round"/>
<path d="M140.053 172.584L140.437 181.402C140.487 182.501 140.959 183.539 141.755 184.3C142.55 185.061 143.609 185.485 144.709 185.486H145.659C146.76 185.485 147.818 185.061 148.614 184.3C149.409 183.539 149.881 182.501 149.932 181.402L150.316 172.584H140.053Z" fill="#00BF6D"/>
<path d="M178.298 191.874C188.835 191.874 197.378 188.704 197.378 184.794C197.378 180.884 188.835 177.715 178.298 177.715C167.76 177.715 159.217 180.884 159.217 184.794C159.217 188.704 167.76 191.874 178.298 191.874Z" fill="white" stroke="#263238" stroke-width="0.734905" stroke-linecap="round" stroke-linejoin="round"/>
<path d="M191.375 184.794C191.375 187.475 185.517 189.647 178.298 189.647C171.079 189.647 165.229 187.475 165.229 184.794C165.229 182.114 171.079 179.949 178.298 179.949C185.517 179.949 191.375 182.12 191.375 184.794Z" fill="white" stroke="#263238" stroke-width="0.183726" stroke-linecap="round" stroke-linejoin="round"/>
<path d="M189.915 183.67C187.683 185.112 185.198 186.116 182.591 186.631C178.228 187.503 172.3 189.249 168.809 188.9C165.319 188.55 167.071 183.67 171.078 181.052C172.859 179.878 174.857 179.072 176.954 178.682C179.051 178.292 181.206 178.327 183.289 178.783C186.752 179.656 193.21 180.703 189.915 183.67Z" fill="#00BF6D" stroke="#263238" stroke-width="0.734905" stroke-linecap="round" stroke-linejoin="round"/>
<path d="M171.065 182.274C171.065 182.274 174.207 182.449 177.349 186.107C177.349 186.107 174.2 180.005 171.065 182.274Z" fill="white"/>
<path d="M174.723 180.703C174.723 180.703 177.857 180.878 181.006 184.543C180.999 184.543 177.857 178.434 174.723 180.703Z" fill="white"/>
<path d="M177.858 179.656C177.858 179.656 181 179.83 184.142 183.496C184.142 183.496 181 177.387 177.858 179.656Z" fill="white"/>
<path d="M44.0626 186.951H41.0815C39.9801 186.949 38.9218 186.522 38.1263 185.761C37.3308 184.999 36.859 183.96 36.8087 182.86L36.0059 164.54H49.1383L48.3354 182.86C48.2851 183.96 47.8133 184.999 47.0178 185.761C46.2223 186.522 45.164 186.949 44.0626 186.951V186.951Z" fill="white" stroke="#263238" stroke-width="0.734905" stroke-linecap="round" stroke-linejoin="round"/>
<path d="M37.4365 172.933L37.8275 181.75C37.8761 182.851 38.3476 183.89 39.1437 184.651C39.9398 185.411 40.9989 185.836 42.1002 185.835H43.0427C44.144 185.836 45.2032 185.411 45.9993 184.651C46.7954 183.89 47.2669 182.851 47.3155 181.75L47.7065 172.933H37.4365Z" fill="#00BF6D"/>
</svg>
