<svg width="239" height="202" viewBox="0 0 239 202" fill="none" xmlns="http://www.w3.org/2000/svg">
<path d="M237.045 122.719C242.005 87.177 217.961 41.273 193.035 22.9817C148.034 -10.046 110.645 -1.64094 81.565 12.1723C52.4849 25.9855 48.3375 68.0176 28.2619 87.8384C8.1862 107.659 -16.0438 138.282 14.4142 162.306C44.8722 186.329 82.2678 167.707 114.117 164.703C145.967 161.7 188.185 172.516 211.037 160.521C226.993 152.116 234.847 138.427 237.045 122.719Z" fill="#00BF6D"/>
<path opacity="0.7" d="M237.045 122.719C242.005 87.177 217.961 41.273 193.035 22.9817C148.034 -10.046 110.645 -1.64094 81.565 12.1723C52.4849 25.9855 48.3375 68.0176 28.2619 87.8384C8.1862 107.659 -16.0438 138.282 14.4142 162.306C44.8722 186.329 82.2678 167.707 114.117 164.703C145.967 161.7 188.185 172.516 211.037 160.521C226.993 152.116 234.847 138.427 237.045 122.719Z" fill="white"/>
<path d="M126.614 201.168C188.63 201.168 238.904 189.241 238.904 174.527C238.904 159.813 188.63 147.886 126.614 147.886C64.5982 147.886 14.3242 159.813 14.3242 174.527C14.3242 189.241 64.5982 201.168 126.614 201.168Z" fill="#00BF6D"/>
<path opacity="0.5" d="M126.614 201.168C188.63 201.168 238.904 189.241 238.904 174.527C238.904 159.813 188.63 147.886 126.614 147.886C64.5982 147.886 14.3242 159.813 14.3242 174.527C14.3242 189.241 64.5982 201.168 126.614 201.168Z" fill="white"/>
<path d="M166.23 49.3531C167.78 49.2911 170.887 47.6996 170.887 47.6996C170.887 47.6996 169.22 45.9704 169.096 45.8739C167.718 44.7716 164.377 43.4489 162.723 44.5443C162.454 44.7353 162.228 44.9808 162.059 45.2648C161.891 45.5489 161.784 45.8653 161.745 46.1933C161.707 46.5214 161.738 46.8539 161.837 47.1692C161.935 47.4844 162.099 47.7755 162.317 48.0234C163.206 49.1051 164.907 49.4082 166.23 49.3531Z" fill="#00BF6D"/>
<g opacity="0.5">
<path d="M166.231 49.3531C167.781 49.2911 170.888 47.6996 170.888 47.6996C170.888 47.6996 169.221 45.9704 169.097 45.8739C167.719 44.7716 164.378 43.4489 162.724 44.5443C162.455 44.7353 162.229 44.9808 162.06 45.2648C161.892 45.5489 161.785 45.8653 161.746 46.1933C161.708 46.5214 161.739 46.8539 161.838 47.1692C161.936 47.4844 162.1 47.7755 162.318 48.0234C163.207 49.1051 164.908 49.4082 166.231 49.3531Z" fill="white"/>
</g>
<path d="M181.345 89.4229C189.612 113.908 189.612 131.241 189.612 131.241C189.612 131.241 179.815 131.613 169.633 124.083" stroke="#263238" stroke-width="0.725199" stroke-linecap="round" stroke-linejoin="round"/>
<path d="M185.486 102.608C187.192 95.2867 189.458 88.1074 192.265 81.1338" stroke="#263238" stroke-width="0.725199" stroke-linecap="round" stroke-linejoin="round"/>
<path d="M182.627 138.73C182.627 138.73 167.47 139.543 159.141 139.337C150.811 139.13 146.388 138.124 137.48 136.912C128.572 135.699 117.239 134.073 116.447 144.194C115.655 154.314 122.117 155.334 145.803 161.417C169.489 167.5 190.949 169.312 209.185 160.404C227.421 151.496 228.214 134.914 222.544 133.281C216.874 131.648 209.791 135.1 196.839 136.519C183.887 137.938 182.627 138.73 182.627 138.73Z" fill="#1D1D35" stroke="#263238" stroke-width="0.725199" stroke-linecap="round" stroke-linejoin="round"/>
<path d="M158.734 140.756C158.734 140.756 168.048 141.769 172.705 141.362C177.363 140.956 181.207 139.943 182.626 138.731C184.045 137.518 182.419 88.7274 182.419 86.0957C182.419 83.4639 177.969 79.0134 175.337 76.9879C172.705 74.9624 162.785 73.7499 157.928 77.7939C153.071 81.838 152.058 94.1976 152.058 108.569C152.058 122.94 149.833 136.705 151.045 138.324C152.258 139.943 158.734 140.756 158.734 140.756Z" fill="white"/>
<path opacity="0.4" d="M158.734 140.756C158.734 140.756 168.048 141.769 172.705 141.362C177.363 140.956 181.207 139.943 182.626 138.731C184.045 137.518 182.419 88.7274 182.419 86.0957C182.419 83.4639 177.969 79.0134 175.337 76.9879C172.705 74.9624 162.785 73.7499 157.928 77.7939C153.071 81.838 152.058 94.1976 152.058 108.569C152.058 122.94 149.833 136.705 151.045 138.324C152.258 139.943 158.734 140.756 158.734 140.756Z" fill="black"/>
<path d="M158.734 140.756C158.734 140.756 168.048 141.769 172.705 141.362C177.363 140.956 181.207 139.943 182.626 138.731C184.045 137.518 182.419 88.7274 182.419 86.0957C182.419 83.4639 177.969 79.0134 175.337 76.9879C172.705 74.9624 162.785 73.7499 157.928 77.7939C153.071 81.838 152.058 94.1976 152.058 108.569C152.058 122.94 149.833 136.705 151.045 138.324C152.258 139.943 158.734 140.756 158.734 140.756Z" stroke="#263238" stroke-width="0.725199" stroke-linecap="round" stroke-linejoin="round"/>
<path d="M176.715 82.6303C175.624 80.595 174.289 78.7002 172.74 76.9879C170.859 74.9624 163.784 73.7499 160.339 77.7939C159.065 79.2821 158.162 81.8862 157.528 85.2965C158.734 87.9007 161.09 90.6495 165.685 90.7529C169.86 90.8493 173.773 86.8466 176.715 82.6303Z" fill="white" stroke="#263238" stroke-width="0.725199" stroke-linecap="round" stroke-linejoin="round"/>
<path d="M166.63 143.987C165.828 144.883 165.246 145.954 164.931 147.114C164.615 148.274 164.574 149.491 164.811 150.67C165.624 154.714 171.893 147.632 176.523 146.013C181.152 144.394 176.523 142.568 174.098 142.974C171.673 143.381 166.63 143.987 166.63 143.987Z" fill="#00BF6D" stroke="#263238" stroke-width="0.725199" stroke-linecap="round" stroke-linejoin="round"/>
<path d="M171.893 149.058C171.893 149.058 168.448 150.27 167.442 147.639C166.436 145.007 166.629 143.994 166.629 143.994C166.629 143.994 174.125 142.782 175.744 142.375C177.363 141.969 173.312 148.651 171.893 149.058Z" fill="white" stroke="#263238" stroke-width="0.725199" stroke-linecap="round" stroke-linejoin="round"/>
<path d="M171.494 74.1562C170.604 81.8828 170.399 89.6728 170.881 97.4355C171.693 110.188 174.125 139.337 173.113 143.594C172.1 147.852 171.893 149.065 171.893 149.065C171.893 149.065 171.693 149.264 176.55 146.026C181.407 142.788 189.709 139.75 191.535 139.344C193.361 138.937 194.773 135.093 193.96 130.842C193.147 126.591 192.396 117.752 192.396 117.752L210.357 112.847C210.357 112.847 198.417 90.801 196.578 85.1104C194.738 79.4197 190.102 79.0408 186.657 79.0408C183.213 79.0408 172.94 76.1748 171.494 74.1562Z" fill="#00BF6D" stroke="#263238" stroke-width="0.725199" stroke-linecap="round" stroke-linejoin="round"/>
<path d="M192.264 117.346C192.264 117.346 190.521 91.7657 190.521 87.7217Z" fill="white"/>
<path d="M192.264 117.346C192.264 117.346 190.521 91.7657 190.521 87.7217" stroke="#263238" stroke-width="0.725199" stroke-linecap="round" stroke-linejoin="round"/>
<path d="M193.76 115.244C193.76 115.244 193.96 110.188 201.455 106.977C208.951 103.767 214.207 109.003 214.814 112.44C215.42 115.878 214.207 122.361 207.924 121.348C201.641 120.336 194.773 119.096 193.76 115.244Z" fill="white" stroke="#263238" stroke-width="0.725199" stroke-linecap="round" stroke-linejoin="round"/>
<path d="M159.953 75.9746C159.953 75.9746 150.839 81.4379 144.569 83.2636C138.3 85.0893 132.623 85.6886 131.81 87.7141C130.997 89.7396 125.94 124.765 125.94 124.765L140.518 122.94C140.518 122.94 141.125 135.492 139.912 137.311C138.7 139.13 141.125 140.149 143.357 140.756C145.589 141.362 159.96 142.574 159.96 142.574C160.186 142.545 160.402 142.466 160.592 142.341C160.782 142.217 160.942 142.051 161.058 141.856C161.175 141.661 161.246 141.442 161.266 141.216C161.286 140.989 161.254 140.761 161.173 140.549C160.766 138.73 157.122 136.298 157.122 135.292C157.122 134.286 158.341 119.502 159.754 108.162C161.166 96.8219 161.572 79.2264 159.953 75.9746Z" fill="#00BF6D" stroke="#263238" stroke-width="0.725199" stroke-linecap="round" stroke-linejoin="round"/>
<path d="M140.519 115.245L140.925 96.0166" stroke="#263238" stroke-width="0.725199" stroke-linecap="round" stroke-linejoin="round"/>
<path d="M124.714 125.771C123.637 123.281 123.424 120.501 124.108 117.876C125.321 113.832 129.372 112.619 134.229 112.619C139.086 112.619 141.311 115.65 141.311 119.095C141.311 122.54 137.467 125.571 133.044 126.784C128.621 127.996 126.547 127.19 124.714 125.771Z" fill="white" stroke="#263238" stroke-width="0.725199" stroke-linecap="round" stroke-linejoin="round"/>
<path d="M166.099 97.2633C165.434 97.2427 164.778 97.4211 164.215 97.7755C163.652 98.1299 163.208 98.6443 162.939 99.2528C162.67 99.8612 162.589 100.536 162.706 101.191C162.823 101.846 163.133 102.451 163.596 102.928C164.059 103.406 164.654 103.735 165.305 103.872C165.956 104.01 166.633 103.95 167.249 103.7C167.866 103.451 168.394 103.023 168.766 102.471C169.138 101.92 169.337 101.27 169.337 100.605C169.344 100.173 169.266 99.7432 169.107 99.3413C168.949 98.9393 168.712 98.5727 168.411 98.2623C168.11 97.9519 167.751 97.7039 167.355 97.5325C166.958 97.3611 166.531 97.2696 166.099 97.2633V97.2633ZM166.099 102.727C165.675 102.739 165.257 102.624 164.899 102.398C164.541 102.171 164.258 101.843 164.088 101.455C163.917 101.067 163.867 100.636 163.942 100.219C164.018 99.8021 164.216 99.417 164.512 99.1133C164.808 98.8096 165.188 98.6012 165.603 98.5147C166.018 98.4282 166.449 98.4675 166.841 98.6277C167.234 98.7879 167.57 99.0617 167.806 99.4139C168.042 99.7661 168.167 100.181 168.166 100.605C168.173 100.881 168.125 101.155 168.025 101.413C167.924 101.67 167.773 101.904 167.58 102.102C167.388 102.3 167.157 102.457 166.903 102.564C166.648 102.671 166.375 102.727 166.099 102.727V102.727Z" fill="white" stroke="#263238" stroke-width="0.725199" stroke-linecap="round" stroke-linejoin="round"/>
<path d="M166.74 96.4502H176.454V104.146C176.454 104.791 176.198 105.409 175.742 105.865C175.286 106.321 174.667 106.578 174.022 106.578H169.165C168.52 106.578 167.902 106.321 167.446 105.865C166.99 105.409 166.733 104.791 166.733 104.146V96.4502H166.74Z" fill="white" stroke="#263238" stroke-width="0.725199" stroke-linecap="round" stroke-linejoin="round"/>
<path d="M204.694 140.349C204.694 140.349 189.709 151.889 174.318 156.546C162.998 159.995 151.311 162.101 139.499 162.823C131.404 163.429 127.96 161.81 126.747 165.861C125.535 169.912 126.341 174.128 132.21 175.375C138.08 176.622 143.716 172.516 153.65 169.478C163.585 166.44 164.329 168.1 180.209 165.861C192.513 164.118 210.577 164.035 221.91 156.546C233.243 149.058 234.463 135.492 227.38 132.861C220.298 130.229 211.59 136.099 209.564 136.705" fill="#1D1D35"/>
<path d="M204.694 140.349C204.694 140.349 189.709 151.889 174.318 156.546C162.998 159.995 151.311 162.101 139.499 162.823C131.404 163.429 127.96 161.81 126.747 165.861C125.535 169.912 126.341 174.128 132.21 175.375C138.08 176.622 143.716 172.516 153.65 169.478C163.585 166.44 164.329 168.1 180.209 165.861C192.513 164.118 210.577 164.035 221.91 156.546C233.243 149.058 234.463 135.492 227.38 132.861C220.298 130.229 211.59 136.099 209.564 136.705" stroke="#263238" stroke-width="0.725199" stroke-linecap="round" stroke-linejoin="round"/>
<path d="M166.739 159.144C166.739 159.144 181.896 154.322 189.819 150.188C197.741 146.054 206.353 140.198 208.076 139.165" stroke="white" stroke-width="0.362599" stroke-linecap="round" stroke-linejoin="round"/>
<path d="M139.506 162.823C131.411 163.43 127.966 161.811 126.754 165.862C125.541 169.912 126.347 174.129 132.217 175.376C138.087 176.623 143.716 172.517 153.65 169.478C155.586 168.886 157.177 168.473 158.597 168.169C156.771 165.924 156.082 162.623 155.841 160.929C149.33 162.031 143.929 162.493 139.506 162.823Z" fill="white"/>
<path opacity="0.4" d="M139.505 162.821C131.41 163.428 127.965 161.809 126.753 165.86C125.54 169.911 126.346 174.127 132.216 175.374C138.086 176.621 143.715 172.515 153.649 169.476C155.585 168.884 157.176 168.471 158.596 168.168C156.77 165.922 156.081 162.622 155.84 160.927C149.329 162.029 143.928 162.491 139.505 162.821Z" fill="black"/>
<path d="M139.506 162.823C131.411 163.43 127.966 161.811 126.754 165.862C125.541 169.912 126.347 174.129 132.217 175.376C138.087 176.623 143.716 172.517 153.65 169.478C155.586 168.886 157.177 168.473 158.597 168.169C156.771 165.924 156.082 162.623 155.841 160.929C149.33 162.031 143.929 162.493 139.506 162.823Z" stroke="#263238" stroke-width="0.725199" stroke-linecap="round" stroke-linejoin="round"/>
<path d="M136.067 174.99C131.589 174.301 128.365 172.303 128.489 168.789C128.585 165.951 130.39 164.139 131.686 162.995C128.93 163.064 127.462 163.484 126.753 165.861C125.533 169.905 126.346 174.128 132.216 175.375C133.968 175.703 135.771 175.649 137.5 175.217L136.067 174.99Z" fill="white" stroke="#263238" stroke-width="0.725199" stroke-linecap="round" stroke-linejoin="round"/>
<path d="M138.293 146.219C138.293 146.219 166.629 159.998 176.35 164.442C186.071 168.886 191.128 169.099 191.128 169.099L190.315 175.575C190.315 175.575 185.052 176.788 168.861 172.537C152.671 168.286 132.424 164.035 121.69 157.766C110.956 151.497 114.201 138.937 119.465 136.712C124.728 134.487 130.398 136.306 130.398 136.306" fill="#1D1D35"/>
<path d="M138.293 146.219C138.293 146.219 166.629 159.998 176.35 164.442C186.071 168.886 191.128 169.099 191.128 169.099L190.315 175.575C190.315 175.575 185.052 176.788 168.861 172.537C152.671 168.286 132.424 164.035 121.69 157.766C110.956 151.497 114.201 138.937 119.465 136.712C124.728 134.487 130.398 136.306 130.398 136.306" stroke="#263238" stroke-width="0.725199" stroke-linecap="round" stroke-linejoin="round"/>
<path d="M133.671 142.609C147.808 150.091 162.046 157.369 176.385 164.442" stroke="white" stroke-width="0.362599" stroke-linecap="round" stroke-linejoin="round"/>
<path d="M191.128 169.098C191.128 169.098 202.062 167.879 207.119 166.666C212.175 165.454 215.62 164.847 217.453 168.891C219.285 172.935 216.64 176.587 210.363 177.799C202.84 179.26 190.322 175.574 190.322 175.574L191.128 169.098Z" fill="white"/>
<path opacity="0.4" d="M191.127 169.099C191.127 169.099 202.061 167.88 207.118 166.667C212.174 165.455 215.619 164.848 217.452 168.892C219.284 172.936 216.639 176.588 210.363 177.8C202.839 179.261 190.321 175.575 190.321 175.575L191.127 169.099Z" fill="black"/>
<path d="M191.128 169.098C191.128 169.098 202.062 167.879 207.119 166.666C212.175 165.454 215.62 164.847 217.453 168.891C219.285 172.935 216.64 176.587 210.363 177.799C202.84 179.26 190.322 175.574 190.322 175.574L191.128 169.098Z" stroke="#263238" stroke-width="0.725199" stroke-linecap="round" stroke-linejoin="round"/>
<path d="M162.531 97.8281C162.531 97.8281 165.707 98.6204 166.32 99.6331C166.466 99.8629 166.551 100.126 166.569 100.397C166.586 100.669 166.535 100.941 166.42 101.187C166.304 101.434 166.129 101.647 165.909 101.808C165.689 101.969 165.432 102.071 165.163 102.106C163.63 102.213 162.093 102.213 160.56 102.106C160.56 102.106 164.405 102.306 164.405 103.925C164.405 105.544 163.798 108.989 163.192 109.795C162.586 110.601 161.98 111.82 160.154 111.82H157.729C157.729 111.82 156.509 112.227 154.484 113.033C153.184 113.539 151.825 113.88 150.44 114.046C150.44 114.046 144.57 121.741 140.719 125.585C136.868 129.43 133.43 132.475 131.005 132.475C128.58 132.475 123.31 127.418 124.929 123.16C126.548 118.903 141.532 114.053 144.77 112.027C148.008 110.002 151.515 107.329 153.072 105.551C155.628 102.623 155.786 98.6617 157.522 98.2622C159.18 98.0075 160.854 97.8625 162.531 97.8281V97.8281Z" fill="white" stroke="#263238" stroke-width="0.725199" stroke-linecap="round" stroke-linejoin="round"/>
<path d="M158.259 104.718C160.24 104.649 162.209 105.043 164.011 105.868" stroke="#263238" stroke-width="0.725199" stroke-linecap="round" stroke-linejoin="round"/>
<path d="M158.259 107.535C158.259 107.535 162.041 107.046 163.357 108.362" stroke="#263238" stroke-width="0.725199" stroke-linecap="round" stroke-linejoin="round"/>
<path d="M157.728 111.807L159.243 110.498C159.838 110.654 160.444 110.764 161.055 110.829" stroke="#263238" stroke-width="0.725199" stroke-linecap="round" stroke-linejoin="round"/>
<path d="M163.522 101.273C162.579 101.686 161.581 101.957 160.56 102.079" stroke="#263238" stroke-width="0.725199" stroke-linecap="round" stroke-linejoin="round"/>
<path d="M208.442 123.367C213.202 122.581 215.331 116.698 212.031 113.164C211.659 112.71 211.187 112.347 210.653 112.103C208.407 111.228 205.521 110.036 201.477 112.006C197.164 114.073 193.485 116.47 191.666 116.47C189.847 116.47 186.155 111.517 183.544 110.098C180.932 108.679 182.042 112.413 181.029 114.032C180.016 115.651 175.765 117.07 174.546 117.476C173.327 117.883 173.74 119.095 175.159 119.901C176.578 120.707 176.372 120.714 178.397 122.333C179.932 123.614 181.861 124.329 183.86 124.359C185.28 124.359 189.324 122.94 189.324 122.94C189.324 122.94 200.257 123.753 206.547 123.546C207.182 123.528 207.815 123.468 208.442 123.367V123.367Z" fill="white" stroke="#263238" stroke-width="0.725199" stroke-linecap="round" stroke-linejoin="round"/>
<path d="M185.665 114.639C185.665 116.65 180.843 118.283 174.828 118.283C168.814 118.283 163.984 116.65 163.984 114.639C163.984 112.627 168.807 110.994 174.814 110.994C180.822 110.994 185.665 112.627 185.665 114.639Z" fill="white" stroke="#263238" stroke-width="0.725199" stroke-linecap="round" stroke-linejoin="round"/>
<path d="M174.827 116.706C178.217 116.706 180.965 115.781 180.965 114.639C180.965 113.498 178.217 112.572 174.827 112.572C171.437 112.572 168.688 113.498 168.688 114.639C168.688 115.781 171.437 116.706 174.827 116.706Z" fill="white" stroke="#263238" stroke-width="0.1813" stroke-linecap="round" stroke-linejoin="round"/>
<path d="M183.584 110.042C183.053 109.519 182.206 109.305 181.124 109.939C181.124 109.939 177.886 113.983 179.099 114.589C180.311 115.196 183.15 113.377 183.963 112.364" fill="white"/>
<path d="M183.584 110.042C183.053 109.519 182.206 109.305 181.124 109.939C181.124 109.939 177.886 113.983 179.099 114.589C180.311 115.196 183.15 113.377 183.963 112.364" stroke="#263238" stroke-width="0.725199" stroke-linecap="round" stroke-linejoin="round"/>
<path d="M175.138 119.874C176.268 119.859 177.399 119.923 178.52 120.067C179.897 120.22 181.289 120.178 182.654 119.943" stroke="#263238" stroke-width="0.725199" stroke-linecap="round" stroke-linejoin="round"/>
<path d="M177.521 121.597C179.523 122.103 181.581 122.355 183.646 122.348" stroke="#263238" stroke-width="0.725199" stroke-linecap="round" stroke-linejoin="round"/>
<path d="M159.547 73.9502C159.547 73.9502 156.102 76.079 155.951 77.9805C155.799 79.882 152.672 86.606 151.638 87.8116C150.605 89.0173 151.983 88.8451 153.36 88.1561C154.738 87.4672 157.673 84.1878 158.707 84.1878C159.74 84.1878 161.125 86.4338 161.125 86.4338C161.125 86.4338 161.077 76.6508 159.547 73.9502Z" fill="white" stroke="#263238" stroke-width="0.725199" stroke-linecap="round" stroke-linejoin="round"/>
<path d="M160.76 83.6704C160.967 79.4128 159.547 73.9495 159.547 73.9495C159.547 73.9495 154.89 75.162 152.865 74.7625C150.839 74.3629 146.389 67.2668 145.782 61.6037C145.176 55.9407 146.795 45.8133 146.795 45.8133C146.795 45.8133 146.389 42.9748 156.509 40.1433C166.63 37.3118 170.288 39.1305 171.666 42.775C173.044 46.4195 170.853 57.9317 170.047 63.2227C169.241 68.5138 172.3 77.16 172.94 79.8193" fill="white"/>
<path d="M160.76 83.6704C160.967 79.4128 159.547 73.9495 159.547 73.9495C159.547 73.9495 154.89 75.162 152.865 74.7625C150.839 74.3629 146.389 67.2668 145.782 61.6037C145.176 55.9407 146.795 45.8133 146.795 45.8133C146.795 45.8133 146.389 42.9748 156.509 40.1433C166.63 37.3118 170.288 39.1305 171.666 42.775C173.044 46.4195 170.853 57.9317 170.047 63.2227C169.241 68.5138 172.3 77.16 172.94 79.8193" stroke="#263238" stroke-width="0.725199" stroke-linecap="round" stroke-linejoin="round"/>
<path d="M151.045 54.9209C151.045 54.9209 150.639 57.3528 149.22 58.1589C147.8 58.965 147.601 59.5781 148.82 60.1844C149.577 60.5533 150.403 60.7598 151.245 60.7907" stroke="#263238" stroke-width="0.725199" stroke-linecap="round" stroke-linejoin="round"/>
<path d="M148.399 64.0293C149.531 64.4894 150.747 64.7099 151.968 64.6769C154.193 64.6769 157.114 63.0166 157.114 63.0166C157.114 63.0166 155.688 67.7152 153.263 68.7279C150.838 69.7406 148.399 64.0293 148.399 64.0293Z" fill="#1D1D35" stroke="#263238" stroke-width="0.725199" stroke-linecap="round" stroke-linejoin="round"/>
<path d="M155.903 52.8955L154.718 55.4446C154.718 55.4446 155.903 55.3275 158.734 55.1208" stroke="#263238" stroke-width="0.725199" stroke-linecap="round" stroke-linejoin="round"/>
<path d="M148.008 53.3018L147.271 55.279C147.977 55.4453 148.701 55.5285 149.427 55.527" stroke="#263238" stroke-width="0.725199" stroke-linecap="round" stroke-linejoin="round"/>
<path d="M155.296 48.4458C155.296 48.4458 158.127 47.4331 159.547 50.8709" stroke="#263238" stroke-width="0.725199" stroke-linecap="round" stroke-linejoin="round"/>
<path d="M150.033 48.8455C150.033 48.8455 148.207 48.4459 147.808 51.2775" stroke="#263238" stroke-width="0.725199" stroke-linecap="round" stroke-linejoin="round"/>
<path d="M155.475 66.5918C153.966 66.7631 152.541 67.374 151.376 68.3486C151.627 68.576 151.935 68.7312 152.268 68.7979C152.6 68.8646 152.944 68.8403 153.264 68.7275C154.195 68.2482 154.964 67.5054 155.475 66.5918Z" fill="white" stroke="#263238" stroke-width="0.725199" stroke-linecap="round" stroke-linejoin="round"/>
<path d="M166.739 32.3101C162.522 31.3318 156.522 30.8495 156.522 31.9863C156.525 32.2169 156.585 32.4432 156.699 32.6442C156.812 32.8452 156.974 33.0146 157.169 33.1368C156.094 32.7303 153.573 32.0827 148.571 32.3101C141.434 32.6339 140.952 34.2529 142.081 34.5767C143.549 34.8752 145.033 35.0892 146.525 35.2174C146.181 35.3483 145.836 35.4861 145.499 35.6377C143.494 36.4162 139.443 38.235 138.843 40.4189C138.78 40.6441 138.78 40.8826 138.843 41.1078C138.449 41.7816 138.258 42.5551 138.293 43.3351C138.329 44.1151 138.589 44.8681 139.043 45.5033C141.861 49.5956 145.189 46.0131 145.189 46.0131C145.189 46.0131 143.652 48.321 148.771 46.5229C152.665 45.0305 156.433 43.2313 160.042 41.1423H160.207C161.516 41.6383 162.681 42.4237 163.018 43.5949C163.824 46.4264 162.205 48.8515 163.018 50.4843C163.831 52.1171 165.65 51.8966 165.65 52.7096C165.65 53.5225 164.431 53.7223 165.244 54.5284C166.056 55.3344 168.282 55.7478 169.694 55.3413C170.29 55.1846 170.873 54.9819 171.437 54.735C171.52 54.1563 171.602 53.5707 171.671 52.9851C172.298 51.6968 174.172 47.6321 174.71 44.0289C175.33 39.606 170.948 33.2815 166.739 32.3101Z" fill="#1D1D35" stroke="#263238" stroke-width="0.725199" stroke-linecap="round" stroke-linejoin="round"/>
<path d="M151.728 40.5713C151.728 40.5713 152.258 43.0239 156.109 41.4462C159.96 39.8686 166.622 37.5951 171.176 39.5241" stroke="white" stroke-width="0.1813" stroke-linecap="round" stroke-linejoin="round"/>
<path d="M162.992 43.5875C162.992 43.5875 168.373 41.6241 170.998 44.6003" stroke="white" stroke-width="0.1813" stroke-linecap="round" stroke-linejoin="round"/>
<path d="M167.036 56.947C167.036 56.947 168.655 52.6963 171.087 52.6963C173.519 52.6963 172.506 58.3663 172.1 59.7786C171.693 61.1909 169.668 64.6011 168.256 61.8041C168.256 61.8041 168.104 67.5705 164.122 70.3469" fill="white"/>
<path d="M167.036 56.947C167.036 56.947 168.655 52.6963 171.087 52.6963C173.519 52.6963 172.506 58.3663 172.1 59.7786C171.693 61.1909 169.668 64.6011 168.256 61.8041C168.256 61.8041 168.104 67.5705 164.122 70.3469" stroke="#263238" stroke-width="0.725199" stroke-linecap="round" stroke-linejoin="round"/>
<path d="M170.611 71.9383C170.611 71.9383 170.783 80.8945 170.439 82.6375C170.267 84.0154 170.326 85.4123 170.611 86.7711L173.029 81.9486C173.029 81.9486 178.72 87.4601 179.409 86.4336C180.098 85.407 175.613 81.7763 175.275 78.3248C174.938 74.8732 171.128 68.3145 170.611 71.9383Z" fill="white" stroke="#263238" stroke-width="0.725199" stroke-linecap="round" stroke-linejoin="round"/>
<path d="M217.446 168.893C215.916 165.496 213.236 165.379 209.427 166.137V166.364C209.427 166.364 215.283 167.053 215.627 170.498C215.972 173.943 214.821 175.892 208.393 177.387C206.74 177.773 205.307 177.814 204.156 178.076C206.227 178.238 208.309 178.145 210.357 177.801C216.633 176.588 219.265 172.923 217.446 168.893Z" fill="white" stroke="#263238" stroke-width="0.725199" stroke-linecap="round" stroke-linejoin="round"/>
<path d="M139.437 76.1955C137.9 77.596 136.111 78.6924 134.166 79.4266C130.908 80.6598 126.553 82.7611 123.832 82.9402C121.111 83.1193 121.814 79.1235 124.576 76.5951C125.796 75.4658 127.228 74.5907 128.789 74.0206C130.351 73.4504 132.01 73.1968 133.67 73.2744C136.502 73.5018 141.614 73.488 139.437 76.1955Z" fill="#00BF6D" stroke="#263238" stroke-width="0.725199" stroke-linecap="round" stroke-linejoin="round"/>
<path d="M124.714 77.533C124.714 77.533 127.16 77.2712 130.053 79.6963C130.06 79.6963 126.85 75.3836 124.714 77.533Z" fill="white"/>
<path d="M127.346 75.8517C127.346 75.8517 129.791 75.5899 132.685 78.0081C132.685 78.0081 129.475 73.716 127.346 75.8517Z" fill="white"/>
<path d="M129.633 74.6468C129.633 74.6468 132.079 74.3781 134.972 76.8031C134.972 76.8031 131.769 72.4904 129.633 74.6468Z" fill="white"/>
<path d="M89.1372 40.7913C89.1372 40.7913 84.0804 37.1468 72.7405 38.9656C65.1622 40.1919 58.8997 48.4592 60.8494 56.2235C61.9173 60.4467 66.5263 64.9592 64.239 69.5338C62.4202 73.1783 53.712 72.9785 51.4867 84.6904C49.2615 96.4024 57.3565 104.938 68.4897 105.545C79.623 106.151 85.8992 97.4427 87.9247 90.7669C89.9502 84.0911 93.1882 73.757 93.3949 64.2427C93.6015 54.7285 92.3821 45.042 89.1372 40.7913Z" fill="#1D1D35" stroke="#263238" stroke-width="0.725199" stroke-linecap="round" stroke-linejoin="round"/>
<path d="M87.5113 42.9409C82.3234 41.6635 76.8479 42.3174 72.1066 44.7803C64.3009 48.914 67.5183 58.7865 70.7287 64.0706C73.9392 69.3548 70.0398 72.5652 62.6957 79.4546C55.3516 86.344 54.1942 94.8455 58.7894 100.123" stroke="white" stroke-width="0.1813" stroke-linecap="round" stroke-linejoin="round"/>
<path d="M87.2632 46.1585C87.2632 46.1585 74.8623 45.6969 74.1733 53.5094C73.4844 61.322 83.5911 67.054 83.8185 71.8766C84.0458 76.6991 79.6848 81.7559 75.7854 85.2006" stroke="white" stroke-width="0.1813" stroke-linecap="round" stroke-linejoin="round"/>
<path d="M102.909 75.4111C102.909 75.4111 108.173 76.6237 109.991 77.2299C111.81 77.8362 114.042 80.2681 114.242 83.9126C114.442 87.5571 115.861 101.963 116.447 106.379C117.032 110.795 115.234 119.131 113.002 121.536C110.77 123.94 107.739 126.193 105.107 122.748C102.475 119.303 104.7 116.878 105.713 112.221C106.726 107.564 107.332 92.3866 104.9 87.1231C102.468 81.8596 100.477 75.6109 102.909 75.4111Z" fill="#00BF6D" stroke="#263238" stroke-width="0.725199" stroke-linecap="round" stroke-linejoin="round"/>
<path d="M112.423 115.693C112.423 115.693 112.822 116.706 109.991 117.312C107.159 117.918 104.321 118.524 103.515 120.956C102.709 123.388 104.121 125.207 108.372 125.813C112.623 126.42 116.267 123.388 116.873 121.156C117.48 118.924 121.104 116.244 121.104 116.244C121.104 116.244 114.848 114.074 112.423 115.693Z" fill="white" stroke="#263238" stroke-width="0.725199" stroke-linecap="round" stroke-linejoin="round"/>
<path d="M110.597 86.1165C110.597 88.7483 113.229 94.618 113.029 101.273C112.829 107.928 105.54 118.683 102.909 124.552C100.277 130.422 107.966 143.987 101.49 157.146C95.0135 170.305 82.8882 170.505 73.1466 167.48C63.405 164.456 54.7244 158.572 52.6989 149.664C50.6734 140.756 53.7116 134.08 59.1818 128.817C64.652 123.553 69.9086 123.147 70.7215 119.096C71.5345 115.045 72.3405 118.49 70.1084 111.814C67.8762 105.138 65.458 90.3535 66.0643 85.8961C66.6706 81.4386 74.3316 78.2075 79.6226 75.9822C83.2461 74.3883 86.7625 72.5611 90.1496 70.5121C90.1496 70.5121 94.2005 69.0997 96.226 69.9058C98.2515 70.7119 99.8705 72.944 102.909 75.376C105.947 77.8079 107.766 78.0008 107.766 78.0008" fill="#00BF6D"/>
<path d="M110.597 86.1165C110.597 88.7483 113.229 94.618 113.029 101.273C112.829 107.928 105.54 118.683 102.909 124.552C100.277 130.422 107.966 143.987 101.49 157.146C95.0135 170.305 82.8882 170.505 73.1466 167.48C63.405 164.456 54.7244 158.572 52.6989 149.664C50.6734 140.756 53.7116 134.08 59.1818 128.817C64.652 123.553 69.9086 123.147 70.7215 119.096C71.5345 115.045 72.3405 118.49 70.1084 111.814C67.8762 105.138 65.458 90.3535 66.0643 85.8961C66.6706 81.4386 74.3316 78.2075 79.6226 75.9822C83.2461 74.3883 86.7625 72.5611 90.1496 70.5121C90.1496 70.5121 94.2005 69.0997 96.226 69.9058C98.2515 70.7119 99.8705 72.944 102.909 75.376C105.947 77.8079 107.766 78.0008 107.766 78.0008" stroke="#263238" stroke-width="0.725199" stroke-linecap="round" stroke-linejoin="round"/>
<path d="M66.0098 125.139C66.0098 125.139 72.8992 123.686 81.6625 128.054" stroke="#263238" stroke-width="0.725199" stroke-linecap="round" stroke-linejoin="round"/>
<path d="M74.0146 121.866C74.0146 121.866 81.6619 122.955 85.6646 126.599" stroke="#263238" stroke-width="0.725199" stroke-linecap="round" stroke-linejoin="round"/>
<path d="M102.909 75.411C99.8706 72.979 98.2516 70.7537 96.2261 69.9408C94.2006 69.1279 90.1497 70.5471 90.1497 70.5471C87.4063 72.2053 84.5803 73.723 81.6826 75.0941C83.2653 80.1498 85.4293 85.0048 88.1311 89.5618C92.9537 97.6637 96.0263 103.733 97.8451 100.495C99.4021 97.7395 102.427 81.8457 103.033 75.4936L102.909 75.411Z" fill="white" stroke="#263238" stroke-width="0.725199" stroke-linecap="round" stroke-linejoin="round"/>
<path d="M97.8451 100.508C98.6994 98.9928 99.9946 93.5157 101.09 87.8389C96.6325 90.7324 90.7559 89.4096 87.3525 88.2385C87.6006 88.6863 87.8623 89.1272 88.131 89.575C93.0225 97.6769 96.0263 103.746 97.8451 100.508Z" fill="white" stroke="#263238" stroke-width="0.725199" stroke-linecap="round" stroke-linejoin="round"/>
<path d="M78.0043 79.4543C74.8494 79.9388 71.8616 81.1902 69.3031 83.0988C64.8456 86.3368 65.0523 90.7942 66.6713 95.045C68.2903 99.2957 73.7536 112.861 77.0054 116.499C80.2572 120.136 82.4755 122.981 84.0946 122.168C85.7136 121.356 103.722 103.932 108.993 97.8765C111.865 94.6459 114.567 91.2678 117.088 87.756C117.088 87.756 117.295 87.3495 118.914 87.1498C120.533 86.95 122.758 83.9117 122.758 83.9117C122.758 83.9117 121.745 85.9303 123.571 85.9303C125.396 85.9303 126.402 85.3241 126.809 84.1115C127.215 82.899 129.241 80.8735 128.428 79.8608C127.615 78.848 125.39 78.2418 125.39 78.2418C125.39 78.2418 128.228 78.0351 129.64 78.6483C131.053 79.2614 132.679 79.8608 132.679 79.2545C132.679 78.6482 130.86 76.2163 129.034 75.61C127.208 75.0038 123.164 74.5973 121.345 76.0165C119.527 77.4357 116.282 82.2927 116.282 82.2927C115.675 83.0988 114.056 85.5307 114.056 85.5307C114.056 85.5307 103.323 95.4515 98.6725 98.0832C94.0222 100.715 85.5138 104.759 85.5138 104.759C85.8604 103.784 85.9295 102.733 85.7136 101.721C85.5003 100.929 85.1581 100.177 84.7008 99.4955C84.5765 98.4205 84.5098 97.3396 84.501 96.2575C84.501 94.6385 81.8693 92.2066 81.8693 89.3681" fill="#00BF6D"/>
<path d="M78.0043 79.4543C74.8494 79.9388 71.8616 81.1902 69.3031 83.0988C64.8456 86.3368 65.0523 90.7942 66.6713 95.045C68.2903 99.2957 73.7536 112.861 77.0054 116.499C80.2572 120.136 82.4755 122.981 84.0946 122.168C85.7136 121.356 103.722 103.932 108.993 97.8765C111.865 94.6459 114.567 91.2678 117.088 87.756C117.088 87.756 117.295 87.3495 118.914 87.1498C120.533 86.95 122.758 83.9117 122.758 83.9117C122.758 83.9117 121.745 85.9303 123.571 85.9303C125.396 85.9303 126.402 85.3241 126.809 84.1115C127.215 82.899 129.241 80.8735 128.428 79.8608C127.615 78.848 125.39 78.2418 125.39 78.2418C125.39 78.2418 128.228 78.0351 129.64 78.6483C131.053 79.2614 132.679 79.8608 132.679 79.2545C132.679 78.6482 130.86 76.2163 129.034 75.61C127.208 75.0038 123.164 74.5973 121.345 76.0165C119.527 77.4357 116.282 82.2927 116.282 82.2927C115.675 83.0988 114.056 85.5307 114.056 85.5307C114.056 85.5307 103.323 95.4515 98.6725 98.0832C94.0222 100.715 85.5138 104.759 85.5138 104.759C85.8604 103.784 85.9295 102.733 85.7136 101.721C85.5003 100.929 85.1581 100.177 84.7008 99.4955C84.5765 98.4205 84.5098 97.3396 84.501 96.2575C84.501 94.6385 81.8693 92.2066 81.8693 89.3681" stroke="#263238" stroke-width="0.725199" stroke-linecap="round" stroke-linejoin="round"/>
<path d="M85.4992 104.759C85.4992 104.759 79.8292 106.784 77.8037 110.629Z" fill="white"/>
<path d="M85.4992 104.759C85.4992 104.759 79.8292 106.784 77.8037 110.629" stroke="#263238" stroke-width="0.725199" stroke-linecap="round" stroke-linejoin="round"/>
<path d="M77.1768 106.785C77.1768 106.785 78.7958 104.153 83.0465 103.953" stroke="#263238" stroke-width="0.725199" stroke-linecap="round" stroke-linejoin="round"/>
<path d="M123.555 85.9303C125.374 85.9303 126.387 85.3241 126.793 84.1115C127.2 82.899 129.225 80.8735 128.412 79.8608C127.599 78.848 125.374 78.2418 125.374 78.2418C125.374 78.2418 128.213 78.0351 129.625 78.6483C131.037 79.2614 132.663 79.8608 132.663 79.2545C132.663 78.6482 130.844 76.2163 129.019 75.61C127.193 75.0038 123.149 74.5973 121.33 76.0165C119.511 77.4357 116.266 82.2927 116.266 82.2927C115.66 83.0988 114.041 85.5307 114.041 85.5307C114.041 85.5307 103.307 95.4515 98.6571 98.0832C97.0519 98.9857 94.9988 100.06 92.9871 101.073C92.5851 102.084 92.3954 103.166 92.4297 104.253C92.4641 105.34 92.7219 106.408 93.1869 107.391C93.6074 108.085 94.1642 108.688 94.8237 109.161C95.4832 109.635 96.2318 109.97 97.0243 110.147C101.847 105.434 106.669 100.536 108.977 97.8559C111.85 94.6253 114.552 91.2472 117.072 87.7354C117.072 87.7354 117.279 87.3289 118.898 87.1291C120.517 86.9293 122.742 83.8911 122.742 83.8911C122.742 83.8911 121.73 85.9303 123.555 85.9303Z" fill="white" stroke="#263238" stroke-width="0.725199" stroke-linecap="round" stroke-linejoin="round"/>
<path d="M123.556 81.1422C123.737 81.0709 123.931 81.0403 124.126 81.0524C124.32 81.0645 124.509 81.1192 124.68 81.2125C124.851 81.3058 124.999 81.4355 125.114 81.5924C125.23 81.7493 125.309 81.9296 125.347 82.1205C125.678 83.5879 125.678 85.2138 125.188 85.5652" stroke="#263238" stroke-width="0.725199" stroke-linecap="round" stroke-linejoin="round"/>
<path d="M124.025 79.3516C124.025 79.3516 127.126 79.6754 127.126 81.1428C127.108 82.1418 126.99 83.1365 126.774 84.1121" stroke="#263238" stroke-width="0.725199" stroke-linecap="round" stroke-linejoin="round"/>
<path d="M104.528 150.712C104.528 150.712 110.191 161.046 106.554 169.541C102.916 178.036 94.0013 179.055 81.063 177.236C68.1247 175.418 50.4948 171.566 43.1714 170.754C37.586 170.023 31.9075 170.865 26.7746 173.185C22.5239 175.004 15.4416 175.411 13.2094 175.817C10.9773 176.224 11.9969 172.986 13.0096 172.986C14.0224 172.986 15.2349 171.16 17.2604 170.554C19.2859 169.947 24.1498 167.516 25.3554 165.09C26.5611 162.665 28.6003 159.62 31.2321 159.42C33.8638 159.221 35.0763 162.052 38.7208 163.265C42.3653 164.477 56.7366 165.09 64.0255 165.09C71.3145 165.09 76.9776 163.471 84.6937 158.608C92.4098 153.744 98.4518 147.068 104.528 150.712Z" fill="white" stroke="#263238" stroke-width="0.725199" stroke-linecap="round" stroke-linejoin="round"/>
<path d="M84.6863 158.607C76.9908 163.471 71.3278 165.09 64.0181 165.09C62.7091 165.09 61.1728 165.09 59.5194 165.028C58.9894 166.215 58.5965 167.458 58.3482 168.734C58.0432 170.306 58.2184 171.934 58.8511 173.405C66.0712 174.749 74.1937 176.271 81.0211 177.236C93.9801 179.055 102.888 178.042 106.512 169.54C110.136 161.039 104.486 150.712 104.486 150.712C98.4513 147.067 92.3817 153.75 84.6863 158.607Z" fill="#1D1D35" stroke="#263238" stroke-width="0.725199" stroke-linecap="round" stroke-linejoin="round"/>
<path d="M57.7624 135.534C57.7624 135.534 68.2893 130.67 85.3199 130.67C102.35 130.67 115.082 141.803 109.819 150.105C104.555 158.407 93.2151 159.22 81.4756 163.064C69.7361 166.908 33.6977 176.223 29.447 177.842C25.1962 179.461 16.4949 184.524 14.8759 186.343C13.2569 188.162 9.20597 189.381 8.7995 187.962C8.39303 186.543 11.0248 184.118 11.0248 184.118C11.0248 184.118 11.631 179.66 13.8632 177.635C16.0954 175.609 17.9073 176.016 19.5263 171.765C21.1453 167.514 20.9455 164.876 25.396 165.089C29.8466 165.303 29.0405 168.121 30.6595 168.734C32.2785 169.347 37.5489 168.121 42.8124 165.696C48.0759 163.27 56.7772 158 56.7772 158C56.7772 158 49.6949 148.693 52.7262 139.785" fill="#00BF6D"/>
<path d="M57.7624 135.534C57.7624 135.534 68.2893 130.67 85.3199 130.67C102.35 130.67 115.082 141.803 109.819 150.105C104.555 158.407 93.2151 159.22 81.4756 163.064C69.7361 166.908 33.6977 176.223 29.447 177.842C25.1962 179.461 16.4949 184.524 14.8759 186.343C13.2569 188.162 9.20597 189.381 8.7995 187.962C8.39303 186.543 11.0248 184.118 11.0248 184.118C11.0248 184.118 11.631 179.66 13.8632 177.635C16.0954 175.609 17.9073 176.016 19.5263 171.765C21.1453 167.514 20.9455 164.876 25.396 165.089C29.8466 165.303 29.0405 168.121 30.6595 168.734C32.2785 169.347 37.5489 168.121 42.8124 165.696C48.0759 163.27 56.7772 158 56.7772 158C56.7772 158 49.6949 148.693 52.7262 139.785" stroke="#263238" stroke-width="0.725199" stroke-linecap="round" stroke-linejoin="round"/>
<path d="M56.7498 158.001C56.7498 158.001 48.0485 163.264 42.7851 165.696C37.5216 168.128 32.2581 169.341 30.6322 168.735C29.0063 168.128 29.8261 165.29 25.3687 165.09C20.9113 164.89 21.1179 167.515 19.4989 171.766C17.8799 176.017 16.0542 175.617 13.8359 177.636C11.6175 179.654 10.9974 184.119 10.9974 184.119C10.9974 184.119 8.36568 186.544 8.77216 187.963C9.17863 189.382 13.2227 188.163 14.8486 186.344C16.4745 184.525 25.1827 179.455 29.4196 177.842C32.0514 176.843 46.8222 172.903 60.4908 169.127C58.8323 165.57 57.5775 161.838 56.7498 158.001V158.001Z" fill="white" stroke="#263238" stroke-width="0.725199" stroke-linecap="round" stroke-linejoin="round"/>
<path d="M109.792 150.105C115.055 141.803 102.296 130.67 85.2932 130.67C81.7022 130.676 78.115 130.907 74.5526 131.359C61.1803 135.603 55.8548 148.259 54.1738 153.591C54.8868 155.148 55.7498 156.631 56.7505 158.021C55.9098 162.003 56.6168 166.156 58.7277 169.636C67.8079 167.135 76.6401 164.655 81.4627 163.084C93.1884 159.22 104.528 158.407 109.792 150.105Z" fill="#1D1D35" stroke="#263238" stroke-width="0.725199" stroke-linecap="round" stroke-linejoin="round"/>
<path d="M56.75 158C60.5005 156.146 64.0887 153.979 67.4768 151.524C72.3407 147.88 80.8422 138.772 91.7687 138.565" stroke="white" stroke-width="0.362599" stroke-linecap="round" stroke-linejoin="round"/>
<path d="M64.0869 168.79C64.0869 168.79 96.467 160.178 103.701 155.7" stroke="white" stroke-width="0.362599" stroke-linecap="round" stroke-linejoin="round"/>
<path d="M107.572 112.986C108.763 113.876 110.039 114.644 111.382 115.28C112.953 115.907 113.173 117.581 114.965 118.628C116.756 119.675 119.67 118.628 122.136 116.954C124.603 115.28 130.652 112.986 130.652 112.986C129.616 113.184 128.569 113.322 127.517 113.399C126.621 113.399 123.032 114.446 121.468 114.866C119.904 115.287 120.566 113.192 120.566 113.192L119.002 113.399L117.624 115.466L114.965 112.986L112.505 112.565L114.744 115.073L110.486 113.006C110.486 113.006 107.8 112.331 107.572 112.986Z" fill="white" stroke="#263238" stroke-width="0.725199" stroke-linecap="round" stroke-linejoin="round"/>
<path d="M135.929 110.567C135.798 113.226 128.123 115.01 118.795 114.549C109.467 114.087 101.999 111.559 102.13 108.9C102.261 106.24 109.935 104.456 119.27 104.917C128.606 105.379 136.06 107.907 135.929 110.567Z" fill="white" stroke="#263238" stroke-width="0.725199" stroke-linecap="round" stroke-linejoin="round"/>
<path d="M130.831 110.319C130.742 112.173 125.382 113.419 118.865 113.075C112.347 112.731 107.153 111.008 107.228 109.127C107.304 107.247 112.678 106.027 119.195 106.372C125.713 106.716 130.914 108.459 130.831 110.319Z" fill="white" stroke="#263238" stroke-width="0.1813" stroke-linecap="round" stroke-linejoin="round"/>
<path d="M109.991 117.312C107.159 117.918 104.321 118.524 103.515 120.956C102.709 123.388 104.121 125.207 108.372 125.813C109.547 125.962 110.74 125.863 111.875 125.523C113.009 125.182 114.06 124.607 114.958 123.836C112.829 124.614 109.584 125.289 107.793 123.05C105.32 119.957 109.991 117.312 109.991 117.312Z" fill="#00BF6D" stroke="#263238" stroke-width="0.725199" stroke-linecap="round" stroke-linejoin="round"/>
<path d="M96.3564 80.8255C96.542 79.0452 96.8808 77.2841 97.3692 75.562C98.1821 72.7236 100.814 70.2985 100.814 70.2985C100.814 70.2985 106.484 72.324 108.303 72.324C110.121 72.324 111.341 71.5111 112.553 68.8793C113.424 66.7868 114.102 64.6192 114.579 62.4033C115.304 62.089 115.985 61.6814 116.604 61.1908C117.617 60.3778 117.41 59.1653 115.998 57.5463C114.586 55.9273 115.185 54.7078 114.985 50.6569C114.786 46.6059 112.553 42.555 112.553 42.555C112.553 42.555 107.731 37.4982 98.9882 40.5295C90.2455 43.5608 88.0616 52.6755 88.2614 57.5394C88.4612 62.4033 89.8804 65.0281 89.4739 68.8724C89.0675 72.7167 84.6514 77.9802 84.6514 77.9802" fill="white"/>
<path d="M96.3564 80.8255C96.542 79.0452 96.8808 77.2841 97.3692 75.562C98.1821 72.7236 100.814 70.2985 100.814 70.2985C100.814 70.2985 106.484 72.324 108.303 72.324C110.121 72.324 111.341 71.5111 112.553 68.8793C113.424 66.7868 114.102 64.6192 114.579 62.4033C115.304 62.089 115.985 61.6814 116.604 61.1908C117.617 60.3778 117.41 59.1653 115.998 57.5463C114.586 55.9273 115.185 54.7078 114.985 50.6569C114.786 46.6059 112.553 42.555 112.553 42.555C112.553 42.555 107.731 37.4982 98.9882 40.5295C90.2455 43.5608 88.0616 52.6755 88.2614 57.5394C88.4612 62.4033 89.8804 65.0281 89.4739 68.8724C89.0675 72.7167 84.6514 77.9802 84.6514 77.9802" stroke="#263238" stroke-width="0.725199" stroke-linecap="round" stroke-linejoin="round"/>
<path d="M113.002 56.0999C113.002 56.7544 112.781 57.278 112.513 57.278C112.244 57.278 112.017 56.7544 112.017 56.0999C112.017 55.4454 112.237 54.9287 112.513 54.9287C112.788 54.9287 113.002 55.4523 113.002 56.0999Z" fill="#1D1D35"/>
<path d="M113.863 52.5033C113.863 52.5033 113.615 51.7523 112.251 52.1312C111.883 52.2088 111.54 52.3748 111.251 52.6149C110.961 52.855 110.735 53.1619 110.591 53.5091" fill="white"/>
<path d="M113.863 52.5033C113.863 52.5033 113.615 51.7523 112.251 52.1312C111.883 52.2088 111.54 52.3748 111.251 52.6149C110.961 52.855 110.735 53.1619 110.591 53.5091" stroke="#263238" stroke-width="0.725199" stroke-linecap="round" stroke-linejoin="round"/>
<path d="M110.356 64.6768C110.356 64.6768 111.528 65.8411 112.857 65.3657" stroke="#263238" stroke-width="0.725199" stroke-linecap="round" stroke-linejoin="round"/>
<path d="M113.229 33.8884C110.384 35.4867 102.385 35.1285 102.385 35.1285L102.482 35.3145C98.8824 35.2751 95.3256 36.0947 92.1064 37.7051C85.6303 41.1498 82.7988 46.6131 83.8391 53.902C84.8794 61.191 87.2838 66.048 90.9214 66.2478C94.559 66.4476 96.1849 56.3271 96.1849 56.3271C96.1849 56.3271 99.4229 57.3398 100.436 55.9275C101.065 55.0355 101.607 54.085 102.055 53.0891C104.814 52.3561 107.468 51.2701 109.95 49.858L110.053 50.0578C115.386 48.8108 117.342 44.1949 117.342 39.7237C117.342 35.2525 116.068 32.29 113.229 33.8884Z" fill="#1D1D35" stroke="#263238" stroke-width="0.725199" stroke-linecap="round" stroke-linejoin="round"/>
<path d="M110.246 39.4971C110.246 39.4971 109.998 44.0923 102.419 48.2259C94.8409 52.3596 89.5636 52.1322 88.4131 51.898" stroke="white" stroke-width="0.1813" stroke-linecap="round" stroke-linejoin="round"/>
<path d="M87.9512 47.3096C87.9512 47.3096 97.8443 50.5201 104.734 43.4033" stroke="white" stroke-width="0.1813" stroke-linecap="round" stroke-linejoin="round"/>
<path d="M98.5893 58.1534C98.5893 58.1534 97.3698 53.6959 93.7253 54.9154C90.0809 56.1348 93.1191 61.5912 94.7381 63.4169C96.3571 65.2426 97.3698 63.0104 97.3698 63.0104C97.573 64.7086 98.3624 66.2826 99.602 67.4609" fill="white"/>
<path d="M98.5893 58.1534C98.5893 58.1534 97.3698 53.6959 93.7253 54.9154C90.0809 56.1348 93.1191 61.5912 94.7381 63.4169C96.3571 65.2426 97.3698 63.0104 97.3698 63.0104C97.573 64.7086 98.3624 66.2826 99.602 67.4609" stroke="#263238" stroke-width="0.725199" stroke-linecap="round" stroke-linejoin="round"/>
<path d="M74.669 187.617C74.669 189.629 69.8464 191.262 63.8389 191.262C57.8314 191.262 53.0088 189.629 53.0088 187.617C53.0088 185.605 57.8314 183.973 63.8389 183.973C69.8464 183.973 74.669 185.605 74.669 187.617Z" fill="white" stroke="#263238" stroke-width="0.725199" stroke-linecap="round" stroke-linejoin="round"/>
<path d="M69.9771 187.618C69.9771 188.761 67.2213 189.684 63.8386 189.684C60.456 189.684 57.7002 188.761 57.7002 187.618C57.7002 186.474 60.456 185.551 63.8386 185.551C67.2213 185.551 69.9771 186.481 69.9771 187.618Z" fill="white" stroke="#263238" stroke-width="0.1813" stroke-linecap="round" stroke-linejoin="round"/>
<path d="M58.4515 178.875C57.7867 178.854 57.1308 179.032 56.5679 179.387C56.005 179.741 55.5607 180.256 55.2918 180.864C55.023 181.473 54.9419 182.147 55.0589 182.802C55.176 183.457 55.4858 184.062 55.9487 184.54C56.4116 185.017 57.0066 185.346 57.6574 185.484C58.3082 185.621 58.9853 185.561 59.6019 185.312C60.2185 185.062 60.7465 184.634 61.1184 184.083C61.4904 183.531 61.6892 182.881 61.6895 182.216C61.6968 181.784 61.6188 181.355 61.4599 180.953C61.3011 180.551 61.0645 180.184 60.7637 179.874C60.4629 179.563 60.1039 179.315 59.7071 179.144C59.3104 178.972 58.8837 178.881 58.4515 178.875ZM58.4515 184.338C58.0278 184.35 57.61 184.236 57.2517 184.009C56.8934 183.783 56.6109 183.454 56.4404 183.066C56.27 182.678 56.2192 182.248 56.2948 181.831C56.3704 181.413 56.5688 181.028 56.8646 180.725C57.1604 180.421 57.5401 180.212 57.9551 180.126C58.3701 180.039 58.8015 180.079 59.194 180.239C59.5865 180.399 59.9222 180.673 60.1582 181.025C60.3941 181.377 60.5195 181.792 60.5184 182.216C60.5257 182.492 60.4777 182.767 60.3771 183.024C60.2766 183.281 60.1255 183.515 59.9328 183.713C59.7402 183.911 59.5098 184.068 59.2554 184.175C59.001 184.283 58.7277 184.338 58.4515 184.338V184.338Z" fill="white" stroke="#263238" stroke-width="0.725199" stroke-linecap="round" stroke-linejoin="round"/>
<path d="M59.0577 178.069H68.7717V185.765C68.7717 186.41 68.5155 187.028 68.0594 187.484C67.6033 187.941 66.9847 188.197 66.3398 188.197H61.4827C60.8377 188.197 60.2192 187.941 59.7631 187.484C59.307 187.028 59.0508 186.41 59.0508 185.765V178.069H59.0577Z" fill="white" stroke="#263238" stroke-width="0.725199" stroke-linecap="round" stroke-linejoin="round"/>
<path d="M118.355 201.114C128.754 201.114 137.184 197.987 137.184 194.128C137.184 190.27 128.754 187.143 118.355 187.143C107.956 187.143 99.5264 190.27 99.5264 194.128C99.5264 197.987 107.956 201.114 118.355 201.114Z" fill="white" stroke="#263238" stroke-width="0.725199" stroke-linecap="round" stroke-linejoin="round"/>
<path d="M131.252 194.128C131.252 196.773 125.479 198.95 118.355 198.95C111.231 198.95 105.451 196.808 105.451 194.128C105.451 191.448 111.231 189.347 118.355 189.347C125.479 189.347 131.252 191.524 131.252 194.128Z" fill="white" stroke="#263238" stroke-width="0.1813" stroke-linecap="round" stroke-linejoin="round"/>
<path d="M124.906 190.18C122.666 191.628 120.171 192.638 117.555 193.157C113.18 194.032 107.221 195.782 103.721 195.43C100.221 195.079 101.971 190.18 106.001 187.556C107.789 186.377 109.794 185.568 111.899 185.176C114.004 184.784 116.166 184.818 118.258 185.275C121.757 186.15 128.233 187.204 124.906 190.18Z" fill="#00BF6D" stroke="#263238" stroke-width="0.725199" stroke-linecap="round" stroke-linejoin="round"/>
<path d="M106.002 188.768C106.002 188.768 109.15 188.941 112.306 192.62C112.313 192.633 109.15 186.502 106.002 188.768Z" fill="white"/>
<path d="M109.674 187.203C109.674 187.203 112.829 187.376 115.978 191.054C115.978 191.054 112.829 184.93 109.674 187.203Z" fill="white"/>
<path d="M112.829 186.15C112.829 186.15 115.978 186.329 119.133 190.008C119.133 190.008 115.978 183.877 112.829 186.15Z" fill="white"/>
<path d="M133.841 193.157C131.599 194.605 129.102 195.615 126.484 196.133C122.109 197.008 116.15 198.758 112.65 198.413C109.15 198.069 110.9 193.157 114.93 190.532C116.718 189.353 118.723 188.544 120.828 188.153C122.933 187.761 125.095 187.795 127.186 188.251C130.686 189.133 137.162 190.18 133.841 193.157Z" fill="#00BF6D" stroke="#263238" stroke-width="0.725199" stroke-linecap="round" stroke-linejoin="round"/>
<path d="M114.931 191.758C114.931 191.758 118.079 191.931 121.234 195.61C121.269 195.61 118.079 189.457 114.931 191.758Z" fill="white"/>
<path d="M118.609 190.18C118.609 190.18 121.758 190.352 124.906 194.031C124.906 194.031 121.758 187.906 118.609 190.18Z" fill="white"/>
<path d="M121.758 189.133C121.758 189.133 124.906 189.306 128.062 192.984C128.062 192.984 124.906 186.853 121.758 189.133Z" fill="white"/>
<path d="M144.734 184.359H141.8C140.713 184.358 139.669 183.939 138.884 183.189C138.099 182.438 137.633 181.414 137.583 180.329L136.791 162.244H149.75L148.951 180.329C148.903 181.414 148.438 182.44 147.652 183.191C146.866 183.942 145.821 184.36 144.734 184.359Z" fill="white" stroke="#263238" stroke-width="0.725199" stroke-linecap="round" stroke-linejoin="round"/>
<path d="M138.203 170.305L138.582 179.006C138.632 180.091 139.097 181.115 139.883 181.866C140.668 182.616 141.712 183.036 142.798 183.036H143.735C144.822 183.036 145.866 182.616 146.651 181.866C147.436 181.115 147.902 180.091 147.952 179.006L148.331 170.305H138.203Z" fill="#00BF6D"/>
<path d="M175.942 189.34C186.341 189.34 194.771 186.212 194.771 182.354C194.771 178.496 186.341 175.368 175.942 175.368C165.543 175.368 157.113 178.496 157.113 182.354C157.113 186.212 165.543 189.34 175.942 189.34Z" fill="white" stroke="#263238" stroke-width="0.725199" stroke-linecap="round" stroke-linejoin="round"/>
<path d="M188.847 182.354C188.847 185 183.066 187.143 175.943 187.143C168.819 187.143 163.046 185 163.046 182.354C163.046 179.709 168.819 177.573 175.943 177.573C183.066 177.573 188.847 179.716 188.847 182.354Z" fill="white" stroke="#263238" stroke-width="0.1813" stroke-linecap="round" stroke-linejoin="round"/>
<path d="M187.406 181.244C185.204 182.667 182.751 183.658 180.179 184.166C175.873 185.027 170.024 186.749 166.58 186.405C163.135 186.06 164.864 181.244 168.819 178.661C170.576 177.502 172.547 176.706 174.617 176.322C176.686 175.937 178.812 175.971 180.868 176.422C184.285 177.283 190.658 178.316 187.406 181.244Z" fill="#00BF6D" stroke="#263238" stroke-width="0.725199" stroke-linecap="round" stroke-linejoin="round"/>
<path d="M168.806 179.867C168.806 179.867 171.906 180.039 175.006 183.649C175.006 183.649 171.899 177.628 168.806 179.867Z" fill="white"/>
<path d="M172.415 178.317C172.415 178.317 175.508 178.489 178.615 182.106C178.609 182.106 175.508 176.078 172.415 178.317Z" fill="white"/>
<path d="M175.509 177.284C175.509 177.284 178.609 177.456 181.709 181.073C181.709 181.073 178.609 175.045 175.509 177.284Z" fill="white"/>
<path d="M43.4806 184.482H40.5389C39.452 184.48 38.4077 184.059 37.6227 183.307C36.8377 182.556 36.3721 181.531 36.3225 180.445L35.5303 162.367H48.4892L47.6969 180.445C47.6474 181.531 47.1818 182.556 46.3968 183.307C45.6117 184.059 44.5675 184.48 43.4806 184.482V184.482Z" fill="white" stroke="#263238" stroke-width="0.725199" stroke-linecap="round" stroke-linejoin="round"/>
<path d="M36.9424 170.649L37.3282 179.351C37.3761 180.436 37.8414 181.462 38.627 182.213C39.4126 182.963 40.4577 183.382 41.5445 183.381H42.4746C43.5613 183.382 44.6065 182.963 45.392 182.213C46.1776 181.462 46.6429 180.436 46.6909 179.351L47.0767 170.649H36.9424Z" fill="#00BF6D"/>
</svg>
