<svg xmlns="http://www.w3.org/2000/svg" viewBox="0 0 1946.49 775.56"><defs><style>.cls-1{fill:#00bf6d;}</style></defs><g id="Layer_2" data-name="Layer 2"><g id="Layer_1-2" data-name="Layer 1"><path class="cls-1" d="M881.2,346a100.62,100.62,0,0,0,22.92,7.14,88,88,0,0,0,22.55,1.5q10.5-.73,14.27-4.51,5.25-5.24,10.9-19.15T962,302.06q4.5-15,7.14-28.18T971,257q-3-8.27-14.28-15.4a83.75,83.75,0,0,0-25.17-10.53,77,77,0,0,0-27-1.88q-13.15,1.53-19.16,11.28-1.51,2.25-6,12.77A216.92,216.92,0,0,0,870.69,278a188.41,188.41,0,0,0-6,29.68q-1.89,15.4,2.63,25.92Q870.31,341.13,881.2,346Z"/><path class="cls-1" d="M1944,465.48c-8.35-5.82-27.39-10.55-32.3,1.87a359.27,359.27,0,0,1-21.42,51.1C1861,580.87,1788.43,657.6,1777.93,541c56.38,37.58,104.09-37.25,109.7-85.66,10.4-68.33-57.22-106.59-115.34-80.39-90.76,34.91-77.9,176-149.88,226.16q-6.77-1.5-4.89-27.43t9.77-65c15.88-76.23,39.76-170.28,70.63-240.43q13.14-29.31,22.92-35.32,6.77-4.5,2.25-13.14c-14.95-23.3-50.52-38.56-78.89-40.2-49-2.92-62.4,37.41-74.38,81.89-18.46,65.8-31.41,144-39,213.8-10.71,16.54-24.13,33.6-39.16,50.68,17.08-82.45-35.8-201-130-138.25,13.71-61.49,30.61-137.48,64.61-189.34-.77-30.65-77.47-54.27-103.68-42.07-44.55,29.15-64.82,255.07-71.62,319.52-10.77,16.48-23.86,33.12-38.83,50.14,17.08-82.45-35.8-201-130-138.25,13.73-61.52,30.59-137.46,64.61-189.34-.64-30.68-77.61-54.24-103.68-42.08-26.48,13.81-29.07,67.42-40.21,101.06-16.27,71.52-25.58,148-32,225.81-10.49,29.95-31.53,107-59.23,117.94-35.35-16.34,57.07-193.8,13.89-212.26-20.49-14.56-64.93-28.38-81.53-4.14-12.2,28.33-20.67,73.68-24.89,109.62-15.15,25.65-33.81,73.81-63,82.74-18.29-5.41-41.88-54.24-36.07-72.13,9.11-10.95,30-22.34,44-32.32,25.18-16.28,62.11-44.26,44.33-75.88-9.81-19-48.06-45.68-65.75-33.07-9.76,28.24-40.2,62.83-63.1,81.16,10-62.1,43.95-132.88,76.63-185.22,18.48-32,42.26-33,4.51-56.72-31.08-19.32-88.34-37.22-109.7,4.5-22.67,48.55-39.68,115.88-52.22,177-6.23,41.41-49.14,247.49-13.53,264.47,15.83,12,66.33,25,71.76.39-3.51-22.86,1.57-51.56,6.76-73.64,26.4,106.28,105.76,107,154.24,11.33,8,111.33,115.52,85.19,147.54,1.61-4.09,34.16,2.73,70.06,42.35,69,15.74.13,43.22-7.17,44.33-24.05,81,71.79,145.22-39.61,194.69-95.58,2.36,32.46-14.28,85.36,10.78,109.86,19.57,16.42,68,12.32,74-14.28,81,71.78,145.2-39.57,194.65-95.52.16,40.19-5.63,88.76,26.25,112.81C1609,688.3,1662.15,625.14,1684,577c15.52,104.93,135.12,107.42,191.25,33.54,20.56-24,35.43-51.15,48.83-81.9C1925.29,519.35,1955.21,471.39,1944,465.48Zm-155.15,12.4a152.84,152.84,0,0,1,14.66-27.06,90.17,90.17,0,0,1,17.65-19.53q9.39-7.5,16.91-9,6.76-.74,3.38,13.53T1829,467a134.11,134.11,0,0,1-22.16,30.43q-13.17,13.53-25.93,10.52A102.59,102.59,0,0,1,1788.82,477.88Zm-659.66-5.27a267.27,267.27,0,0,1-5.64,39.83,160.85,160.85,0,0,1-13.15,38.32q-8.64,17.29-20.29,27.42t-25.91,6.39q-1.53-9,.37-25.92t4.13-35.32q2.25-18.41,4.88-35.31t4.14-25.17A193.25,193.25,0,0,1,1093.47,432q8.27-12.77,23.29-8.27,7.5,2.26,10.52,16.16T1129.16,472.61Zm279.5,0a267.27,267.27,0,0,1-5.64,39.83,161.29,161.29,0,0,1-13.15,38.32q-8.64,17.29-20.29,27.42t-25.92,6.39q-1.52-9,.38-25.92t4.13-35.32q2.25-18.41,4.88-35.31c1.76-11.27,3.12-19.65,4.14-25.17A194.1,194.1,0,0,1,1373,432q8.26-12.77,23.3-8.27,7.5,2.26,10.51,16.16T1408.66,472.61Z"/><path class="cls-1" d="M469,368.65c-6.74-14.79-20.2-49.86-34.77-80.17a30.83,30.83,0,0,0-18.06-16.35c-30.72-11.2-72.8-21.79-111.17-29.49-6.52-1.3-11.25,4.45-12.12,11-2.41,18.1,16.77,73.56,22.83,90.71s12.66,34.43,20,51.89,14.75,36,22.39,55.72q19,50.46,16.19,89t-26.66,51q-21,10.47-39.54,2.36t-30.46-26.66q-11.91-18.54-15.71-42.85a87.07,87.07,0,0,1,4.76-46.17q1.9-5.7-8.11-10.48c-6.64-3.18-15.71-5.23-27.14-6.19a158.73,158.73,0,0,0-38.1,1.92,131.52,131.52,0,0,0-39.49,12.83,97.74,97.74,0,0,0-32.38,27.14q-13.81,17.67-16.67,45.25-4.77,41.89,9,80A182.81,182.81,0,0,0,144.36,683a143.44,143.44,0,0,1-36.61,65.91c-8.44,8.67-3.37,23.53,8.62,25.14l.31,0c4.88.6,9.8,1,14.82,1.26,2.67.15,5.38.2,8.09.2a175.84,175.84,0,0,0,99.18-30.48q34,10.06,73.6,7.82Q379,749,422.85,717.65t65.68-77.59q21.92-46.21,22.86-101.89a306.5,306.5,0,0,0-18.1-109Q480.92,394.83,469,368.65Z"/><path class="cls-1" d="M143.36,406.74q20.44-2.37,33.34-7.6t10-11.91q-10.51-20.94-10-48.57A113.54,113.54,0,0,1,190,286.78q12.87-24.28,37.61-40.49a46.18,46.18,0,0,1,5.41-3.22c9.77-4.71,28.91-9.76,38.06-11.17,42.82-6.62,157.44,16.31,157.44,16.31q48.56,6.66,81.9-9.52t51.88-43.81a135.4,135.4,0,0,0,22.39-61.43q3.79-33.78-5.72-62.36A108.56,108.56,0,0,0,534.73,14Q502.81-7,447.6,3.49A169.94,169.94,0,0,0,396.19,23a211.57,211.57,0,0,0-76.67,76.67,195.72,195.72,0,0,0-20.46,49.52,368.59,368.59,0,0,0-107.13-3.35Q139.06,152,96.71,175.37a193,193,0,0,0-69.06,63.8Q1,279.63.06,337.71q-1,23.82,13.79,38.09t36.66,21.9a184.63,184.63,0,0,0,47.13,9.52A236.67,236.67,0,0,0,143.36,406.74Zm300-262.82a145.39,145.39,0,0,1,14.75-24.27,141.78,141.78,0,0,1,18.59-20.46,62.59,62.59,0,0,1,20.46-12.87q16.17-5.7,23.79,9.51t1.91,34.3q-5.69,19-26.66,32.85t-61.91,5.24A128.6,128.6,0,0,1,443.32,143.92Z"/></g></g></svg>