<svg xmlns="http://www.w3.org/2000/svg" viewBox="0 0 1445.44 1913.68"><g id="Layer_2" data-name="Layer 2"><g id="Layer_1-2" data-name="Layer 1"><path class="cls-1" d="M1157.31,909.63c-16.63-36.49-49.84-123-85.8-197.81-9.48-19.72-24-32.84-44.57-40.34-75.8-27.64-179.63-53.76-274.32-72.76-16.08-3.23-27.73,11-29.9,27.22-5.94,44.65,41.38,181.51,56.33,223.82s31.25,85,49.32,128,36.4,88.92,55.23,137.48q46.88,124.53,39.95,219.66-7.09,95.14-65.79,125.75c-34.54,17.23-67,19.17-97.54,5.83s-55.65-35.22-75.16-65.79-32.52-65.79-38.77-105.73-2.36-77.87,11.74-113.93q4.69-14.05-20-25.84c-16.38-7.85-38.76-12.92-67-15.29s-59.55-.76-94,4.73a325.06,325.06,0,0,0-97.46,31.67q-45.85,23.57-79.89,67-34.08,43.59-41.13,111.65-11.77,103.36,22.3,197.36a451.82,451.82,0,0,0,75.34,133A353.94,353.94,0,0,1,265.87,1848c-20.83,21.39-8.32,58.06,21.26,62l.79.11c12,1.49,24.17,2.6,36.56,3.1,6.57.37,13.25.49,19.95.49a434,434,0,0,0,244.74-75.2q83.77,24.84,181.6,19.3,164.43-9.51,272.61-87,107.94-77.52,162.07-191.45t56.41-251.42q2.28-137.45-44.67-269.06Q1186.67,974.25,1157.31,909.63Z"/><path class="cls-1" d="M1428.66,175.41q-30.54-89.31-109.2-140.95t-215-25.85A419.6,419.6,0,0,0,977.6,56.75,521.91,521.91,0,0,0,788.42,245.92a483.67,483.67,0,0,0-50.5,122.21q-134-23.56-264.33-8.28-130.48,15.33-234.95,72.88Q134,490.24,68.22,590.15T.15,833.29q-2.4,58.77,34,94t90.45,54.05q54.09,18.88,116.29,23.48,62.33,4.82,112.83-1.18,50.42-5.83,82.26-18.75,31.67-12.92,24.65-29.39Q434.7,903.8,436,835.65a280.3,280.3,0,0,1,32.85-128q31.78-59.91,92.81-99.9A113,113,0,0,1,575,599.78c24.11-11.63,71.34-24.09,93.91-27.57,105.69-16.33,388.48,40.24,388.48,40.24q119.85,16.45,202.1-23.48t128-108.1q45.85-68.16,55.23-151.59T1428.66,175.41ZM1290.07,321.09q-14.05,47-65.79,81.07t-152.77,12.92c4.73-18.83,12.16-38.76,22.38-60a358.25,358.25,0,0,1,36.4-59.88,351.89,351.89,0,0,1,45.85-50.5q24.58-22.29,50.51-31.75,39.9-14.07,58.69,23.48T1290.07,321.09Z"/></g></g></svg>