<svg width="375" height="812" viewBox="0 0 375 812" fill="none" xmlns="http://www.w3.org/2000/svg">
<rect width="375" height="812" rx="40" fill="#EEEEEE"/>
<rect width="375" height="88" fill="white"/>
<path d="M31.0001 49.9999L25.0001 43.9999L31.0001 37.9999" stroke="#233748" stroke-width="1.99832" stroke-linecap="round" stroke-linejoin="round"/>
<rect x="52" y="37" width="120" height="14" rx="7" fill="#B6BCC2"/>
<circle cx="323" cy="760" r="28" fill="#00BF6D"/>
<path d="M333 750L322 761" stroke="white" stroke-width="1.99832" stroke-linecap="round" stroke-linejoin="round"/>
<path d="M333 750L326 770L322 761L313 757L333 750Z" stroke="white" stroke-width="1.99832" stroke-linecap="round" stroke-linejoin="round"/>
<rect x="24.5" y="732.5" width="254" height="55" rx="27.5" stroke="#9F9D9D"/>
<rect x="237.75" y="749.75" width="22.5" height="22.5" rx="11.25" stroke="#00BF6D" stroke-width="1.5"/>
<path d="M249 755V761M249 761V767M249 761H255M249 761H243" stroke="#00BF6D" stroke-width="2" stroke-linecap="round" stroke-linejoin="round"/>
<path d="M47 127C47 118.163 54.1634 111 63 111H271C279.837 111 287 118.163 287 127V159C287 167.837 279.837 175 271 175H47V127Z" fill="#B6BCC2"/>
<rect x="63" y="127" width="200" height="10" rx="5" fill="#EEEEEE"/>
<rect x="63" y="149" width="84" height="10" rx="5" fill="#EEEEEE"/>
<path d="M47 342C47 333.163 54.1634 326 63 326H271C279.837 326 287 333.163 287 342V352C287 360.837 279.837 368 271 368H47V342Z" fill="#B6BCC2"/>
<rect x="63" y="342" width="104" height="10" rx="5" fill="#EEEEEE"/>
<rect x="179" y="342" width="65" height="10" rx="5" fill="#EEEEEE"/>
<path d="M47 408C47 399.163 54.1634 392 63 392H271C279.837 392 287 399.163 287 408V462C287 470.837 279.837 478 271 478H47V408Z" fill="#B6BCC2"/>
<rect x="63" y="408" width="104" height="10" rx="5" fill="#EEEEEE"/>
<rect x="179" y="408" width="50" height="10" rx="5" fill="#EEEEEE"/>
<rect x="63" y="430" width="202" height="10" rx="5" fill="#EEEEEE"/>
<rect x="63" y="452" width="134" height="10" rx="5" fill="#EEEEEE"/>
<path d="M111 224C111 215.163 118.163 208 127 208H335C343.837 208 351 215.163 351 224V294H127C118.163 294 111 286.837 111 278V224Z" fill="#00BF6D"/>
<rect x="127" y="224" width="104" height="10" rx="5" fill="#FEFEFE"/>
<rect x="243" y="224" width="50" height="10" rx="5" fill="#FEFEFE"/>
<rect x="127" y="246" width="202" height="10" rx="5" fill="#FEFEFE"/>
<rect x="127" y="268" width="134" height="10" rx="5" fill="#FEFEFE"/>
<circle cx="27" cy="165" r="10" fill="#6C7A85"/>
<circle cx="27" cy="358" r="10" fill="#6C7A85"/>
<circle cx="27" cy="468" r="10" fill="#6C7A85"/>
<rect x="213" y="511" width="138" height="138" rx="24" fill="#00BF6D"/>
<path d="M256.659 598.497L266.151 583.666C266.923 582.46 268.598 582.245 269.648 583.218L275.842 588.953C276.785 589.827 278.262 589.756 279.118 588.796L289.883 576.72C290.896 575.584 292.713 575.728 293.534 577.01L307.285 598.497C308.264 600.027 307.166 602.034 305.35 602.034H258.595C256.779 602.034 255.68 600.027 256.659 598.497Z" stroke="white" stroke-width="2.07" stroke-linecap="round" stroke-linejoin="round"/>
<circle cx="273.72" cy="566.2" r="7.245" stroke="white" stroke-width="2.07"/>
</svg>
