<svg width="129" height="91" viewBox="0 0 129 91" fill="none" xmlns="http://www.w3.org/2000/svg">
<path d="M115.174 3.9572H9.86807C8.44263 3.9572 7.07598 4.5286 6.0681 5.54668C5.059 6.56355 4.49268 7.94242 4.49268 9.38055V81.6201C4.49268 83.0583 5.05903 84.4384 6.0681 85.4552C7.07598 86.4721 8.44266 87.0435 9.86807 87.0435H115.174C116.6 87.0435 117.966 86.4721 118.974 85.4552C119.983 84.4384 120.55 83.0583 120.55 81.6201V9.48902C120.578 8.03149 120.024 6.62479 119.014 5.58356C118.002 4.54246 116.618 3.95654 115.174 3.95654L115.174 3.9572ZM115.174 81.7286H9.78821L9.78701 81.7298C9.77741 81.6572 9.77741 81.5846 9.78701 81.5119V9.27236H115.201L115.174 81.7286Z" fill="#ECEDED"/>
<path d="M16.6529 37.1005C17.3724 37.1005 18.063 36.812 18.5718 36.2984C19.0805 35.7849 19.3665 35.0879 19.3665 34.3616V18.9689H34.6172C36.1157 18.9689 37.3308 17.7425 37.3308 16.23C37.3308 14.7175 36.1157 13.4911 34.6172 13.4911H16.6529C15.1543 13.4911 13.9393 14.7175 13.9393 16.23V34.3616C13.9393 35.0879 14.2252 35.7849 14.734 36.2984C15.2427 36.812 15.9333 37.1005 16.6529 37.1005Z" fill="#ECEDED"/>
<path d="M16.6529 77.5089H34.6172C36.1157 77.5089 37.3308 76.2825 37.3308 74.7701C37.3308 73.2576 36.1157 72.0312 34.6172 72.0312H19.3665V56.6384C19.3665 55.1259 18.1514 53.8995 16.6529 53.8995C15.1543 53.8995 13.9393 55.1259 13.9393 56.6384V74.7701C13.9393 75.4963 14.2252 76.1933 14.734 76.7068C15.2427 77.2204 15.9333 77.5089 16.6529 77.5089Z" fill="#ECEDED"/>
<path d="M90.4389 18.9689H105.651V34.3616C105.651 35.8741 106.872 37.1005 108.378 37.1005C109.883 37.1005 111.104 35.8741 111.104 34.3616V16.23C111.104 15.5037 110.817 14.8067 110.306 14.2932C109.794 13.7797 109.101 13.4911 108.378 13.4911H90.4389C88.9333 13.4911 87.7125 14.7175 87.7125 16.23C87.7125 17.7425 88.9333 18.9689 90.4389 18.9689Z" fill="#ECEDED"/>
<path d="M108.378 53.8995C106.872 53.8995 105.651 55.1259 105.651 56.6384V72.0312H90.4389C88.9333 72.0312 87.7125 73.2576 87.7125 74.7701C87.7125 76.2825 88.9333 77.5089 90.4389 77.5089H108.378C109.101 77.5089 109.794 77.2204 110.306 76.7068C110.817 76.1933 111.104 75.4963 111.104 74.7701V56.6384C111.104 55.9121 110.817 55.2152 110.306 54.7016C109.794 54.1881 109.101 53.8995 108.378 53.8995Z" fill="#ECEDED"/>
<path d="M31.0335 56.7455V60.8136C31.0395 63.4519 32.0989 65.9782 33.9748 67.8339C35.8495 69.6893 38.3881 70.7198 41.0263 70.6982H84.1243C86.7434 70.691 89.2542 69.6472 91.1062 67.7954C92.9593 65.9435 94.0031 63.4327 94.0103 60.8136V56.7455C94.0006 50.0525 91.3202 43.6396 86.5654 38.9294C81.8107 34.2191 75.3737 31.6 68.6803 31.653C61.9872 31.7047 55.5921 34.4259 50.9119 39.2107C50.1604 39.1169 49.4052 39.0628 48.6488 39.0484C43.9723 39.0773 39.4954 40.9531 36.1956 44.2684C32.8958 47.5837 31.0396 52.0679 31.0335 56.7455ZM88.7325 60.8124L88.7313 60.8136C88.7325 62.0245 88.2431 63.1861 87.3761 64.0326C86.5091 64.8792 85.3378 65.3409 84.1256 65.3109H41.0275C39.8346 65.3109 38.6898 64.8371 37.8469 63.9942C37.0027 63.15 36.529 62.0064 36.529 60.8136V59.4403L88.7299 59.4391L88.7325 60.8124ZM78.9271 54.0519C78.1515 51.0974 76.1048 48.6407 73.3391 47.3457C70.5733 46.0494 67.3747 46.0494 64.609 47.3457C61.8432 48.6407 59.7965 51.0976 59.021 54.0519H57.0008C57.8197 50.3927 60.2655 47.3072 63.6422 45.6753C67.0189 44.0435 70.956 44.0435 74.3327 45.6753C77.7094 47.3071 80.1552 50.3927 80.9741 54.0519H78.9271ZM73.1359 54.0519H64.8122C65.7261 52.6402 67.2929 51.7876 68.9742 51.7876C70.6555 51.7876 72.222 52.6402 73.1359 54.0519ZM68.9871 37.0017C73.7516 37.0089 78.3536 38.7393 81.9418 41.8729C85.5312 45.0067 87.8665 49.3318 88.5158 54.0516H86.4414C85.667 48.3578 82.1701 43.3964 77.0692 40.7508C71.9682 38.1053 65.8991 38.1053 60.7981 40.7508C55.6959 43.3963 52.2001 48.3578 51.4246 54.0516H49.3503H49.3515C50.0032 49.3137 52.3541 44.9729 55.9652 41.8366C59.5774 38.7003 64.2048 36.9835 68.9871 37.0017ZM43.9906 54.0519H36.7443C37.2938 51.6277 38.5673 49.4282 40.395 47.7449C42.2227 46.0617 44.5195 44.9732 46.98 44.6244C45.3543 47.5308 44.3357 50.739 43.9906 54.0519Z" fill="#ECEDED"/>
<path d="M120.551 30.3333C124.921 30.3333 128.464 26.7905 128.464 22.4202C128.464 18.05 124.921 14.5072 120.551 14.5072C116.18 14.5072 112.638 18.05 112.638 22.4202C112.638 26.7905 116.18 30.3333 120.551 30.3333Z" fill="#80D3A7"/>
<path d="M4.49266 61.9855C6.67778 61.9855 8.44918 60.2141 8.44918 58.029C8.44918 55.8438 6.67778 54.0724 4.49266 54.0724C2.30753 54.0724 0.536133 55.8438 0.536133 58.029C0.536133 60.2141 2.30753 61.9855 4.49266 61.9855Z" fill="#80D3A7"/>
<path d="M17.6811 7.91304C19.8663 7.91304 21.6377 6.14164 21.6377 3.95652C21.6377 1.77139 19.8663 0 17.6811 0C15.496 0 13.7246 1.77139 13.7246 3.95652C13.7246 6.14164 15.496 7.91304 17.6811 7.91304Z" fill="#80D3A7"/>
<path d="M107.362 91C109.547 91 111.319 89.2286 111.319 87.0435C111.319 84.8584 109.547 83.087 107.362 83.087C105.177 83.087 103.406 84.8584 103.406 87.0435C103.406 89.2286 105.177 91 107.362 91Z" fill="#80D3A7"/>
</svg>
