<svg width="74" height="84" viewBox="0 0 74 84" fill="none" xmlns="http://www.w3.org/2000/svg">
<g clip-path="url(#clip0_1949_13621)">
<path d="M59.1806 23.2066C60.0491 23.1357 61.0298 22.9467 61.0298 22.9467C61.0298 22.9467 60.7403 24.4473 59.1747 24.5773C57.615 24.7131 57.1719 23.1889 57.1719 23.1889C57.1719 23.1889 58.3121 23.2893 59.1806 23.2066Z" fill="#D3D7DA"/>
<path d="M35.0992 24.1755C34.2249 24.2464 33.0846 24.1519 33.0846 24.1519C33.0846 24.1519 33.5277 25.6821 35.0933 25.5462C36.6531 25.4103 36.9366 23.9097 36.9366 23.9097C36.9366 23.9097 35.9677 24.0928 35.0992 24.1755ZM46.7203 25.3335C45.8518 25.3985 44.7116 25.304 44.7116 25.304C44.7116 25.304 45.1488 26.8401 46.7144 26.6924C48.28 26.5624 48.5695 25.0617 48.5695 25.0617C48.5695 25.0617 47.5888 25.2508 46.7203 25.3335ZM46.7203 25.3335C45.8518 25.3985 44.7116 25.304 44.7116 25.304C44.7116 25.304 45.1488 26.8401 46.7144 26.6924C48.28 26.5624 48.5695 25.0617 48.5695 25.0617C48.5695 25.0617 47.5888 25.2508 46.7203 25.3335ZM35.0992 24.1755C34.2249 24.2464 33.0846 24.1519 33.0846 24.1519C33.0846 24.1519 33.5277 25.6821 35.0933 25.5462C36.6531 25.4103 36.9366 23.9097 36.9366 23.9097C36.9366 23.9097 35.9677 24.0928 35.0992 24.1755ZM51.5885 4.2774C37.3384 3.04854 23.3719 7.13688 22.7988 23.0353C22.4089 33.9592 24.8548 40.7534 34.0417 42.7326C33.6222 43.926 32.5706 46.5137 30.7687 48.5992C28.8368 50.8325 28.0333 51.4055 28.9431 52.014C29.8529 52.6226 33.1969 52.2445 37.9764 49.6627C40.8773 48.097 44.1917 45.1076 46.3599 42.9984C47.8723 42.8448 49.4616 42.6381 51.1572 42.3663C74.6415 38.6442 73.07 25.7589 73.2118 21.3161C73.3535 16.8792 69.9151 5.84893 51.5885 4.2774ZM29.1676 19.5141C30.5146 14.1379 35.6014 13.8484 37.7165 15.479C39.8375 17.1096 40.121 19.136 40.121 19.136C40.121 19.136 39.8375 19.136 38.7799 18.8406C37.7165 18.557 37.622 19.4196 38.1064 20.5717C38.5909 21.7296 40.316 25.9539 34.4553 26.5328C32.0448 26.7692 27.8206 24.8963 29.1676 19.5141ZM31.8617 34.6032C31.8617 34.6032 30.8987 31.6905 31.4599 30.4026C32.0153 29.1265 32.736 27.9567 35.9146 27.7853C39.5657 27.5904 40.5523 33.8647 40.7059 36.2397C36.9544 35.9502 34.2603 35.4716 31.8617 34.6032ZM43.6245 36.5764L43.6068 36.5587C43.6068 36.5587 42.7206 32.9371 43.2759 31.6551C43.8313 30.373 44.558 29.1973 47.7306 29.0378C51.3876 28.8429 52.2974 34.3019 52.4392 36.671C48.9003 37.0314 45.9936 36.9959 43.6245 36.5764ZM46.7616 27.7263C44.298 27.6731 41.793 25.8239 41.8521 22.734C41.9112 19.6382 43.9553 18.0667 46.1118 17.8894C48.1441 17.7299 48.9712 16.5542 48.9712 16.5542C48.9712 16.5542 49.1839 17.1096 49.2607 17.8008C49.3198 18.3562 49.2016 18.8879 49.2016 18.8879C49.2016 18.8879 49.9992 18.7343 50.4837 18.1848C50.8913 17.7122 51.299 16.956 51.299 16.956C51.299 16.956 52.1734 18.2144 52.3506 19.6737C52.5042 20.9439 53.7154 27.874 46.7616 27.7263ZM56.309 36.2751C56.2085 35.5189 56.0727 34.4377 56.0727 34.4377C56.0727 34.4377 55.1805 30.8161 55.7359 29.54C56.2971 28.258 57.0238 27.0882 60.1964 26.9228C64.0425 26.7219 64.6333 31.3774 64.7101 33.5161C64.7397 33.6697 64.7633 33.7997 64.7751 33.9356C62.5714 34.9104 59.7947 35.7257 56.309 36.2751ZM65.5727 23.5729C63.9716 25.1149 61.8743 25.6644 59.2275 25.6112C57.3133 25.5639 54.7847 24.6777 54.2943 21.7296C53.804 18.7697 56.3917 15.7389 58.7962 15.8039C61.0117 15.8748 62.1224 17.659 63.3572 20.1227C64.5624 22.5449 66.9906 20.5539 66.9906 20.5539C66.9906 20.5539 66.902 22.3027 65.5727 23.5729ZM44.7116 25.304C44.7116 25.304 45.1488 26.8401 46.7144 26.6924C48.28 26.5624 48.5695 25.0617 48.5695 25.0617C48.5695 25.0617 47.5888 25.2508 46.7203 25.3335C45.8518 25.3985 44.7116 25.304 44.7116 25.304ZM35.0933 25.5462C36.6531 25.4103 36.9366 23.9097 36.9366 23.9097C36.9366 23.9097 35.9677 24.0928 35.0992 24.1755C34.2249 24.2464 33.0846 24.1519 33.0846 24.1519C33.0846 24.1519 33.5277 25.6821 35.0933 25.5462ZM46.7203 25.3335C45.8518 25.3985 44.7116 25.304 44.7116 25.304C44.7116 25.304 45.1488 26.8401 46.7144 26.6924C48.28 26.5624 48.5695 25.0617 48.5695 25.0617C48.5695 25.0617 47.5888 25.2508 46.7203 25.3335ZM46.7203 25.3335C45.8518 25.3985 44.7116 25.304 44.7116 25.304C44.7116 25.304 45.1488 26.8401 46.7144 26.6924C48.28 26.5624 48.5695 25.0617 48.5695 25.0617C48.5695 25.0617 47.5888 25.2508 46.7203 25.3335Z" fill="#D3D7DA"/>
<path d="M55.2634 52.9061C56.983 52.9061 58.3769 51.5121 58.3769 49.7926C58.3769 48.073 56.983 46.6791 55.2634 46.6791C53.5439 46.6791 52.1499 48.073 52.1499 49.7926C52.1499 51.5121 53.5439 52.9061 55.2634 52.9061Z" fill="#80D3A7"/>
<path d="M19.1243 15.544C19.7638 15.544 20.2822 15.0255 20.2822 14.386C20.2822 13.7465 19.7638 13.228 19.1243 13.228C18.4847 13.228 17.9663 13.7465 17.9663 14.386C17.9663 15.0255 18.4847 15.544 19.1243 15.544Z" fill="#80D3A7"/>
<path d="M66.8017 5.21086C68.2407 5.21086 69.4071 4.04437 69.4071 2.60543C69.4071 1.16649 68.2407 0 66.8017 0C65.3628 0 64.1963 1.16649 64.1963 2.60543C64.1963 4.04437 65.3628 5.21086 66.8017 5.21086Z" fill="#80D3A7"/>
<path d="M9.84273 60.7225C11.2817 60.7225 12.4482 59.556 12.4482 58.117C12.4482 56.6781 11.2817 55.5116 9.84273 55.5116C8.40379 55.5116 7.2373 56.6781 7.2373 58.117C7.2373 59.556 8.40379 60.7225 9.84273 60.7225Z" fill="#80D3A7"/>
<path fill-rule="evenodd" clip-rule="evenodd" d="M12.8439 71.2328C14.0491 73.9623 16.4241 76.2959 19.5258 77.9029H39.5421C42.6379 76.2959 45.013 73.9623 46.2241 71.2328H50.596C53.0951 71.2328 53.0951 66.3528 50.596 66.3528H8.47197C5.97289 66.3528 5.97289 71.2328 8.47197 71.2328H12.8439Z" fill="#D3D7DA"/>
<path fill-rule="evenodd" clip-rule="evenodd" d="M14.9175 64.6217H44.1385C40.5109 55.3107 18.545 55.3107 14.9175 64.6217Z" fill="#D3D7DA"/>
<path fill-rule="evenodd" clip-rule="evenodd" d="M0 78.7123H59.0564V83.74H0V78.7123Z" fill="#D3D7DA"/>
</g>
<defs>
<clipPath id="clip0_1949_13621">
<rect width="73.2178" height="83.74" fill="white"/>
</clipPath>
</defs>
</svg>
