<svg width="142" height="160" viewBox="0 0 142 160" fill="none" xmlns="http://www.w3.org/2000/svg">
<g clip-path="url(#clip0_1949_13901)">
<path opacity="0.35" d="M111.087 28.928C111.193 25.4042 109.97 19.4259 105.394 13.809C97.843 3.38825 83.7079 -0.286104 68.6215 0.0150725C53.535 -0.286104 39.3999 3.37319 31.8643 13.809C27.2885 19.4259 26.0502 25.4042 26.171 28.928C26.2012 29.8918 26.171 31.0965 26.2163 32.4668C25.6877 50.4019 29.8709 61.5906 45.1536 64.8734C44.4439 66.8763 42.677 71.2282 39.6416 74.7219C36.3947 78.4715 35.0507 79.4353 36.576 80.4593C38.1012 81.4833 43.719 80.8508 51.7832 76.5139C56.661 73.8786 62.2486 68.8791 65.8881 65.3252C66.7791 65.2348 67.7003 65.1144 68.6366 65.0089C69.5578 65.1294 70.4941 65.2348 71.3851 65.3252C75.0245 68.864 80.6121 73.8786 85.4899 76.5139C93.539 80.8508 99.1719 81.4833 100.697 80.4593C102.238 79.4353 100.894 78.4866 97.6316 74.7219C94.5962 71.2282 92.8293 66.8763 92.1195 64.8734C107.402 61.5906 111.585 50.4019 111.057 32.4668C111.087 31.0965 111.072 29.8918 111.102 28.928H111.087ZM54.1391 28.0546V51.3205C54.1391 52.1487 53.4595 52.8264 52.6289 52.8264C51.7983 52.8264 51.1188 52.1487 51.1188 51.3205V28.0546C49.3217 27.4372 48.038 25.7205 48.038 23.7327V14.4715C48.038 13.8993 48.5062 13.4475 49.0649 13.4475C49.6237 13.4475 50.0918 13.8993 50.0918 14.4715V20.1487H51.602V14.4715C51.602 13.8993 52.0551 13.4475 52.6289 13.4475C53.2028 13.4475 53.6558 13.8993 53.6558 14.4715V20.1487H55.166V14.4715C55.166 13.8993 55.619 13.4475 56.1929 13.4475C56.7667 13.4475 57.2198 13.8993 57.2198 14.4715V23.7327C57.2198 25.7355 55.9211 27.4372 54.1391 28.0546ZM84.1308 41.969V42.225C81.0803 46.8179 75.8551 49.8598 69.9353 49.8598C64.0155 49.8598 59.2887 47.104 56.1929 42.8875V29.1991C58.0806 27.9944 59.2736 25.9012 59.2736 23.5972V19.6819C62.1882 17.3327 65.9032 15.9323 69.9353 15.9323C75.1 15.9323 79.7362 18.2362 82.8622 21.8805L82.832 22.0612L81.7296 30.193C80.4913 24.832 75.6739 20.8264 69.9353 20.8264C63.2604 20.8264 57.8239 26.2475 57.8239 32.9035C57.8239 39.5595 63.2604 44.9807 69.9353 44.9807C76.6102 44.9807 81.9713 39.6348 82.0468 33.024C82.1827 33.265 82.3337 33.5059 82.53 33.7167C82.968 34.2137 83.5267 34.5751 84.1459 34.7859V41.9991L84.1308 41.969ZM79.9778 32.8885C79.9778 38.4151 75.4625 42.9177 69.9202 42.9177C64.3779 42.9177 59.8626 38.4151 59.8626 32.8885C59.8626 27.3619 64.3779 22.8593 69.9202 22.8593C75.4625 22.8593 79.9778 27.3619 79.9778 32.8885ZM87.6947 52.8113C86.8642 52.8113 86.1846 52.1337 86.1846 51.3054V32.8885H85.2483C84.7952 32.8885 84.3573 32.6927 84.0553 32.3464C83.7532 32 83.6173 31.5483 83.6777 31.0965L85.9883 13.9294C86.094 13.1464 86.7584 12.5591 87.5588 12.5591C88.4347 12.5591 89.1445 13.2668 89.1445 14.1403L89.1898 51.3205C89.1898 52.1487 88.5102 52.8264 87.6796 52.8264L87.6947 52.8113Z" fill="#CACBCC"/>
<path opacity="0.35" d="M130.176 113.95C124.618 119.266 117.37 121.178 108.233 120.983C101.603 120.817 92.8748 117.775 91.1683 107.595C89.4769 97.3854 98.4171 86.9647 106.738 87.1755C114.41 87.4014 118.245 93.5604 122.504 102.054C126.687 110.411 135.084 103.544 135.084 103.544C135.084 103.544 134.767 109.568 130.176 113.95Z" fill="#CACBCC"/>
<path d="M114.44 111.797C114.44 111.797 113.443 116.977 108.037 117.429C102.63 117.896 101.105 112.61 101.105 112.61C101.105 112.61 105.046 112.956 108.052 112.685C111.057 112.414 114.425 111.782 114.425 111.782L114.44 111.797Z" fill="#2CB56D"/>
<path opacity="0.35" d="M4.289 99.9605C8.94028 81.4231 26.5336 80.4292 33.8428 86.0461C41.167 91.6781 42.1637 98.6504 42.1637 98.6504C42.1637 98.6504 41.167 98.6504 37.5124 97.6414C33.8428 96.6475 33.5105 99.6292 35.1717 103.605C36.848 107.595 42.8282 122.172 22.5468 124.16C14.2107 124.988 -0.392483 118.528 4.2739 99.9605H4.289Z" fill="#CACBCC"/>
<path opacity="0.35" d="M13.5916 152.004C13.5916 152.004 10.2542 141.944 12.2023 137.502C14.1202 133.09 16.627 129.069 27.6059 128.482C40.2459 127.819 43.6588 149.444 44.1572 157.636C31.2 156.627 21.8824 154.985 13.5916 152.004Z" fill="#CACBCC"/>
<path opacity="0.35" d="M98.1299 157.771C97.7825 155.151 97.2993 151.432 97.2993 151.432C97.2993 151.432 94.2336 138.948 96.1515 134.536C98.0845 130.123 100.591 126.072 111.57 125.515C124.86 124.808 126.913 140.875 127.17 148.239C127.276 148.766 127.351 149.233 127.412 149.685C119.785 153.043 110.166 155.859 98.1147 157.756L98.1299 157.771Z" fill="#CACBCC"/>
<path d="M31.1394 115.125C31.1394 115.125 30.1729 120.305 24.7665 120.757C19.3602 121.208 17.8198 115.938 17.8198 115.938C17.8198 115.938 21.7764 116.284 24.7816 116.013C27.7869 115.742 31.1394 115.11 31.1394 115.11V115.125Z" fill="#2CB56D"/>
<path d="M134.042 142.547C138.437 142.547 142 138.994 142 134.611C142 130.228 138.437 126.675 134.042 126.675C129.646 126.675 126.083 130.228 126.083 134.611C126.083 138.994 129.646 142.547 134.042 142.547Z" fill="#80D3A7"/>
<path d="M21.3232 78.6823C24.1089 78.6823 26.3671 76.4305 26.3671 73.6527C26.3671 70.8749 24.1089 68.623 21.3232 68.623C18.5375 68.623 16.2793 70.8749 16.2793 73.6527C16.2793 76.4305 18.5375 78.6823 21.3232 78.6823Z" fill="#80D3A7"/>
<path d="M62.3693 59.4221C64.1792 59.4221 65.6464 57.9591 65.6464 56.1544C65.6464 54.3496 64.1792 52.8866 62.3693 52.8866C60.5595 52.8866 59.0923 54.3496 59.0923 56.1544C59.0923 57.9591 60.5595 59.4221 62.3693 59.4221Z" fill="#80D3A7"/>
<path d="M7.95852 160C12.3539 160 15.917 156.447 15.917 152.064C15.917 147.681 12.3539 144.128 7.95852 144.128C3.56315 144.128 0 147.681 0 152.064C0 156.447 3.56315 160 7.95852 160Z" fill="#80D3A7"/>
</g>
<defs>
<clipPath id="clip0_1949_13901">
<rect width="142" height="160" fill="white"/>
</clipPath>
</defs>
</svg>
