<svg width="172" height="172" viewBox="0 0 172 172" fill="none" xmlns="http://www.w3.org/2000/svg">
<path opacity="0.11" d="M85.79 171.58C133.171 171.58 171.58 133.171 171.58 85.79C171.58 38.4095 133.171 0 85.79 0C38.4095 0 0 38.4095 0 85.79C0 133.171 38.4095 171.58 85.79 171.58Z" fill="#CACBCC"/>
<path opacity="0.35" d="M85.7901 151.23C121.932 151.23 151.23 121.931 151.23 85.79C151.23 49.6485 121.932 20.35 85.7901 20.35C49.6486 20.35 20.3501 49.6485 20.3501 85.79C20.3501 121.931 49.6486 151.23 85.7901 151.23Z" fill="#CACBCC"/>
<path d="M85.7901 127.96C109.08 127.96 127.96 109.08 127.96 85.79C127.96 62.5001 109.08 43.62 85.7901 43.62C62.5003 43.62 43.6201 62.5001 43.6201 85.79C43.6201 109.08 62.5003 127.96 85.7901 127.96Z" fill="#D3D7DA"/>
<path d="M106.62 91.62C109.03 88.14 110.35 83.98 110.35 79.74C110.35 68.24 100.99 58.88 89.4899 58.88C82.0499 58.88 75.1099 62.96 71.3999 69.39L69.7199 68.91L69.5799 77.02C65.3599 80.59 62.6699 85.92 62.6699 91.88C62.6699 102.61 71.3999 111.33 82.1199 111.33C91.3299 111.33 99.0599 104.89 101.06 96.28L107.79 92.96L106.63 91.63L106.62 91.62ZM82.1099 109.55C72.3599 109.55 64.4299 101.62 64.4299 91.87C64.4299 82.12 72.3599 74.19 82.1099 74.19C91.8599 74.19 99.7899 82.12 99.7899 91.87C99.7899 101.62 91.8599 109.55 82.1099 109.55ZM82.1099 72.41C78.0299 72.41 74.2299 73.68 71.0999 75.84L74.4499 70.26L73.1599 69.89C76.6099 64.22 82.8199 60.64 89.4799 60.64C100.01 60.64 108.57 69.21 108.57 79.73C108.57 83.46 107.45 87.13 105.41 90.24L104.53 89.23L101.47 93.82C101.54 93.17 101.57 92.52 101.57 91.85C101.57 81.12 92.8399 72.4 82.1199 72.4L82.1099 72.41Z" fill="#2CB56D"/>
<path d="M89.26 82.7C88.8 82.7 88.18 82.83 87.32 83.12C87.02 83.22 86.81 83.48 86.79 83.8C86.67 85.26 85.88 87.18 84.45 89.53C82.47 92.76 81.67 92.85 81.63 92.85C81.6 92.84 80.88 92.55 79.59 88.8L79.41 88.3C79.32 88.03 79.2 87.65 79.06 87.18C78.32 84.69 77.82 83.17 77.53 82.54C77.02 81.43 76.33 81.19 75.85 81.19C75.18 81.19 74.48 81.44 73.69 81.94C73.47 82.08 73.34 82.32 73.33 82.58C73.32 82.84 73.45 83.09 73.66 83.24C73.74 83.29 74.16 83.66 74.76 85.49L75.11 86.57L72.89 95.13C72.46 96.8 72.25 97.96 72.25 98.65C72.25 99.44 72.73 100.28 74.08 100.28C74.58 100.28 75.23 100.15 76.06 99.89C76.35 99.8 76.56 99.55 76.6 99.26C76.64 98.96 76.51 98.67 76.26 98.5C76.04 98.36 75.96 98.2 75.96 97.94C75.96 97.5 76.04 96.86 76.2 96.04L76.97 92.19C77.33 93.07 77.71 93.83 78.13 94.47C79.06 95.89 80.07 96.61 81.14 96.61C82.43 96.61 83.77 95.66 85.23 93.71C85.67 93.12 86.08 92.49 86.47 91.82L86.09 95.4C85.98 96.41 85.93 97.27 85.93 97.97C85.93 100.72 87.02 101.3 87.93 101.3C88.6 101.3 89.34 101.01 90.19 100.42C90.41 100.27 90.53 100.02 90.52 99.76C90.52 99.5 90.37 99.26 90.15 99.12C89.93 98.99 89.7 98.42 89.7 97.23C89.7 96.81 89.72 96.37 89.77 95.93L90.48 89.21C90.54 88.61 90.65 87.79 90.8 86.78C91.02 85.23 91.04 84.81 91.04 84.61C91.04 83.44 90.35 82.72 89.25 82.72L89.26 82.7Z" fill="#2CB56D"/>
</svg>
