<svg xmlns="http://www.w3.org/2000/svg" xmlns:xlink="http://www.w3.org/1999/xlink" version="1.1" x="0px" y="0px" viewBox="0 0 100 125" style="enable-background:new 0 0 100 100;" xml:space="preserve"><path d="M84.96,34.26H48.44c-0.91,0-1.65-0.86-1.65-1.92c0-1.06,0.74-1.92,1.65-1.92h36.52c0.91,0,1.65,0.86,1.65,1.92  C86.61,33.4,85.87,34.26,84.96,34.26z"/><path d="M26.12,34.26H15.31c-1.06,0-1.92-0.86-1.92-1.92c0-1.06,0.86-1.92,1.92-1.92h10.81c1.06,0,1.92,0.86,1.92,1.92  C28.03,33.4,27.18,34.26,26.12,34.26z"/><path d="M84.69,51.92H72.48c-1.06,0-1.92-0.86-1.92-1.92s0.86-1.92,1.92-1.92h12.21c1.06,0,1.92,0.86,1.92,1.92  S85.75,51.92,84.69,51.92z"/><path d="M50.16,51.92H15.04c-0.91,0-1.64-0.86-1.64-1.92s0.74-1.92,1.64-1.92h35.13c0.91,0,1.64,0.86,1.64,1.92  S51.07,51.92,50.16,51.92z"/><path d="M84.96,69.57H48.44c-0.91,0-1.65-0.86-1.65-1.92c0-1.06,0.74-1.92,1.65-1.92h36.52c0.91,0,1.65,0.86,1.65,1.92  C86.61,68.71,85.87,69.57,84.96,69.57z"/><path d="M26.12,69.57H15.31c-1.06,0-1.92-0.86-1.92-1.92c0-1.06,0.86-1.92,1.92-1.92h10.81c1.06,0,1.92,0.86,1.92,1.92  C28.03,68.71,27.18,69.57,26.12,69.57z"/><path d="M34.22,42.36c-5.52,0-10.02-4.49-10.02-10.02c0-5.52,4.49-10.02,10.02-10.02s10.02,4.49,10.02,10.02  C44.23,37.87,39.74,42.36,34.22,42.36z M34.22,26.16c-3.41,0-6.18,2.77-6.18,6.18s2.77,6.18,6.18,6.18s6.18-2.77,6.18-6.18  S37.63,26.16,34.22,26.16z"/><path d="M64.38,60.02c-5.52,0-10.02-4.49-10.02-10.02c0-5.52,4.49-10.02,10.02-10.02S74.39,44.48,74.39,50  C74.39,55.52,69.9,60.02,64.38,60.02z M64.38,43.82c-3.41,0-6.18,2.77-6.18,6.18s2.77,6.18,6.18,6.18c3.41,0,6.18-2.77,6.18-6.18  S67.79,43.82,64.38,43.82z"/><path d="M34.22,77.67c-5.52,0-10.02-4.49-10.02-10.02s4.49-10.02,10.02-10.02s10.02,4.49,10.02,10.02S39.74,77.67,34.22,77.67z   M34.22,61.47c-3.41,0-6.18,2.77-6.18,6.18c0,3.41,2.77,6.18,6.18,6.18s6.18-2.77,6.18-6.18C40.4,64.25,37.63,61.47,34.22,61.47z"/></svg>