<svg xmlns="http://www.w3.org/2000/svg" version="1.1" xmlns:xlink="http://www.w3.org/1999/xlink" xmlns:svgjs="http://svgjs.com/svgjs" width="512" height="512" x="0" y="0" viewBox="0 0 512 512" stroke-width="15" style="enable-background:new 0 0 512 512" xml:space="preserve" class=""><g><path d="M498 165.4 346.7 14.2c-16-16-42.1-16-58.2 0l-256 256c-16 16-16 42.1 0 58.2l151.3 151.3c8 8 18.6 12 29.1 12s21.1-4 29.1-12l256-256c16-16.1 16-42.2 0-58.3zm-11.7 11.7c3.3 3.3 5.4 7.3 6.4 11.6l-175.3 18.7 7.5-187.5c3.7 1.1 7.2 3.1 10.1 6zM300.1 25.8c2.4-2.4 5.3-4.2 8.3-5.4L298 279.7 38.7 290.1c1.2-3 3-5.8 5.4-8.3zm-256 290.9c-2.9-2.9-4.9-6.4-6-10.1l187.7-7.5-18.3 175.5c-4.5-1-8.7-3.1-12.2-6.6zM230.3 468c-1.8 1.8-3.8 3.1-5.9 4.2l18.1-173.8 71.4-2.9 2.9-71.6L491 205.4c-1.2 2.4-2.6 4.6-4.6 6.6zM13.618 428.465 1.953 416.8l23.26-23.26 11.665 11.665zM42.652 457.446l40.723-40.723 11.665 11.665-40.723 40.724zM95.004 509.947 83.34 498.28l23.26-23.26 11.666 11.666z" fill="#000000" data-original="#000000"></path></g></svg>
