<svg xmlns="http://www.w3.org/2000/svg" xmlns:xlink="http://www.w3.org/1999/xlink" version="1.1" x="0px" y="0px" viewBox="0 0 100 125" style="enable-background:new 0 0 100 100;" xml:space="preserve"><path d="M61.6,23.2c-4.1,0-8.1,0.9-11.6,2.6c-3.5-1.7-7.4-2.6-11.6-2.6c-14.8,0-26.8,12-26.8,26.8s12,26.8,26.8,26.8  c4.1,0,8.1-0.9,11.6-2.6c3.5,1.7,7.4,2.6,11.6,2.6c14.8,0,26.8-12,26.8-26.8S76.4,23.2,61.6,23.2z M38.4,70c-11,0-20-9-20-20  c0-11,9-20,20-20c1.6,0,3.2,0.2,4.7,0.6C38,35.5,34.8,42.4,34.8,50c0,7.6,3.2,14.5,8.4,19.4C41.6,69.8,40,70,38.4,70z M61.6,70  c-1.6,0-3.2-0.2-4.7-0.6c5.1-4.9,8.4-11.8,8.4-19.4c0-7.6-3.2-14.5-8.4-19.4c1.5-0.4,3.1-0.6,4.7-0.6c11,0,20,9,20,20  C81.6,61,72.6,70,61.6,70z"/>


</svg>